<svg width="512" height="512" viewBox="0 0 512 512" fill="none" xmlns="http://www.w3.org/2000/svg">
<rect width="512" height="512" fill="#513FF8"/>
<path d="M347.45 376.231C346.992 376.231 346.534 376.202 346.077 376.173C325.71 375.19 317.901 369.782 314.954 365.415L328.328 354.002C331.015 351.789 331.316 351.332 331.316 351.332C331.345 351.332 334.949 353.732 347.135 354.311C348.622 354.369 349.052 353.964 349.395 353.646C354.687 348.469 354.372 328.891 354.258 322.443C354.258 321.199 354.229 320.1 354.229 319.204H375.912C375.912 320.013 375.912 320.997 375.94 322.095C376.141 334.502 376.512 357.607 364.47 369.377C359.864 373.889 354.029 376.231 347.45 376.231Z" fill="white"/>
<path d="M147.757 400C140.863 400 136.343 399.856 136 399.827L136.772 377.935C160.772 378.774 203.394 377.068 215.608 368.884C218.068 367.235 219.756 364.141 220.643 359.746C222.244 351.619 220.414 342.394 218.783 338.057C201.448 335.252 164.119 337.131 150.274 338.201L138.717 339.069L138.632 327.328C138.632 326.113 137.802 206.708 137.802 180.45C137.802 177.963 137.802 175.563 137.745 173.221C137.545 150.491 137.316 124.724 165.635 118.073C177.334 115.326 188.033 117.553 196.557 124.493C216.295 140.572 221.1 178.021 221.873 221.92C243.813 151.763 262.892 112 287.207 112C287.35 112 287.464 112 287.607 112C300.88 112.231 313.838 119.23 320.617 129.843C326.796 139.502 327.483 151.242 322.534 162.926C312.865 185.742 295.102 231.752 284.718 283.574C280.942 302.429 281.371 331.347 281.543 343.696C281.915 368.681 287.807 374.581 290.839 376.692C294.415 377.588 303.14 377.762 306.286 376.489C310.262 369.288 314.61 351.793 314.61 288.374H336.293C336.293 355.841 331.659 376.894 324.136 389.011C321.332 393.551 316.527 396.645 309.89 398.178C301.051 400.231 286.091 399.595 280.055 395.749C266.468 387.102 260.232 371.139 259.831 344.014C259.631 329.844 259.202 300.404 263.436 279.236C274.191 225.476 292.556 177.877 302.568 154.279C304.656 149.334 305.056 144.505 302.825 141.005C299.993 136.581 293.242 131.317 287.178 133.92C287.092 133.949 276.251 137.275 259.145 180.335C247.674 209.224 237.663 243.869 231.055 266.801C229.11 273.539 227.451 279.352 226.106 283.661C224.19 289.907 218.125 293.84 211.718 293.001C205.282 292.163 200.419 286.784 200.161 280.219C199.904 273.742 200.018 265.095 200.161 255.089C200.59 220.647 201.391 156.563 182.97 141.555C180.738 139.733 177.277 137.824 170.526 139.415C160.743 141.699 159.17 146.413 159.428 173.018C159.428 175.447 159.485 177.906 159.485 180.45C159.485 201.763 160.028 284.76 160.229 315.587C178.164 314.604 211.346 313.476 227.393 317.438C234.602 319.231 239.465 327.183 241.896 341.122C245.443 361.538 240.094 378.745 227.622 387.131C217.696 393.812 199.589 397.802 172.243 399.364C162.946 399.884 154.279 400 147.757 400Z" fill="white"/>
</svg>
