<svg width="680" height="782" viewBox="0 0 680 782" fill="none" xmlns="http://www.w3.org/2000/svg">
<g clip-path="url(#clip0_130_988)">
<path d="M70.0606 522.87L0 406.928H44.0558L89.4715 483.852L135.464 406.928H177.583L107.77 521.759V600.617H70.1018V522.87H70.0606Z" fill="white"/>
<path d="M162.046 558.554C162.046 530.073 181.993 512.91 227.161 508.177L261.491 504.308V501.262C261.491 483.811 248.756 473.604 230.211 473.604C211.665 473.604 199.467 483.564 197.53 500.727H162.087C165.961 468.624 193.367 445.123 230.211 445.123C269.816 445.123 298.087 466.689 298.087 505.46V600.658H261.532V580.45C254.32 593.991 236.063 602.881 215.292 602.881C182.322 602.881 162.128 585.43 162.128 558.595L162.046 558.554ZM221.598 574.605C245.13 574.605 261.491 558.554 261.491 531.431L227.697 535.011C208.039 537.234 198.89 545.26 198.89 557.154C198.89 567.403 208.039 574.605 221.598 574.605Z" fill="white"/>
<path d="M329.326 447.304H366.17V468.871C373.918 454.754 391.927 445.081 409.937 445.081C416.861 445.081 423.249 446.193 428.235 448.127V483.276C422.424 480.765 415.789 479.407 408 479.407C385.292 479.407 366.17 499.039 366.17 544.149V600.576H329.326V447.304Z" fill="white"/>
<path d="M638.87 376.43C638.211 376.43 637.593 376.43 636.933 376.389C607.59 374.99 596.298 367.252 592.053 361.037L617.811 343.339C616.616 341.611 615.627 340.952 615.627 340.911C615.668 340.911 620.902 344.327 638.417 345.15C640.56 345.232 641.178 344.656 641.673 344.203C649.297 336.836 648.844 308.931 648.679 299.753C648.679 297.983 648.638 296.419 648.638 295.143H679.918C679.918 296.296 679.918 297.695 679.959 299.259C680.247 316.957 680.783 349.883 663.433 366.635C656.798 373.055 648.349 376.389 638.912 376.389L638.87 376.43Z" fill="white"/>
<path d="M350.921 410.344C340.948 410.344 334.478 410.138 333.942 410.097L335.055 378.9C369.673 380.093 431.12 377.665 448.718 365.976C452.262 363.63 454.735 359.226 455.971 352.97C458.279 341.405 455.641 328.234 453.292 322.061C428.276 318.068 374.453 320.743 354.507 322.266L337.816 323.501L337.692 306.791C337.692 305.062 336.497 134.916 336.497 97.5031C336.497 93.9635 336.497 90.5474 336.415 87.1724C336.126 54.7812 335.796 18.0683 376.638 8.602C393.493 4.692 408.948 7.86116 421.229 17.7391C449.707 40.6228 456.63 94.0458 457.702 156.565C489.353 56.6333 516.882 0 551.954 0C552.16 0 552.325 0 552.531 0C571.653 0.329263 590.322 10.3306 600.131 25.4356C609.033 39.2235 610.022 55.9336 602.892 72.5614C588.962 105.076 563.329 170.599 548.369 244.478C542.929 271.354 543.547 312.553 543.794 330.127C544.33 365.729 552.819 374.125 557.229 377.171C562.381 378.447 574.992 378.694 579.525 376.883C585.253 366.593 591.518 341.693 591.518 251.351H622.798C622.798 347.455 616.08 377.459 605.282 394.745C601.244 401.207 594.32 405.611 584.759 407.792C572.024 410.715 550.47 409.85 541.733 404.335C522.158 392.029 513.173 369.269 512.596 330.621C512.308 310.454 511.69 268.473 517.789 238.304C533.285 161.709 559.784 93.8812 574.209 60.2552C577.217 53.2172 577.794 46.3026 574.579 41.3225C570.499 34.9842 560.773 27.5346 552.036 31.1977C551.913 31.2388 536.293 35.972 511.607 97.3384C495.04 138.496 480.616 187.886 471.096 220.565C468.293 230.155 465.903 238.428 463.966 244.601C461.205 253.533 452.468 259.089 443.195 257.895C433.922 256.702 426.916 249.005 426.546 239.704C426.175 230.443 426.339 218.137 426.546 203.896C427.164 154.836 428.318 63.5478 401.736 42.1457C398.521 39.5527 393.535 36.8363 383.809 39.1C369.673 42.3515 367.447 49.0602 367.777 86.9666C367.777 90.4239 367.859 93.9635 367.859 97.5854C367.859 127.919 368.642 246.207 368.931 290.122C394.771 288.723 442.659 287.117 465.779 292.797C476.165 295.349 483.212 306.667 486.674 326.506C491.784 355.604 484.078 380.093 466.109 392.07C451.809 401.578 425.68 407.257 386.281 409.48C372.887 410.221 360.441 410.427 351.045 410.427L350.921 410.344Z" fill="white"/>
<path d="M379.605 681.287V782H342.761V690.424C342.761 671.326 332.499 658.897 315.355 658.897C292.936 658.897 279.336 679.352 279.336 714.789V782.041H242.492V690.465C242.492 671.368 232.519 658.938 215.086 658.938C192.914 658.938 179.355 679.146 179.355 714.83V782.082H142.512V628.81H179.355V649.554C186.567 637.371 204.289 626.588 225.595 626.588C246.902 626.588 264.912 637.083 272.701 655.069C286.012 635.684 305.959 626.588 325.864 626.588C357.144 626.588 379.605 648.443 379.605 681.369V681.287Z" fill="white"/>
<path d="M429.43 570.037C441.876 570.037 451.026 578.886 451.026 590.78C451.026 602.675 441.876 611.524 429.43 611.524C416.984 611.524 407.835 602.675 407.835 590.78C407.835 578.886 416.984 570.037 429.43 570.037ZM411.173 628.728H447.729V782H411.173V628.728Z" fill="white"/>
<path d="M480.945 586.088H517.501V782H480.945V586.088Z" fill="white"/>
<path d="M550.759 586.088H587.314V782H550.759V586.088Z" fill="white"/>
<path d="M480.945 554.315V523.076C627.207 523.076 639.447 465.331 639.447 406.146H670.727C670.727 465.784 653.542 491.549 638.582 507.312C608.579 538.921 557.023 554.315 480.987 554.315H480.945Z" fill="white"/>
</g>
<defs>
<clipPath id="clip0_130_988">
<rect width="680" height="782" fill="white"/>
</clipPath>
</defs>
</svg>
