<svg width="630" height="279" viewBox="0 0 630 279" fill="none" xmlns="http://www.w3.org/2000/svg">
<path d="M276.427 90.7871L228.59 11.9612H258.66L289.66 64.2596L321.053 11.9612H349.801L302.161 90.0307V143.646H276.455V90.7871H276.427Z" fill="white"/>
<path d="M339.214 115.045C339.214 95.6611 352.841 84.0082 383.644 80.8148L407.098 78.1817V76.1088C407.098 64.2597 398.397 57.2846 385.727 57.2846C373.057 57.2846 364.751 64.0636 363.428 75.7166H339.214C341.861 53.8952 360.584 37.9004 385.727 37.9004C412.757 37.9004 432.044 52.5787 432.044 78.91V143.618H407.098V129.892C402.17 139.108 389.697 145.13 375.535 145.13C353.038 145.13 339.242 133.281 339.242 115.045H339.214ZM379.871 125.97C395.948 125.97 407.098 115.046 407.098 96.6137L384.038 99.0507C370.608 100.563 364.385 105.998 364.385 114.093C364.385 121.04 370.636 125.942 379.899 125.942L379.871 125.97Z" fill="white"/>
<path d="M453.414 39.441H478.557V54.1193C483.85 44.5112 496.154 37.9284 508.43 37.9284C513.16 37.9284 517.496 38.6847 520.903 40.0013V63.8955C516.933 62.2147 512.4 61.2623 507.107 61.2623C491.593 61.2623 478.557 74.6241 478.557 105.269V143.646H453.414V39.441Z" fill="white"/>
<path d="M487.736 198.493V266.955H462.593V204.684C462.593 191.714 455.61 183.227 443.869 183.227C428.552 183.227 419.289 197.149 419.289 221.239V266.955H394.146V204.684C394.146 191.714 387.332 183.227 375.422 183.227C360.303 183.227 351.039 196.953 351.039 221.239V266.955H325.896V162.75H351.039V176.868C355.967 168.604 368.045 161.265 382.602 161.265C397.159 161.265 409.463 168.409 414.756 180.65C423.822 167.484 437.449 161.265 451.049 161.265C472.419 161.265 487.736 176.14 487.736 198.521V198.493Z" fill="white"/>
<path d="M521.748 122.889C530.251 122.889 536.501 128.911 536.501 137.007C536.501 145.102 530.251 151.125 521.748 151.125C513.245 151.125 506.994 145.102 506.994 137.007C506.994 128.911 513.245 122.889 521.748 122.889ZM509.275 162.75H534.221V266.955H509.275V162.75Z" fill="white"/>
<path d="M556.914 133.786H581.86V266.983H556.914V133.786Z" fill="white"/>
<path d="M604.554 133.786H629.5V266.983H604.554V133.786Z" fill="white"/>
<path d="M208.627 255.89C208.177 255.89 207.755 255.89 207.304 255.862C187.257 254.91 179.571 249.671 176.671 245.441L194.268 233.424C193.452 232.248 192.776 231.8 192.776 231.8C192.804 231.8 196.352 234.125 208.346 234.685C209.81 234.741 210.232 234.349 210.57 234.041C215.779 229.027 215.469 210.062 215.357 203.816C215.357 202.611 215.329 201.547 215.329 200.678H236.671C236.671 201.463 236.671 202.415 236.699 203.479C236.896 215.497 237.262 237.878 225.408 249.279C220.875 253.649 215.131 255.918 208.656 255.918L208.627 255.89Z" fill="white"/>
<path d="M12.072 278.972C5.28648 278.972 0.837869 278.832 0.5 278.804L1.26021 257.599C24.8829 258.411 66.835 256.758 78.8575 248.831C81.2789 247.234 82.9401 244.237 83.8129 239.979C85.3897 232.108 83.5877 223.172 81.9828 218.97C64.9204 216.253 28.1771 218.074 14.5497 219.11L3.1748 219.951L3.09034 208.578C3.09034 207.401 2.27382 91.7395 2.27382 66.3046C2.27382 63.8956 2.27382 61.5706 2.2175 59.3016C2.02041 37.2841 1.79517 12.3254 29.6694 5.88263C41.1851 3.22149 51.7154 5.37833 60.1058 12.1012C79.5333 27.6759 84.2634 63.9515 85.0236 106.474C106.619 38.5166 125.399 0 149.331 0C149.472 0 149.585 0 149.726 0C162.79 0.224096 175.544 7.00313 182.217 17.2836C188.299 26.6396 188.975 38.0125 184.104 49.3293C174.587 71.4308 157.102 115.998 146.882 166.195C143.165 184.459 143.588 212.471 143.757 224.432C144.123 248.635 149.923 254.349 152.907 256.394C156.427 257.263 165.014 257.431 168.111 256.198C172.025 249.223 176.305 232.276 176.305 170.846H197.647C197.647 236.198 193.086 256.59 185.681 268.327C182.921 272.725 178.191 275.723 171.659 277.207C162.959 279.196 148.233 278.58 142.292 274.854C128.918 266.478 122.781 251.016 122.386 224.741C122.189 211.015 121.767 182.498 125.934 161.994C136.521 109.919 154.597 63.8114 164.451 40.9536C166.506 36.1635 166.901 31.4856 164.704 28.0962C161.917 23.8103 155.272 18.7121 149.303 21.2332C149.219 21.2612 138.548 24.4825 121.711 66.1925C110.42 94.1765 100.566 127.735 94.0616 149.949C92.147 156.475 90.514 162.106 89.1907 166.28C87.3043 172.33 81.3352 176.14 75.0283 175.327C68.6933 174.515 63.9068 169.305 63.6534 162.946C63.4 156.671 63.5126 148.296 63.6534 138.604C64.0757 105.241 64.8641 43.1666 46.7318 28.6284C44.5356 26.8636 41.1288 25.0149 34.484 26.5555C24.8548 28.7685 23.3062 33.3344 23.5596 59.1055C23.5596 61.4585 23.6159 63.8396 23.6159 66.3046C23.6159 86.9495 24.1509 167.344 24.3479 197.205C42.0016 196.252 74.6623 195.16 90.4577 198.998C97.5529 200.734 102.339 208.438 104.733 221.939C108.224 241.716 102.959 258.383 90.6829 266.507C80.9129 272.977 63.0903 276.843 36.1734 278.356C27.0227 278.86 18.5197 279 12.1002 279L12.072 278.972Z" fill="white"/>
</svg>
