<svg width="629" height="279" viewBox="0 0 629 279" fill="none" xmlns="http://www.w3.org/2000/svg">
<path d="M275.927 90.7871L228.09 11.9612H258.16L289.16 64.2596L320.553 11.9612H349.301L301.661 90.0307V143.646H275.955V90.7871H275.927Z" fill="#513FF8"/>
<path d="M338.714 115.045C338.714 95.6611 352.341 84.0082 383.144 80.8148L406.598 78.1817V76.1088C406.598 64.2597 397.897 57.2846 385.227 57.2846C372.557 57.2846 364.251 64.0636 362.928 75.7166H338.714C341.361 53.8952 360.084 37.9004 385.227 37.9004C412.257 37.9004 431.544 52.5787 431.544 78.91V143.618H406.598V129.892C401.67 139.108 389.197 145.13 375.035 145.13C352.538 145.13 338.742 133.281 338.742 115.045H338.714ZM379.371 125.97C395.448 125.97 406.598 115.046 406.598 96.6137L383.538 99.0507C370.108 100.563 363.885 105.998 363.885 114.093C363.885 121.04 370.136 125.942 379.399 125.942L379.371 125.97Z" fill="#513FF8"/>
<path d="M452.914 39.441H478.057V54.1193C483.35 44.5112 495.654 37.9284 507.93 37.9284C512.66 37.9284 516.996 38.6847 520.403 40.0013V63.8955C516.433 62.2147 511.9 61.2623 506.607 61.2623C491.093 61.2623 478.057 74.6241 478.057 105.269V143.646H452.914V39.441Z" fill="#513FF8"/>
<path d="M487.236 198.493V266.955H462.093V204.684C462.093 191.714 455.11 183.227 443.369 183.227C428.052 183.227 418.789 197.149 418.789 221.239V266.955H393.646V204.684C393.646 191.714 386.832 183.227 374.922 183.227C359.803 183.227 350.539 196.953 350.539 221.239V266.955H325.396V162.75H350.539V176.868C355.467 168.604 367.545 161.265 382.102 161.265C396.659 161.265 408.963 168.409 414.256 180.65C423.322 167.484 436.949 161.265 450.549 161.265C471.919 161.265 487.236 176.14 487.236 198.521V198.493Z" fill="#513FF8"/>
<path d="M521.248 122.889C529.751 122.889 536.001 128.911 536.001 137.007C536.001 145.102 529.751 151.125 521.248 151.125C512.745 151.125 506.494 145.102 506.494 137.007C506.494 128.911 512.745 122.889 521.248 122.889ZM508.775 162.75H533.721V266.955H508.775V162.75Z" fill="#513FF8"/>
<path d="M556.414 133.786H581.36V266.983H556.414V133.786Z" fill="#513FF8"/>
<path d="M604.054 133.786H629V266.983H604.054V133.786Z" fill="#513FF8"/>
<path d="M208.127 255.89C207.677 255.89 207.255 255.89 206.804 255.862C186.757 254.91 179.071 249.671 176.171 245.441L193.768 233.424C192.952 232.248 192.276 231.8 192.276 231.8C192.304 231.8 195.852 234.125 207.846 234.685C209.31 234.741 209.732 234.349 210.07 234.041C215.279 229.027 214.969 210.062 214.857 203.816C214.857 202.611 214.829 201.547 214.829 200.678H236.171C236.171 201.463 236.171 202.415 236.199 203.479C236.396 215.497 236.762 237.878 224.908 249.279C220.375 253.649 214.631 255.918 208.156 255.918L208.127 255.89Z" fill="#513FF8"/>
<path d="M11.6002 279C4.81464 279 0.337869 278.832 0 278.804L0.760207 257.599C24.3829 258.411 66.335 256.758 78.3575 248.831C80.7789 247.234 82.4401 244.237 83.3129 239.979C84.8897 232.108 83.0877 223.172 81.4828 218.97C64.4204 216.253 27.6771 218.074 14.0497 219.11L2.6748 219.951L2.59034 208.578C2.59034 207.401 1.77382 91.7395 1.77382 66.3046C1.77382 63.8956 1.77382 61.5706 1.7175 59.3016C1.52041 37.2841 1.29517 12.3254 29.1694 5.88263C40.6851 3.22149 51.2154 5.37833 59.6058 12.1012C79.0333 27.6759 83.7634 63.9515 84.5236 106.474C106.119 38.5166 124.899 0 148.831 0C148.972 0 149.085 0 149.226 0C162.29 0.224096 175.044 7.00313 181.717 17.2836C187.799 26.6396 188.475 38.0125 183.604 49.3293C174.087 71.4308 156.602 115.998 146.382 166.195C142.665 184.459 143.088 212.471 143.257 224.432C143.623 248.635 149.423 254.349 152.407 256.394C155.927 257.263 164.514 257.431 167.611 256.198C171.525 249.223 175.805 232.276 175.805 170.846H197.147C197.147 236.198 192.586 256.59 185.181 268.327C182.421 272.725 177.691 275.723 171.159 277.207C162.459 279.196 147.733 278.58 141.792 274.854C128.418 266.478 122.281 251.016 121.886 224.741C121.689 211.015 121.267 182.498 125.434 161.994C136.021 109.919 154.097 63.8114 163.951 40.9536C166.006 36.1635 166.401 31.4856 164.204 28.0962C161.417 23.8103 154.772 18.7121 148.803 21.2332C148.719 21.2612 138.048 24.4825 121.211 66.1925C109.92 94.1765 100.066 127.735 93.5616 149.949C91.647 156.475 90.014 162.106 88.6907 166.28C86.8043 172.33 80.8352 176.14 74.5283 175.327C68.1933 174.515 63.4068 169.305 63.1534 162.946C62.9 156.671 63.0126 148.296 63.1534 138.604C63.5757 105.241 64.3641 43.1666 46.2318 28.6284C44.0356 26.8636 40.6288 25.0149 33.984 26.5555C24.3548 28.7685 22.8062 33.3344 23.0596 59.1055C23.0596 61.4585 23.1159 63.8396 23.1159 66.3046C23.1159 86.9495 23.6509 167.344 23.8479 197.205C41.5016 196.252 74.1623 195.16 89.9577 198.998C97.0529 200.734 101.839 208.438 104.233 221.939C107.724 241.716 102.459 258.383 90.1829 266.507C80.4129 272.977 62.5903 276.843 35.6734 278.356C26.5227 278.86 18.0197 279 11.6002 279Z" fill="#513FF8"/>
</svg>
