<svg width="680" height="783" viewBox="0 0 680 783" fill="none" xmlns="http://www.w3.org/2000/svg">
<g clip-path="url(#clip0_130_80)">
<path d="M70.0606 523.37L0 407.428H44.0558L89.4715 484.352L135.464 407.428H177.583L107.77 522.259V601.117H70.1018V523.37H70.0606Z" fill="#513FF8"/>
<path d="M162.046 559.054C162.046 530.573 181.993 513.41 227.161 508.677L261.491 504.808V501.762C261.491 484.311 248.756 474.104 230.211 474.104C211.665 474.104 199.467 484.064 197.53 501.227H162.087C165.961 469.124 193.367 445.623 230.211 445.623C269.816 445.623 298.087 467.189 298.087 505.96V601.158H261.532V580.95C254.32 594.491 236.063 603.381 215.292 603.381C182.322 603.381 162.128 585.93 162.128 559.095L162.046 559.054ZM221.598 575.105C245.13 575.105 261.491 559.054 261.491 531.931L227.697 535.511C208.039 537.734 198.89 545.76 198.89 557.654C198.89 567.903 208.039 575.105 221.598 575.105Z" fill="#513FF8"/>
<path d="M329.326 447.804H366.17V469.371C373.918 455.254 391.927 445.581 409.937 445.581C416.861 445.581 423.249 446.693 428.235 448.627V483.776C422.424 481.265 415.789 479.907 408 479.907C385.292 479.907 366.17 499.539 366.17 544.649V601.076H329.326V447.804Z" fill="#513FF8"/>
<path d="M638.87 376.93C638.211 376.93 637.593 376.93 636.933 376.889C607.59 375.49 596.298 367.752 592.053 361.537L617.811 343.839C616.616 342.111 615.627 341.452 615.627 341.411C615.668 341.411 620.902 344.827 638.417 345.65C640.56 345.732 641.178 345.156 641.673 344.703C649.297 337.336 648.844 309.431 648.679 300.253C648.679 298.483 648.638 296.919 648.638 295.643H679.918C679.918 296.796 679.918 298.195 679.959 299.759C680.247 317.457 680.783 350.383 663.433 367.135C656.798 373.555 648.349 376.889 638.912 376.889L638.87 376.93Z" fill="#513FF8"/>
<path d="M350.921 410.844C340.948 410.844 334.478 410.638 333.942 410.597L335.055 379.4C369.673 380.593 431.12 378.165 448.718 366.476C452.262 364.13 454.735 359.726 455.971 353.47C458.279 341.905 455.641 328.734 453.292 322.561C428.276 318.568 374.453 321.243 354.507 322.766L337.816 324.001L337.692 307.291C337.692 305.562 336.497 135.416 336.497 98.0031C336.497 94.4635 336.497 91.0474 336.415 87.6724C336.126 55.2812 335.796 18.5683 376.638 9.102C393.493 5.192 408.948 8.36116 421.229 18.2391C449.707 41.1228 456.63 94.5458 457.702 157.065C489.353 57.1333 516.882 0.5 551.954 0.5C552.16 0.5 552.325 0.5 552.531 0.5C571.653 0.829263 590.322 10.8306 600.131 25.9356C609.033 39.7235 610.022 56.4336 602.892 73.0614C588.962 105.576 563.329 171.099 548.369 244.978C542.929 271.854 543.547 313.053 543.794 330.627C544.33 366.229 552.819 374.625 557.229 377.671C562.381 378.947 574.992 379.194 579.525 377.383C585.253 367.093 591.518 342.193 591.518 251.851H622.798C622.798 347.955 616.08 377.959 605.282 395.245C601.244 401.707 594.32 406.111 584.759 408.292C572.024 411.215 550.47 410.35 541.733 404.835C522.158 392.529 513.173 369.769 512.596 331.121C512.308 310.954 511.69 268.973 517.789 238.804C533.285 162.209 559.784 94.3812 574.209 60.7552C577.217 53.7172 577.794 46.8026 574.579 41.8225C570.499 35.4842 560.773 28.0346 552.036 31.6977C551.913 31.7388 536.293 36.472 511.607 97.8384C495.04 138.996 480.616 188.386 471.096 221.065C468.293 230.655 465.903 238.928 463.966 245.101C461.205 254.033 452.468 259.589 443.195 258.395C433.922 257.202 426.916 249.505 426.546 240.204C426.175 230.943 426.339 218.637 426.546 204.396C427.164 155.336 428.318 64.0478 401.736 42.6457C398.521 40.0527 393.535 37.3363 383.809 39.6C369.673 42.8515 367.447 49.5602 367.777 87.4666C367.777 90.9239 367.859 94.4635 367.859 98.0854C367.859 128.419 368.642 246.707 368.931 290.622C394.771 289.223 442.659 287.617 465.779 293.297C476.165 295.849 483.212 307.167 486.674 327.006C491.784 356.104 484.078 380.593 466.109 392.57C451.809 402.078 425.68 407.757 386.281 409.98C372.887 410.721 360.441 410.927 351.045 410.927L350.921 410.844Z" fill="#513FF8"/>
<path d="M379.605 681.787V782.5H342.761V690.924C342.761 671.826 332.499 659.397 315.355 659.397C292.936 659.397 279.336 679.852 279.336 715.289V782.541H242.492V690.965C242.492 671.868 232.519 659.438 215.086 659.438C192.914 659.438 179.355 679.646 179.355 715.33V782.582H142.512V629.31H179.355V650.054C186.567 637.871 204.289 627.088 225.595 627.088C246.902 627.088 264.912 637.583 272.701 655.569C286.012 636.184 305.959 627.088 325.864 627.088C357.144 627.088 379.605 648.943 379.605 681.869V681.787Z" fill="#513FF8"/>
<path d="M429.43 570.537C441.876 570.537 451.026 579.386 451.026 591.28C451.026 603.175 441.876 612.024 429.43 612.024C416.984 612.024 407.835 603.175 407.835 591.28C407.835 579.386 416.984 570.537 429.43 570.537ZM411.173 629.228H447.729V782.5H411.173V629.228Z" fill="#513FF8"/>
<path d="M480.945 586.588H517.501V782.5H480.945V586.588Z" fill="#513FF8"/>
<path d="M550.759 586.588H587.314V782.5H550.759V586.588Z" fill="#513FF8"/>
<path d="M480.945 554.815V523.576C627.207 523.576 639.447 465.831 639.447 406.646H670.727C670.727 466.284 653.542 492.049 638.582 507.812C608.579 539.421 557.023 554.815 480.987 554.815H480.945Z" fill="#513FF8"/>
</g>
<defs>
<clipPath id="clip0_130_80">
<rect width="680" height="782" fill="white" transform="translate(0 0.5)"/>
</clipPath>
</defs>
</svg>
