<svg width="156" height="110" viewBox="0 0 156 110" fill="none" xmlns="http://www.w3.org/2000/svg">
<path d="M37.301 65.8835C40.631 57.2435 44.741 48.9335 49.561 41.0235H46.971C49.451 46.2535 51.931 51.4835 54.411 56.7135C54.851 57.6435 56.101 57.5935 56.771 57.0135C59.381 54.7635 61.371 51.9335 63.151 49.0035C65.091 45.8135 66.941 42.5635 68.911 39.3835C73.001 32.7735 77.341 26.3235 81.911 20.0435H79.321C83.531 28.8235 87.321 37.8035 90.691 46.9435C91.131 48.1535 92.701 48.4335 93.431 47.3035C97.361 41.1535 101.301 35.0135 105.231 28.8635H102.641C105.581 34.3135 108.611 39.7035 111.741 45.0335C112.361 46.0835 113.681 45.9135 114.331 45.0335C123.411 32.8535 124.811 17.1735 131.341 3.76347L128.981 4.06348C136.921 10.7635 143.211 19.1635 147.421 28.6635C148.201 30.4235 150.791 28.9035 150.011 27.1535C145.711 17.4535 139.211 8.78348 131.101 1.94348C130.421 1.37348 129.201 1.31347 128.741 2.24347C122.221 15.6335 120.781 31.3635 111.731 43.5135H114.321C111.191 38.1735 108.151 32.7835 105.221 27.3435C104.661 26.3135 103.211 26.4335 102.631 27.3435C98.701 33.4935 94.761 39.6335 90.831 45.7835L93.571 46.1435C90.121 36.7535 86.231 27.5435 81.901 18.5235C81.371 17.4135 79.911 17.6935 79.311 18.5235C74.841 24.6835 70.581 30.9935 66.561 37.4635C64.621 40.5935 62.771 43.7835 60.881 46.9435C59.131 49.8635 57.231 52.6535 54.641 54.8935L57.001 55.1935C54.521 49.9635 52.041 44.7335 49.561 39.5035C49.061 38.4435 47.511 38.6135 46.971 39.5035C42.021 47.6335 37.831 56.1935 34.411 65.0735C33.721 66.8735 36.621 67.6535 37.301 65.8735V65.8835Z" fill="#9E93FB"/>
<path d="M45.1011 66.4834C46.1411 66.4834 47.1911 66.4834 48.2311 66.4834C48.6111 66.4834 49.0211 66.3134 49.2911 66.0434C49.5611 65.7734 49.7511 65.3534 49.7311 64.9834C49.6911 64.1734 49.0711 63.4834 48.2311 63.4834C47.1911 63.4834 46.1411 63.4834 45.1011 63.4834C44.7211 63.4834 44.3111 63.6534 44.0411 63.9234C43.7711 64.1934 43.5811 64.6134 43.6011 64.9834C43.6411 65.7934 44.2611 66.4834 45.1011 66.4834Z" fill="#9E93FB"/>
<path d="M55.361 66.0435C55.981 65.8535 56.611 65.7135 57.261 65.6235L56.861 65.6735C57.511 65.5935 58.151 65.6035 58.801 65.5735C59.771 65.5335 60.601 65.2135 61.151 64.3835C61.591 63.7335 61.301 62.6935 60.611 62.3335C59.861 61.9335 59.0211 62.1735 58.5611 62.8735L58.521 62.9235L58.7511 62.6235C58.7111 62.6735 58.671 62.7135 58.621 62.7635L58.921 62.5335C58.851 62.5835 58.791 62.6235 58.711 62.6635L59.071 62.5135C58.931 62.5735 58.7811 62.6035 58.6311 62.6235L59.0311 62.5735C58.3711 62.6435 57.7011 62.5935 57.0311 62.6735C56.1911 62.7735 55.361 62.9135 54.551 63.1635C53.801 63.3935 53.2511 64.2235 53.5011 65.0135C53.7511 65.8035 54.541 66.3035 55.351 66.0635L55.361 66.0435Z" fill="#9E93FB"/>
<path d="M65.611 64.5934C67.621 64.1034 69.581 63.3234 71.371 62.2934C72.051 61.9034 72.341 60.9234 71.911 60.2434C71.481 59.5634 70.591 59.2834 69.861 59.7034C69.441 59.9434 69.011 60.1734 68.571 60.3834C68.371 60.4834 68.161 60.5734 67.951 60.6734C67.891 60.7034 67.831 60.7234 67.771 60.7534C67.621 60.8134 67.651 60.8034 67.861 60.7134C67.861 60.7134 67.571 60.8334 67.541 60.8434C66.651 61.1934 65.741 61.4834 64.811 61.7034C64.051 61.8834 63.521 62.7934 63.761 63.5534C64.021 64.3434 64.791 64.7934 65.611 64.6034V64.5934Z" fill="#9E93FB"/>
<path d="M79.2709 59.3436C79.4609 59.1836 79.6609 59.0235 79.8509 58.8635C79.9109 58.8135 79.9709 58.7736 80.0209 58.7236C80.1809 58.5936 79.9709 58.7536 79.9309 58.7936C80.0309 58.7136 80.1409 58.6336 80.2509 58.5536C80.6709 58.2536 81.1109 57.9736 81.5709 57.7436C82.1209 57.4736 82.6109 57.2036 83.1009 56.8136C83.4909 56.4936 83.8309 56.1236 84.1709 55.7436C84.6909 55.1636 84.7909 54.1936 84.1709 53.6236C83.6009 53.0936 82.6109 53.0036 82.0509 53.6236C81.7209 53.9936 81.3809 54.3336 81.0109 54.6636C80.8709 54.7836 81.2709 54.4836 81.1109 54.5836C81.0509 54.6236 81.0009 54.6635 80.9409 54.7035C80.8409 54.7635 80.741 54.8236 80.631 54.8836C80.391 55.0136 80.1409 55.1136 79.9009 55.2436C78.9009 55.7636 78.0209 56.5135 77.1509 57.2335C76.8709 57.4635 76.7109 57.9436 76.7109 58.2936C76.7109 58.6636 76.8709 59.1036 77.1509 59.3536C77.4309 59.6036 77.8109 59.8136 78.2109 59.7936C78.6109 59.7736 78.9509 59.6236 79.2709 59.3536V59.3436Z" fill="#9E93FB"/>
<path d="M128.901 46.1935C129.041 45.1335 128.571 44.1036 128.431 43.0736L128.481 43.4735C128.411 42.8935 128.411 42.3135 128.481 41.7235C128.521 41.3735 128.281 40.9035 128.041 40.6635C127.781 40.4035 127.351 40.2035 126.981 40.2235C126.611 40.2435 126.191 40.3635 125.921 40.6635L125.691 40.9635C125.551 41.1935 125.491 41.4535 125.491 41.7235C125.401 42.4735 125.441 43.2035 125.551 43.9535C125.641 44.5935 125.861 45.2035 125.951 45.8435L125.901 45.4435C125.931 45.6935 125.941 45.9435 125.901 46.1935C125.851 46.5435 126.101 47.0135 126.341 47.2535C126.601 47.5135 127.031 47.7135 127.401 47.6935C127.771 47.6735 128.191 47.5535 128.461 47.2535L128.691 46.9535C128.831 46.7235 128.891 46.4635 128.891 46.1935H128.901Z" fill="#9E93FB"/>
<path d="M127.461 35.5235C126.971 33.8935 126.511 32.2535 126.091 30.6035C125.901 29.8435 125.011 29.3135 124.241 29.5535C123.471 29.7935 122.981 30.5835 123.191 31.4035C123.611 33.0535 124.071 34.6935 124.561 36.3235C124.791 37.0735 125.621 37.6235 126.411 37.3735C127.201 37.1235 127.701 36.3335 127.461 35.5235Z" fill="#9E93FB"/>
<path d="M121.141 19.4634C121.081 19.3334 121.021 19.1934 120.961 19.0534L121.111 19.4134C120.831 18.7534 120.611 18.0634 120.461 17.3634C120.291 16.5634 120.171 15.7234 119.511 15.1434C119.211 14.8834 118.861 14.7034 118.451 14.7034C118.081 14.7034 117.641 14.8634 117.391 15.1434C117.141 15.4234 116.931 15.8034 116.951 16.2034C116.971 16.6034 117.091 17.0034 117.391 17.2634C117.451 17.3134 117.501 17.3734 117.551 17.4334L117.321 17.1334C117.381 17.2134 117.421 17.2934 117.461 17.3934L117.311 17.0334C117.421 17.3034 117.461 17.5834 117.511 17.8734C117.571 18.1934 117.641 18.5034 117.731 18.8134C117.941 19.5534 118.221 20.2734 118.551 20.9734C118.701 21.2934 119.121 21.5734 119.451 21.6634C119.811 21.7634 120.291 21.7134 120.611 21.5134C120.931 21.3134 121.211 21.0034 121.301 20.6134C121.391 20.2034 121.331 19.8434 121.151 19.4534L121.141 19.4634Z" fill="#9E93FB"/>
<path d="M117.681 10.4534C117.501 9.97338 117.321 9.49338 117.241 8.98338L117.291 9.3834C117.211 8.7434 117.291 8.12338 117.141 7.48338C117.031 7.02338 116.811 6.60339 116.741 6.13339L116.791 6.5334C116.781 6.4134 116.771 6.29338 116.791 6.16338L116.741 6.56339C116.751 6.48339 116.771 6.41339 116.791 6.34339C117.011 5.59339 116.521 4.67339 115.741 4.49339C114.961 4.31339 114.131 4.73339 113.891 5.54339C113.721 6.13339 113.761 6.75338 113.941 7.33338C114.061 7.72338 114.221 8.0934 114.291 8.5034L114.241 8.1034C114.271 8.3434 114.261 8.5834 114.261 8.8234C114.261 9.1734 114.301 9.5134 114.361 9.8534C114.451 10.3334 114.621 10.7834 114.791 11.2334C114.931 11.6034 115.121 11.9234 115.481 12.1334C115.801 12.3234 116.281 12.4034 116.641 12.2834C117.351 12.0534 117.991 11.2234 117.691 10.4334L117.681 10.4534Z" fill="#9E93FB"/>
<path d="M109.061 4.72348C110.651 4.92348 112.321 4.73349 113.831 4.19349C114.531 3.93349 115.201 3.60348 115.931 3.43348C116.751 3.24348 117.521 3.09348 118.311 2.76348C119.031 2.45348 119.251 1.33348 118.851 0.713475C118.371 -0.0365247 117.571 -0.156518 116.801 0.173482C117.031 0.0734821 116.511 0.253478 116.461 0.263478C116.321 0.303478 116.171 0.333485 116.021 0.363485C115.681 0.433484 115.331 0.493476 114.991 0.573476C114.311 0.743476 113.691 1.06347 113.031 1.30347C112.691 1.42347 112.351 1.53348 112.001 1.61348C111.851 1.65348 111.701 1.68348 111.551 1.71348C111.451 1.73348 111.351 1.75348 111.251 1.76348C111.401 1.74348 111.381 1.74348 111.191 1.76348C110.471 1.82348 109.771 1.82348 109.051 1.73348C108.271 1.63348 107.521 2.49348 107.551 3.23348C107.591 4.12348 108.211 4.63348 109.051 4.73348L109.061 4.72348Z" fill="#9E93FB"/>
<path d="M98.1709 56.1834C99.1409 57.2234 100.451 57.7534 101.751 58.2434C102.031 58.3534 102.321 58.4634 102.601 58.5734C102.751 58.6334 102.711 58.6034 102.581 58.5734C102.661 58.5934 102.731 58.6434 102.811 58.6734C102.981 58.7534 103.151 58.8234 103.311 58.9134C103.961 59.2334 104.591 59.5834 105.191 59.9734C105.851 60.3934 106.871 60.1334 107.241 59.4334C107.631 58.6934 107.411 57.8334 106.701 57.3834C105.481 56.6034 104.181 55.9934 102.831 55.4734C102.571 55.3734 102.301 55.2734 102.041 55.1734C101.971 55.1434 101.911 55.1234 101.841 55.0934C101.651 55.0134 102.091 55.2034 101.911 55.1234C101.771 55.0534 101.621 54.9934 101.481 54.9234C101.231 54.8034 100.991 54.6634 100.761 54.5134C100.721 54.4834 100.481 54.3034 100.661 54.4534C100.831 54.5834 100.641 54.4334 100.611 54.4034C100.491 54.3034 100.381 54.1934 100.281 54.0734C99.7409 53.4934 98.6909 53.4934 98.1609 54.0734C97.5909 54.6934 97.5909 55.5834 98.1609 56.1934L98.1709 56.1834Z" fill="#9E93FB"/>
<path d="M103.551 52.4936C103.431 52.8636 103.301 53.2336 103.171 53.5936C103.131 53.7036 103.091 53.8036 103.051 53.9136C103.011 54.0236 102.981 54.0736 103.051 53.9336C102.971 54.1236 102.881 54.3036 102.781 54.4936C102.621 54.8036 102.441 55.0936 102.241 55.3836C102.141 55.5336 102.031 55.6736 101.931 55.8236C101.801 56.0036 102.081 55.6336 101.951 55.8036C101.891 55.8836 101.831 55.9636 101.761 56.0336C100.831 57.1736 99.8009 58.2736 99.1509 59.6136L101.511 59.3136C101.401 59.2136 101.301 59.1036 101.191 59.0036C100.631 58.4536 99.6209 58.4036 99.0709 59.0036C98.5209 59.6036 98.4709 60.5436 99.0709 61.1236C99.1809 61.2236 99.2809 61.3336 99.3909 61.4336C100.041 62.0636 101.311 62.0236 101.751 61.1336C101.911 60.8136 102.081 60.5036 102.281 60.2036C102.381 60.0536 102.481 59.9136 102.591 59.7636C102.641 59.7036 102.691 59.6336 102.731 59.5736C102.841 59.4336 102.571 59.7636 102.751 59.5436C103.201 58.9836 103.681 58.4436 104.121 57.8736C104.611 57.2436 105.091 56.6036 105.451 55.8836C105.871 55.0536 106.171 54.1636 106.471 53.2836C106.721 52.5336 106.181 51.6136 105.421 51.4336C104.591 51.2436 103.841 51.6836 103.571 52.4836L103.551 52.4936Z" fill="#9E93FB"/>
<path d="M32.561 73.7934C24.201 73.9134 15.841 74.0234 7.48096 74.1434C5.82096 74.1634 3.87096 73.9334 2.32096 74.6334C0.910959 75.2734 0.110961 76.6634 0.0109614 78.1834C-0.219039 81.6034 3.22095 84.2334 5.58095 86.1834C10.831 90.5334 16.981 93.7434 23.551 95.5734C26.831 96.4834 30.221 97.0534 33.621 97.2634C35.291 97.3634 36.961 97.3734 38.631 97.2934C40.061 97.2234 41.5609 97.0034 42.9809 97.2934C44.6509 97.6434 44.881 98.6534 44.741 100.253C44.591 101.973 44.451 103.743 45.021 105.403C46.021 108.313 49.371 110.533 52.301 108.723C54.881 107.123 54.741 103.933 55.501 101.373C55.731 100.603 56.641 98.4434 57.771 98.9134C58.681 99.2834 58.511 101.093 58.531 101.863C58.631 104.673 59.271 107.223 61.991 108.593C64.011 109.613 68.581 109.963 69.131 107.003C69.461 105.193 69.451 103.243 69.951 101.473C70.071 101.053 70.001 101.083 70.371 100.973C70.711 100.873 71.251 100.993 71.611 101.003C72.591 101.033 73.5709 101.053 74.5409 101.053C78.3709 101.053 82.201 100.773 85.991 100.263C93.591 99.2434 101.021 97.2334 108.091 94.2534C115.161 91.2734 121.571 87.0634 128.411 83.6034C130.101 82.7434 131.821 81.9534 133.581 81.2534L131.681 79.8034C131.381 82.2034 131.771 84.7834 133.361 86.6834C134.731 88.3234 136.971 89.0434 139.051 88.5734C139.991 88.3634 140.891 87.8734 141.531 87.1534C142.641 85.8934 142.091 84.9234 141.631 83.5034C140.951 81.4134 140.401 77.7334 143.271 77.0134L141.371 75.5634C141.401 78.2334 143.071 80.7334 145.661 81.5634C148.251 82.3934 151.021 81.2334 152.631 79.1034C152.931 78.7134 152.901 77.9834 152.631 77.5934C149.121 72.5234 149.401 65.2934 153.531 60.6434C154.811 59.2034 152.691 57.0734 151.411 58.5234C146.431 64.1234 145.741 72.8934 150.041 79.1034V77.5934C148.161 80.0834 144.411 78.4934 144.381 75.5634C144.371 74.5734 143.431 73.8734 142.481 74.1134C140.361 74.6534 138.861 76.4134 138.301 78.4834C137.611 81.0334 138.471 83.6334 139.361 86.0134L139.511 84.8534C138.781 86.0734 136.951 85.9034 135.981 85.0834C134.501 83.8334 134.471 81.5534 134.701 79.8034C134.821 78.8934 133.641 78.0234 132.801 78.3534C123.281 82.1234 114.991 88.3434 105.461 92.1134C95.931 95.8834 85.861 97.8934 75.681 98.0334C74.251 98.0534 72.821 98.0334 71.391 97.9834C70.1609 97.9434 68.901 97.9334 67.971 98.8734C67.121 99.7234 67.0209 100.923 66.8509 102.053C66.6309 103.583 66.411 105.123 66.181 106.653L66.871 105.753C65.651 106.583 64.081 106.493 62.881 105.623C61.521 104.623 61.591 103.063 61.531 101.533C61.471 100.003 61.361 98.2334 60.221 97.0234C59.081 95.8134 57.141 95.5034 55.651 96.3434C54.071 97.2334 53.0309 99.0334 52.5709 100.743C52.1409 102.323 52.231 104.253 51.251 105.643C50.041 107.353 48.201 105.693 47.801 104.223C47.201 102.033 48.261 99.7334 47.561 97.5734C46.321 93.7034 41.641 94.1634 38.441 94.3134C34.231 94.5034 30.011 94.0934 25.911 93.1034C21.811 92.1134 17.851 90.5634 14.1709 88.4934C10.4909 86.4234 6.74096 83.8434 4.01096 80.6134C3.42096 79.9134 2.62096 78.7434 3.15096 77.8034C3.68096 76.8634 5.40096 77.1934 6.26096 77.1834L14.861 77.0634C20.761 76.9834 26.661 76.8934 32.561 76.8134C34.491 76.7834 34.491 73.7834 32.561 73.8134V73.7934Z" fill="#9E93FB"/>
<path d="M7.52099 81.2434C9.45099 81.2434 9.45099 78.2434 7.52099 78.2434C5.59099 78.2434 5.59099 81.2434 7.52099 81.2434Z" fill="#9E93FB"/>
<path d="M26.6211 85.0534C26.9211 84.8234 27.2011 84.6034 27.4511 84.3234C27.6211 84.1334 27.7811 83.9234 27.9611 83.7434C28.0511 83.6534 28.1711 83.5634 28.2511 83.4634C28.2111 83.5134 27.9911 83.6334 28.1611 83.5434C28.1811 83.5334 28.4411 83.4034 28.2311 83.4934C28.0311 83.5734 28.2511 83.4934 28.3011 83.4834C28.3511 83.4734 28.5111 83.4034 28.5611 83.4334C28.5211 83.4134 28.2511 83.4534 28.4811 83.4534C28.5711 83.4534 28.6611 83.4534 28.7511 83.4434C28.8711 83.4434 29.7011 83.3934 29.7311 83.4734C29.7311 83.4434 29.4111 83.4134 29.7311 83.4834C29.8011 83.5034 29.8711 83.5134 29.9411 83.5434C29.9911 83.5534 30.1911 83.6434 29.9811 83.5434C29.7511 83.4434 30.0111 83.5634 30.0511 83.5934C30.0911 83.6234 30.1611 83.6834 30.2111 83.6934C30.1211 83.6634 29.9511 83.5234 30.1511 83.6734C30.2811 83.7634 30.0211 83.4434 30.0911 83.5834C30.1211 83.6434 30.1811 83.8134 30.1311 83.6234C30.0711 83.3934 30.1511 83.6834 30.1611 83.7334C30.1811 83.8034 30.1911 83.8634 30.2111 83.9334C30.2811 84.2134 30.1911 83.7034 30.2111 83.8934C30.2111 83.9834 30.2311 84.0634 30.2411 84.1534C30.3011 84.7634 30.6611 85.4834 31.3411 85.6034C31.4711 85.6234 31.6011 85.6434 31.7311 85.6734C32.1411 85.7434 32.5211 85.7434 32.8911 85.5234C33.2011 85.3434 33.5011 84.9834 33.5811 84.6234C33.7511 83.8934 33.3611 82.9234 32.5311 82.7734C32.4011 82.7534 32.2711 82.7334 32.1411 82.7034L33.2411 84.1534C33.1411 83.1234 32.9511 82.0834 32.1111 81.3834C31.2711 80.6834 30.2811 80.4534 29.2011 80.4334C28.2811 80.4134 27.2811 80.4934 26.5011 81.0534C26.1511 81.3134 25.8511 81.5934 25.5611 81.9234C25.4611 82.0434 25.3611 82.1534 25.2611 82.2734C25.2011 82.3434 25.1411 82.4034 25.0711 82.4734C25.0011 82.5434 24.7611 82.7334 25.1011 82.4734C24.7811 82.7234 24.5211 82.9634 24.4111 83.3734C24.3111 83.7334 24.3611 84.2134 24.5611 84.5334C24.9511 85.1434 25.9511 85.5834 26.6111 85.0734L26.6211 85.0534Z" fill="#9E93FB"/>
<path d="M67.5709 74.6135C77.9309 74.1135 88.2609 72.0735 98.5509 68.4735C108.841 64.8735 118.221 60.0435 126.691 53.9535C135.161 47.8735 143.011 40.4935 150.261 31.8235L156.001 48.2535C149.191 56.6735 141.471 64.0535 132.831 70.4035C124.191 76.7535 114.731 81.7335 104.441 85.3235C94.1509 88.9135 83.7909 90.8735 73.0709 91.2735C62.3509 91.6835 51.7209 90.7135 41.1509 88.3635L35.4109 71.9335C46.4809 74.2035 57.2009 75.1035 67.5609 74.6035L67.5709 74.6135Z" fill="#2F2E45"/>
</svg>
