<svg width="100" height="100" viewBox="0 0 100 100" fill="none" xmlns="http://www.w3.org/2000/svg">
<path d="M48.0602 77.44C48.0302 75.44 47.5602 70.41 43.8602 66.97C40.9802 64.29 39.4602 63.92 39.0802 63.86C38.4902 64.35 37.3801 66.76 38.1102 70.22L24.4101 73.12C22.3202 63.24 26.3302 53.86 33.9502 50.82C38.1402 49.15 44.9102 48.81 53.4102 56.73C61.0401 63.84 62.0001 73.44 62.0602 77.23L48.0602 77.44Z" fill="#2F2E45"/>
<path d="M88.2102 78.65L74.5702 75.5C75.0702 73.36 76.3202 65.8 71.7102 58.55C67.6102 52.11 61.3902 49.81 58.9102 49.12L62.6502 35.63C66.6902 36.75 76.8002 40.49 83.5102 51.02C90.8502 62.54 89.2402 74.18 88.2002 78.64L88.2102 78.65Z" fill="#2F2E45"/>
<path d="M39.3102 26.57C43.4502 25.16 48.1402 24.19 52.2802 26.11C56.1302 27.9 57.8302 31.67 58.0202 35.74C58.1802 39.09 57.8502 43.93 55.0002 46.21C51.6502 48.9 45.9902 46.73 42.7002 45.01C41.6802 44.47 40.7602 46.03 41.7902 46.56C45.0802 48.28 49.1802 49.71 52.9302 49.02C56.4702 48.38 58.4302 45.4 59.2202 42.1C60.8602 35.29 59.5102 26.98 52.2802 24.16C47.9002 22.45 43.1202 23.35 38.8102 24.82C37.7202 25.19 38.1902 26.93 39.2902 26.56L39.3102 26.57Z" fill="#9E93FB"/>
<path d="M10.1504 44.39C18.5104 50.85 30.0004 51.49 38.9504 45.81C39.9304 45.19 39.0204 43.63 38.0404 44.26C29.8304 49.47 19.1404 49.09 11.4204 43.12C10.5104 42.42 9.23036 43.69 10.1504 44.39Z" fill="#9E93FB"/>
<path d="M11.5899 43.44C11.9899 43.36 12.3699 43.4 12.7299 43.56C12.9899 43.66 13.2599 43.76 13.5199 43.86C14.0799 44.06 14.6399 44.26 15.2099 44.43C16.1999 44.73 17.2099 44.98 18.2299 45.17C20.4199 45.59 22.6599 45.78 24.8899 45.72C27.1199 45.66 29.1999 45.38 31.2999 44.88C32.9499 44.48 36.5099 42.58 37.5299 44.79C38.0199 45.84 39.5699 44.93 39.0799 43.88C37.8499 41.21 34.7299 42 32.5399 42.68C29.4099 43.64 26.1599 44.04 22.8899 43.92C19.6199 43.8 16.5899 43.08 13.5799 41.98C12.5099 41.59 11.1999 41.27 10.3199 42.24C9.63991 42.99 9.65991 43.99 10.3199 44.73C11.0899 45.6 12.3599 44.32 11.5899 43.46V43.44Z" fill="#9E93FB"/>
<path d="M36.5403 24.47C31.4603 23 24.7403 21.54 20.8503 26.31C16.9603 31.08 19.0803 37.27 17.4003 42.55C17.0503 43.66 18.7903 44.13 19.1403 43.03C20.6703 38.23 18.9803 32.5 21.7803 28.09C24.8803 23.2 31.5503 24.89 36.0703 26.2C37.1803 26.52 37.6603 24.79 36.5503 24.46L36.5403 24.47Z" fill="#9E93FB"/>
<path d="M15.4601 47.55C13.5601 50.3 11.3601 52.85 9.72006 55.77C8.95006 57.13 8.31006 58.59 7.92006 60.11C7.56006 61.52 7.13006 63.44 8.33006 64.57C9.43006 65.6 10.9301 64.99 11.7101 63.89C11.8301 63.71 11.8501 63.99 11.6401 63.81C11.6801 63.84 11.7801 64.06 11.7801 64.06C11.8501 64.31 12.0101 64.61 12.1401 64.83C12.4701 65.4 12.9901 65.81 13.6601 65.85C14.8701 65.91 16.1801 65.05 16.4701 63.86C16.8101 62.51 16.1401 61.09 16.4701 59.71C16.8001 58.33 17.6401 56.93 18.4201 55.72C19.4201 54.17 20.6801 52.84 22.0901 51.66C22.9801 50.92 21.7001 49.65 20.8201 50.39C18.8001 52.07 17.1801 54.09 15.9501 56.41C15.3701 57.51 14.8001 58.62 14.6301 59.87C14.5401 60.56 14.5501 61.24 14.6301 61.93C14.6801 62.37 14.9201 63.12 14.7101 63.55C14.5901 63.8 13.9701 64.18 13.7401 64.03C13.4501 63.84 13.2901 62.98 13.0301 62.67C12.2401 61.74 11.1101 61.98 10.3101 62.75C10.1901 62.87 9.95006 63.23 9.79006 63.28C9.48006 63.37 9.40006 62.98 9.36006 62.72C9.27006 62.05 9.50006 61.24 9.66006 60.59C10.0201 59.17 10.6201 57.83 11.3401 56.56C12.9801 53.69 15.1401 51.17 17.0101 48.46C17.6701 47.5 16.1101 46.6 15.4601 47.55Z" fill="#9E93FB"/>
<path d="M27.1902 34.87C28.0402 36.03 29.5202 36.65 30.9402 36.26C31.5702 36.09 32.1702 35.71 32.5902 35.21C33.0802 34.63 33.3502 33.98 33.4402 33.23C33.5002 32.76 32.9802 32.31 32.5402 32.33C32.0002 32.35 31.7002 32.73 31.6402 33.23C31.6702 32.98 31.6202 33.3 31.6002 33.37C31.5802 33.43 31.5602 33.49 31.5402 33.55C31.4902 33.71 31.6002 33.45 31.5402 33.55C31.4802 33.65 31.4402 33.74 31.3802 33.83C31.3602 33.87 31.3302 33.94 31.2902 33.96C31.3602 33.87 31.3702 33.85 31.3302 33.91C31.3102 33.94 31.2902 33.96 31.2702 33.98C31.2002 34.06 31.1202 34.14 31.0402 34.21C31.0202 34.23 30.8702 34.34 30.9802 34.26C31.0902 34.18 30.9402 34.29 30.9102 34.3C30.8202 34.36 30.7202 34.41 30.6302 34.46C30.4402 34.56 30.8102 34.41 30.6102 34.46C30.5602 34.48 30.5102 34.49 30.4602 34.51C30.4102 34.53 30.3502 34.54 30.3002 34.55C30.1302 34.59 30.4202 34.55 30.3102 34.55C30.2002 34.55 30.0902 34.56 29.9802 34.56C29.9402 34.56 29.8502 34.57 29.8202 34.55C29.9402 34.57 29.9602 34.57 29.9002 34.56C29.8702 34.56 29.8302 34.55 29.8002 34.54C29.6902 34.52 29.5802 34.49 29.4802 34.45C29.4502 34.45 29.2802 34.37 29.4002 34.42C29.5202 34.47 29.3502 34.4 29.3302 34.38C29.2302 34.33 29.1402 34.27 29.0502 34.21C28.8702 34.1 29.1802 34.33 29.0202 34.19C28.9802 34.15 28.9402 34.12 28.9002 34.08C28.8602 34.04 28.8202 34 28.7902 33.96C28.7602 33.92 28.6302 33.76 28.7702 33.94C28.4902 33.56 27.9802 33.33 27.5402 33.62C27.1702 33.86 26.9202 34.45 27.2202 34.85L27.1902 34.87Z" fill="#9E93FB"/>
<path d="M75.4203 41.5C80.1803 43.32 85.8003 42.54 89.8803 39.48C90.8003 38.79 89.9004 37.23 88.9704 37.93C85.2304 40.73 80.2604 41.44 75.9004 39.77C74.8204 39.36 74.3503 41.1 75.4203 41.51V41.5Z" fill="#9E93FB"/>
</svg>
