<svg width="100" height="100" viewBox="0 0 100 100" fill="none" xmlns="http://www.w3.org/2000/svg">
<path d="M59.4499 80.1C55.4499 80.1 51.5999 79.06 48.6099 76.88C44.4799 73.87 43.8399 71.14 40.2799 55.99L39.3399 52.01C38.6099 48.9 37.7199 45.13 37.0199 43.5C36.0499 43.62 34.2899 44.29 32.8899 45.36C29.7199 47.8 28.4399 53.1 29.6299 58.84L15.9199 61.68C13.6099 50.55 16.8399 40.05 24.3399 34.27C29.1499 30.56 37.1699 27.5 43.9299 31.07C49.4599 33.99 50.8499 39.88 52.9499 48.8L53.8899 52.79C55.4099 59.27 56.5499 64.11 57.1799 65.76C59.1299 66.64 64.1799 65.84 66.4799 63.27C67.5199 62.11 67.6299 60.77 67.6299 55.96C67.6299 52.08 67.6299 47.25 68.8499 41.03C70.2899 33.66 73.0299 26.53 76.9999 19.82L89.0499 26.95C85.8999 32.28 83.7299 37.92 82.5899 43.71C81.6299 48.6 81.6299 52.51 81.6299 55.96C81.6299 61.55 81.6299 67.33 76.9199 72.59C72.5799 77.45 65.8099 80.09 59.4299 80.09L59.4499 80.1Z" fill="#2F2E45"/>
<path d="M33.1602 54.15C33.1302 54.42 33.1502 54.25 33.1602 54.18C33.1702 54.13 33.1902 54.08 33.2002 54.03C33.2102 54 33.2202 53.96 33.2402 53.93L33.1902 54.05C33.1902 54.05 33.2402 53.95 33.2602 53.91C33.2902 53.86 33.3202 53.82 33.3402 53.77C33.4302 53.61 33.2002 53.92 33.3302 53.78C33.4002 53.7 33.4802 53.63 33.5502 53.55C33.6902 53.42 33.3802 53.66 33.5302 53.55C33.5702 53.52 33.6202 53.49 33.6602 53.46C33.7002 53.43 33.7502 53.41 33.8002 53.38C33.9602 53.29 33.6002 53.45 33.7802 53.38C33.8802 53.35 33.9802 53.32 34.0902 53.3C34.2702 53.26 33.8702 53.3 34.0602 53.3C34.1102 53.3 34.1702 53.3 34.2202 53.3H34.2702C34.3702 53.31 34.3402 53.3 34.1902 53.29C34.2302 53.31 34.3002 53.31 34.3502 53.32C34.4002 53.33 34.4502 53.35 34.5002 53.37C34.6602 53.42 34.3202 53.27 34.4802 53.37C34.5702 53.42 34.6602 53.47 34.7502 53.53C34.8902 53.62 34.6102 53.4 34.7402 53.53C34.7802 53.57 34.8202 53.6 34.8602 53.64C34.9002 53.68 34.9302 53.72 34.9702 53.76C35.0802 53.88 34.8702 53.59 34.9602 53.75C35.0102 53.83 35.0602 53.92 35.1102 54C35.1502 54.08 35.0302 53.79 35.1102 53.98C35.1302 54.03 35.1402 54.08 35.1602 54.13C35.1802 54.18 35.1802 54.23 35.1902 54.28C35.2002 54.35 35.1902 54.31 35.1702 54.17C35.1702 54.21 35.1702 54.24 35.1702 54.28C35.1902 54.75 35.5702 55.2 36.0702 55.18C36.5402 55.16 36.9902 54.78 36.9702 54.28C36.9102 52.82 35.7102 51.57 34.2302 51.52C33.5102 51.49 32.8202 51.81 32.2902 52.27C31.7602 52.73 31.4502 53.42 31.3702 54.14C31.3202 54.61 31.8202 55.06 32.2702 55.04C32.8002 55.02 33.1102 54.64 33.1702 54.14L33.1602 54.15Z" fill="#9E93FB"/>
<path d="M13.8599 50.11C13.3699 49.2 12.1999 48.71 11.2099 49.01C10.6699 49.17 10.2399 49.52 9.93989 49.98C9.67989 50.37 9.52987 50.91 9.57987 51.38C9.60987 51.63 9.65988 51.83 9.83988 52.02C9.99988 52.18 10.2499 52.29 10.4799 52.28C10.7099 52.27 10.9499 52.19 11.1199 52.02C11.2699 51.86 11.4099 51.61 11.3799 51.38C11.3699 51.27 11.3699 51.16 11.3799 51.05L11.3499 51.29C11.3699 51.16 11.3999 51.03 11.4499 50.91L11.3599 51.12C11.4099 51.01 11.4699 50.9 11.5399 50.81L11.3999 50.99C11.4699 50.89 11.5599 50.81 11.6499 50.73L11.4699 50.87C11.5699 50.8 11.6699 50.73 11.7799 50.69L11.5699 50.78C11.6699 50.74 11.7699 50.71 11.8799 50.7L11.6399 50.73C11.7599 50.72 11.8799 50.72 11.9899 50.73L11.7499 50.7C11.8799 50.72 12.0099 50.75 12.1299 50.8L11.9199 50.71C12.0399 50.76 12.1499 50.83 12.2599 50.91L12.0799 50.77C12.1699 50.84 12.2599 50.93 12.3299 51.02L12.1899 50.84C12.2299 50.9 12.2699 50.96 12.2999 51.02C12.5199 51.43 13.1299 51.6 13.5299 51.34C13.9499 51.07 14.0899 50.55 13.8499 50.11H13.8599Z" fill="#9E93FB"/>
<path d="M19.1902 63.18C19.6102 64.89 19.6402 66.91 18.9602 68.56C18.9402 68.62 18.8402 68.82 18.7502 68.94C18.8102 68.86 18.6902 69.01 18.6702 69.03C18.5902 69.11 18.5902 69.11 18.5502 69.13C18.4902 69.16 18.3402 69.19 18.1702 69.19C18.0402 69.19 17.9502 69.16 17.7502 69.1C17.2302 68.93 16.7702 68.44 16.6102 67.91C16.2702 66.8 14.5402 67.28 14.8702 68.39C15.2002 69.5 15.9903 70.33 17.0403 70.75C18.2303 71.24 19.5202 70.99 20.2802 69.9C20.9402 68.96 21.1202 67.64 21.2302 66.52C21.3502 65.25 21.2302 63.96 20.9302 62.72C20.6602 61.6 18.9202 62.07 19.1902 63.2V63.18Z" fill="#9E93FB"/>
<path d="M21.1698 69.65C22.1498 70.39 23.5898 70.43 24.6398 69.83C25.6898 69.23 26.3498 68.01 26.2498 66.82C26.2098 66.35 25.8599 65.9 25.3499 65.92C24.8999 65.94 24.4098 66.32 24.4498 66.82C24.4498 66.93 24.4598 67.04 24.4498 67.15C24.4498 67.19 24.4198 67.35 24.4498 67.19C24.4798 67.03 24.4498 67.19 24.4398 67.23C24.4198 67.34 24.3899 67.44 24.3499 67.55C24.3399 67.58 24.2998 67.74 24.3298 67.6C24.3598 67.46 24.3298 67.6 24.3098 67.64C24.2598 67.74 24.1998 67.83 24.1398 67.92C24.0498 68.05 24.2399 67.81 24.1599 67.89C24.1299 67.92 24.0999 67.96 24.0699 67.99C23.9999 68.07 23.8998 68.13 23.8298 68.21C23.8798 68.15 23.9698 68.1 23.8598 68.18C23.8098 68.21 23.7698 68.24 23.7198 68.27C23.6798 68.29 23.6399 68.31 23.5999 68.33C23.4299 68.42 23.7899 68.27 23.5999 68.33C23.4999 68.36 23.4098 68.39 23.2998 68.41C23.2598 68.41 23.1999 68.41 23.1599 68.44C23.2999 68.42 23.3298 68.42 23.2598 68.43C23.2298 68.43 23.1998 68.43 23.1798 68.43C23.0798 68.43 22.9698 68.43 22.8698 68.43C22.7198 68.43 22.8399 68.43 22.9099 68.44C22.8599 68.43 22.7998 68.42 22.7398 68.41C22.6398 68.39 22.5398 68.36 22.4398 68.33C22.2998 68.28 22.4198 68.3 22.4698 68.35C22.4298 68.32 22.3599 68.3 22.3199 68.27C22.2199 68.22 22.1299 68.15 22.0399 68.09C21.8699 67.96 21.5499 67.94 21.3499 68C21.1499 68.06 20.9098 68.22 20.8098 68.41C20.6998 68.62 20.6398 68.87 20.7198 69.1C20.7998 69.33 20.9399 69.49 21.1299 69.64L21.1698 69.65Z" fill="#9E93FB"/>
<path d="M19.4402 34.44C18.9902 32.45 17.2202 30.98 15.2202 30.74C14.1202 30.61 12.9202 30.96 12.2802 31.92C11.6802 32.83 11.7802 34.05 12.2702 34.98C12.8302 36.04 13.9302 36.68 14.9902 37.17C15.4202 37.37 15.9802 37.31 16.2202 36.85C16.4302 36.45 16.3502 35.83 15.9002 35.62C15.5302 35.45 15.1702 35.28 14.8302 35.06C14.7402 35.01 14.6602 34.95 14.5802 34.89C14.5402 34.87 14.5102 34.84 14.4802 34.82C14.6002 34.91 14.4802 34.82 14.4602 34.8C14.3102 34.67 14.1702 34.53 14.0402 34.39C13.9202 34.26 14.0002 34.34 14.0202 34.37C14.0002 34.34 13.9702 34.3 13.9502 34.27C13.9002 34.2 13.8602 34.12 13.8202 34.04C13.7502 33.88 13.8002 34.01 13.8202 34.04C13.8102 34 13.7902 33.97 13.7802 33.93C13.7502 33.83 13.7202 33.74 13.7002 33.64C13.7002 33.6 13.6902 33.57 13.6802 33.53C13.6802 33.57 13.6902 33.72 13.6802 33.55C13.6802 33.48 13.6802 33.4 13.6802 33.33C13.6802 33.28 13.6802 33.23 13.6802 33.18C13.6802 33.19 13.6502 33.34 13.6802 33.24C13.7102 33.14 13.7302 33.05 13.7602 32.96C13.7902 32.86 13.7502 33 13.7402 33.01C13.7602 32.97 13.7902 32.92 13.8102 32.88C13.8802 32.74 13.7302 32.94 13.8502 32.83C13.8902 32.79 13.9302 32.76 13.9602 32.72C13.9502 32.73 13.8502 32.79 13.9402 32.74C13.9902 32.71 14.0302 32.68 14.0802 32.66C14.1002 32.66 14.2402 32.58 14.1602 32.62C14.0602 32.66 14.2202 32.6 14.2402 32.59C14.2802 32.58 14.3202 32.57 14.3602 32.56C14.4002 32.55 14.4402 32.54 14.4802 32.53C14.5102 32.53 14.6802 32.5 14.5602 32.51C14.4602 32.51 14.5902 32.51 14.6102 32.51C14.6702 32.51 14.7202 32.51 14.7802 32.51C14.8702 32.51 14.9702 32.51 15.0602 32.51C15.0902 32.51 15.2502 32.52 15.1302 32.51C15.0202 32.51 15.1402 32.51 15.1602 32.51C15.2502 32.53 15.3302 32.54 15.4202 32.56C15.6002 32.61 15.7902 32.66 15.9602 32.74C15.8102 32.68 15.9602 32.74 16.0202 32.78C16.1002 32.82 16.1802 32.86 16.2502 32.91C16.3202 32.96 16.4002 33 16.4802 33.05C16.5102 33.07 16.5402 33.1 16.5702 33.12C16.6602 33.17 16.4702 33.03 16.6002 33.14C16.7602 33.27 16.9102 33.41 17.0402 33.56C17.0802 33.6 17.2502 33.82 17.1402 33.67C17.1902 33.74 17.2402 33.81 17.2902 33.89C17.3502 33.98 17.4002 34.06 17.4502 34.15C17.4702 34.19 17.5002 34.24 17.5202 34.29C17.5202 34.31 17.6002 34.45 17.5502 34.36C17.5002 34.26 17.5702 34.4 17.5802 34.43C17.6002 34.48 17.6102 34.53 17.6302 34.57C17.6702 34.68 17.6902 34.79 17.7202 34.9C17.8202 35.36 18.3802 35.67 18.8302 35.53C19.3102 35.37 19.5702 34.92 19.4602 34.42L19.4402 34.44Z" fill="#9E93FB"/>
<path d="M32.5602 29.13C32.6102 28.94 32.6802 28.75 32.7402 28.57C32.8302 28.31 32.6702 28.72 32.7802 28.47C32.8202 28.38 32.8602 28.29 32.9102 28.2C32.9902 28.04 33.0802 27.88 33.1802 27.72C33.2302 27.65 33.2702 27.58 33.3202 27.51C33.3502 27.46 33.3902 27.42 33.4202 27.37C33.3602 27.44 33.3702 27.43 33.4302 27.35C33.6602 27.07 33.9202 26.8 34.2002 26.56C34.2302 26.54 34.4202 26.39 34.2802 26.49C34.3502 26.44 34.4302 26.38 34.5002 26.33C34.6002 26.26 34.7102 26.2 34.8102 26.14C34.8402 26.13 35.0702 26.02 34.9202 26.08C35.0002 26.05 35.0902 26.02 35.1702 26C35.2302 25.98 35.2802 25.97 35.3402 25.96C35.2602 25.96 35.2502 25.96 35.3202 25.96C35.4202 25.96 35.5202 25.95 35.6302 25.96C35.4602 25.94 35.7102 25.99 35.7202 26C35.9002 26.05 35.6502 25.93 35.7802 26.03C35.8202 26.06 35.8702 26.08 35.9102 26.11C35.8302 26.05 35.8302 26.05 35.9102 26.11C35.9402 26.14 36.0802 26.31 35.9702 26.16C36.0202 26.22 36.0502 26.29 36.0902 26.36C36.1402 26.45 36.1402 26.45 36.0902 26.36C36.1002 26.4 36.1102 26.43 36.1202 26.47C36.1302 26.51 36.1402 26.54 36.1502 26.58C36.1402 26.47 36.1302 26.46 36.1502 26.57C36.1502 26.62 36.1102 26.83 36.1502 26.63C36.1302 26.7 36.1102 26.78 36.0902 26.85C36.0502 26.95 36.0602 26.95 36.0902 26.85C36.0702 26.9 36.0402 26.94 36.0102 26.98C35.9302 27.13 36.1002 26.91 35.9702 27.04C35.9502 27.06 35.7702 27.22 35.9202 27.1C35.8402 27.16 35.7502 27.21 35.6602 27.25C35.2302 27.45 35.0902 28.1 35.3402 28.48C35.6202 28.92 36.1202 29.02 36.5702 28.8C37.3802 28.41 37.8902 27.55 37.9402 26.67C37.9902 25.79 37.4502 24.9 36.6902 24.46C35.0202 23.51 33.1202 24.82 32.0902 26.12C31.5002 26.87 31.0602 27.7 30.8002 28.62C30.6702 29.07 30.9602 29.62 31.4302 29.73C31.9002 29.84 32.4002 29.59 32.5402 29.1L32.5602 29.13Z" fill="#9E93FB"/>
<path d="M57.6102 54.86C58.2802 54.12 59.1302 53.62 60.1402 53.5C60.7802 53.42 61.4302 53.48 62.0702 53.5C62.7502 53.52 63.4202 53.5 64.0902 53.35C64.5702 53.25 64.8402 52.69 64.7202 52.24C64.5802 51.75 64.0902 51.51 63.6102 51.61C62.9802 51.74 62.3202 51.7 61.6802 51.68C60.9602 51.65 60.2502 51.65 59.5402 51.78C58.3202 51.99 57.1602 52.67 56.3402 53.59C56.0202 53.95 55.9802 54.51 56.3402 54.86C56.6702 55.19 57.2902 55.22 57.6102 54.86Z" fill="#9E93FB"/>
<path d="M10.6599 39.41C5.88987 45.05 4.95986 53.03 7.11986 59.96C7.75986 62.02 8.65985 64 9.63985 65.92C10.6198 67.84 11.5499 69.8 12.7799 71.53C15.1099 74.81 19.1899 75.29 22.9399 75.37C27.2499 75.46 31.7199 74.19 34.1899 70.42C34.8299 69.45 33.2698 68.55 32.6398 69.51C29.9498 73.61 24.5899 73.89 20.1799 73.37C17.8299 73.1 15.6199 72.51 14.2199 70.46C12.9699 68.64 11.9699 66.57 10.9899 64.6C8.99986 60.62 7.68986 56.44 7.83986 51.95C7.96986 47.87 9.28985 43.83 11.9498 40.69C12.6898 39.81 11.4299 38.53 10.6799 39.42L10.6599 39.41Z" fill="#9E93FB"/>
<path d="M40.6298 71.21C38.3398 72.78 36.6598 75.18 36.0398 77.9C35.7498 79.15 35.3798 81.08 36.3398 82.14C36.8698 82.72 37.6998 82.88 38.4398 82.68C39.1798 82.48 39.7198 81.94 40.1798 81.37C41.3898 79.86 42.5598 78.32 43.7598 76.79C44.0798 76.38 44.1598 75.65 43.5798 75.38C43.1398 75.17 42.7998 75.14 42.3198 75.21C41.8398 75.28 41.5698 75.89 41.6898 76.32C41.8298 76.84 42.3098 77.02 42.7998 76.95H42.6698C42.6098 76.47 42.5498 76 42.4898 75.53C41.3698 76.96 40.2498 78.4 39.1298 79.83C38.8898 80.14 38.2598 81.18 37.7198 80.97C37.6398 80.94 37.7598 81.02 37.6898 80.94C37.6098 80.85 37.5998 80.68 37.5898 80.56C37.5498 80.22 37.5898 79.86 37.6098 79.53C37.8298 76.86 39.3498 74.28 41.5498 72.77C41.9498 72.5 42.1298 71.98 41.8698 71.54C41.6398 71.14 41.0398 70.94 40.6398 71.22L40.6298 71.21Z" fill="#9E93FB"/>
<path d="M26.1999 77.65C26.2199 77.82 26.23 77.99 26.22 78.16C26.22 78.25 26.1999 78.34 26.1999 78.44C26.1999 78.55 26.1999 78.37 26.1999 78.37C26.2099 78.39 26.1799 78.51 26.1699 78.54C26.0999 78.95 26.02 79.36 25.97 79.78C25.87 80.65 26.1 81.55 26.82 82.1C27.48 82.61 28.39 82.75 29.19 82.49C30.04 82.22 30.69 81.58 31.16 80.84C31.68 80.04 31.9399 79.1 32.4299 78.29C32.6699 77.89 32.5299 77.28 32.1099 77.06C31.6899 76.84 31.14 76.95 30.88 77.38C30.48 78.04 30.2399 78.76 29.8899 79.44C29.8199 79.58 29.7499 79.71 29.6699 79.84C29.6299 79.9 29.5899 79.96 29.5499 80.02C29.5099 80.08 29.3599 80.27 29.4799 80.12C29.3799 80.24 29.2799 80.35 29.1699 80.45C29.1499 80.47 28.9899 80.61 29.0799 80.54C29.1699 80.46 29.06 80.56 29.03 80.57C28.99 80.6 28.95 80.62 28.91 80.64C28.86 80.67 28.7299 80.71 28.6999 80.75C28.6999 80.75 28.8699 80.69 28.7699 80.72C28.7399 80.72 28.7099 80.74 28.6799 80.75C28.6099 80.77 28.54 80.78 28.47 80.8C28.37 80.82 28.5499 80.79 28.5599 80.8C28.5299 80.8 28.47 80.8 28.44 80.8C28.37 80.8 28.2999 80.8 28.2299 80.8C28.1299 80.8 28.32 80.8 28.32 80.82C28.32 80.82 28.2399 80.8 28.2299 80.8C28.1599 80.78 28.1 80.76 28.03 80.74C27.94 80.71 28.01 80.7 28.03 80.74C28.09 80.77 28.0999 80.77 28.0599 80.74C28.0299 80.73 28.0099 80.71 27.9799 80.7C27.9599 80.69 27.93 80.66 27.91 80.65C27.82 80.61 27.9899 80.69 27.9799 80.7C27.9699 80.7 27.7899 80.49 27.8899 80.61C27.9699 80.71 27.8499 80.54 27.8399 80.51C27.8299 80.49 27.8099 80.44 27.7999 80.43C27.8399 80.54 27.8599 80.56 27.8299 80.5C27.8299 80.48 27.8199 80.46 27.8099 80.44C27.8099 80.41 27.8 80.38 27.79 80.35C27.74 80.26 27.78 80.3 27.79 80.35C27.84 80.45 27.79 80.37 27.79 80.31C27.79 80.28 27.79 80.25 27.79 80.21C27.79 80.14 27.8499 79.79 27.8099 79.75C27.8099 79.75 27.7799 79.93 27.8099 79.82C27.8099 79.76 27.8299 79.71 27.8399 79.65C27.8499 79.57 27.87 79.49 27.88 79.41C27.91 79.24 27.94 79.06 27.97 78.89C28.04 78.47 28.09 78.05 28.04 77.62C28.01 77.37 27.96 77.17 27.78 76.98C27.62 76.82 27.3699 76.71 27.1399 76.72C26.6999 76.74 26.1799 77.12 26.2399 77.62L26.1999 77.65Z" fill="#9E93FB"/>
<path d="M72.16 78.12C72.43 78.59 72.69 79.07 72.94 79.56C72.95 79.59 73.0699 79.85 73.0899 79.85L73.2099 79.53L73.1399 79.57C72.8999 79.59 72.4799 79.9 72.2699 80.01C71.2399 80.53 70.16 81 69.16 81.57C68.27 82.08 67.5999 83.23 68.4899 84.09C69.1999 84.79 70.5599 84.99 71.4999 85.1C73.7499 85.38 76.04 84.83 78.16 84.08C79.91 83.46 82.1399 82.66 82.3999 80.53C82.7199 77.91 80.09 76.36 78.29 75.03C77.9 74.74 77.2899 74.97 77.0599 75.35C76.7899 75.8 76.99 76.29 77.38 76.58C78.51 77.41 80.62 78.51 80.63 80.13C80.63 81.63 78.1399 82.19 77.0499 82.55C75.3199 83.12 73.4599 83.54 71.6199 83.31C71.1999 83.26 70.7899 83.16 70.3899 83.03C70.2599 82.99 69.9299 82.79 69.8099 82.81L69.7299 82.77L69.88 83.23C69.88 83.23 70.1099 83.09 70.1399 83.07C70.9899 82.6 71.8899 82.2 72.7599 81.76C73.5499 81.36 74.7099 81.02 74.8699 80.02C75.0199 79.1 74.15 77.96 73.72 77.2C73.14 76.2 71.5899 77.1 72.1699 78.11L72.16 78.12Z" fill="#9E93FB"/>
<path d="M59.1301 80.67C58.8801 81.22 58.5301 81.7 58.0401 82.06C57.4701 82.47 56.8301 82.56 56.1901 82.79C55.4601 83.05 54.8501 83.48 54.5601 84.22C54.2701 84.96 54.4101 85.72 55.0101 86.22C55.6401 86.75 56.6201 86.79 57.4001 86.89C58.1801 86.99 59.0301 87.04 59.8501 87.01C61.4801 86.96 63.1701 86.69 64.7001 86.12C65.6201 85.78 66.2401 85.18 66.3801 84.18C66.5201 83.18 66.3801 82.22 66.1001 81.3C65.7701 80.19 64.0301 80.66 64.3601 81.78C64.4801 82.18 64.5801 82.59 64.6101 83.01C64.6301 83.31 64.7101 83.83 64.5701 84.13C64.4501 84.37 64.1401 84.42 63.9101 84.5C63.5601 84.61 63.2101 84.71 62.8601 84.8C61.2601 85.2 59.5901 85.31 57.9501 85.15C57.5801 85.11 57.2101 85.06 56.8401 84.99C56.6501 84.95 56.4401 84.88 56.2501 84.86C56.0601 84.84 56.2501 84.8 56.2201 84.93C56.3201 84.45 57.1801 84.38 57.5401 84.27C58.9201 83.86 60.1001 82.9 60.7001 81.58C60.9001 81.14 60.8301 80.61 60.3801 80.35C59.9901 80.12 59.3501 80.23 59.1501 80.67H59.1301Z" fill="#9E93FB"/>
</svg>
