<svg width="100" height="100" viewBox="0 0 100 100" fill="none" xmlns="http://www.w3.org/2000/svg">
<path d="M89.588 52.7966L7.60938 53.2688L7.69001 67.2686L89.6687 66.7964L89.588 52.7966Z" fill="#2F2E45"/>
<path d="M26.6701 51.44C26.9401 50.69 27.2101 49.92 27.8301 49.38C28.2801 48.99 28.9301 48.79 29.5501 48.81C30.8101 48.84 31.8701 50.02 31.8801 51.28C31.8801 52.44 33.6901 52.44 33.6801 51.28C33.6601 49.05 31.8901 47.13 29.6501 47.02C28.5701 46.96 27.5101 47.35 26.6801 48.02C25.7601 48.76 25.3301 49.89 24.9401 50.97C24.7801 51.43 25.1201 51.96 25.5701 52.08C26.0701 52.22 26.5101 51.91 26.6801 51.45L26.6701 51.44Z" fill="#9E93FB"/>
<path d="M28.7299 51.91C28.9899 51.95 29.2499 51.99 29.5099 51.96C29.7699 51.93 30.0299 51.9 30.2699 51.8C30.3899 51.77 30.4899 51.72 30.5799 51.64C30.6799 51.58 30.7599 51.49 30.8099 51.39C30.8799 51.29 30.9099 51.18 30.9199 51.06C30.9499 50.94 30.9399 50.82 30.8999 50.7C30.8299 50.48 30.6899 50.27 30.4899 50.16L30.2799 50.07C30.1199 50.03 29.9599 50.03 29.7999 50.07C29.6499 50.13 29.4899 50.17 29.3299 50.19L29.5699 50.16C29.3899 50.18 29.2099 50.18 29.0299 50.16L29.2699 50.19C29.2699 50.19 29.2299 50.19 29.2099 50.19C29.0899 50.15 28.9699 50.15 28.8499 50.17C28.7299 50.17 28.6199 50.21 28.5199 50.28C28.4199 50.34 28.3299 50.41 28.2699 50.51C28.1899 50.6 28.1399 50.7 28.1099 50.82C28.0599 51.05 28.0699 51.31 28.1999 51.51L28.3399 51.69C28.4499 51.8 28.5799 51.88 28.7399 51.92L28.7299 51.91Z" fill="#9E93FB"/>
<path d="M27.7302 68.95C27.8002 69.63 27.8703 70.34 28.0703 71C28.1603 71.29 28.3303 71.55 28.5903 71.71C28.8203 71.85 29.0702 71.88 29.3302 71.88C29.6502 71.88 29.9803 71.9 30.3003 71.91C30.6203 71.92 30.9503 71.93 31.2703 71.94C31.8403 71.95 32.3502 71.66 32.4802 71.07C32.6402 70.4 32.7003 69.69 32.7203 69C32.7303 68.53 32.3003 68.08 31.8203 68.1C31.3203 68.12 30.9402 68.5 30.9202 69C30.9102 69.39 30.8803 69.77 30.8203 70.15L30.8503 69.91C30.8303 70.06 30.8103 70.21 30.7803 70.36C30.7703 70.43 30.7603 70.5 30.7403 70.57C30.7403 70.6 30.7303 70.63 30.7203 70.65C31.2803 70.28 31.4302 70.12 31.1702 70.17L31.4103 70.14C31.0403 70.16 30.6603 70.12 30.2903 70.11C29.9203 70.1 29.5403 70.11 29.1603 70.08L29.4003 70.11C29.2503 70.08 29.3302 70.13 29.6402 70.27C29.7002 70.32 29.7402 70.38 29.7602 70.45C29.8302 70.61 29.7702 70.45 29.7602 70.4C29.7302 70.27 29.7003 70.14 29.6803 70C29.6303 69.73 29.5803 69.47 29.5503 69.2L29.5802 69.44C29.5602 69.27 29.5403 69.11 29.5203 68.94C29.5003 68.7 29.4402 68.48 29.2602 68.3C29.1002 68.14 28.8503 68.03 28.6203 68.04C28.1703 68.06 27.6703 68.44 27.7203 68.94L27.7302 68.95Z" fill="#9E93FB"/>
<path d="M32.8402 69.09L33.0502 70.11C33.1202 70.43 33.1602 70.77 33.2602 71.09C33.3702 71.45 33.6402 71.74 34.0002 71.84C34.2002 71.9 34.4102 71.9 34.6102 71.91C34.9502 71.92 35.2902 71.93 35.6302 71.95C35.9502 71.96 36.2702 72 36.5902 71.98C36.9102 71.96 37.2002 71.84 37.4202 71.61C37.6002 71.42 37.6902 71.17 37.7602 70.92C37.9502 70.22 38.0202 69.48 37.9402 68.77C37.9102 68.52 37.8602 68.31 37.6802 68.13C37.5202 67.97 37.2702 67.86 37.0402 67.87C36.5902 67.89 36.0902 68.27 36.1402 68.77C36.1702 69.04 36.1802 69.31 36.1702 69.58C36.1702 69.66 36.1702 69.75 36.1502 69.83C36.0902 70.07 36.1502 69.9 36.1502 69.83C36.1202 69.95 36.1102 70.08 36.0802 70.2C36.0602 70.28 36.0402 70.36 36.0202 70.44C36.0102 70.48 35.9602 70.57 35.9702 70.61C35.9302 70.45 36.3502 70.23 36.3902 70.21C36.6302 70.15 36.5302 70.19 36.4402 70.19C36.1402 70.19 35.8502 70.17 35.5502 70.16C35.2502 70.15 34.9802 70.14 34.7002 70.13C34.6202 70.13 34.5502 70.13 34.4702 70.13C34.3802 70.13 34.2402 70.08 34.5102 70.15C34.7202 70.22 34.8702 70.35 34.9402 70.53C34.9702 70.61 34.9802 70.62 34.9602 70.55C34.9602 70.48 34.9302 70.4 34.9102 70.33C34.7902 69.77 34.6802 69.2 34.5602 68.64C34.4602 68.18 33.8902 67.87 33.4502 68.01C32.9602 68.17 32.7202 68.62 32.8202 69.12L32.8402 69.09Z" fill="#9E93FB"/>
<path d="M59.0001 68.65C59.0401 69.15 59.0901 69.65 59.1501 70.15C59.1901 70.48 59.2001 70.86 59.3701 71.16C59.5101 71.4 59.7401 71.58 60.0101 71.66C60.1701 71.71 60.3401 71.71 60.5101 71.71C61.0201 71.71 61.5201 71.72 62.0301 71.73C62.4401 71.73 62.8801 71.75 63.1801 71.43C63.3501 71.25 63.4501 71.04 63.4801 70.79C63.5001 70.63 63.5201 70.47 63.5401 70.31C63.6001 69.74 63.6601 69.17 63.7201 68.61C63.7401 68.4 63.6001 68.12 63.4601 67.97C63.3001 67.81 63.0501 67.7 62.8201 67.71C62.5901 67.72 62.3501 67.8 62.1801 67.97C62.0101 68.16 61.9401 68.36 61.9201 68.61C61.8501 69.3 61.7801 69.99 61.7001 70.67L61.7301 70.43C61.7301 70.43 61.7201 70.48 61.7101 70.51L61.8001 70.3L61.7801 70.33L61.9201 70.15L61.8901 70.18L62.0701 70.04L62.0401 70.06L62.2501 69.97H62.2101C62.2901 69.97 62.3701 69.96 62.4501 69.95C62.1001 69.98 61.7301 69.95 61.3701 69.94C61.0101 69.93 60.6501 69.95 60.2901 69.92L60.5301 69.95C60.5301 69.95 60.4801 69.95 60.4501 69.93L60.6601 70.02L60.6301 70L60.8101 70.14L60.7801 70.11L60.9201 70.29C60.9201 70.29 60.8901 70.25 60.8801 70.22L60.9701 70.43C60.9201 70.26 60.9101 70.08 60.8901 69.91L60.9201 70.15C60.8501 69.65 60.8001 69.15 60.7701 68.65C60.7501 68.41 60.6801 68.19 60.5101 68.01C60.3501 67.85 60.1001 67.74 59.8701 67.75C59.4101 67.77 58.9301 68.15 58.9701 68.65H59.0001Z" fill="#9E93FB"/>
<path d="M64.0601 68.75C64.2201 69.4 64.3501 70.06 64.5301 70.7C64.6101 70.99 64.7701 71.28 65.0501 71.43C65.2601 71.55 65.5001 71.59 65.7401 71.59C66.0801 71.59 66.4101 71.59 66.7501 71.59C67.0901 71.59 67.4201 71.59 67.7601 71.59C68.0601 71.58 68.3501 71.5 68.5701 71.28C68.8101 71.04 68.8601 70.75 68.8901 70.43C68.9601 69.78 69.0001 69.13 69.0001 68.47C69.0001 68 68.5801 67.55 68.1001 67.57C67.6201 67.59 67.2001 67.97 67.2001 68.47C67.2001 69.16 67.1601 69.85 67.0701 70.53L67.1001 70.29C67.0801 70.38 67.1001 70.34 67.1401 70.18L67.4601 69.86L67.6001 69.81L67.8401 69.78C67.4701 69.83 67.0801 69.79 66.7101 69.8C66.3401 69.81 65.9501 69.83 65.5801 69.8L65.8201 69.83L66.2201 70.15L66.2801 70.28C66.2801 70.28 66.2501 70.16 66.2501 70.14L66.1901 69.9L66.0601 69.35L65.8001 68.28C65.6901 67.82 65.1401 67.51 64.6901 67.65C64.2101 67.8 63.9401 68.27 64.0601 68.76V68.75Z" fill="#9E93FB"/>
<path d="M36.1801 51.96C36.9801 51.13 37.7801 50.29 38.5801 49.46L37.0801 49.06L38.0801 51.49C38.2801 51.99 38.8701 52.39 39.4001 52.03C40.4801 51.3 41.4201 50.46 42.2301 49.45L40.8201 49.27C41.2401 50.23 41.6701 51.19 42.0901 52.15C42.3501 52.73 43.1001 52.65 43.5001 52.33C44.6701 51.4 45.8301 50.47 47.0001 49.55L45.5001 49.15C45.7101 50.2 46.0701 51.17 46.5501 52.13C46.7701 52.57 47.3801 52.68 47.7801 52.45C49.1701 51.67 50.4201 50.71 51.5301 49.56L50.0301 49.16C50.3001 49.98 50.5601 50.79 50.8301 51.61C51.0101 52.15 51.6401 52.46 52.1501 52.15C53.5101 51.32 54.7801 50.4 55.9901 49.37L54.4901 48.97C54.7901 50.06 55.1901 51.1 55.7101 52.1C56.0001 52.65 56.7001 52.63 57.1201 52.28C58.0801 51.48 59.0401 50.68 60.0001 49.87L58.5901 49.69C58.9901 50.44 59.3801 51.2 59.7801 51.95C59.9601 52.29 60.4301 52.47 60.8001 52.36C62.6101 51.82 64.2001 50.91 65.5901 49.62L64.0901 49.22C64.4001 50.08 64.7101 50.94 65.0101 51.8C65.2001 52.32 65.8101 52.68 66.3301 52.34C67.4801 51.59 68.6301 50.84 69.7801 50.09L68.5501 49.77C69.0101 50.46 69.4701 51.15 69.9301 51.83C70.2001 52.23 70.7301 52.42 71.1601 52.15C72.2901 51.46 73.3801 50.71 74.4301 49.9L73.2001 49.58C73.6301 50.32 74.0601 51.06 74.4901 51.8C74.7201 52.2 75.3201 52.4 75.7201 52.12C76.8801 51.33 78.0501 50.54 79.2101 49.75L77.9801 49.43C78.5001 50.14 79.0101 50.85 79.5301 51.56C79.8901 52.06 80.4601 52.13 80.9401 51.74C81.9701 50.89 83.0101 50.05 84.0401 49.2L82.6301 49.02C83.1201 49.81 83.6101 50.61 84.1101 51.4C84.4501 51.94 85.0601 51.94 85.5201 51.58C86.3501 50.94 87.1701 50.3 88.0001 49.66L86.5901 49.48C87.2401 50.35 87.9701 51.08 88.8401 51.73C89.7701 52.42 90.6701 50.86 89.7501 50.18C89.1401 49.72 88.6001 49.19 88.1501 48.58C87.7701 48.07 87.2301 48.01 86.7401 48.4C85.9101 49.04 85.0901 49.68 84.2601 50.32L85.6701 50.5C85.1801 49.71 84.6901 48.91 84.1901 48.12C83.8601 47.59 83.2301 47.57 82.7801 47.94C81.7501 48.79 80.7101 49.63 79.6801 50.48L81.0901 50.66C80.5701 49.95 80.0601 49.24 79.5401 48.53C79.2701 48.16 78.7401 47.91 78.3101 48.21C77.1501 49 75.9801 49.79 74.8201 50.58L76.0501 50.9C75.6201 50.16 75.1901 49.42 74.7601 48.68C74.5401 48.3 73.9101 48.06 73.5301 48.36C72.4801 49.17 71.3901 49.92 70.2601 50.61L71.4901 50.93C71.0301 50.24 70.5701 49.55 70.1101 48.87C69.8501 48.48 69.3101 48.27 68.8801 48.55C67.7301 49.3 66.5801 50.05 65.4301 50.8L66.7501 51.34C66.4401 50.48 66.1301 49.62 65.8301 48.76C65.6001 48.12 64.8501 47.88 64.3301 48.36C63.1701 49.43 61.8501 50.18 60.3401 50.63L61.3601 51.04C60.9601 50.29 60.5701 49.53 60.1701 48.78C59.8801 48.23 59.1801 48.25 58.7601 48.6C57.8001 49.4 56.8401 50.2 55.8801 51.01L57.2901 51.19C56.8401 50.32 56.5001 49.43 56.2501 48.49C56.0601 47.79 55.2501 47.67 54.7501 48.09C53.6601 49.02 52.5001 49.84 51.2701 50.59L52.5901 51.13C52.3201 50.31 52.0601 49.5 51.7901 48.68C51.5901 48.05 50.7801 47.78 50.2901 48.28C49.2801 49.32 48.1701 50.18 46.9001 50.89L48.1301 51.21C47.7101 50.39 47.4401 49.56 47.2601 48.66C47.1101 47.93 46.2401 47.88 45.7601 48.26C44.5901 49.19 43.4301 50.12 42.2601 51.04L43.6701 51.22C43.2501 50.26 42.8201 49.3 42.4001 48.34C42.1801 47.84 41.3201 47.73 40.9901 48.16C40.2701 49.06 39.4801 49.82 38.5201 50.46L39.8401 51L38.8401 48.57C38.6001 47.98 37.8501 47.64 37.3401 48.17C36.5401 49 35.7401 49.84 34.9401 50.67C34.1401 51.5 35.4101 52.78 36.2101 51.94L36.1801 51.96Z" fill="#9E93FB"/>
</svg>
