<svg width="100" height="100" viewBox="0 0 100 100" fill="none" xmlns="http://www.w3.org/2000/svg">
<path d="M75.4001 71.98C74.3001 67.28 72.5501 64.18 70.3301 63.02C66.4401 60.98 59.1701 64.13 53.8601 66.43C47.4901 69.19 40.2701 72.33 35.2001 66.99C29.7001 61.2 34.0601 53.4 38.2801 45.86C40.4701 41.95 45.5901 32.79 44.1701 30.46C43.3801 29.16 39.0501 28.08 35.6101 29.3C31.4601 30.76 27.8901 36.57 29.0801 43.75L15.2701 46.05C13.0401 32.68 19.6301 20.08 30.9501 16.09C41.6801 12.31 52.1701 16.71 56.1101 23.15C61.7901 32.44 55.5701 43.61 50.5401 52.61C58.1701 49.37 67.9101 45.94 76.8301 50.62C82.8401 53.78 86.9501 59.89 89.0302 68.79L75.4001 71.98Z" fill="#2F2E45"/>
<path d="M15.8001 47.35C16.4501 50.26 17.6802 52.99 18.9602 55.68C19.5402 56.9 20.0902 58.14 20.9502 59.19C21.8102 60.24 22.9902 60.98 24.2802 61.38C24.7002 61.51 25.3202 61.22 25.3902 60.75C25.7202 58.33 25.2001 55.92 25.3101 53.5C25.4201 51.08 25.9602 48.73 26.9002 46.53C27.0902 46.08 27.0302 45.57 26.5802 45.3C26.2002 45.07 25.5402 45.18 25.3502 45.62C24.3802 47.88 23.7601 50.24 23.5601 52.7C23.4601 53.94 23.4902 55.19 23.5802 56.43C23.6702 57.67 23.8202 59 23.6502 60.27L24.7602 59.64C22.2402 58.86 21.3102 56.47 20.2802 54.28C19.1502 51.89 18.1102 49.46 17.5302 46.87C17.2802 45.74 15.5401 46.22 15.7901 47.35H15.8001Z" fill="#9E93FB"/>
<path d="M21.5802 46.4C20.2402 48.41 20.2102 50.89 20.3502 53.21C20.4302 54.42 20.4802 55.68 21.0602 56.77C21.6102 57.81 22.5601 58.55 23.1101 59.58C23.6601 60.61 25.2102 59.69 24.6602 58.67C24.1702 57.74 23.3601 57.06 22.8001 56.19C22.2401 55.32 22.2002 54.23 22.1402 53.2C22.0102 51.18 21.9501 49.04 23.1201 47.29C23.7601 46.32 22.2102 45.42 21.5702 46.38L21.5802 46.4Z" fill="#9E93FB"/>
<path d="M44.0601 72.37C44.3401 75.82 44.6201 79.26 44.8801 82.71C45.0101 84.38 45.1401 86.05 45.2501 87.72C45.2701 87.91 45.2801 88.1 45.2901 88.3C45.2701 88.43 45.1901 88.48 45.0401 88.44C44.7801 88.59 44.0701 88.49 43.7601 88.49C42.9101 88.49 42.0602 88.46 41.2102 88.38C40.0602 88.28 40.0602 90.08 41.2102 90.18C42.1702 90.27 43.1202 90.31 44.0802 90.28C44.8502 90.26 45.7602 90.31 46.4102 89.83C47.0602 89.35 47.1101 88.62 47.0601 87.89C46.9901 86.83 46.9102 85.78 46.8302 84.72C46.5202 80.6 46.2001 76.49 45.8601 72.37C45.7701 71.22 43.9601 71.21 44.0601 72.37Z" fill="#9E93FB"/>
<path d="M49.7801 71.61C49.3901 74.93 49.9901 78.22 50.5501 81.48C50.8301 83.13 51.1101 84.79 51.2101 86.47C51.2401 86.89 51.2501 87.32 51.2601 87.74C51.2601 87.95 51.2601 88.16 51.2601 88.38C51.5701 88.2 51.5301 88.14 51.1501 88.22C50.7801 88.13 50.2601 88.22 49.8701 88.22C49.4401 88.21 49.0201 88.19 48.5901 88.16C47.4301 88.09 47.4401 89.89 48.5901 89.96C49.8701 90.04 52.6401 90.6 53.0101 88.84C53.1901 87.99 53.0501 87.01 52.9901 86.16C52.9201 85.18 52.7901 84.2 52.6501 83.23C52.0801 79.37 51.1301 75.54 51.5901 71.62C51.7201 70.47 49.9201 70.48 49.7901 71.62L49.7801 71.61Z" fill="#9E93FB"/>
</svg>
