<svg width="100" height="100" viewBox="0 0 100 100" fill="none" xmlns="http://www.w3.org/2000/svg">
<path d="M50.9603 85.88C49.8303 81.95 47.8003 76.97 44.5403 75.55C42.4403 74.64 39.9003 75.17 35.9403 76.1C30.8203 77.31 23.8003 78.97 17.0503 74.53C11.5003 70.88 9.41033 65.3 8.67033 62.3C5.58033 49.89 15.1503 40.01 17.1003 38.16L26.7403 48.31C25.1403 49.83 21.2003 54.71 22.2503 58.91C22.4503 59.73 23.1103 61.76 24.7403 62.83C26.2903 63.85 28.3603 63.5 32.7203 62.47C37.5803 61.32 43.6303 59.89 50.1003 62.69C56.7503 65.57 61.5603 72.07 64.4103 82L50.9503 85.87L50.9603 85.88Z" fill="#2F2E45"/>
<path d="M19.9203 37.62C33.5003 27.44 51.3403 29.7 66.6403 33.99C67.0703 34.11 67.6703 33.84 67.7503 33.36C68.1503 30.73 68.8803 28.18 69.9803 25.76H68.4303C69.7203 27.64 70.9903 29.54 72.2903 31.41C72.6903 31.99 73.0503 32.6 73.7303 32.88C74.5003 33.19 75.4003 32.96 76.1903 32.87C77.6703 32.7 79.7203 32.85 80.5803 31.36C81.5403 29.7 82.0603 27.64 82.7503 25.85L81.4303 26.39C84.2003 27.9 85.9103 30.72 87.2103 33.51C88.5103 36.3 89.4603 39.69 88.5403 42.75C86.3603 50.04 77.0203 49.11 71.2503 48.2C70.1203 48.02 69.6303 49.75 70.7703 49.94C74.8103 50.58 79.0703 51.26 83.0603 50C86.2503 48.99 89.0303 46.83 90.1603 43.61C91.3603 40.19 90.4303 36.38 89.0203 33.17C87.6103 29.96 85.5503 26.6 82.3403 24.84C81.7903 24.54 81.2303 24.84 81.0203 25.38C80.5203 26.67 80.0203 27.95 79.5303 29.24C79.1403 30.24 79.0003 30.74 77.8103 30.89C77.1203 30.97 76.4303 31.05 75.7403 31.13C74.8303 31.24 74.4703 31.28 73.8503 30.51C73.4003 29.95 73.0203 29.29 72.6103 28.69C71.7403 27.41 70.8603 26.13 69.9903 24.85C69.6503 24.35 68.7403 24.19 68.4403 24.85C67.2703 27.42 66.4503 30.09 66.0303 32.88L67.1403 32.25C51.4203 27.85 32.9803 25.61 19.0403 36.06C18.1203 36.75 19.0203 38.31 19.9503 37.61L19.9203 37.62Z" fill="#9E93FB"/>
<path d="M32.4503 58.2499C35.7703 58.1999 39.0903 58.1399 42.4103 57.9599C44.0003 57.8699 45.5903 57.7699 47.1703 57.5599C48.5703 57.3799 50.2103 57.2099 51.4903 56.5799C52.5403 56.0599 53.0703 54.9899 52.4403 53.8999C51.8103 52.8099 50.6303 52.4399 49.5003 52.3099C48.0503 52.1499 46.5403 52.31 45.0903 52.35C43.3803 52.4 41.6803 52.4499 39.9703 52.4899C38.8103 52.5199 38.8103 54.32 39.9703 54.29C42.5603 54.22 45.1503 54.14 47.7403 54.07C48.6503 54.05 49.8503 53.9199 50.6103 54.5199C50.9203 54.7699 50.9503 54.77 50.6603 54.98C50.4503 55.13 49.9603 55.1899 49.7303 55.2499C49.1503 55.3999 48.5703 55.5199 47.9803 55.6199C42.9003 56.4999 37.5803 56.36 32.4403 56.44C31.2803 56.46 31.2803 58.2599 32.4403 58.2399L32.4503 58.2499Z" fill="#9E93FB"/>
<path d="M40.3903 53.1C40.1303 51.67 39.5703 50.27 38.7603 49.06C37.9503 47.85 36.4603 46.57 34.9203 47.41C34.5103 47.64 34.3403 48.24 34.6003 48.64C34.8603 49.04 35.3903 49.2 35.8303 48.96C36.0203 48.86 35.7403 48.96 35.8503 48.95C35.9603 48.94 35.9703 48.93 35.8503 48.93C35.9103 48.93 35.9703 48.93 36.0303 48.93C35.8803 48.88 36.1303 48.93 36.0303 48.93C36.1003 48.95 36.1703 48.97 36.2403 49C36.1503 48.96 36.1603 48.97 36.2403 49C36.3503 49.07 36.4703 49.13 36.5703 49.21C36.4203 49.1 36.6303 49.26 36.6403 49.28C36.6803 49.32 36.7203 49.35 36.7603 49.39C36.8603 49.49 36.9403 49.59 37.0303 49.69C36.9003 49.55 37.0703 49.75 37.0803 49.77C37.1103 49.82 37.1503 49.87 37.1803 49.92C37.2703 50.06 37.3603 50.19 37.4503 50.33C37.7503 50.83 38.0203 51.39 38.1803 51.8C38.3903 52.37 38.5503 52.96 38.6603 53.56C38.7403 54.02 39.3303 54.33 39.7703 54.19C40.2703 54.03 40.4903 53.58 40.4003 53.08L40.3903 53.1Z" fill="#9E93FB"/>
<path d="M70.08 50.21C71.32 51.25 72.84 51.24 74.38 51.37C76.53 51.54 78.69 51.71 80.84 51.88C82.99 52.05 84.98 52.21 87.06 52.37C88 52.44 89 52.43 89.93 52.63C90.3 52.71 90.95 52.87 91.1 53.28C91.34 53.92 90.67 54.06 90.23 54.11C88.37 54.32 86.34 53.99 84.48 53.91C82.34 53.82 80.2 53.72 78.06 53.63C73.94 53.45 69.83 53.27 65.71 53.09C60.94 52.88 56.16 52.67 51.39 52.46C50.23 52.41 50.23 54.21 51.39 54.26C60.86 54.67 70.32 55.09 79.79 55.5C82.18 55.6 84.56 55.71 86.95 55.81C88.51 55.88 90.68 56.33 92.06 55.34C93.22 54.52 93.26 52.94 92.33 51.91C91.16 50.61 89.15 50.72 87.56 50.59C84.83 50.37 82.09 50.15 79.36 49.94C78.03 49.83 76.71 49.73 75.38 49.62C74.22 49.53 72.31 49.71 71.36 48.91C70.48 48.17 69.2 49.44 70.09 50.18L70.08 50.21Z" fill="#9E93FB"/>
<path d="M78.5003 39.9C80.0403 39.9 81.5803 39.9 83.1203 39.9C83.5903 39.9 84.0403 39.49 84.0203 39C84.0003 38.51 83.6203 38.1 83.1203 38.1C81.5803 38.1 80.0403 38.1 78.5003 38.1C78.0303 38.1 77.5803 38.51 77.6003 39C77.6203 39.49 78.0003 39.9 78.5003 39.9Z" fill="#9E93FB"/>
<path d="M79.9602 39.48C80.2502 42.3 80.3702 45.14 80.3102 47.97L81.8502 47.33C81.7102 47.21 81.5802 47.1 81.4402 46.98C81.0702 46.67 80.5302 46.62 80.1702 46.98C79.8502 47.3 79.8002 47.94 80.1702 48.25C80.3102 48.37 80.4402 48.48 80.5802 48.6C81.1602 49.09 82.1002 48.79 82.1202 47.96C82.1702 45.12 82.0502 42.29 81.7702 39.47C81.7202 38.99 81.3902 38.57 80.8702 38.57C80.4202 38.57 79.9202 38.98 79.9702 39.47L79.9602 39.48Z" fill="#9E93FB"/>
<path d="M71.56 38.46C71.98 39.09 72.72 39.54 73.5 39.49C74.28 39.44 74.98 39.02 75.33 38.34C75.44 38.12 75.49 37.89 75.42 37.65C75.36 37.44 75.2 37.21 75.01 37.11C74.8 37 74.55 36.94 74.32 37.02C74.1 37.09 73.89 37.22 73.78 37.43C73.75 37.5 73.71 37.56 73.66 37.62L73.8 37.44C73.73 37.54 73.64 37.62 73.55 37.69L73.73 37.55C73.64 37.62 73.55 37.67 73.45 37.71L73.66 37.62C73.56 37.66 73.45 37.69 73.35 37.71L73.59 37.68C73.48 37.69 73.37 37.69 73.26 37.68L73.5 37.71C73.39 37.69 73.28 37.66 73.18 37.62L73.39 37.71C73.29 37.67 73.19 37.61 73.1 37.54L73.28 37.68C73.19 37.61 73.11 37.53 73.04 37.44L73.18 37.62C73.18 37.62 73.14 37.57 73.12 37.54C72.99 37.34 72.81 37.19 72.58 37.13C72.36 37.07 72.08 37.1 71.89 37.22C71.7 37.34 71.53 37.53 71.48 37.76C71.43 37.99 71.44 38.25 71.57 38.45L71.56 38.46Z" fill="#9E93FB"/>
<path d="M83.8199 36.92C84.4599 37.42 85.2099 37.9 86.0599 37.84C86.9099 37.78 87.6999 37.29 87.9799 36.44C88.1299 35.99 87.8099 35.44 87.3499 35.33C86.8499 35.22 86.3999 35.48 86.2399 35.96C86.2299 35.99 86.2199 36.03 86.1999 36.06L86.2899 35.85C86.2599 35.91 86.2299 35.97 86.1799 36.03L86.3199 35.85C86.2599 35.92 86.1999 35.99 86.1199 36.05L86.2999 35.91C86.2099 35.97 86.1199 36.03 86.0199 36.07L86.2299 35.98C86.1199 36.03 85.9999 36.06 85.8799 36.08L86.1199 36.05C85.9899 36.07 85.8699 36.07 85.7399 36.05L85.9799 36.08C85.7999 36.05 85.6299 36 85.4699 35.94L85.6799 36.03C85.3999 35.91 85.1499 35.74 84.9099 35.56L85.0899 35.7L85.0499 35.67C84.8499 35.52 84.6699 35.41 84.4099 35.41C84.1899 35.41 83.9299 35.51 83.7699 35.67C83.6099 35.83 83.4999 36.07 83.5099 36.31C83.5099 36.53 83.5899 36.8 83.7699 36.95L83.8199 36.92Z" fill="#9E93FB"/>
</svg>
