<svg width="100" height="100" viewBox="0 0 100 100" fill="none" xmlns="http://www.w3.org/2000/svg">
<path d="M82.2501 76.71C79.5001 72.09 74.8001 66.22 68.0001 64.5C63.0901 63.26 57.7302 64.33 52.5302 65.36C47.8202 66.3 44.5701 67.48 41.9601 68.43C38.2001 69.8 33.0601 71.67 28.8901 67.6C23.6901 62.52 27.1401 55.58 29.9001 50C31.9701 45.83 35.0901 39.54 33.6301 36.75C33.0401 35.63 31.8001 34.77 31.0101 34.48C30.4101 35 29.2401 36.14 27.2601 38.54C24.5701 41.8 22.0801 45.32 19.8601 49.01L7.86011 41.8C10.4401 37.51 13.3302 33.42 16.4702 29.62C21.5902 23.43 24.7901 21.04 28.7301 20.51C35.2101 19.61 42.6502 23.81 46.0302 30.25C50.1002 38.01 47.0601 46.51 44.0001 53.02C45.7101 52.54 47.6402 52.06 49.7902 51.63C55.8802 50.42 63.4501 48.91 71.4201 50.93C82.8801 53.83 90.1701 62.66 94.2701 69.56L82.2301 76.71H82.2501Z" fill="#2F2E45"/>
<path d="M33.8401 18.87C33.9801 17.79 34.3901 16.65 34.9401 15.68C35.2201 15.18 35.5401 14.71 35.9101 14.29C36.1101 14.06 36.3202 13.84 36.5402 13.63C36.6502 13.52 36.7601 13.42 36.8801 13.32C36.9401 13.27 36.9901 13.22 37.0501 13.17C37.1801 13.07 37.1701 13.07 37.0101 13.17H36.5301C36.2301 13.09 36.3001 13.01 36.4401 13.26C36.4701 13.31 36.5202 13.41 36.5402 13.46C36.6402 13.71 36.7001 13.98 36.7401 14.24C36.8201 14.73 36.8201 15.3 36.8001 15.82C36.7701 17.03 36.5301 18.21 36.1401 19.35C35.9801 19.81 36.3201 20.33 36.7701 20.46C37.2601 20.6 37.7201 20.29 37.8801 19.83C38.3001 18.61 38.5401 17.32 38.5901 16.03C38.6401 14.85 38.5901 13.59 38.0701 12.5C37.7701 11.88 37.2501 11.25 36.4901 11.44C35.9601 11.57 35.4501 12.16 35.0701 12.54C34.3001 13.32 33.6401 14.23 33.1501 15.21C32.5701 16.37 32.2102 17.58 32.0402 18.86C31.9802 19.34 32.5001 19.76 32.9401 19.76C33.4801 19.76 33.7801 19.34 33.8401 18.86V18.87Z" fill="#9E93FB"/>
<path d="M28.2001 18.52C27.8801 17.55 27.5401 16.59 27.1801 15.64C27.0001 15.17 26.8101 14.71 26.6201 14.25C26.4301 13.79 26.2701 13.27 26.0101 12.85C25.6101 12.21 24.9301 12.09 24.2701 12.4C23.8601 12.59 23.4701 12.9 23.1801 13.24C22.5101 14.03 22.2001 15.03 22.2501 16.06C22.3101 17.26 22.7801 18.34 23.2601 19.42C23.4601 19.86 24.1001 19.97 24.4901 19.74C24.9501 19.47 25.0101 18.95 24.8101 18.51C24.6101 18.07 24.4401 17.69 24.2801 17.2C24.1201 16.71 24.0301 16.34 24.0301 15.86C24.0301 15.47 24.0901 15.1 24.2701 14.78C24.3101 14.7 24.3601 14.63 24.4101 14.55C24.4701 14.46 24.4801 14.45 24.4301 14.52C24.4701 14.47 24.5101 14.43 24.5501 14.39C24.6101 14.33 24.6801 14.27 24.7401 14.21C24.8201 14.14 24.8301 14.13 24.7701 14.19C24.8201 14.16 24.8701 14.12 24.9201 14.09C25.1401 13.96 25.3301 13.99 24.8301 13.91C24.6601 13.95 24.5301 13.91 24.4501 13.8C24.4701 13.84 24.5001 13.89 24.5101 13.93C24.6001 14.12 24.7001 14.37 24.7701 14.53C24.9701 15.01 25.1701 15.49 25.3501 15.97C25.7401 16.97 26.1001 17.99 26.4401 19.01C26.5901 19.47 27.0601 19.77 27.5501 19.64C28.0001 19.52 28.3301 19 28.1801 18.53L28.2001 18.52Z" fill="#9E93FB"/>
<path d="M40.8501 21.5C41.8001 21.06 43.1001 20.54 44.1701 20.67L43.3901 20.22C43.3901 20.22 42.7301 22.15 42.6101 22.5C42.4201 23.08 42.9201 23.61 43.4801 23.64C44.9401 23.72 46.4001 23.79 47.8601 23.87L47.0801 22.52C46.6101 23.54 46.0401 24.48 45.3601 25.38C44.9101 25.98 45.5401 26.68 46.1401 26.73C47.7401 26.87 49.3501 27.01 50.9501 27.15L50.3101 25.61C49.4901 26.59 48.7901 27.61 48.1901 28.74C47.8501 29.4 48.2901 30.01 48.9701 30.09C50.3001 30.26 51.5201 30.82 52.5401 31.69V30.42C51.3901 31.32 50.3301 32.31 49.3301 33.38C48.9201 33.82 49.0201 34.47 49.5101 34.79C50.7401 35.6 52.0301 36.73 53.3701 37.33L53.7601 37.58V37.22C53.5201 37.19 52.8801 37.54 52.6201 37.63C51.7801 37.93 50.9301 38.24 50.0901 38.54C49.3401 38.81 49.2201 39.74 49.8801 40.18C51.0101 40.96 52.0101 41.86 52.9201 42.9L53.1001 41.49C51.5601 42.64 49.8901 43.48 48.0301 44C47.1201 44.26 47.2301 45.43 48.0301 45.74C49.1501 46.16 50.2501 46.6 51.1501 47.41L51.0101 46.32C50.1801 47.79 49.1401 49.04 47.8501 50.13C46.9601 50.88 48.2401 52.14 49.1201 51.4C50.5201 50.22 51.6601 48.82 52.5601 47.23C52.7501 46.9 52.7201 46.41 52.4201 46.14C51.2701 45.12 49.9301 44.55 48.5001 44.01V45.75C50.5001 45.19 52.3401 44.3 54.0001 43.06C54.4801 42.7 54.6001 42.12 54.1801 41.65C53.1701 40.5 52.0401 39.52 50.7801 38.65L50.5701 40.29C51.8701 39.82 53.1901 39.38 54.4901 38.89C55.1701 38.63 55.9201 38.26 55.8301 37.4C55.7401 36.46 54.5901 35.99 53.9101 35.54L50.4301 33.26L50.6101 34.67C51.6001 33.59 52.6701 32.61 53.8201 31.71C54.1801 31.42 54.1601 30.73 53.8201 30.44C52.4001 29.22 50.8301 28.55 48.9801 28.31L49.7601 29.66C50.2801 28.67 50.8701 27.75 51.5901 26.89C52.1101 26.27 51.7501 25.42 50.9501 25.35C49.3501 25.21 47.7401 25.07 46.1401 24.93L46.9201 26.28C47.6001 25.38 48.1601 24.44 48.6401 23.42C48.9301 22.79 48.5801 22.1 47.8601 22.07C46.4001 21.99 44.9401 21.92 43.4801 21.84L44.3501 22.98C44.6701 22 45.9101 19.79 44.6201 18.99C43.4501 18.27 41.0001 19.45 39.9401 19.94C38.8801 20.43 39.8001 21.98 40.8501 21.49V21.5Z" fill="#9E93FB"/>
<path d="M24.3402 64.13C22.0802 63.48 19.5702 63.58 17.5102 64.79C15.6702 65.88 14.4002 67.71 14.1202 69.83C13.7802 72.36 14.2002 75.08 14.4002 77.62C14.4602 78.3 14.5002 78.99 14.5702 79.67C14.6202 80.15 14.7502 80.64 15.2002 80.91C15.7002 81.21 16.3602 81.06 16.9002 81.01C17.5802 80.95 18.2702 80.9 18.9502 80.84C19.5602 80.79 19.9402 80.31 19.8202 79.7C19.5202 78.18 19.4302 76.63 19.4502 75.08C19.4702 73.77 19.4302 72.28 19.7902 71.01C20.1702 69.67 21.8002 69.76 22.9402 69.72C24.5102 69.66 26.0802 69.81 27.6202 70.13C28.7502 70.37 29.2302 68.63 28.1002 68.39C26.2602 68 24.3802 67.83 22.5102 67.93C20.9802 68.02 19.2102 68.17 18.3902 69.67C17.6402 71.04 17.7202 72.97 17.6702 74.49C17.6002 76.39 17.7202 78.29 18.0902 80.16L18.9602 79.02C18.4202 79.06 17.8902 79.11 17.3502 79.15C17.1102 79.17 16.8602 79.19 16.6202 79.21C16.4702 79.22 16.3302 79.23 16.1802 79.25C15.8802 79.24 15.9402 79.37 16.3802 79.65C16.4602 79.62 16.1502 76.85 16.1302 76.58C15.9702 74.54 15.7002 72.41 15.8702 70.37C16.0102 68.66 16.9502 67.2 18.4302 66.33C20.0902 65.36 22.0702 65.33 23.8802 65.85C25.0002 66.17 25.4702 64.43 24.3602 64.11L24.3402 64.13Z" fill="#9E93FB"/>
<path d="M29.5902 71.21C29.7002 75.62 29.0702 79.99 28.5202 84.36C28.2602 86.48 28.0202 88.6 27.9002 90.73C27.8602 91.53 27.7302 92.39 28.4302 92.95C29.0602 93.46 30.0402 93.68 30.7902 93.98C31.4102 94.23 32.0502 94.51 32.6402 94.02C33.2302 93.53 33.1702 92.69 33.2302 91.99C33.4202 89.84 33.6002 87.68 33.7902 85.53C34.1702 81.12 34.3902 76.75 34.4402 72.32C34.4502 71.16 32.6502 71.16 32.6402 72.32C32.6102 75.79 32.5302 79.25 32.2402 82.7C32.0902 84.43 31.9402 86.16 31.7902 87.89C31.7202 88.75 31.6402 89.61 31.5702 90.48C31.5302 90.91 31.5002 91.34 31.4602 91.77C31.4402 92.03 31.3602 92.76 31.3702 92.74L32.0102 92.48C31.6202 92.51 31.0802 92.16 30.7202 92.02C30.5302 91.94 29.8102 91.76 29.6802 91.58C29.5302 91.37 29.7402 90.36 29.7602 90.09C29.7902 89.59 29.8302 89.1 29.8702 88.6C30.0402 86.69 30.2802 84.78 30.5202 82.88C31.0102 79.01 31.5002 75.13 31.4002 71.21C31.3702 70.05 29.5702 70.05 29.6002 71.21H29.5902Z" fill="#9E93FB"/>
<path d="M54.2403 67.43C54.6903 73.33 54.6603 79.24 54.7703 85.15C54.8203 88.02 54.9103 90.89 55.1003 93.76C55.1503 94.56 55.0303 95.7 55.8503 96.16C56.7603 96.66 58.4603 96.2 59.4303 96.13C59.9203 96.1 60.3303 95.74 60.3303 95.23C60.3303 90.61 60.3103 85.98 60.3303 81.36C60.3403 79.07 60.3603 76.79 60.4003 74.51C60.4203 73.37 60.4503 72.23 60.4803 71.08C60.5003 70.43 60.5203 69.77 60.5403 69.12C60.5603 68.65 60.4003 67.64 60.6203 67.23L60.0803 67.64L60.2403 67.58C61.3203 67.19 60.8503 65.45 59.7603 65.84C59.1103 66.07 58.8903 66.49 58.8003 67.16C58.6203 68.51 58.7003 69.95 58.6603 71.32C58.5903 74.01 58.5503 76.7 58.5303 79.4C58.4903 84.68 58.5103 89.95 58.5103 95.23L59.4103 94.33C58.7803 94.37 58.1603 94.42 57.5303 94.46C57.2203 94.48 56.9003 94.5 56.5903 94.52C56.9903 94.61 57.0903 94.43 56.9003 94C57.0203 93.45 56.8103 92.61 56.7803 92.03C56.7403 91.37 56.7103 90.72 56.6903 90.06C56.5903 87.6 56.5503 85.14 56.5103 82.67C56.4403 77.58 56.4003 72.49 56.0203 67.41C55.9303 66.26 54.1303 66.25 54.2203 67.41L54.2403 67.43Z" fill="#9E93FB"/>
<path d="M66.3602 67.19C67.0902 69.02 67.1203 70.98 67.1803 72.92C67.2503 75.14 67.2603 77.36 67.2603 79.58C67.2603 83.95 67.2603 88.31 66.9503 92.67C66.9203 93.13 67.3903 93.6 67.8503 93.57C68.8203 93.5 70.0103 93.6 70.9503 93.3C71.8903 93 72.0003 92.09 72.1203 91.23C72.4603 88.79 72.2903 86.34 72.1903 83.9C71.9803 78.86 73.1203 73.88 72.7703 68.86C72.6903 67.71 70.8903 67.7 70.9703 68.86C71.2403 72.71 70.4903 76.51 70.3503 80.35C70.2803 82.25 70.4102 84.15 70.4802 86.04C70.5502 87.93 70.7803 90.27 70.0803 92.06L70.4903 91.52C69.8802 91.87 68.5203 91.73 67.8403 91.78L68.7403 92.68C69.0703 88.16 69.0602 83.63 69.0502 79.1C69.0502 76.88 69.0303 74.66 68.9503 72.44C68.8803 70.5 68.8003 68.54 68.0803 66.72C67.6603 65.66 65.9203 66.12 66.3403 67.2L66.3602 67.19Z" fill="#9E93FB"/>
</svg>
