<svg width="100" height="100" viewBox="0 0 100 100" fill="none" xmlns="http://www.w3.org/2000/svg">
<path d="M67.6399 45.13C56.7899 31.41 46.5499 18.45 34.2899 21.97C25.7999 24.42 22.2099 33.07 20.1499 44C24.7799 45.03 29.5299 45.71 34.2099 45.2C34.4499 44.03 34.7099 42.92 34.9999 41.88C36.5799 36.16 38.1399 35.47 38.1599 35.46C38.1699 35.46 39.7299 35.23 43.8299 39C47.7599 42.62 52.0699 48.06 56.6299 53.83C56.9599 54.25 57.2899 54.67 57.6299 55.09C61.4599 52.38 64.7999 49.09 68.1799 45.81C67.9999 45.58 67.8199 45.35 67.6399 45.13Z" fill="#2F2E45"/>
<path d="M69.8301 48.32C71.7601 47.04 73.6801 45.76 75.6101 44.49L74.2601 43.71C74.2201 45.02 73.9901 46.29 73.5701 47.53C73.3401 48.21 74.0501 48.78 74.6801 48.64C76.4301 48.24 78.1801 47.8 79.9201 47.34L78.8101 46.71C79.0201 47.58 78.5001 48.42 78.1101 49.17C77.6901 49.98 77.3001 50.81 77.0201 51.68C76.7401 52.55 76.5601 53.45 76.4501 54.36C76.4101 54.72 76.4201 55.11 76.3201 55.46C76.2101 55.83 75.9701 55.85 75.6101 55.88C72.7601 56.13 69.3301 55.38 67.5701 52.94C66.9001 52.01 65.3401 52.91 66.0201 53.85C67.1701 55.44 68.7601 56.51 70.6201 57.11C72.3401 57.67 74.4701 57.96 76.2601 57.61C77.3201 57.4 77.9501 56.64 78.1201 55.59C78.2901 54.54 78.3301 53.58 78.6201 52.59C78.9401 51.47 79.4701 50.5 79.9801 49.46C80.4901 48.42 80.8201 47.38 80.5501 46.23C80.4401 45.75 79.9001 45.48 79.4401 45.6C77.7001 46.06 75.9501 46.5 74.2001 46.9L75.3101 48.01C75.7801 46.62 76.0201 45.17 76.0601 43.71C76.0801 43.05 75.2701 42.56 74.7101 42.93C72.7801 44.21 70.8601 45.49 68.9301 46.76C67.9701 47.4 68.8701 48.96 69.8401 48.31L69.8301 48.32Z" fill="#9E93FB"/>
<path d="M58.4302 57.23C63.5602 60.67 67.2002 65.77 71.7402 69.88C73.9002 71.84 76.3102 73.64 79.0402 74.74C80.2602 75.23 81.7002 74.82 81.4602 73.25C81.3602 72.63 81.0002 72.14 80.6102 71.67C79.9202 70.86 79.2002 70.07 78.5002 69.26C75.4002 65.73 72.3002 62.2 69.2002 58.67C68.4302 57.8 67.1702 59.08 67.9302 59.94C70.2802 62.61 72.6302 65.29 74.9802 67.96C76.1502 69.3 77.3302 70.63 78.5002 71.97C78.7802 72.29 79.0802 72.61 79.3502 72.94C79.3502 72.94 79.6102 73.33 79.6302 73.33L79.7202 73.22C79.8702 73.11 79.8402 73.05 79.6302 73.03C79.4802 72.85 78.9602 72.73 78.7502 72.62C78.4302 72.46 78.1102 72.29 77.7902 72.11C73.1402 69.49 69.7102 65.24 66.0502 61.47C63.9802 59.34 61.8102 57.31 59.3402 55.66C58.3802 55.01 57.4702 56.57 58.4302 57.21V57.23Z" fill="#9E93FB"/>
<path d="M75.05 59.44C79.75 62.46 82.91 67.37 87.74 70.22C88.93 70.92 90.4 71.47 91.77 70.96C92.31 70.76 92.79 70.37 92.94 69.8C93.11 69.13 92.74 68.58 92.33 68.09C90.69 66.09 87.98 65.52 86.2 63.71C85.06 62.55 84.22 61.14 83.12 59.94C82.02 58.74 80.71 57.66 79.33 56.74C78.36 56.1 77.46 57.65 78.42 58.29C80.55 59.71 82.17 61.51 83.71 63.53C84.44 64.48 85.21 65.34 86.19 66.04C87.09 66.68 88.08 67.16 89.03 67.72C89.48 67.99 89.92 68.26 90.32 68.6C90.5 68.75 90.67 68.92 90.83 69.09C90.9 69.17 91.01 69.27 91.06 69.37C91.12 69.5 91.09 69.39 90.88 69.34C90.56 69.27 90.21 69.34 89.87 69.24C89.57 69.15 89.29 69.02 89.02 68.88C88.46 68.59 87.93 68.23 87.41 67.86C85.47 66.49 83.8 64.79 82.12 63.12C80.2 61.22 78.24 59.35 75.95 57.88C74.97 57.25 74.07 58.81 75.04 59.43L75.05 59.44Z" fill="#9E93FB"/>
<path d="M70.7103 50.98C70.7303 51.34 70.8204 51.71 71.0404 52.01C71.2604 52.31 71.5004 52.56 71.8304 52.74C72.4804 53.09 73.2703 53.14 73.9303 52.77C74.1303 52.66 74.2803 52.45 74.3403 52.23C74.4003 52.01 74.3703 51.73 74.2503 51.54C74.1303 51.35 73.9403 51.18 73.7103 51.13C73.4803 51.08 73.2303 51.1 73.0203 51.22C72.9803 51.24 72.9404 51.26 72.9004 51.28L73.1103 51.19C73.0203 51.23 72.9304 51.25 72.8304 51.26L73.0703 51.23C72.9703 51.24 72.8704 51.24 72.7604 51.23L73.0003 51.26C72.8703 51.24 72.7503 51.21 72.6403 51.16L72.8503 51.25C72.7403 51.2 72.6404 51.14 72.5404 51.07L72.7204 51.21C72.6304 51.14 72.5404 51.05 72.4704 50.96L72.6103 51.14C72.5503 51.06 72.5004 50.98 72.4704 50.89L72.5603 51.1C72.5203 51.01 72.5004 50.92 72.4804 50.82L72.5104 51.06C72.5104 51.06 72.5104 51 72.5104 50.97C72.5004 50.73 72.4203 50.51 72.2503 50.33C72.0903 50.17 71.8403 50.06 71.6103 50.07C71.3803 50.08 71.1404 50.16 70.9704 50.33C70.8004 50.5 70.6903 50.73 70.7103 50.97V50.98Z" fill="#9E93FB"/>
<path d="M76.63 54.83L75.45 53.97C75.35 53.9 75.24 53.87 75.12 53.86C75 53.83 74.88 53.84 74.76 53.88C74.64 53.91 74.54 53.96 74.45 54.04C74.35 54.1 74.27 54.19 74.22 54.29C74.11 54.5 74.05 54.75 74.13 54.98L74.22 55.19C74.3 55.33 74.41 55.43 74.54 55.51L75.72 56.37C75.82 56.44 75.93 56.47 76.05 56.48C76.17 56.51 76.29 56.5 76.41 56.46C76.53 56.43 76.63 56.38 76.72 56.3C76.82 56.24 76.9 56.15 76.95 56.05C77.06 55.84 77.12 55.59 77.04 55.36L76.95 55.15C76.87 55.01 76.76 54.91 76.63 54.83Z" fill="#9E93FB"/>
<path d="M19.7302 45.39C19.5002 50.09 18.1202 54.6 17.0702 59.16C16.5502 61.4 16.1102 63.66 15.9202 65.96C15.8202 67.13 15.7802 68.31 15.8502 69.48C15.9002 70.21 15.9502 70.93 16.6202 71.36C18.1002 72.29 19.3802 70.88 19.7302 69.55C20.3602 67.1 20.8102 64.59 21.3302 62.11C22.4002 57.07 23.4302 52.03 24.4402 46.97C24.6602 45.84 22.9302 45.35 22.7002 46.49C21.8702 50.66 21.0202 54.83 20.1502 58.99C19.7102 61.07 19.2702 63.15 18.8202 65.23C18.6002 66.27 18.3702 67.31 18.1402 68.35C18.0902 68.6 18.0702 69.57 17.6402 69.48C17.5802 69.47 17.6102 68.22 17.6102 68.16C17.6402 60.4 21.1502 53.13 21.5202 45.39C21.5802 44.23 19.7802 44.23 19.7202 45.39H19.7302Z" fill="#9E93FB"/>
<path d="M32.2901 47.41C31.9801 51.25 31.5201 55.07 30.9001 58.87C30.6001 60.73 30.2501 62.59 29.8801 64.44C29.6801 65.4 29.4801 66.36 29.2601 67.32C29.1101 68.01 29.0501 69.09 28.6401 69.69C28.4301 70 28.4601 70.18 28.3201 69.73C28.2401 69.45 28.3201 68.92 28.3201 68.65C28.3601 67.74 28.4201 66.82 28.4901 65.91C28.6301 63.93 28.8201 61.96 29.0601 59.99C29.5201 56.13 30.1801 52.3 31.0001 48.5C31.2401 47.37 29.5101 46.89 29.2601 48.02C28.2801 52.57 27.5401 57.17 27.0501 61.81C26.8001 64.22 26.5201 66.68 26.5001 69.11C26.4901 70.37 26.9901 72.04 28.5801 71.86C30.2601 71.67 30.5901 69.55 30.8901 68.25C31.4101 65.97 31.8801 63.67 32.2901 61.36C33.1101 56.74 33.7001 52.08 34.0801 47.41C34.1701 46.26 32.3701 46.26 32.2801 47.41H32.2901Z" fill="#9E93FB"/>
<path d="M18.3101 38.8C16.9901 40.21 15.0401 40.92 13.1201 40.68C12.1001 40.55 11.1601 40.11 10.3301 39.52C9.50013 38.93 8.84013 37.96 7.75013 37.91C6.76013 37.86 5.84013 38.52 5.48013 39.43C5.08013 40.43 5.40013 41.55 6.04013 42.37C6.75013 43.27 7.80013 43.75 8.84013 44.17C9.97013 44.63 11.1301 45 12.3401 45.18C14.8501 45.55 17.4701 45.05 19.3601 43.26C20.2001 42.46 18.9301 41.19 18.0901 41.99C16.7401 43.27 14.8401 43.65 13.0301 43.47C12.0201 43.37 11.0201 43.08 10.0701 42.73C9.22013 42.42 8.20013 42.07 7.57013 41.39C7.24013 41.03 6.72013 39.87 7.57013 39.71C7.85013 39.66 8.08013 39.96 8.27013 40.13C8.64013 40.46 9.03013 40.78 9.43013 41.07C10.8701 42.1 12.6401 42.63 14.4101 42.5C16.3701 42.35 18.2401 41.52 19.5901 40.07C20.3801 39.22 19.1101 37.95 18.3201 38.8H18.3101Z" fill="#9E93FB"/>
</svg>
