<svg width="100" height="100" viewBox="0 0 100 100" fill="none" xmlns="http://www.w3.org/2000/svg">
<path d="M46.9002 80.32C43.8702 80.32 40.5102 79.92 37.0202 78.8C26.6702 75.49 21.7302 69.17 19.4102 64.45C17.3402 60.25 16.4201 55.46 16.7501 50.6L30.7202 51.54C30.6102 53.22 30.7302 55.75 31.9702 58.26C33.6102 61.58 36.7402 64 41.2902 65.46C47.1102 67.32 52.6002 65.63 54.1402 65.06C55.5402 64.55 56.5701 63.98 57.7501 63.32C59.9001 62.13 62.5702 60.64 66.8402 60.05C71.0002 59.47 75.2801 59.9 79.5701 61.32L75.1502 74.61C72.9302 73.87 70.7802 73.64 68.7802 73.92C67.0902 74.16 66.2402 74.63 64.5502 75.57C63.1402 76.35 61.3802 77.33 58.9502 78.22C56.8002 79.01 52.3902 80.32 46.9002 80.32Z" fill="#2F2E45"/>
<path d="M50.4202 54.32C47.0502 54.32 44.0502 53.48 41.4702 51.8C37.6902 49.35 36.4402 46.16 35.5202 43.83C35.0602 42.65 34.6902 41.72 33.9702 40.72C33.9402 40.68 30.7602 36.38 26.4902 36.27C23.3802 36.15 20.8202 38.4 19.8702 39.35L9.9502 29.47C12.1802 27.23 18.3102 22.09 26.8402 22.27C37.5802 22.54 44.1202 30.85 45.3202 32.52C47.0702 34.95 47.9202 37.11 48.5502 38.7C48.7402 39.17 48.9802 39.8 49.1302 40.07C49.3802 40.21 50.0602 40.44 51.6202 40.22L53.6302 54.08C52.5302 54.24 51.4502 54.32 50.4202 54.32Z" fill="#2F2E45"/>
<path d="M16.9301 43.6C16.9301 43.6 17.0201 43.53 17.0601 43.49L16.8801 43.63C17.0501 43.5 17.2301 43.38 17.4301 43.29L17.2202 43.38C17.3402 43.33 17.4702 43.2899 17.6102 43.2699L17.3701 43.2999C17.4601 43.2899 17.5601 43.2999 17.6501 43.2999L17.4102 43.2699C17.5002 43.2799 17.5901 43.31 17.6801 43.34L17.4702 43.25C17.5402 43.28 17.6002 43.3199 17.6602 43.3599L17.4802 43.22C17.5402 43.26 17.5901 43.31 17.6301 43.37L17.4902 43.19C17.4902 43.19 17.5501 43.2799 17.5701 43.3299C17.6601 43.5199 17.9102 43.69 18.1102 43.74C18.3302 43.8 18.6102 43.77 18.8002 43.65C18.9902 43.53 19.1601 43.3399 19.2101 43.1099L19.2402 42.87C19.2402 42.71 19.2001 42.5599 19.1201 42.4199C18.9901 42.1399 18.7201 41.87 18.4501 41.73C18.1501 41.57 17.8102 41.48 17.4702 41.49C17.1002 41.5 16.7602 41.61 16.4202 41.78C16.1402 41.92 15.9002 42.12 15.6602 42.32C15.4902 42.46 15.4001 42.75 15.4001 42.96C15.4001 43.18 15.5002 43.44 15.6602 43.6C15.8202 43.76 16.0602 43.8699 16.3002 43.8599L16.5402 43.8299C16.6902 43.7899 16.8201 43.71 16.9401 43.6H16.9301Z" fill="#9E93FB"/>
<path d="M26.84 43.77C27 43.66 27.16 43.57 27.33 43.5L27.12 43.59C27.28 43.52 27.45 43.4801 27.62 43.4501L27.38 43.4801C27.51 43.4701 27.64 43.4601 27.77 43.4801L27.53 43.4501C27.63 43.4701 27.73 43.49 27.82 43.53L27.61 43.44C27.71 43.48 27.81 43.54 27.9 43.61L27.72 43.47C27.8 43.53 27.87 43.6 27.93 43.68L27.79 43.5C27.84 43.56 27.87 43.6301 27.91 43.7001L27.82 43.49C27.85 43.56 27.87 43.63 27.88 43.71C27.91 43.92 28.12 44.15 28.29 44.25C28.48 44.36 28.77 44.41 28.98 44.34C29.19 44.27 29.41 44.13 29.52 43.93L29.61 43.72C29.65 43.56 29.65 43.4 29.61 43.24C29.55 42.89 29.34 42.53 29.08 42.29C28.82 42.05 28.47 41.84 28.11 41.75C27.35 41.58 26.56 41.8001 25.94 42.2301C25.74 42.3601 25.59 42.53 25.53 42.77C25.47 42.99 25.5 43.27 25.62 43.46C25.74 43.65 25.93 43.82 26.16 43.87C26.39 43.92 26.66 43.92 26.85 43.78L26.84 43.77Z" fill="#9E93FB"/>
<path d="M22.1501 43.85C21.4901 43.87 20.8301 43.97 20.1901 44.14C19.9901 44.2 19.7901 44.26 19.6201 44.39C19.3701 44.58 19.1901 44.89 19.2001 45.22C19.2101 45.68 19.5001 46.1 19.9301 46.29C20.2401 46.43 20.5701 46.49 20.9001 46.54C21.2601 46.6 21.6201 46.65 21.9801 46.67C22.2801 46.69 22.5901 46.7 22.8901 46.7C23.2401 46.7 23.6101 46.7 23.9401 46.56C24.6401 46.27 24.7801 45.35 24.2301 44.83C23.9501 44.57 23.6101 44.36 23.2801 44.18C22.8601 43.96 22.2801 44.06 22.0501 44.5C21.8301 44.91 21.9301 45.5 22.3701 45.73C22.5101 45.8 22.6501 45.88 22.7801 45.97C22.8401 46.01 22.9201 46.05 22.9601 46.1C22.8601 46.02 22.8501 46.02 22.9301 46.08C23.0401 46.19 23.0001 46.11 22.8101 45.85V45.37C23.3801 44.97 23.5401 44.8 23.2901 44.87C23.2401 44.88 23.2601 44.87 23.3501 44.87C23.5401 44.85 23.3401 44.87 23.2901 44.87C23.1801 44.87 23.0701 44.87 22.9501 44.88C22.7301 44.88 22.5001 44.88 22.2801 44.87C22.0601 44.86 21.8301 44.84 21.6101 44.81C21.3901 44.78 21.8101 44.84 21.5801 44.81C21.5401 44.81 21.4901 44.8 21.4501 44.79C21.3301 44.77 21.2101 44.75 21.0801 44.72C20.9701 44.7 20.8601 44.68 20.7501 44.65C20.7301 44.65 20.7101 44.65 20.6901 44.64C20.6201 44.62 20.6601 44.64 20.7901 44.69C20.7901 44.68 20.6301 44.56 20.7601 44.68C20.8001 44.7 20.8301 44.73 20.8601 44.78C21.1301 45.09 21.0101 45.47 20.5001 45.9C20.5501 45.9 20.6001 45.87 20.6401 45.86C20.7501 45.83 20.8601 45.8 20.9701 45.78C21.0801 45.76 21.1901 45.73 21.3001 45.71C21.3601 45.7 21.4101 45.69 21.4701 45.68C21.5001 45.68 21.6901 45.65 21.5501 45.67C21.4101 45.69 21.6001 45.67 21.6301 45.67C21.6901 45.67 21.7401 45.66 21.8001 45.65C21.9201 45.64 22.0501 45.63 22.1701 45.63C22.6401 45.61 23.0901 45.23 23.0701 44.73C23.0501 44.26 22.6701 43.81 22.1701 43.83L22.1501 43.85Z" fill="#9E93FB"/>
<path d="M20.84 45.97C20.89 46.98 21 47.98 21.14 48.98C21.17 49.19 21.38 49.42 21.55 49.52C21.74 49.63 22.03 49.68 22.24 49.61C22.45 49.54 22.67 49.4 22.78 49.2L22.87 48.99C22.91 48.83 22.91 48.67 22.87 48.51C22.86 48.44 22.85 48.37 22.84 48.29L22.87 48.53C22.76 47.68 22.68 46.83 22.64 45.97C22.62 45.5 22.24 45.05 21.74 45.07C21.27 45.09 20.81 45.47 20.84 45.97Z" fill="#9E93FB"/>
<path d="M14.6899 63.44C13.6399 65.03 12.8499 66.76 12.1299 68.52C11.7699 69.39 11.2399 70.36 11.1499 71.3C11.0599 72.24 11.6 72.94 12.36 73.38C15.76 75.34 19.7999 73.6 22.6899 71.55C23.0899 71.27 23.2699 70.76 23.0099 70.32C22.7799 69.93 22.1799 69.71 21.7799 70C19.4899 71.62 16.3699 73.28 13.5399 71.97C13.3699 71.89 13.0499 71.77 12.9599 71.61C12.8299 71.37 13.0999 70.92 13.1799 70.7C13.4599 69.98 13.74 69.26 14.05 68.55C14.67 67.1 15.37 65.68 16.23 64.36C16.87 63.39 15.3099 62.49 14.6799 63.45L14.6899 63.44Z" fill="#9E93FB"/>
<path d="M57.2902 52.79C65.3302 51.07 73.9701 53.45 80.0001 59.02C80.8501 59.81 82.1301 58.54 81.2701 57.75C74.7401 51.72 65.4902 49.19 56.8002 51.05C55.6702 51.29 56.1502 53.03 57.2802 52.79H57.2902Z" fill="#9E93FB"/>
<path d="M81.64 56.99C85.46 57.85 89.15 59.75 91.85 62.62C92.5 63.31 92.87 64.05 93.33 64.86C93.37 64.96 93.4 65.07 93.43 65.18L93.62 64.87C93.62 64.87 92.8 65 92.77 65C92.29 65.05 91.8 65.07 91.31 65.06C89.22 65.03 87.18 64.46 85.35 63.44C84.71 63.08 84.07 63.55 84 64.22C83.59 67.88 80.85 71.08 77.34 72.14C76.23 72.47 76.71 74.21 77.82 73.88C82.16 72.57 85.3 68.71 85.8 64.22L84.45 65C86.72 66.27 89.3 66.94 91.9 66.86C92.86 66.83 94.41 66.88 95.01 65.97C95.61 65.06 94.89 63.77 94.41 62.99C93.17 60.97 91.13 59.39 89.15 58.14C87 56.78 84.61 55.81 82.13 55.25C81 55 80.52 56.73 81.65 56.99H81.64Z" fill="#9E93FB"/>
<path d="M39.6202 59.63C40.8402 60.11 42.0402 60.64 43.2302 61.21C43.4602 61.32 44.0802 61.49 43.8902 61.83C43.6802 62.22 43.0502 62.34 42.6702 62.42C41.5102 62.68 40.1202 62.66 38.9502 62.42C38.0002 62.22 37.0002 61.74 36.7002 60.74C36.3702 59.63 34.6402 60.1 34.9602 61.22C35.7702 63.96 38.8902 64.43 41.3502 64.37C42.6302 64.34 44.3002 64.16 45.1702 63.1C45.6002 62.58 45.8302 61.89 45.6702 61.21C45.5102 60.53 45.0202 60.11 44.4502 59.82C43.0502 59.08 41.5602 58.48 40.0902 57.9C39.6402 57.72 39.1002 58.1 38.9802 58.53C38.8402 59.04 39.1502 59.46 39.6102 59.64L39.6202 59.63Z" fill="#9E93FB"/>
</svg>
