<svg width="100" height="100" viewBox="0 0 100 100" fill="none" xmlns="http://www.w3.org/2000/svg">
<path d="M87.1201 78.21L76.0501 69.64C78.0001 67.12 81.3201 61.82 81.6101 54.72C82.0201 44.66 76.3101 36.73 71.2901 33C63.2101 26.99 53.3801 29.03 41.9901 31.4C34.1501 33.03 27.9501 34.32 23.2901 39.97C19.2801 44.83 18.1201 50.77 17.8601 54.89L3.89014 53.99C4.29014 47.81 6.11014 38.82 12.4901 31.07C20.2801 21.62 30.3001 19.53 39.1401 17.69C51.9801 15.02 66.5201 11.99 79.6501 21.77C87.7701 27.82 96.2301 39.8 95.6001 55.29C95.2701 63.43 92.2601 71.57 87.1301 78.21H87.1201Z" fill="#2F2E45"/>
<path d="M7.46003 63.38C10.19 63.59 12.91 63.8 15.64 64.02L17.87 64.19C18.2 64.22 19.56 64.12 19.78 64.33C19.98 64.54 19.8 65.95 19.8 66.27C19.8 67 19.82 67.72 19.82 68.45C19.83 69.74 19.85 71.04 19.86 72.33C19.87 73.38 19.64 74.76 19.99 75.76C20.25 76.5 20.91 76.75 21.64 76.81C23 76.92 24.37 76.92 25.73 76.97C26.26 76.99 26.58 76.54 26.63 76.07C27.06 72.3 27.35 68.51 27.5 64.72L26.84 65.59C27.42 65.51 29.21 65.21 29.67 65.64C29.96 65.92 29.79 67.63 29.8 68.07C29.87 69.94 29.95 71.81 30.02 73.68C30.06 74.66 29.77 76.43 30.77 77.08C31.32 77.43 32.1 77.31 32.71 77.31C33.68 77.31 34.66 77.31 35.63 77.31C36.15 77.31 36.48 76.89 36.53 76.41C36.9 72.84 37.01 69.27 36.87 65.68L35.97 66.58C42.18 66.84 48.39 67.25 54.59 67.81L53.69 66.91C53.95 70.24 54.22 73.56 54.48 76.89C54.56 77.91 54.6 78.91 55.71 79.27C56.98 79.68 58.65 79.52 59.98 79.61C60.47 79.64 60.87 79.17 60.88 78.71C60.95 74.96 60.95 71.21 60.89 67.46L59.99 68.36C61.23 68.39 62.48 68.42 63.72 68.46L64.65 68.48C64.9 68.45 65.01 68.57 64.98 68.84C65.22 69.26 65.22 70.05 65.3 70.52C65.74 73.1 65.96 75.7 66 78.31C66 78.83 66.41 79.17 66.9 79.21C68.64 79.36 70.36 79.35 72.1 79.17C72.68 79.11 73.12 78.64 72.97 78.03C72.04 74.35 71.36 70.63 70.96 66.85L70.06 67.75C73.65 67.58 75.9 64.6 77.69 61.81L76.05 61.6C76.28 62.95 75.47 64.16 74.78 65.25C74.09 66.34 73.44 67.36 73.01 68.56C72.62 69.65 74.36 70.12 74.75 69.04C75.74 66.28 78.33 64.31 77.79 61.12C77.65 60.31 76.53 60.31 76.15 60.91C74.75 63.09 72.93 65.82 70.07 65.96C69.62 65.98 69.12 66.36 69.17 66.86C69.59 70.79 70.27 74.68 71.25 78.51L72.12 77.37C70.38 77.55 68.66 77.57 66.92 77.41L67.82 78.31C67.77 75.04 67.59 71.53 66.74 68.36C66.48 67.4 65.99 66.8 64.96 66.69C63.33 66.52 61.65 66.6 60.01 66.56C59.53 66.55 59.1 66.98 59.11 67.46C59.17 71.21 59.17 74.96 59.1 78.71L60 77.81C59.4 77.77 58.79 77.73 58.19 77.69C57.91 77.67 56.55 77.76 56.38 77.57C56.24 77.41 56.26 76.36 56.25 76.16L56.09 74.21C55.9 71.78 55.7 69.34 55.51 66.91C55.47 66.39 55.13 66.06 54.61 66.01C48.42 65.45 42.21 65.04 35.99 64.78C35.52 64.76 35.07 65.21 35.09 65.68C35.23 69.26 35.12 72.84 34.75 76.41L35.65 75.51C34.68 75.51 33.7 75.51 32.73 75.51C32.49 75.51 31.59 75.27 31.92 75.63C31.75 75.44 31.87 74.48 31.86 74.17C31.78 72.14 31.7 70.1 31.62 68.07C31.57 66.88 31.9 64.95 30.74 64.17C29.58 63.39 27.66 63.68 26.38 63.85C25.98 63.9 25.73 64.36 25.72 64.72C25.57 68.51 25.28 72.3 24.85 76.07L25.75 75.17C25.14 75.15 24.54 75.12 23.93 75.1C23.38 75.08 22.35 75.26 21.88 75.02C21.41 74.78 21.88 75.32 21.7 74.76C21.62 74.5 21.7 74.07 21.69 73.79C21.69 73.14 21.68 72.5 21.67 71.85C21.65 70.48 21.64 69.1 21.62 67.73C21.61 66.52 21.82 65.04 21.54 63.85C21.34 63.02 20.79 62.67 19.98 62.56C18.64 62.37 17.25 62.34 15.9 62.24C13.09 62.02 10.28 61.8 7.48002 61.58C6.32002 61.49 6.33002 63.29 7.48002 63.38H7.46003Z" fill="#9E93FB"/>
<path d="M21.2298 51.24C21.1698 51.65 21.1598 52.03 21.2598 52.44C21.3398 52.76 21.4798 53.09 21.6698 53.35C22.0798 53.92 22.6998 54.37 23.3998 54.48C24.1598 54.61 24.9998 54.48 25.5198 53.85C25.9198 53.37 26.0898 52.79 26.1898 52.17C26.2298 51.92 26.2298 51.7 26.0998 51.48C25.9898 51.29 25.7798 51.12 25.5598 51.07C25.1298 50.97 24.5298 51.2 24.4498 51.7C24.4198 51.87 24.3998 52.04 24.3598 52.2C24.3398 52.28 24.3198 52.36 24.2898 52.45C24.2798 52.49 24.2598 52.52 24.2498 52.56C24.2898 52.35 24.3098 52.42 24.2698 52.51C24.2398 52.57 24.1798 52.64 24.1598 52.7C24.2498 52.58 24.2798 52.55 24.2298 52.6C24.2198 52.62 24.1998 52.63 24.1898 52.65C24.1698 52.67 24.1198 52.74 24.0998 52.74C24.1298 52.74 24.2898 52.61 24.1598 52.69C24.1298 52.71 24.0598 52.73 24.0398 52.75C24.1598 52.7 24.1898 52.69 24.1298 52.71C24.0998 52.71 24.0798 52.73 24.0498 52.73C23.9998 52.74 23.9398 52.75 23.8898 52.76L24.1298 52.73C23.9898 52.74 23.8498 52.74 23.7098 52.73L23.9498 52.76C23.8498 52.75 23.7498 52.73 23.6598 52.7C23.6198 52.69 23.5798 52.67 23.5398 52.66C23.4398 52.63 23.7298 52.75 23.5898 52.68C23.4998 52.63 23.4098 52.59 23.3298 52.53C23.1998 52.45 23.4498 52.64 23.3698 52.57C23.3298 52.54 23.2898 52.5 23.2598 52.47C23.2298 52.44 23.1998 52.41 23.1698 52.38C23.0498 52.26 23.2798 52.55 23.1798 52.4C23.1298 52.32 23.0798 52.24 23.0398 52.16C22.9698 52.02 23.0198 52.17 23.0598 52.21C23.0398 52.19 23.0198 52.09 23.0098 52.06C22.9798 51.96 22.9598 51.86 22.9498 51.76L22.9798 52C22.9598 51.84 22.9598 51.69 22.9798 51.54L22.9498 51.78V51.73C22.9898 51.48 22.9998 51.26 22.8698 51.04C22.7598 50.85 22.5498 50.68 22.3298 50.63C22.0998 50.58 21.8398 50.59 21.6398 50.72C21.4598 50.84 21.2598 51.03 21.2298 51.26V51.24Z" fill="#9E93FB"/>
<path d="M7.09006 57.45C7.09006 57.45 7.18005 57.36 7.24005 57.32L7.06006 57.46C7.15006 57.4 7.24006 57.34 7.34006 57.3L7.13004 57.39C7.24004 57.35 7.34005 57.32 7.46005 57.3L7.22003 57.33C7.33003 57.32 7.45006 57.31 7.56006 57.33L7.32004 57.3C7.42004 57.31 7.52005 57.34 7.61005 57.38C7.73005 57.42 7.85003 57.42 7.97003 57.4C8.09003 57.4 8.20005 57.36 8.30005 57.29C8.49005 57.18 8.66005 56.97 8.71005 56.75C8.76005 56.52 8.75006 56.26 8.62006 56.06L8.48004 55.88C8.37004 55.77 8.24005 55.69 8.08005 55.65C7.89005 55.57 7.68003 55.55 7.47003 55.53C7.26003 55.51 7.06005 55.55 6.86005 55.59C6.80005 55.6 6.74005 55.62 6.68005 55.65C6.55005 55.7 6.42005 55.75 6.30005 55.82C6.12005 55.92 5.96004 56.05 5.82004 56.19C5.66004 56.36 5.56006 56.59 5.56006 56.83C5.56006 57.05 5.66004 57.31 5.82004 57.47C5.98004 57.63 6.22005 57.74 6.46005 57.73C6.70005 57.72 6.93004 57.64 7.10004 57.47L7.09006 57.45Z" fill="#9E93FB"/>
</svg>
