<svg width="100" height="100" viewBox="0 0 100 100" fill="none" xmlns="http://www.w3.org/2000/svg">
<path d="M44.1201 87.62C34.7501 87.62 25.0802 83.41 18.8302 76.29C13.5102 70.24 12.0402 63.53 10.9702 58.63C9.55019 52.12 9.42017 45.43 10.5802 38.75L24.3701 41.16C23.5201 46.04 23.6102 50.91 24.6402 55.64C25.5102 59.61 26.4002 63.71 29.3302 67.05C33.5202 71.81 40.9201 74.47 46.9301 73.37C49.6601 72.87 51.6801 71.69 54.2301 70.2C58.2301 67.87 63.2001 64.96 70.9801 65.33C73.8901 65.47 76.7901 66.05 79.6101 67.05L74.9102 80.24C73.3902 79.7 71.8502 79.39 70.3202 79.32C66.7002 79.14 64.5402 80.4 61.2902 82.3C58.3102 84.04 54.5902 86.2 49.4502 87.14C47.7002 87.46 45.9201 87.61 44.1201 87.61V87.62Z" fill="#2F2E45"/>
<path d="M78.9401 64.81C72.0401 61.61 65.5401 57.83 59.6201 53.57C57.2601 51.87 55.7901 50.67 54.0901 49.28C52.1201 47.67 49.67 45.67 44.67 41.94C40.4 38.75 36.3901 35.92 30.6501 33.55C29.3101 33 27.9401 32.49 26.5801 32.06L30.8701 18.73C32.5901 19.28 34.3201 19.92 36.0001 20.61C43.2201 23.6 48.1801 27.1 53.0301 30.71C58.2701 34.62 60.8601 36.73 62.9401 38.43C64.5901 39.78 65.7901 40.76 67.8101 42.21C73.0101 45.95 78.7301 49.28 84.8301 52.11L78.9501 64.81H78.9401Z" fill="#2F2E45"/>
<path d="M32.62 38.66C32.88 39.22 33.49 39.63 34.09 39.72C34.44 39.77 34.79 39.78 35.13 39.68C35.47 39.58 35.78 39.4 36.01 39.14C36.17 38.96 36.27 38.75 36.27 38.5C36.27 38.28 36.17 38.02 36.01 37.86C35.85 37.7 35.61 37.59 35.37 37.6C35.13 37.61 34.89 37.68 34.73 37.86C34.68 37.91 34.64 37.96 34.58 38L34.76 37.86C34.69 37.91 34.61 37.96 34.53 37.99L34.74 37.9C34.64 37.94 34.54 37.97 34.44 37.98L34.68 37.95C34.56 37.97 34.44 37.96 34.32 37.95L34.56 37.98C34.44 37.96 34.32 37.93 34.21 37.88L34.42 37.97C34.32 37.93 34.23 37.87 34.15 37.81L34.33 37.95C34.26 37.89 34.2 37.83 34.14 37.76L34.28 37.94C34.23 37.88 34.2 37.81 34.16 37.74C34.07 37.55 33.82 37.38 33.62 37.33C33.4 37.27 33.12 37.3 32.93 37.42C32.74 37.54 32.57 37.73 32.52 37.96L32.49 38.2C32.49 38.36 32.53 38.51 32.61 38.65L32.62 38.66Z" fill="#9E93FB"/>
<path d="M36.09 50.4C36.67 55.28 38.28 60.29 41.9 63.8C45.25 67.04 50.27 68.74 54.81 67.26C55.25 67.12 55.61 66.63 55.44 66.15C54.51 63.51 52.11 61.94 50.71 59.6C49.93 58.3 49.49 56.93 49.18 55.45C48.89 54.1 48.23 52.87 46.7 52.8C45.54 52.75 45.54 54.55 46.7 54.6C47.38 54.63 47.44 55.92 47.53 56.38C47.65 56.95 47.81 57.51 48.01 58.06C48.41 59.18 48.95 60.26 49.63 61.24C50.9 63.06 52.95 64.49 53.7 66.63L54.33 65.52C50.3 66.83 45.9 65.27 42.98 62.33C39.85 59.18 38.4 54.72 37.89 50.4C37.75 49.26 35.95 49.25 36.09 50.4Z" fill="#9E93FB"/>
<path d="M24.94 39.82C23.82 47.92 23.5001 56.67 27.8501 63.95C28.8001 65.54 29.96 67.03 31.32 68.29C32.08 68.99 32.8901 69.62 33.6601 70.31C34.2601 70.84 34.81 71.43 35.57 71.76C36.51 72.16 37.6501 72.22 38.6501 72.39C39.7301 72.57 40.8101 72.75 41.8901 72.92C43.9701 73.25 46.01 73.47 48.07 72.91C49.19 72.61 48.7101 70.87 47.5901 71.17C45.6301 71.7 43.66 71.4 41.69 71.07C40.68 70.9 39.6701 70.74 38.6601 70.57C37.8001 70.43 36.69 70.41 35.94 69.92C35.19 69.43 34.59 68.73 33.93 68.17C33.27 67.61 32.6301 67.07 32.0301 66.46C30.8301 65.24 29.8401 63.85 29.0201 62.35C25.3401 55.62 25.67 47.66 26.68 40.3C26.84 39.17 25.1 38.68 24.94 39.82Z" fill="#9E93FB"/>
<path d="M28.0801 41.37C27.7601 48.01 27.5201 54.98 30.6701 61.06C33.5601 66.64 38.9701 69.7 45.1601 70.05C46.3201 70.12 46.3101 68.32 45.1601 68.25C39.2601 67.92 34.4001 64.83 31.8801 59.45C29.3601 54.07 29.5901 47.41 29.8801 41.37C29.9401 40.21 28.1401 40.21 28.0801 41.37Z" fill="#9E93FB"/>
<path d="M32.3202 44.65C32.2902 46.44 32.2502 48.24 32.2202 50.03C32.1902 51.69 32.1702 53.36 32.5302 54.98C33.2002 58.04 35.1902 60.55 37.1002 62.94C37.8202 63.85 39.0902 62.56 38.3702 61.67C36.5802 59.43 34.7302 57.07 34.2002 54.19C33.9202 52.66 34.0002 51.08 34.0302 49.53C34.0602 47.9 34.0902 46.28 34.1202 44.65C34.1402 43.49 32.3402 43.49 32.3202 44.65Z" fill="#9E93FB"/>
<path d="M82.1302 63.39C83.5902 62.3 85.0602 61.22 86.6502 60.32C87.4202 59.89 88.2002 59.49 89.0302 59.19C89.7102 58.94 91.1202 58.32 91.8202 58.61L91.2802 58.2C91.5502 58.67 91.4102 59.8 91.3902 60.34C91.3702 61.07 91.2902 61.82 91.0302 62.51C90.5502 63.78 89.4602 64.56 88.3002 65.15C87.3602 65.64 85.9402 65.89 85.3302 66.83C84.6402 67.87 85.0402 69.53 85.1002 70.69C85.1802 72.12 85.4102 73.67 85.1402 75.09C85.0002 75.86 84.6702 76.51 84.1202 77.06C83.9002 77.28 83.6602 77.47 83.4002 77.64C83.2602 77.73 83.1202 77.82 82.9802 77.9C82.6702 78.1 82.6002 78.13 82.7802 77.98C82.8702 78.06 82.5702 77.42 82.5002 77.31C82.3302 77.01 82.1702 76.71 82.0302 76.39C81.7302 75.73 81.5102 75.03 81.3502 74.33C81.0302 72.92 81.0203 71.45 81.2903 70.03C81.5003 68.9 79.7702 68.41 79.5502 69.55C78.9602 72.72 79.4402 76.74 81.6402 79.27C82.7602 80.56 84.4502 79.27 85.3902 78.33C86.6402 77.09 87.0403 75.43 87.0403 73.72C87.0403 72.77 86.9602 71.83 86.9102 70.89C86.8702 70.17 86.4402 68.31 86.9402 67.73C87.3202 67.29 88.5402 67.03 89.0602 66.77C89.8102 66.4 90.5202 65.95 91.1502 65.4C92.4202 64.27 93.0102 62.71 93.1602 61.04C93.2602 59.9 93.6102 57.28 92.1802 56.82C91.3602 56.56 90.1902 56.94 89.3902 57.17C88.4602 57.44 87.5502 57.82 86.6902 58.25C84.7302 59.22 82.9702 60.53 81.2202 61.83C80.3002 62.51 81.2002 64.08 82.1302 63.38V63.39Z" fill="#9E93FB"/>
<path d="M54.5202 30.33C54.5502 30.18 54.5902 30.04 54.6402 29.9C54.6602 29.83 54.6902 29.76 54.7202 29.69C54.6802 29.81 54.7002 29.74 54.7302 29.67C54.8502 29.41 55.0002 29.17 55.1702 28.93C55.2702 28.79 55.1202 28.98 55.1902 28.91C55.2402 28.85 55.2902 28.8 55.3402 28.74C55.4302 28.64 55.5302 28.54 55.6302 28.44C55.7402 28.34 55.8502 28.24 55.9702 28.15C55.8702 28.23 55.9302 28.18 56.0002 28.13C56.0602 28.09 56.1202 28.04 56.1902 28C56.3102 27.93 56.4202 27.85 56.5502 27.79C56.6202 27.75 56.6802 27.72 56.7502 27.69C56.7702 27.68 56.9602 27.59 56.8502 27.64C56.7402 27.69 56.9602 27.6 56.9902 27.59C57.0502 27.57 57.1102 27.55 57.1702 27.53C57.3102 27.48 57.4602 27.44 57.6002 27.41C57.6702 27.39 57.7502 27.38 57.8202 27.37C57.9902 27.33 57.7302 27.37 57.8402 27.37C57.9802 27.36 58.1102 27.34 58.2502 27.34C58.4002 27.34 58.5502 27.34 58.7002 27.35C58.7502 27.35 58.9702 27.39 58.7602 27.35C58.8302 27.36 58.9102 27.38 58.9802 27.39C59.4402 27.48 59.9702 27.26 60.0902 26.76C60.1902 26.31 59.9502 25.75 59.4602 25.65C56.5902 25.07 53.4702 26.96 52.8102 29.86C52.7102 30.32 52.9502 30.86 53.4402 30.97C53.9002 31.07 54.4402 30.83 54.5502 30.34L54.5202 30.33Z" fill="#9E93FB"/>
<path d="M55.2902 25.12C55.1502 24.52 54.8002 23.93 54.3302 23.53C54.0902 23.33 53.8401 23.14 53.5501 23.01C53.3801 22.93 53.2002 22.86 53.0202 22.81C52.8402 22.76 52.6301 22.74 52.4301 22.72C52.2101 22.7 51.9402 22.84 51.7902 22.98C51.6302 23.14 51.5202 23.39 51.5302 23.62C51.5402 23.85 51.6202 24.09 51.7902 24.26C51.9602 24.43 52.1801 24.5 52.4301 24.52C52.4601 24.52 52.4902 24.52 52.5102 24.52L52.2702 24.49C52.4702 24.52 52.6602 24.57 52.8402 24.65L52.6301 24.56C52.8101 24.64 52.9802 24.74 53.1402 24.86L52.9602 24.72C53.1202 24.84 53.2601 24.98 53.3801 25.14L53.2401 24.96C53.3601 25.12 53.4602 25.29 53.5402 25.47L53.4502 25.26C53.5002 25.37 53.5301 25.49 53.5601 25.61C53.6101 25.82 53.7902 26.04 53.9702 26.15C54.1502 26.26 54.4502 26.31 54.6602 26.24C55.1402 26.08 55.4002 25.62 55.2902 25.13V25.12Z" fill="#9E93FB"/>
</svg>
