<svg width="100" height="100" viewBox="0 0 100 100" fill="none" xmlns="http://www.w3.org/2000/svg">
<path d="M74.1199 48.07L60.4799 44.9C60.7499 43.73 61.9399 37.65 58.5199 33.36C55.8399 30 51.4299 29.09 49.0499 28.6C47.3599 28.25 46.1499 28.26 41.7699 28.35C40.7799 28.37 39.6499 28.39 38.3599 28.41C33.5399 28.49 28.69 28.49 23.95 28.41L24.1699 14.41C28.7599 14.48 33.46 14.48 38.14 14.41C39.4 14.39 40.4999 14.37 41.4799 14.35C46.1999 14.26 48.5799 14.21 51.8699 14.89C55.3899 15.61 63.6199 17.31 69.4599 24.64C76.7099 33.74 74.8499 44.88 74.0999 48.07H74.1199Z" fill="#2F2E45"/>
<path d="M57.95 77.75C52.73 77.75 45.17 76.74 41.29 70.75C38.41 66.29 39.15 61.69 39.69 58.33C39.94 56.77 40.23 55.01 39.89 54.46C39.57 53.94 38.29 53.17 35.75 52.73L38.12 38.93C44.53 40.03 49.13 42.78 51.8 47.1C54.88 52.08 54.05 57.18 53.51 60.56C53.38 61.34 53.21 62.43 53.18 63.09C53.94 63.4 56.11 63.99 61.13 63.6L62.22 77.56C61.23 77.64 59.72 77.76 57.93 77.76L57.95 77.75Z" fill="#2F2E45"/>
<path d="M21.52 28.57C15.71 29.61 10.46 33.15 7.34 38.17C3.89 43.74 3.37002 50.87 5.80002 56.93C5.99002 57.41 6.61002 57.85 7.12002 57.47C8.75002 56.27 10.4 55.04 12.24 54.16C14.18 53.23 16.29 52.82 18.43 52.68C22.8 52.39 27.25 52.71 31.59 53.15C32.74 53.27 32.73 51.47 31.59 51.35C26.97 50.88 22.17 50.49 17.53 50.95C12.89 51.41 9.71999 53.32 6.20999 55.91L7.53 56.45C5.27 50.81 5.67004 44.28 8.89004 39.08C11.77 34.43 16.63 31.27 21.99 30.31C23.13 30.11 22.65 28.37 21.51 28.57H21.52Z" fill="#9E93FB"/>
<path d="M7.95984 55.21C10.1298 51.01 13.6399 47.68 17.9099 45.65C20.0199 44.65 22.3399 43.98 24.6699 43.75C27.4999 43.47 30.3399 43.88 33.1699 44.03C34.3299 44.09 34.3199 42.29 33.1699 42.23C30.0899 42.06 27.0199 41.64 23.9399 42.03C21.5299 42.34 19.1999 43.05 16.9999 44.09C12.4799 46.24 8.69985 49.85 6.39985 54.29C5.86985 55.32 7.4199 56.23 7.9499 55.2L7.95984 55.21Z" fill="#9E93FB"/>
<path d="M45.0101 35.17C45.1001 35.08 45.2001 34.99 45.3001 34.9C45.1701 35.01 45.31 34.9 45.34 34.88C45.39 34.84 45.4501 34.81 45.5101 34.78C45.5701 34.75 45.6301 34.72 45.6801 34.69C45.7501 34.66 45.8401 34.62 45.7201 34.67C45.8401 34.62 45.9701 34.58 46.1001 34.55C46.1601 34.53 46.2301 34.52 46.2901 34.51C46.3301 34.51 46.5101 34.49 46.3201 34.51C46.4501 34.51 46.58 34.49 46.71 34.49C46.78 34.49 46.8401 34.5 46.9101 34.5C47.0401 34.5 46.7101 34.46 46.9401 34.5C47.0701 34.53 47.1901 34.55 47.3201 34.59C47.3701 34.61 47.41 34.63 47.46 34.64C47.27 34.58 47.49 34.65 47.52 34.67C47.63 34.73 47.7401 34.79 47.8501 34.86C47.8901 34.89 47.9301 34.92 47.9701 34.95C47.8101 34.84 48 34.98 48.02 35C48.1 35.08 48.1801 35.16 48.2601 35.24C48.3001 35.29 48.3401 35.33 48.3801 35.38C48.2601 35.24 48.38 35.38 48.4 35.41C48.47 35.51 48.53 35.62 48.59 35.73C48.62 35.79 48.6501 35.84 48.6701 35.9C48.6201 35.78 48.6501 35.85 48.6701 35.93C48.7101 36.06 48.7501 36.19 48.7801 36.33C48.8701 36.79 49.4501 37.1 49.8901 36.96C50.3801 36.8 50.62 36.35 50.52 35.85C50.24 34.45 49.1401 33.28 47.8001 32.85C46.4601 32.42 44.7501 32.85 43.7301 33.91C43.4001 34.25 43.3701 34.85 43.7301 35.18C44.0901 35.51 44.6501 35.54 45.0001 35.18L45.0101 35.17Z" fill="#9E93FB"/>
<path d="M60.8399 48.38C60.7399 50.49 60.5999 52.6 60.5399 54.71C60.4899 56.5 60.6899 58.37 61.7699 59.86C62.6399 61.05 64.39 62.19 65.88 61.38C66.64 60.97 66.9499 60.16 67.2399 59.4C67.5999 58.43 67.8599 57.44 68.0299 56.42L66.39 56.63C67.54 58.23 67.7899 60.78 70.1199 61.15C72.6299 61.54 74.28 58.85 73.07 56.72L71.6599 57.81C72.5799 58.74 73.5999 59.71 74.9299 59.99C76.1699 60.25 77.53 59.89 78.26 58.79C79.03 57.62 78.8999 56.16 78.4199 54.9C77.8299 53.38 77.0499 51.92 76.3499 50.44C75.8599 49.39 74.2999 50.31 74.7999 51.35C75.2999 52.39 75.77 53.41 76.26 54.44C76.65 55.27 77.1699 56.24 76.9899 57.19C76.8099 58.14 76.0199 58.42 75.1799 58.19C74.2699 57.94 73.5699 57.18 72.9299 56.53C72.2099 55.8 71.0099 56.73 71.5199 57.62C72.2899 58.98 70.4999 59.99 69.5799 58.82C68.8499 57.9 68.63 56.67 67.95 55.71C67.55 55.15 66.4499 55.09 66.3099 55.92C66.1799 56.69 66 57.46 65.76 58.2C65.63 58.6 65.4299 59.6 64.9799 59.79C64.4199 60.03 63.6499 59.3 63.3399 58.93C62.9899 58.5 62.7499 57.97 62.5899 57.43C62.1799 56.01 62.3499 54.48 62.4199 53.03C62.4999 51.47 62.5699 49.91 62.6499 48.35C62.7099 47.19 60.9099 47.19 60.8499 48.35L60.8399 48.38Z" fill="#9E93FB"/>
<path d="M65.0301 76.17C68.9901 75.99 72.9601 75.82 76.9201 75.64C80.4001 75.48 83.9601 75.53 87.4001 74.98C89.2101 74.69 94.0301 73.65 93.6301 70.99C93.2001 68.17 87.8901 68.74 86.0101 69.01L86.4901 70.75C88.0401 70.21 89.7801 69.8 91.2501 69.06C92.1901 68.59 92.6601 67.62 92.2201 66.62C91.1301 64.11 87.0501 64.16 84.8401 64.49L85.5301 66.13C86.8601 65.29 88.5601 65.25 89.6801 64.07C90.5401 63.16 90.9401 61.73 90.1301 60.66C89.1901 59.44 87.4101 59.61 86.0501 59.61C83.8301 59.61 81.6101 59.63 79.3901 59.69C78.2301 59.72 78.2301 61.52 79.3901 61.49C82.0701 61.42 84.7801 61.3 87.4501 61.42C88.0401 61.45 88.7901 61.5 88.7201 62.24C88.6701 62.78 88.0001 63.16 87.5801 63.36C86.6001 63.81 85.5501 63.99 84.6201 64.58C83.6901 65.17 84.3401 66.37 85.3101 66.22C86.1201 66.1 86.9501 66.08 87.7701 66.17C88.4101 66.25 89.9601 66.41 90.3201 67.05C90.5701 67.49 90.2601 67.47 89.7601 67.68C89.3801 67.84 88.9801 67.95 88.5901 68.09C87.7301 68.39 86.8701 68.69 86.0101 68.99C84.8901 69.38 85.3601 70.89 86.4901 70.73C87.9101 70.53 89.3701 70.53 90.7801 70.82C91.4001 70.94 92.0401 71.08 91.4301 71.65C90.9801 72.07 90.2301 72.33 89.6601 72.54C87.3401 73.41 84.8101 73.47 82.3601 73.58C76.5801 73.84 70.8001 74.1 65.0201 74.35C63.8701 74.4 63.8601 76.2 65.0201 76.15L65.0301 76.17Z" fill="#9E93FB"/>
<path d="M54.7899 79.42C55.0999 81.34 55.2099 83.3 55.1199 85.24C55.1099 85.48 55.0999 85.73 55.0799 85.97C55.0699 86.17 54.9699 86.51 55.0199 86.7C55.0499 86.83 54.9599 86.79 55.0399 86.77C55.0699 86.77 55.1699 86.67 55.1699 86.65C55.1699 86.62 54.5499 86.6 54.5299 86.6C53.5399 86.51 52.5499 86.43 51.5599 86.34C51.0799 86.3 50.6599 86.78 50.6599 87.24C50.6599 87.76 51.0699 88.1 51.5599 88.14C52.7199 88.24 53.8899 88.39 55.0499 88.44C55.6099 88.46 56.1699 88.29 56.4999 87.82C56.8499 87.31 56.8399 86.65 56.8799 86.05C57.0499 83.67 56.9099 81.29 56.5299 78.94C56.4499 78.46 55.8599 78.19 55.4199 78.31C54.9099 78.45 54.7099 78.94 54.7899 79.42Z" fill="#9E93FB"/>
<path d="M63.4 79.42C63.45 81.24 63.47 83.05 63.46 84.87C63.46 85.08 63.46 85.29 63.46 85.51C63.46 85.65 63.38 86.04 63.46 86.17L63.97 85.69H63.87C63.77 85.67 63.63 85.69 63.52 85.69C63.29 85.69 63.06 85.69 62.82 85.69C61.91 85.69 61.01 85.71 60.1 85.72C58.94 85.73 58.94 87.53 60.1 87.52C61.12 87.51 62.14 87.5 63.17 87.49C63.67 87.49 64.24 87.55 64.69 87.27C65.24 86.92 65.26 86.3 65.27 85.71C65.29 83.61 65.27 81.51 65.21 79.41C65.18 78.25 63.38 78.25 63.41 79.41L63.4 79.42Z" fill="#9E93FB"/>
</svg>
