<svg width="100" height="100" viewBox="0 0 100 100" fill="none" xmlns="http://www.w3.org/2000/svg">
<path d="M52.92 52.34L52.78 37.66C36.61 37.81 25.76 53.46 16.21 67.46C19.58 71.06 23.28 74.4 27.3 77.26C27.54 76.91 27.78 76.55 28.02 76.2C35.62 65.06 44.24 52.43 52.92 52.35V52.34Z" fill="#2F2E45"/>
<path d="M55.5801 37.61C55.9501 35.86 56.5701 34.23 57.4801 32.69H55.9301C56.6501 34.12 57.1301 35.59 57.4301 37.16C57.6101 38.11 58.8901 37.92 59.1701 37.16C59.6301 35.88 60.3001 34.72 61.1801 33.68L59.6801 33.28C59.9301 34.41 60.1801 35.54 60.4301 36.67C60.6501 37.67 60.6601 38.19 61.6501 38.54C63.4401 39.18 65.13 40 66.72 41.06C69.83 43.12 72.4401 45.94 74.3001 49.17C75.2201 50.76 75.9501 52.45 76.4701 54.21C76.9501 55.83 77.5801 57.95 77.3201 59.65C77.1201 60.94 75.8201 61.22 74.7301 61.53C73.5901 61.86 72.3001 62.21 71.1001 62.13C69.1001 62 68.3401 59.68 66.8501 58.61C65.1401 57.39 62.9801 57.23 60.9601 56.98C59.0501 56.75 56.4901 56.24 55.7501 54.19C55.3601 53.11 53.6201 53.57 54.0101 54.67C55.4801 58.76 60.1201 58.37 63.5901 59.17C64.6601 59.42 65.6601 59.81 66.4401 60.62C67.1701 61.38 67.6901 62.32 68.5201 63C70.2301 64.39 72.5701 63.92 74.5401 63.43C76.3901 62.97 78.5801 62.36 79.0301 60.24C79.4201 58.42 78.8501 56.16 78.3901 54.41C77.3901 50.62 75.4601 47.09 72.9001 44.13C69.9301 40.7 66.0801 38.12 61.7801 36.69L62.4101 37.32C62.0801 35.81 61.7401 34.31 61.4101 32.8C61.2701 32.17 60.3401 31.89 59.9101 32.4C58.8201 33.68 58.0001 35.08 57.4301 36.67H59.1701C58.8401 34.95 58.2801 33.33 57.4901 31.77C57.1801 31.15 56.2601 31.22 55.9401 31.77C54.9601 33.44 54.2601 35.23 53.8601 37.12C53.6201 38.25 55.3601 38.73 55.6001 37.6L55.5801 37.61Z" fill="#9E93FB"/>
<path d="M60.8398 43.13C61.0298 43.65 61.3498 44.07 61.8198 44.36C62.2898 44.65 62.8498 44.73 63.3998 44.65C63.8498 44.58 64.3098 44.31 64.6098 43.97C64.9798 43.55 65.1898 43.05 65.2198 42.49C65.2398 42.02 64.7898 41.57 64.3198 41.59C63.8198 41.61 63.4398 41.99 63.4198 42.49C63.4198 42.54 63.4198 42.59 63.4098 42.64L63.4398 42.4C63.4198 42.51 63.3898 42.61 63.3498 42.71L63.4398 42.5C63.3898 42.61 63.3298 42.72 63.2598 42.81L63.3998 42.63C63.3198 42.73 63.2398 42.81 63.1398 42.89L63.3198 42.75C63.2198 42.82 63.1198 42.88 63.0098 42.93L63.2198 42.84C63.1198 42.88 63.0098 42.91 62.8998 42.92L63.1398 42.89C63.0298 42.9 62.9198 42.9 62.8098 42.89L63.0498 42.92C62.9298 42.9 62.8098 42.87 62.6998 42.82L62.9098 42.91C62.7998 42.86 62.6898 42.8 62.5998 42.73L62.7798 42.87C62.6798 42.79 62.5998 42.71 62.5198 42.61L62.6598 42.79C62.5898 42.7 62.5399 42.61 62.4999 42.51L62.5898 42.72C62.5898 42.72 62.5698 42.67 62.5598 42.65C62.4798 42.43 62.3598 42.24 62.1498 42.11C61.9598 42 61.6698 41.95 61.4598 42.02C61.0298 42.16 60.6598 42.65 60.8298 43.13H60.8398Z" fill="#9E93FB"/>
<path d="M68.9698 39.82C72.6298 37.3 76.4898 35.1 80.5098 33.22L79.1898 32.2C78.5098 33.86 77.1998 35.18 75.9098 36.38C74.3498 37.83 72.7499 39.24 71.1699 40.66C70.3099 41.44 71.5798 42.71 72.4398 41.93C74.1098 40.42 75.8199 38.94 77.4599 37.39C78.8999 36.03 80.1699 34.53 80.9299 32.68C81.2599 31.87 80.2299 31.37 79.6099 31.66C75.5899 33.54 71.7298 35.75 68.0698 38.26C67.1198 38.91 68.0198 40.47 68.9798 39.81L68.9698 39.82Z" fill="#9E93FB"/>
<path d="M74.5199 60.0801C74.6499 60.1201 74.7799 60.13 74.9099 60.14C74.9699 60.14 75.0199 60.15 75.0799 60.14C75.2099 60.14 75.3399 60.11 75.4699 60.09C75.5299 60.09 75.5799 60.0701 75.6399 60.0501C75.7599 60.0101 75.88 59.96 76 59.9C76.05 59.88 76.0999 59.85 76.1399 59.82C76.2999 59.72 76.4499 59.6 76.5699 59.45C76.6599 59.37 76.7199 59.2701 76.7599 59.1601C76.8199 59.0501 76.84 58.94 76.84 58.81C76.84 58.69 76.8199 58.57 76.7599 58.46C76.7199 58.35 76.6599 58.25 76.5699 58.17C76.3999 58.01 76.17 57.9001 75.93 57.9101L75.6899 57.9401C75.5399 57.9801 75.4099 58.06 75.2899 58.17C75.2399 58.23 75.18 58.29 75.12 58.34L75.2999 58.2C75.2199 58.26 75.13 58.3201 75.03 58.3601L75.2399 58.2701C75.1399 58.3101 75.0399 58.3401 74.9399 58.3501L75.18 58.32C75.08 58.33 74.9799 58.33 74.8899 58.32L75.1299 58.3501C75.0799 58.3501 75.0299 58.33 74.9799 58.32C74.8599 58.28 74.74 58.2801 74.62 58.3001C74.5 58.3001 74.3899 58.3401 74.2899 58.4101C74.1899 58.4701 74.0999 58.54 74.0399 58.64C73.9599 58.73 73.9099 58.83 73.8799 58.95C73.8299 59.18 73.8399 59.44 73.9699 59.64C74.0999 59.84 74.2799 59.9901 74.5099 60.0501L74.5199 60.0801Z" fill="#9E93FB"/>
<path d="M53.33 58.35L51.4601 69.06L50.57 74.18C50.42 75.07 50.31 75.99 50.1 76.86C49.86 77.83 49.42 78.13 48.47 78.4C42.53 80.12 36.01 79.17 30.72 76.01C29.72 75.42 28.8201 76.97 29.8101 77.56C35.5301 80.97 42.9 82.11 49.3 80.02C50.78 79.54 51.56 78.68 51.86 77.15C52.25 75.16 52.56 73.15 52.91 71.15C53.63 67.04 54.3401 62.92 55.0601 58.81C55.2601 57.68 53.52 57.19 53.32 58.33L53.33 58.35Z" fill="#9E93FB"/>
<path d="M64.4599 27.16C65.8099 28.37 67.2499 29.48 68.7399 30.51C69.1299 30.78 69.7599 30.6 69.9699 30.19C70.2099 29.73 70.0599 29.24 69.6499 28.96C69.2999 28.72 68.9599 28.48 68.6199 28.23C68.4399 28.1 68.2699 27.97 68.0999 27.84C68.0199 27.78 67.9399 27.72 67.8599 27.65C67.7899 27.6 67.7899 27.6 67.8599 27.65C67.8099 27.61 67.7599 27.57 67.7099 27.53C67.0399 27 66.3799 26.45 65.7399 25.88C65.3899 25.57 64.8099 25.51 64.4699 25.88C64.1599 26.22 64.0899 26.82 64.4699 27.15L64.4599 27.16Z" fill="#9E93FB"/>
<path d="M67.8099 25.1C66.6399 26.35 65.4599 27.61 64.2899 28.86C63.9699 29.2 63.9199 29.8 64.2899 30.13C64.6599 30.46 65.2199 30.5 65.5599 30.13C66.7299 28.88 67.9099 27.62 69.0799 26.37C69.3999 26.03 69.4499 25.43 69.0799 25.1C68.7099 24.77 68.1499 24.73 67.8099 25.1Z" fill="#9E93FB"/>
<path d="M81.3998 42.73C82.3498 43.67 83.4198 44.51 84.5698 45.19C84.9698 45.43 85.5798 45.29 85.7998 44.87C86.0198 44.45 85.9098 43.9 85.4798 43.64C85.2098 43.48 84.9497 43.31 84.6897 43.14C84.5698 43.05 84.4398 42.97 84.3198 42.88C84.2598 42.83 84.1898 42.79 84.1298 42.74C84.0798 42.7 83.8698 42.53 84.0798 42.7C83.5998 42.3 83.1198 41.9 82.6798 41.46C82.3498 41.13 81.7398 41.1 81.4098 41.46C81.0798 41.82 81.0498 42.38 81.4098 42.73H81.3998Z" fill="#9E93FB"/>
<path d="M83.8199 41.31C83.0199 42.09 82.2199 42.86 81.4199 43.64C81.0799 43.97 81.0699 44.59 81.4199 44.91C81.7699 45.23 82.3299 45.26 82.6899 44.91C83.4899 44.13 84.2899 43.36 85.0899 42.58C85.4299 42.25 85.4399 41.63 85.0899 41.31C84.7399 40.99 84.1799 40.96 83.8199 41.31Z" fill="#9E93FB"/>
<path d="M74.7499 28.8H75.1399C75.2599 28.8 75.3799 28.78 75.4899 28.72C75.5999 28.68 75.6999 28.62 75.7799 28.53C75.8699 28.45 75.9298 28.35 75.9698 28.24C76.0298 28.13 76.0499 28.02 76.0499 27.89L76.0199 27.65C75.9799 27.5 75.8999 27.37 75.7899 27.25L75.6099 27.11C75.4699 27.03 75.3199 26.99 75.1599 26.99H74.7699C74.6499 26.99 74.5299 27.01 74.4199 27.07C74.3099 27.11 74.2099 27.17 74.1299 27.26C74.0399 27.34 73.9798 27.44 73.9398 27.55C73.8798 27.66 73.8599 27.77 73.8599 27.9L73.8899 28.14C73.9299 28.29 74.0099 28.42 74.1199 28.54L74.2999 28.68C74.4399 28.76 74.5899 28.8 74.7499 28.8Z" fill="#9E93FB"/>
<path d="M48.16 32.74C49.32 32.74 49.32 30.94 48.16 30.94C47 30.94 47 32.74 48.16 32.74Z" fill="#9E93FB"/>
<path d="M58.0101 69.78C59.1701 69.78 59.1701 67.98 58.0101 67.98C56.8501 67.98 56.8501 69.78 58.0101 69.78Z" fill="#9E93FB"/>
<path d="M82.4398 57.3699C83.5998 57.3699 83.5998 55.5699 82.4398 55.5699C81.2798 55.5699 81.2798 57.3699 82.4398 57.3699Z" fill="#9E93FB"/>
<path d="M25.3002 43.58C26.4602 43.58 26.4602 41.78 25.3002 41.78C24.1402 41.78 24.1402 43.58 25.3002 43.58Z" fill="#9E93FB"/>
</svg>
