<svg width="100" height="100" viewBox="0 0 100 100" fill="none" xmlns="http://www.w3.org/2000/svg">
<path d="M17.33 72.73C16.64 72.73 15.94 72.71 15.23 72.68L15.94 58.7C20.17 58.92 23.55 58.18 26 56.51C27.75 55.32 28.48 54.1 29.85 51.68C31.46 48.83 33.65 44.94 38.56 41.23C40.81 39.53 46.97 35.49 55.64 34.57C59.04 34.21 68.07 33.25 75.93 38.85C84.03 44.62 88.02 55.3 86.35 66.72L72.5 64.69C73.39 58.59 71.55 52.92 67.81 50.25C64.28 47.73 59.45 48.24 57.13 48.49C51.8 49.06 48.04 51.63 47.01 52.4C44.43 54.35 43.38 56.21 42.05 58.56C40.43 61.43 38.42 65 33.89 68.09C29.35 71.19 23.79 72.75 17.34 72.75L17.33 72.73Z" fill="#2F2E45"/>
<path d="M43.8999 61.52C43.8999 61.47 43.8999 61.42 43.8999 61.36V61.31C43.9099 61.21 43.8999 61.24 43.8999 61.39C43.9399 61.32 43.9399 61.21 43.9599 61.14C43.9799 61.09 43.9999 61.04 44.0099 60.99C43.9399 61.22 43.9699 61.08 44.0099 61.01C44.0499 60.93 44.0999 60.86 44.1399 60.79C44.2399 60.63 43.9999 60.94 44.1299 60.81C44.1599 60.77 44.1999 60.73 44.2399 60.69C44.2699 60.66 44.2999 60.63 44.3299 60.6C44.4399 60.5 44.3499 60.6 44.2899 60.62C44.3799 60.59 44.4699 60.5 44.5499 60.45C44.5799 60.43 44.7299 60.37 44.5799 60.43C44.4299 60.49 44.6099 60.43 44.6399 60.41C44.6799 60.4 44.7199 60.39 44.7599 60.38C44.8599 60.36 44.9299 60.38 44.7199 60.38C44.8099 60.38 44.9099 60.37 44.9999 60.37C45.0399 60.37 45.0899 60.37 45.1299 60.37C45.3099 60.37 44.9199 60.32 45.0899 60.37C45.1799 60.39 45.2699 60.41 45.3599 60.44C45.3999 60.45 45.4399 60.48 45.4799 60.48C45.2899 60.44 45.3599 60.43 45.4499 60.48C45.5299 60.52 45.6099 60.58 45.6899 60.63C45.7799 60.69 45.5299 60.5 45.6499 60.6C45.6899 60.63 45.7299 60.67 45.7599 60.7C45.7899 60.73 45.8299 60.77 45.8599 60.81C45.9699 60.93 45.7399 60.64 45.8399 60.79C46.1099 61.18 46.6399 61.39 47.0699 61.11C47.4499 60.86 47.6799 60.29 47.3899 59.88C46.6799 58.85 45.3599 58.3 44.1299 58.67C42.8999 59.04 42.0399 60.23 42.0599 61.5C42.0599 61.97 42.4699 62.42 42.9599 62.4C43.4499 62.38 43.8699 62 43.8599 61.5L43.8999 61.52Z" fill="#9E93FB"/>
<path d="M35.4 69.19C35.07 70.87 34.98 72.53 35.16 74.23C35.2 74.59 35.41 75.03 35.82 75.1C37.12 75.31 38.73 75.43 39.65 74.27C40.38 73.35 40.05 70.14 42.18 71.12L41.73 70.34C41.73 71.1 41.75 71.85 41.76 72.61C41.76 73.2 41.62 74.1 41.81 74.66C42.09 75.49 43.12 75.81 43.91 75.73C44.8 75.64 45.65 75.08 46.1 74.32C46.38 73.84 46.52 73.29 46.59 72.75C46.64 72.4 46.49 70.89 46.63 70.74C46.8 70.55 48.41 70.61 48.81 70.58C49.63 70.52 50.45 70.47 51.27 70.41C52.91 70.3 54.56 70.19 56.2 70.08C59.57 69.85 62.94 69.63 66.3 69.4L65.4 68.5C65.33 70.21 64.56 74.21 67.31 74.29C68.21 74.32 69.06 73.76 69.5 73C69.78 72.53 69.9 72.01 69.97 71.47C70.02 71.07 69.91 69.81 70.5 70.03C71.42 70.38 70.71 72.83 71.19 73.6C71.67 74.37 72.87 74.43 73.64 74.19C76.18 73.42 76.1 70.56 75.73 68.45C75.53 67.31 73.8 67.79 73.99 68.93C74.13 69.76 74.35 73.51 72.42 72.37L72.83 72.91C72.56 71.56 72.97 70.13 72 68.99C71.36 68.24 70.28 67.77 69.34 68.26C68.28 68.81 68.32 69.97 68.22 70.99C68.19 71.29 68.13 72.13 67.8 72.31C66.95 72.75 67.1 71.64 67.1 71.32C67.1 70.38 67.17 69.44 67.21 68.5C67.23 68.04 66.78 67.57 66.31 67.6C61.3 67.94 56.29 68.27 51.28 68.61C50.05 68.69 48.82 68.78 47.58 68.86C46.81 68.91 45.88 68.83 45.3 69.45C44.77 70.02 44.88 70.83 44.87 71.55C44.86 72.08 44.45 74.9 43.32 73.79L43.58 74.43C43.56 73.07 43.55 71.71 43.53 70.35C43.53 70.06 43.37 69.7 43.08 69.57C41.76 68.96 40.23 69.18 39.22 70.28C38.72 70.82 38.53 71.43 38.44 72.14C38.36 72.77 38.4 73.19 37.71 73.41C37.3 73.54 36.71 73.43 36.29 73.36L36.95 74.23C36.78 72.69 36.82 71.19 37.12 69.67C37.34 68.54 35.61 68.05 35.38 69.19H35.4Z" fill="#9E93FB"/>
<path d="M29.4001 48.91C30.4401 45.1 31.6001 41.32 32.8601 37.57L31.2201 37.78C31.9601 39.08 32.7101 40.39 33.4501 41.69C33.8201 42.34 34.9201 42.24 35.0901 41.48C35.9701 37.63 37.2802 33.91 39.0402 30.37H37.4901C38.3201 32.23 39.1401 34.1 39.9701 35.96C40.2601 36.62 41.2001 36.47 41.5201 35.96C43.8001 32.4 46.0801 28.83 48.3601 25.27L46.7201 25.06L48.5801 32.18C48.7801 32.96 49.8201 33.03 50.2201 32.39C51.9101 29.75 53.6002 27.12 55.2902 24.48L53.6501 24.27C54.4701 26.42 55.1201 28.62 55.5801 30.87C55.6901 31.42 56.4401 31.72 56.9001 31.41C60.0801 29.27 63.0702 26.88 65.8502 24.24L64.3101 23.6C64.5801 26.56 64.6701 29.52 64.5801 32.49C64.5601 33.15 65.3701 33.65 65.9301 33.27C68.9201 31.26 71.9001 29.25 74.8901 27.24L73.5402 26.46L73.3601 34.3C73.3401 34.96 74.1401 35.45 74.7101 35.08C77.0901 33.52 79.6801 32.45 82.4701 31.86L81.3601 30.75C80.3901 33.35 79.6001 35.99 78.9801 38.69C78.8501 39.27 79.2502 39.81 79.8502 39.83L87.1201 40.09L86.3401 38.74C85.0901 40.43 84.2502 42.32 83.8202 44.37C83.7202 44.86 83.9601 45.32 84.4501 45.48L86.5402 46.16C86.8602 46.26 88.4901 46.64 88.5901 46.84C88.6601 46.98 87.9301 48.31 87.8401 48.52C87.5501 49.22 87.2501 49.92 86.9601 50.62C86.7801 51.05 87.1601 51.64 87.5901 51.73C88.6601 51.95 89.7202 52.16 90.7902 52.38L90.2501 51.06C89.1001 53.61 88.0601 56.21 87.1501 58.86C86.7701 59.96 88.5101 60.43 88.8901 59.34C89.7501 56.84 90.7201 54.38 91.8101 51.97C92.0301 51.48 91.8901 50.77 91.2701 50.65C90.2001 50.43 89.1402 50.22 88.0702 50L88.7001 51.11C89.1101 50.13 89.5202 49.15 89.9402 48.17C90.2502 47.43 90.6901 46.65 90.2301 45.88C89.8501 45.25 89.0701 45.1 88.4201 44.89C87.2601 44.51 86.1002 44.14 84.9402 43.76L85.5702 44.87C85.9702 42.95 86.7402 41.24 87.9102 39.67C88.3402 39.09 87.7502 38.34 87.1302 38.32L79.8601 38.06L80.7301 39.2C81.3501 36.5 82.1401 33.85 83.1101 31.26C83.3701 30.57 82.6101 30.02 82.0001 30.15C79.0701 30.76 76.3201 31.91 73.8101 33.55L75.1602 34.33L75.3401 26.49C75.3501 25.84 74.5501 25.33 73.9901 25.71C71.0001 27.72 68.0201 29.73 65.0301 31.74L66.3802 32.52C66.4702 29.55 66.3801 26.59 66.1101 23.63C66.0401 22.87 65.1702 22.43 64.5702 22.99C61.9002 25.52 59.0401 27.82 55.9901 29.87L57.3101 30.41C56.8401 28.15 56.2002 25.96 55.3802 23.81C55.1102 23.09 54.1801 22.91 53.7401 23.6C52.0501 26.24 50.3601 28.87 48.6701 31.51L50.3101 31.72L48.4501 24.6C48.2501 23.82 47.2101 23.75 46.8101 24.39C44.5301 27.95 42.2501 31.52 39.9701 35.08H41.5201C40.6901 33.22 39.8702 31.35 39.0402 29.49C38.7702 28.88 37.7701 28.92 37.4901 29.49C35.6701 33.17 34.2801 37.03 33.3601 41.03L35.0001 40.82C34.2601 39.52 33.5101 38.21 32.7701 36.91C32.3701 36.21 31.3602 36.41 31.1302 37.12C29.8702 40.87 28.7201 44.65 27.6701 48.46C27.3601 49.58 29.1002 50.06 29.4102 48.94L29.4001 48.91Z" fill="#9E93FB"/>
<path d="M17.6602 57.48C17.8602 56.74 18.0502 56 18.2502 55.25C18.3102 55.02 18.2802 54.76 18.1602 54.56C18.0502 54.37 17.8401 54.2 17.6201 54.15C17.1501 54.04 16.6401 54.29 16.5101 54.78C16.3101 55.52 16.1201 56.26 15.9201 57.01C15.8601 57.24 15.8901 57.5 16.0101 57.7C16.1201 57.89 16.3301 58.06 16.5501 58.11C17.0201 58.22 17.5302 57.97 17.6602 57.48Z" fill="#9E93FB"/>
<path d="M13.2501 58.1C12.2801 57.92 11.3001 57.85 10.3201 57.94C10.0801 57.96 9.86007 58.03 9.68007 58.2C9.52007 58.36 9.41006 58.61 9.42006 58.84C9.44006 59.29 9.82009 59.78 10.3201 59.74C11.0501 59.68 11.7801 59.69 12.5001 59.79L12.2601 59.76C12.4301 59.78 12.6001 59.81 12.7701 59.84C13.0101 59.88 13.2401 59.88 13.4601 59.75C13.6501 59.64 13.8201 59.43 13.8701 59.21C13.9701 58.77 13.7401 58.19 13.2401 58.1H13.2501Z" fill="#9E93FB"/>
<path d="M12.3899 63.43C12.5199 63.3 12.6499 63.18 12.7899 63.07L12.6099 63.21C12.8599 63.01 13.1399 62.85 13.4299 62.73L13.2199 62.82C13.3299 62.77 13.4399 62.73 13.5599 62.7C13.7799 62.63 13.9799 62.49 14.0999 62.29C14.2199 62.09 14.2599 61.8101 14.1899 61.6001C14.1199 61.3901 13.9799 61.17 13.7799 61.06C13.5799 60.95 13.3199 60.9001 13.0899 60.9701C12.3499 61.2001 11.6599 61.61 11.1199 62.17C10.9599 62.34 10.8599 62.57 10.8599 62.81C10.8599 63.03 10.9599 63.29 11.1199 63.45C11.2799 63.61 11.5199 63.72 11.7599 63.71C11.9999 63.7 12.2299 63.62 12.3999 63.45L12.3899 63.43Z" fill="#9E93FB"/>
</svg>
