<svg width="100" height="100" viewBox="0 0 100 100" fill="none" xmlns="http://www.w3.org/2000/svg">
<path d="M31.9899 67.78L18.3999 64.41C21.9599 50.09 26.6399 36.8 36.7399 36.49C42.8999 36.35 46.3799 41.11 48.9299 44.62C49.8399 45.87 51.5099 48.18 52.3499 48.57C52.7199 48.48 55.2499 47.63 59.6899 40.65L71.5099 48.15C69.1099 51.94 61.7899 63.47 51.1199 62.53C44.1899 61.93 40.2199 56.46 37.5999 52.85C37.4799 52.68 37.3499 52.5 37.2099 52.32C35.9799 54.65 34.1299 59.18 31.9899 67.8V67.78Z" fill="#2F2E45"/>
<path d="M63.6999 40.06C64.7399 37.02 65.7 33.95 66.59 30.85L64.9499 31.06C65.6299 32.02 66.22 33.02 66.74 34.08C66.99 34.58 67.79 34.68 68.15 34.26C69.12 33.17 70.0599 32.06 70.9799 30.92L69.4799 30.52C69.8099 31.6 70.1399 32.68 70.4799 33.76C70.6399 34.27 71.09 34.46 71.59 34.39C73.59 34.11 75.5599 33.68 77.49 33.1L76.3799 32.47C76.9899 36.65 76.1699 42.24 71.4799 43.69C70.3799 44.03 70.85 45.77 71.96 45.43C74.36 44.69 76.2599 42.84 77.2899 40.57C78.5199 37.87 78.5299 34.88 78.1099 32C78.0399 31.53 77.42 31.25 77 31.37C75.07 31.95 73.0999 32.38 71.0999 32.66L72.21 33.29C71.88 32.21 71.55 31.13 71.21 30.05C71.03 29.46 70.15 29.1 69.71 29.65C68.8 30.79 67.8499 31.9 66.8799 32.99L68.2899 33.17C67.7699 32.12 67.18 31.11 66.5 30.15C66.06 29.54 65.0799 29.58 64.8599 30.36C63.9799 33.45 63.0099 36.52 61.9699 39.57C61.5899 40.67 63.33 41.14 63.71 40.05L63.6999 40.06Z" fill="#9E93FB"/>
<path d="M72.6698 49.14C76.2098 46.66 79.7798 44.16 82.8598 41.12C84.3498 39.65 85.7198 38.04 86.8898 36.29C87.3798 35.55 87.9098 34.69 87.7298 33.77C87.5398 32.78 86.5898 32.24 85.6298 32.45C84.4198 32.71 83.3098 33.75 82.3198 34.44C81.1298 35.27 79.9498 36.11 78.7898 36.97C77.8698 37.65 78.7598 39.21 79.6998 38.52C80.7898 37.72 81.8898 36.93 82.9899 36.16C83.5399 35.77 84.0998 35.39 84.6598 35.01C85.0298 34.76 85.5399 34.25 85.9999 34.2C85.9699 34.01 85.9598 34 85.9698 34.18C85.9498 34.3 85.9098 34.41 85.8598 34.52C85.7798 34.71 85.6498 34.9 85.5398 35.07C85.2298 35.56 84.8898 36.03 84.5498 36.5C83.8798 37.4 83.1399 38.24 82.3699 39.05C79.2299 42.35 75.4798 44.99 71.7598 47.59C70.8198 48.25 71.7198 49.81 72.6698 49.14Z" fill="#9E93FB"/>
<path d="M74.7598 31.01C76.1598 29.69 77.5098 28.31 78.7898 26.86C79.3998 26.17 80.0098 25.47 80.5898 24.74C81.1698 24.01 81.6898 23.3 81.9598 22.42C82.1998 21.61 82.2198 20.48 81.5498 19.86C80.8098 19.17 79.7098 19.37 78.8798 19.75C78.0498 20.13 77.3398 20.73 76.6398 21.27C75.9398 21.81 75.2998 22.35 74.6598 22.93C73.1598 24.3 71.8198 25.83 70.6098 27.46C70.3198 27.85 70.5498 28.46 70.9298 28.69C71.3898 28.96 71.8698 28.76 72.1598 28.37C73.8998 26.03 75.9998 23.93 78.3498 22.22C78.8698 21.84 79.4698 21.3 80.1298 21.2C80.2298 21.18 80.4498 21.26 80.3098 21.14C80.2498 21.09 80.3098 21.29 80.3098 21.39C80.3198 21.69 80.2298 21.99 80.1098 22.26C79.8098 22.92 79.3198 23.48 78.8598 24.03C78.3598 24.63 77.8598 25.22 77.3398 25.79C76.1198 27.16 74.8298 28.47 73.4998 29.73C72.6598 30.53 73.9298 31.8 74.7698 31L74.7598 31.01Z" fill="#9E93FB"/>
<path d="M70.7 37.91C70.7 37.91 70.72 37.84 70.74 37.81L70.65 38.02C70.7 37.9 70.77 37.79 70.85 37.68L70.71 37.86C70.79 37.77 70.87 37.68 70.96 37.61L70.78 37.75C70.89 37.67 71 37.6 71.12 37.55L70.91 37.64C71.02 37.6 71.14 37.57 71.26 37.55L71.02 37.58C71.14 37.57 71.26 37.57 71.39 37.58L71.15 37.55C71.27 37.57 71.39 37.6 71.5 37.65L71.29 37.56C71.41 37.61 71.53 37.68 71.64 37.76L71.46 37.62C71.55 37.69 71.62 37.77 71.69 37.85L71.55 37.67C71.55 37.67 71.58 37.71 71.59 37.73C71.73 37.93 71.89 38.08 72.13 38.14C72.35 38.2 72.63 38.17 72.82 38.05C73.01 37.93 73.18 37.74 73.23 37.51C73.28 37.28 73.28 37.01 73.14 36.82C72.89 36.47 72.59 36.17 72.19 36C71.91 35.88 71.68 35.82 71.38 35.78C71.16 35.75 70.95 35.78 70.74 35.81C70.32 35.88 69.95 36.1 69.64 36.37C69.33 36.64 69.1 37.02 68.97 37.42C68.82 37.87 69.14 38.42 69.6 38.53C70.1 38.64 70.55 38.38 70.71 37.9L70.7 37.91Z" fill="#9E93FB"/>
<path d="M19.7302 66.55C18.0002 69.23 18.1702 72.76 17.9602 75.83C17.8402 77.64 17.7102 79.44 17.5902 81.25C17.5002 82.54 17.0302 84.53 18.6002 85.12C19.8502 85.59 20.9602 84.72 21.5102 83.65C22.2302 82.24 22.3702 80.61 22.6202 79.07C23.1802 75.53 23.7402 72 24.3002 68.46C24.4802 67.33 22.7502 66.84 22.5602 67.98C22.1102 70.8 21.6702 73.62 21.2202 76.44C21.0102 77.79 20.8102 79.14 20.5802 80.49C20.5302 80.75 19.8202 83.9 19.2602 83.46C19.0402 83.29 19.3402 81.87 19.3602 81.6C19.4102 80.87 19.4602 80.13 19.5102 79.4C19.6102 77.99 19.7102 76.58 19.8002 75.17C19.9802 72.62 19.8402 69.71 21.2802 67.48C21.9102 66.5 20.3502 65.6 19.7302 66.57V66.55Z" fill="#9E93FB"/>
<path d="M25.8799 68.9199C25.5699 72.0699 25.3699 75.2199 25.2799 78.3799C25.2399 79.9699 25.1399 81.5899 25.2399 83.1799C25.3099 84.3599 25.9099 85.4499 27.2399 85.4299C30.3499 85.3899 30.2099 81.1299 30.3599 79.0299C30.5799 75.8499 30.7399 72.6699 30.8499 69.4899C30.8899 68.3299 29.0899 68.3299 29.0499 69.4899C28.9599 72.0599 28.8399 74.6199 28.6799 77.1899C28.5999 78.4699 28.5099 79.7499 28.4199 81.0299C28.3799 81.5799 28.3599 82.1699 28.1599 82.6999C28.0599 82.9499 27.6499 83.7499 27.2499 83.6299C26.8999 83.5199 27.0399 82.6499 27.0399 82.3599C27.0399 81.7499 27.0399 81.1399 27.0399 80.5299C27.0499 79.1999 27.0899 77.8799 27.1399 76.5599C27.2399 74.0099 27.4299 71.4699 27.6699 68.9299C27.7799 67.7799 25.9799 67.7899 25.8699 68.9299L25.8799 68.9199Z" fill="#9E93FB"/>
<path d="M26.3198 43.22C25.5398 41.46 24.7298 39.54 25.3198 37.6C25.8298 35.92 27.0998 34.57 28.2698 33.32C29.6298 31.86 31.0298 30.43 32.3698 28.95C33.2698 27.96 34.0298 26.42 32.8698 25.28C31.7098 24.14 29.8798 25.37 28.8198 26.13C27.4398 27.13 26.2098 28.34 25.0098 29.54C22.7398 31.81 20.4998 34.53 19.9698 37.79C19.4798 40.86 20.4098 44.16 23.1098 45.92C24.0798 46.55 24.9898 45 24.0198 44.37C21.9998 43.05 21.3498 40.42 21.7298 38.14C22.1898 35.33 24.1198 33 26.0598 31.04C27.0398 30.04 28.0498 29.05 29.1398 28.15C29.7098 27.68 30.3198 27.25 30.9698 26.9C31.3198 26.71 31.7298 26.53 31.5498 27.09C31.4498 27.4 31.0798 27.69 30.8598 27.92C28.7698 30.16 26.3598 32.31 24.6598 34.87C23.8298 36.12 23.2798 37.57 23.2898 39.08C23.3098 40.87 24.0398 42.52 24.7498 44.13C25.2198 45.19 26.7698 44.27 26.2998 43.22H26.3198Z" fill="#9E93FB"/>
</svg>
