<svg width="100" height="100" viewBox="0 0 100 100" fill="none" xmlns="http://www.w3.org/2000/svg">
<path d="M65.7801 52.36C59.2401 52.2 52.4501 52.74 45.9601 53.28C45.2501 58.47 44.9601 63.75 45.2901 68.97C45.7401 68.93 46.2001 68.9 46.6501 68.86C52.9901 68.34 59.71 67.78 65.73 67.95C64.81 62.77 65.8401 57.44 65.7801 52.37V52.36Z" fill="#2F2E45"/>
<path d="M45.5901 12.72C45.6501 17.8 44.6201 23.13 45.5401 28.3C53.0601 28.51 59.5001 29.85 62.7601 33.79L74.7701 23.86C67.8001 15.43 57.0801 12.99 45.5901 12.72Z" fill="#2F2E45"/>
<path d="M43 39.24C45.63 36.28 48.72 33.84 52.21 31.97L50.89 30.95C50.16 34.48 49.05 37.91 47.54 41.2C47.11 42.13 48.15 42.97 48.95 42.29C50.99 40.57 52.74 38.57 54.21 36.33C54.74 35.52 53.73 34.73 52.98 35.1C48.76 37.16 44.98 40 41.81 43.47L43.22 44.56C43.93 43.43 44.68 42.04 44.19 40.67C43.86 39.74 42.97 38.97 41.96 38.93C39.28 38.82 39.56 42.34 41.31 43.42C42.52 44.17 44.12 44.37 45.49 44.63C47.11 44.94 48.74 45.16 50.38 45.29C53.9 45.58 57.42 45.42 60.92 44.91C61.75 44.79 61.71 43.64 61.13 43.27C56.23 40.06 49.38 41.42 45.9 46.05C45.52 46.55 45.95 47.2 46.44 47.37C50.48 48.83 55.02 48.27 58.59 45.89C59.06 45.58 59.21 44.9 58.77 44.48C56.5 42.3 52.55 42.84 50.99 45.59C50.71 46.08 50.95 46.78 51.53 46.91C57.87 48.42 64.6 45.95 68.52 40.76L66.97 39.85C65.83 41.88 68.95 43.73 70.29 41.88C70.95 40.97 70.81 39.69 70.2 38.79C69.44 37.66 68.02 37.29 66.77 37.04C60.76 35.81 53.02 35.12 49.26 41.13C49.05 41.47 49.12 41.95 49.4 42.22C51.18 43.99 53.54 41.68 52.88 39.62C52.01 36.93 48.64 35.97 46.15 36.33C45.05 36.49 45.49 37.98 46.39 38.1C48.19 38.34 50.22 37.74 51.42 36.32C52.4 35.17 52.09 33.66 50.73 33.01C49.17 32.26 47.39 32.84 45.87 33.36C43.89 34.04 41.99 34.96 40.24 36.11C38.49 37.26 36.88 38.62 35.47 40.17C34.24 41.53 33.01 43.09 33.28 45.03C33.82 48.92 38.78 50.36 42.09 50.23C46.54 50.05 50.69 47.12 51.53 42.6C51.66 41.91 51.13 41.34 50.42 41.49C48.63 41.88 47.16 43.04 46.38 44.7L47.79 44.52C44.78 41.3 39.76 40.59 35.95 42.79C35.17 43.24 35.52 44.45 36.4 44.47C39.92 44.54 42.57 41.54 43.08 38.22C43.39 36.22 43.07 34.17 42.46 32.25C42 30.79 41.22 29.04 39.43 29.01C38 28.99 36.99 30.3 37.46 31.66C38 33.23 39.66 33.51 41.13 33.5C42.6 33.49 44.33 33.26 45.11 31.81C45.74 30.64 45.41 29.11 44.58 28.14C43.38 26.73 41.36 26.63 39.74 27.31C37.77 28.14 36.58 29.99 35.52 31.74C35.04 32.53 35.98 33.4 36.75 32.97C38.32 32.1 39.39 30.75 39.93 29.04C40.19 28.21 39.02 27.47 38.43 28.16C37.05 29.77 35.89 31.54 35.02 33.48C34.43 34.81 33.3 36.93 34.06 38.39C34.87 39.95 36.76 39.34 37.63 38.2C38.5 37.06 38.74 35.48 38.5 34.09C38.26 32.7 37.52 31.36 36.28 30.64C35.14 29.97 33.28 29.79 32.62 31.21C32.11 32.32 32.73 33.77 33.79 34.3C35.29 35.05 36.97 34.03 37.96 32.92C40.64 29.89 40.87 25.22 38.77 21.83C38.53 21.44 37.95 21.22 37.54 21.51C36.59 22.17 36.12 23 36.03 24.15C35.98 24.82 36.84 25.28 37.38 24.93C38.37 24.29 38.92 23.33 38.86 22.14C38.82 21.35 37.91 20.96 37.32 21.5C34.2 24.39 31.77 28.17 30.69 32.3C30.17 34.29 30.02 36.54 31.1 38.38C32 39.91 33.56 40.92 35.35 40.9C36.51 40.89 36.51 39.09 35.35 39.1C33.57 39.12 32.4 37.59 32.15 35.95C31.88 34.19 32.46 32.38 33.09 30.75C34.28 27.69 36.2 24.99 38.59 22.76L37.05 22.12C37.08 22.67 36.96 23.04 36.47 23.36L37.82 24.14C37.83 23.67 38.04 23.31 38.43 23.06L37.2 22.74C38.47 24.79 38.73 27.33 37.87 29.6C37.45 30.71 36.65 32.11 35.5 32.59C35.17 32.73 34.03 32.82 34.22 32.13C34.37 31.56 35.5 32.28 35.72 32.48C36.4 33.08 36.72 34.05 36.76 34.94C36.78 35.45 36.71 35.97 36.54 36.45C36.37 36.93 35.67 37.98 35.67 36.93C35.67 36.36 36.11 35.49 36.32 34.97C36.58 34.32 36.87 33.69 37.2 33.08C37.89 31.78 38.73 30.57 39.68 29.45L38.18 28.57C37.78 29.84 36.98 30.78 35.83 31.42L37.06 32.65C37.71 31.58 38.37 30.46 39.33 29.64C40.24 28.86 41.92 28.2 42.99 29.09C43.93 29.87 43.8 31.23 42.59 31.58C42.11 31.72 39.03 32.02 39.13 31.05C39.17 30.64 39.82 30.98 39.95 31.1C40.18 31.3 40.34 31.69 40.45 31.97C40.69 32.56 40.86 33.18 41.01 33.8C41.35 35.17 41.51 36.59 41.28 37.99C40.88 40.44 39.02 42.73 36.38 42.68L36.83 44.36C39.96 42.54 44.02 43.17 46.49 45.8C46.86 46.19 47.66 46.14 47.9 45.62C48.5 44.34 49.48 43.53 50.86 43.23L49.75 42.12C49.03 46.02 45.49 48.42 41.63 48.43C38.46 48.43 32.9 46.21 35.92 42.33C38.08 39.55 41.08 37.36 44.26 35.89C45.64 35.25 47.56 34.32 49.12 34.44C49.34 34.46 50.08 34.52 50.16 34.8C50.26 35.13 49.31 35.72 49.12 35.83C48.25 36.32 47.3 36.42 46.33 36.29L46.57 38.06C47.64 37.91 48.76 38.1 49.68 38.66C50.05 38.88 50.43 39.17 50.71 39.5C51.02 39.83 51.17 40.24 51.15 40.7C51.04 40.95 50.86 41.03 50.61 40.93L50.75 42.02C52.64 39.01 56.24 37.91 59.63 37.91C61.62 37.91 63.58 38.24 65.53 38.62C66.31 38.77 67.18 38.87 67.91 39.23C68.33 39.44 68.68 39.67 68.81 40.14C68.89 40.31 68.9 40.49 68.84 40.68C68.65 40.61 68.52 40.63 68.46 40.75C69.05 39.71 67.59 38.94 66.91 39.84C63.5 44.35 57.44 46.47 51.96 45.16L52.5 46.48C53.48 44.75 56 44.34 57.45 45.73L57.63 44.32C54.42 46.47 50.5 46.94 46.87 45.62L47.41 46.94C50.32 43.06 56.17 42.19 60.18 44.81L60.39 43.17C56.6 43.72 52.74 43.78 48.93 43.34C47.05 43.13 45.1 42.83 43.28 42.3C42.98 42.21 40.89 41.24 41.92 40.96C43.3 40.58 41.81 43.35 41.63 43.65C41.09 44.51 42.35 45.5 43.04 44.74C46.11 41.37 49.75 38.65 53.84 36.65L52.61 35.42C51.23 37.53 49.56 39.39 47.64 41.01L49.05 42.1C50.62 38.68 51.81 35.12 52.58 31.42C52.74 30.65 51.97 30.02 51.26 30.4C47.64 32.34 44.41 34.89 41.68 37.95C40.91 38.81 42.18 40.09 42.95 39.22L43 39.24Z" fill="#9E93FB"/>
<path d="M36.6201 52.0301C34.9801 57.8501 34.8101 63.92 35.1401 69.93C35.3101 72.97 35.5801 76.0001 35.8401 79.0301C35.9001 79.8101 35.9701 80.58 36.0201 81.36C36.0401 81.67 36.0701 81.9801 36.0901 82.2901C36.1201 82.9601 36.2601 82.86 35.6201 82.94C34.1001 83.12 32.4701 82.98 30.9501 82.95C29.7901 82.93 29.7901 84.73 30.9501 84.75C32.6501 84.79 34.3901 84.85 36.0901 84.73C37.1101 84.66 37.8701 84.17 37.9301 83.06C38.0101 81.44 37.7001 79.7201 37.5601 78.1001C37.4201 76.3901 37.2701 74.68 37.1401 72.96C36.6301 66.11 36.4801 59.17 38.3601 52.51C38.6801 51.39 36.9401 50.9201 36.6201 52.0301Z" fill="#9E93FB"/>
<path d="M48.5701 71.1601C49.2501 75.8501 50.2701 80.48 51.6101 85.02L52.4801 83.88C50.6601 84.1 48.8401 84.1501 47.0101 84.0401C45.8501 83.9701 45.8601 85.77 47.0101 85.84C48.8401 85.95 50.6601 85.9 52.4801 85.68C53.0401 85.61 53.5301 85.1601 53.3501 84.5401C52.0101 80.0001 50.9901 75.36 50.3101 70.68C50.2401 70.2 49.6301 69.94 49.2001 70.05C48.6801 70.19 48.5001 70.6801 48.5701 71.1601Z" fill="#9E93FB"/>
</svg>
