<svg width="100" height="100" viewBox="0 0 100 100" fill="none" xmlns="http://www.w3.org/2000/svg">
<path d="M39.68 70.88C44.43 73.43 49.78 73.83 54.71 72.45C54.65 72.03 54.59 71.6 54.53 71.18C53.39 68.5 52.22 65.83 50.8 63.24C48.62 63.59 46.37 63.29 44.34 62.2C39.44 59.57 37.57 53.35 39.81 47.86C36.49 47.39 33.15 47.1 29.9 46.42C27.16 55.93 31.01 66.22 39.69 70.88H39.68Z" fill="#2F2E45"/>
<path d="M68.9801 40.61L62.1101 48.69C65.4801 52.28 65.4501 56.83 62.4401 60.8C64.5201 62.77 66.6001 64.74 68.7101 66.63C75.6001 58.28 75.4801 47.64 68.9801 40.61Z" fill="#2F2E45"/>
<path d="M43.92 49.19C42.83 51.02 42.8201 53.35 44.1401 55.07C45.2001 56.46 47.42 57.61 49.19 56.97C51.12 56.28 51.1201 52.71 50.8301 51.09C50.4801 49.11 48.4901 48.53 46.9001 49.64C45.3901 50.69 43.79 52.96 44.62 54.84C45.49 56.82 48.18 56.8 50 57C51.06 57.11 52.49 57.51 53.49 57.05C54.4 56.64 54.64 55.61 54.75 54.71C54.98 52.82 54.5201 50.62 52.6601 49.69C51.0301 48.87 48.91 49.46 47.79 50.86C46.5 52.47 46.6101 54.87 47.7101 56.55C49.7901 59.72 55.61 60.72 58 57.35C60.53 53.78 56.8001 48.19 52.6501 48.45C48.8301 48.69 47.6101 54.58 51.8901 55.13C56.6701 55.74 58.0401 49.12 57.5201 45.61C57.3901 44.74 57.16 43.83 56.44 43.26C55.48 42.52 54.04 42.84 52.93 42.91C50.62 43.04 47.98 43.01 46.12 44.61C44.67 45.86 44.0001 47.96 45.0801 49.66C46.0201 51.14 47.85 51.77 49.51 51.93C51.45 52.12 53.2301 51.48 53.5301 49.35C53.8101 47.37 52.95 45.11 51.93 43.45C49.61 39.68 44.7901 37.49 40.5301 39.28C38.7601 40.03 37.11 41.84 37.98 43.88C38.77 45.74 41.39 46.07 43.13 45.66C45.11 45.19 46.68 43.68 47.24 41.73C47.74 40 47.51 37.34 45.63 36.54C44.62 36.11 43.32 36.15 42.24 36.08C40.68 35.98 39.11 35.97 37.55 36.04C35.41 36.14 32.9801 36.41 31.6501 38.32C28.8201 42.41 34.7501 45.07 38.0801 44.46C42.6601 43.62 43.35 36.57 41.67 33.14C40.84 31.45 38.77 30.1 36.93 31.18C35.2 32.19 35.2501 34.56 35.8401 36.22C37.5201 40.93 42.34 42.05 46.81 42.4C50.58 42.69 57.34 43.23 59.29 38.97C60.82 35.61 58.29 31.56 54.73 31.16C50.47 30.67 47.06 34.46 47.07 38.53C47.08 42.6 50.1601 47.48 54.8301 46.39C57.2101 45.84 59.4501 44.34 61.3301 42.83C63.0801 41.43 64.79 39.66 65.29 37.4C65.74 35.35 65.17 33.26 63.48 31.96C61.65 30.55 59.08 30.18 56.87 29.81C54.12 29.35 51.32 29.11 48.54 29.17C46.18 29.22 43.74 29.56 41.82 31.04C37.76 34.16 39.7701 39.73 42.2201 43.25C43.3401 44.85 44.86 46.29 46.86 46.57C49.05 46.88 51.0701 45.75 52.6001 44.27C55.7801 41.2 58.19 35.91 57.29 31.44C56.86 29.29 55.37 27.69 53.62 26.48C51.87 25.27 49.5201 23.72 47.3401 23.96C42.7901 24.45 40.7201 30.71 41.1501 34.57C41.3801 36.65 42.2701 38.65 43.7201 40.16C45.3801 41.89 47.67 42.65 49.93 43.22C52.5 43.87 54.93 44.2 57.44 43.13C59.25 42.36 61.33 41.32 62.32 39.52C63.19 37.94 62.75 36.08 61.37 34.96C59.76 33.66 57.55 33.44 55.56 33.26C54.2 33.14 52.84 33.08 51.48 33.1C50.26 33.12 48.8701 33.05 47.7101 33.5C46.0601 34.14 45.3901 35.84 45.5201 37.52C45.8301 41.47 49.72 45.08 53.73 44.65C55.62 44.45 57.4501 43.39 58.2001 41.59C58.8701 40 58.5901 37.94 56.9701 37.03C55.0501 35.95 52.8801 37.09 51.6501 38.64C50.2501 40.41 49.42 42.72 49.06 44.93C48.36 49.31 49.4 54.37 52.57 57.63C53.9 59 55.73 59.95 57.68 59.69C59.46 59.45 61 58.31 61.48 56.55C61.79 55.43 60.05 54.95 59.74 56.07C59.4 57.33 58.13 57.99 56.88 57.94C55.25 57.88 53.9 56.61 53.01 55.34C51.35 52.97 50.5801 50.03 50.6501 47.15C50.7201 44.47 51.56 40.81 53.75 39.03C55 38.01 57.01 38.36 56.73 40.27C56.52 41.7 55.1601 42.59 53.8301 42.82C50.9601 43.32 48.13 40.9 47.44 38.2C47.19 37.23 47.1301 35.81 48.1501 35.24C48.8001 34.88 49.78 34.94 50.5 34.91C51.46 34.87 52.42 34.87 53.38 34.91C55.29 34.98 60.2101 34.82 60.9101 37.33C61.6601 40.04 56.0401 42 54.2201 42.06C52.5901 42.11 50.93 41.64 49.37 41.2C47.81 40.76 46.2701 40.17 45.1001 39.01C42.8701 36.8 42.4 33.46 43.31 30.54C43.73 29.18 44.4301 27.8 45.4701 26.81C46.9401 25.4 48.3901 25.62 50.1001 26.52C52.6801 27.87 55.44 29.49 55.62 32.72C55.79 35.75 54.5 38.94 52.73 41.34C51.08 43.58 48.1701 46.06 45.4001 44.08C43.2201 42.53 41.49 38.96 41.24 36.36C40.86 32.39 44.8601 31.1 48.0801 30.98C51.4901 30.86 54.93 31.2 58.26 31.91C61.1 32.51 64.4701 33.66 63.4501 37.29C62.6301 40.2 59.3001 42.39 56.7701 43.7C55.3101 44.46 53.41 45.3 51.82 44.43C50.52 43.72 49.6401 42.15 49.2101 40.78C48.3501 38.05 49.08 34.91 51.74 33.51C54.06 32.29 56.8701 33.06 57.7101 35.66C59.8701 42.38 46.55 40.84 43.31 40.13C40.51 39.52 37.7 37.78 37.26 34.69C37.17 34.08 37.18 33.1 37.81 32.73C38.64 32.25 39.5201 33.04 39.9101 33.69C40.7701 35.13 40.8301 37.18 40.5201 38.78C40.2501 40.16 39.6401 41.96 38.2201 42.53C36.9601 43.04 34.9201 42.61 33.7801 41.91C32.3301 41.02 32.5601 39.4 33.9701 38.56C35.3801 37.72 37.4101 37.8 39.0201 37.78C40.6301 37.76 42.31 37.83 43.95 38.01C44.69 38.09 45.1601 38.12 45.4601 38.88C45.5601 39.12 45.6101 39.45 45.6401 39.7C45.7301 40.49 45.55 41.32 45.17 42.02C44.51 43.25 43.19 43.99 41.81 44.01C40.95 44.02 39.65 43.8 39.57 42.76C39.51 41.87 40.3601 41.29 41.0801 40.96C44.0501 39.62 47.5901 40.9 49.6001 43.29C50.4801 44.34 51.1001 45.6 51.4701 46.92C51.8701 48.38 52.16 50.17 50.13 50.15C49.05 50.15 47.7701 49.86 46.9501 49.11C45.6501 47.91 46.6401 46.19 47.9501 45.49C49.35 44.74 51.13 44.79 52.67 44.7C53.45 44.65 54.64 44.33 55.26 44.83C55.99 45.41 55.84 46.76 55.79 47.62C55.71 49.08 55.39 50.81 54.55 52.04C53.92 52.97 51.9 54.14 51.04 52.74C50.26 51.49 51.85 50.17 53.01 50.21C54.69 50.27 56.1301 51.74 56.7001 53.23C57.9901 56.6 54.5301 58.22 51.7201 57.32C50.2501 56.85 48.94 55.78 48.68 54.19C48.42 52.6 49.3901 50.98 51.1401 51.1C52.7601 51.21 53.1001 53 52.9701 54.32C52.9701 54.34 52.9201 55.03 52.8301 55.14C52.4701 55.55 51.8001 55.35 51.3501 55.31C50.4301 55.22 49.5201 55.13 48.6001 55.01C47.9901 54.93 47.1001 54.89 46.6001 54.5C45.7701 53.86 46.33 52.87 46.81 52.22C47.1 51.82 47.94 50.7 48.57 50.82C49.42 50.98 49.1101 53.15 49.0201 53.71C48.9001 54.5 48.83 55.23 47.9501 55.28C47.2801 55.31 46.5101 54.88 46.0201 54.46C44.7001 53.34 44.6 51.5 45.45 50.07C46.04 49.07 44.4901 48.17 43.9001 49.16L43.92 49.19Z" fill="#9E93FB"/>
<path d="M52.9401 37.8C58.5401 36.62 64.8701 38.91 69.8801 35.31C70.8101 34.64 69.9101 33.08 68.9701 33.76C66.7901 35.32 64.1401 35.68 61.5201 35.71C58.4801 35.74 55.4601 35.44 52.4601 36.07C51.3301 36.31 51.8101 38.04 52.9401 37.81V37.8Z" fill="#9E93FB"/>
<path d="M50.55 36.85C47.03 31.09 41.84 26.1 34.88 25.23C33.73 25.09 33.74 26.89 34.88 27.03C41.14 27.82 45.85 32.62 48.99 37.76C49.59 38.75 51.15 37.84 50.54 36.85H50.55Z" fill="#9E93FB"/>
<path d="M53.5601 35.28C52.3501 35.33 51.1301 35.53 49.9801 35.93C49.4201 36.12 48.7901 36.32 48.3501 36.72C47.8301 37.19 47.6201 38.03 48.0401 38.64C48.2601 38.96 48.6601 39.19 49.0601 39.05C50.5401 38.56 52.0101 38.02 53.4601 37.44L52.9801 35.7C51.7801 36.19 50.9501 37.13 50.3501 38.26C49.7101 39.5 49.2301 40.85 48.8201 42.18L50.5601 42.66C50.5901 42.43 50.6301 42.2 50.6601 41.97C50.7301 41.49 50.5401 41 50.0301 40.86C49.6101 40.74 48.9901 41 48.9201 41.49C48.8901 41.72 48.8501 41.95 48.8201 42.18C48.7501 42.66 48.9401 43.15 49.4501 43.29C49.9601 43.43 50.4101 43.13 50.5601 42.66C50.9201 41.51 51.3201 40.36 51.8301 39.33C51.9401 39.11 52.0601 38.89 52.1901 38.68C52.2501 38.58 52.3201 38.47 52.3901 38.37C52.4201 38.32 52.4601 38.27 52.5001 38.22C52.4401 38.3 52.5001 38.22 52.5301 38.19C52.6101 38.1 52.6901 38.01 52.7701 37.93C52.8201 37.88 52.8801 37.83 52.9301 37.78C52.9401 37.77 53.0701 37.66 53.0101 37.71C52.9501 37.76 53.0801 37.66 53.1001 37.65C53.1501 37.62 53.2001 37.59 53.2501 37.55C53.3001 37.51 53.3501 37.49 53.4101 37.46C53.4301 37.45 53.6101 37.37 53.4801 37.42C53.9301 37.24 54.2501 36.82 54.1101 36.31C53.9901 35.88 53.4601 35.5 53.0001 35.68C51.5501 36.26 50.0801 36.8 48.6001 37.29L49.6201 37.7C49.5101 37.54 49.6601 37.84 49.6301 37.92C49.6301 37.92 49.5601 38.08 49.5301 38.04C49.5201 38.02 49.9101 37.84 49.9501 37.82C50.3201 37.66 50.7301 37.53 51.1301 37.42C51.9601 37.19 52.7301 37.07 53.5801 37.04C54.0701 37.02 54.4801 36.64 54.4801 36.14C54.4801 35.67 54.0701 35.22 53.5801 35.24L53.5601 35.28Z" fill="#9E93FB"/>
<path d="M58.73 26.34C61.21 23.28 63.69 20.21 66.17 17.15L64.63 16.51C64.52 18.56 64.41 20.61 64.31 22.66C64.27 23.39 65.09 23.72 65.66 23.44C67.36 22.61 69.07 21.79 70.77 20.96L69.45 19.94C69.1 21.85 68.7 23.75 68.26 25.64C68.1 26.31 68.69 26.92 69.37 26.75C71.18 26.29 72.99 25.84 74.8 25.38L73.78 24.06C72.43 26.55 71.08 29.04 69.72 31.53C69.17 32.55 70.72 33.46 71.27 32.44C72.62 29.95 73.97 27.46 75.33 24.97C75.71 24.28 75.09 23.45 74.31 23.65C72.5 24.11 70.69 24.56 68.88 25.02L69.99 26.13C70.43 24.24 70.83 22.34 71.18 20.43C71.33 19.64 70.59 19.06 69.86 19.41C68.16 20.24 66.45 21.06 64.75 21.89L66.1 22.67C66.21 20.62 66.32 18.57 66.42 16.52C66.46 15.78 65.38 15.27 64.88 15.88C62.4 18.94 59.92 22.01 57.44 25.07C56.72 25.96 57.98 27.24 58.71 26.34H58.73Z" fill="#9E93FB"/>
<path d="M51.65 74.4C51.62 76.4 51.79 78.4 52.11 80.37L52.98 79.23C51.58 79.4 50.16 79.48 48.75 79.48C48.28 79.48 47.83 79.89 47.85 80.38C47.87 80.87 48.25 81.28 48.75 81.28C50.16 81.28 51.58 81.19 52.98 81.03C53.6 80.96 53.95 80.52 53.85 79.89C53.55 78.09 53.43 76.24 53.45 74.4C53.45 73.93 53.03 73.48 52.55 73.5C52.07 73.52 51.66 73.9 51.65 74.4Z" fill="#9E93FB"/>
<path d="M70.7101 66.83C73.4001 67.66 76.34 67 78.49 65.22L77.0801 65.04C77.5201 65.81 77.8301 66.62 78.0301 67.49C78.2901 68.62 80.0301 68.14 79.7701 67.01C79.5301 66 79.1501 65.03 78.6401 64.13C78.3301 63.59 77.66 63.59 77.23 63.95C75.57 65.32 73.2401 65.72 71.2001 65.09C70.0901 64.75 69.6201 66.49 70.7201 66.83H70.7101Z" fill="#9E93FB"/>
<path d="M57.0601 70.89C57.1001 70.44 57.1701 69.99 57.2701 69.54C57.3201 69.33 57.3701 69.12 57.4301 68.92C57.4701 68.79 57.5101 68.66 57.5501 68.54C57.5701 68.49 57.5801 68.44 57.6001 68.39C57.6601 68.25 57.6201 68.28 57.4801 68.49L57.0301 68.61C56.7901 68.47 56.7401 68.46 56.8901 68.59C56.9501 68.66 57.0201 68.72 57.0901 68.79C57.2201 68.92 57.3601 69.04 57.5001 69.16C57.8101 69.41 58.1301 69.65 58.4801 69.86C59.1401 70.26 59.8701 70.55 60.6101 70.74C61.1801 70.88 61.7501 70.47 61.7501 69.87C61.7501 68.99 61.7001 68.09 61.7601 67.21L61.6401 67.66L61.6801 67.58L61.3601 67.9L61.4301 67.86L60.9801 67.98C60.8101 67.98 61.2001 68.04 61.2401 68.05C61.4001 68.09 61.5601 68.14 61.7201 68.18C62.0201 68.26 62.3101 68.34 62.6101 68.42C63.2301 68.59 63.8501 68.76 64.4701 68.92C65.0201 69.07 65.6301 68.64 65.6101 68.05C65.5701 67.05 65.4501 66.06 65.2501 65.09C65.1501 64.61 64.5901 64.34 64.1401 64.46C63.6401 64.6 63.4101 65.09 63.5101 65.57C63.6801 66.39 63.7701 67.22 63.8101 68.06L64.9501 67.19C64.2801 67.01 63.6101 66.82 62.9301 66.64C62.5801 66.54 62.2301 66.45 61.8801 66.35C61.5901 66.27 61.2901 66.16 60.9801 66.17C60.6001 66.18 60.2701 66.4 60.1001 66.73C59.9301 67.04 59.9701 67.41 59.9701 67.76C59.9701 68.46 59.9701 69.15 59.9701 69.85L61.1101 68.98C60.4101 68.81 59.7701 68.53 59.1701 68.13C58.9201 67.97 58.7001 67.79 58.4801 67.59C58.1801 67.31 57.9201 66.97 57.5101 66.84C56.4701 66.5 56.0101 67.46 55.7701 68.26C55.5201 69.11 55.3701 69.98 55.3001 70.86C55.2601 71.34 55.7401 71.76 56.2001 71.76C56.7201 71.76 57.0601 71.35 57.1001 70.86L57.0601 70.89Z" fill="#9E93FB"/>
</svg>
