<svg width="100" height="100" viewBox="0 0 100 100" fill="none" xmlns="http://www.w3.org/2000/svg">
<path d="M26.3 24.02L30.61 9.04999C47.63 13.95 67.22 21.37 67.65 35.35C67.95 45.3 58.5 51.37 50.89 56.26C49.38 57.23 47.44 58.48 45.87 59.61C49.1 60.82 55.55 62.52 68.06 63.87L66.4 79.36C40.67 76.6 29.59 71.59 28.17 62.07C26.85 53.19 35.14 47.86 42.46 43.15C45.21 41.38 50.76 37.81 51.94 35.83C51.12 34.64 46.7 29.91 26.28 24.03L26.3 24.02Z" fill="#2F2E45"/>
<path d="M19.56 25.42C17.37 27.11 15.37 28.98 13.56 31.08C13.11 31.61 13.35 32.7 14.2 32.62C18.07 32.23 21.88 31.47 25.6 30.31L24.72 28.81C22.4 31.09 20.31 33.57 18.44 36.23C17.99 36.87 18.74 37.79 19.46 37.55C24.03 36.02 28.6 34.49 33.17 32.96L32.29 31.46C29.62 34.58 26.95 37.71 24.28 40.83C23.71 41.49 24.24 42.57 25.16 42.33C30.53 40.95 35.75 39.12 40.81 36.86L39.72 35.45C36.7 39.08 33.09 42.11 28.97 44.42C27.96 44.99 28.87 46.54 29.88 45.97C34.12 43.59 37.89 40.46 41 36.72C41.67 35.92 40.85 34.89 39.91 35.31C34.99 37.5 29.9 39.26 24.69 40.6L25.57 42.1C28.24 38.98 30.91 35.85 33.58 32.73C34.12 32.1 33.62 30.92 32.7 31.23C28.13 32.76 23.56 34.29 18.99 35.82L20.01 37.14C21.79 34.6 23.8 32.25 26.01 30.08C26.64 29.46 26.01 28.31 25.13 28.58C21.57 29.69 17.92 30.45 14.21 30.82L14.85 32.36C16.55 30.39 18.42 28.58 20.48 26.98C21.38 26.28 20.48 24.72 19.57 25.43L19.56 25.42Z" fill="#9E93FB"/>
<path d="M56.09 57.2C56.42 58.4 57.84 58.71 58.89 59.03C60.19 59.43 61.58 59.68 62.94 59.51C65.01 59.26 67.12 57.96 67.64 55.83C68.16 53.7 66.91 51.33 64.75 50.63C63.73 50.3 62.43 50.32 61.5 50.91C60.57 51.5 60.35 52.66 60.84 53.61C61.92 55.69 65.43 55.44 67.33 54.94C69.54 54.36 71.5101 52.64 71.8501 50.3C72.0101 49.16 71.72 48.05 71.14 47.06C70.6 46.13 69.7901 44.96 68.8501 44.41C66.8801 43.25 64.3701 45.84 64.8201 47.84C65.4001 50.43 69.45 50.23 71.17 49.11C73.23 47.77 73.78 44.96 72.23 43.03C71.5 42.13 70.24 43.41 70.96 44.3C71.68 45.19 71.35 46.65 70.52 47.36C69.63 48.12 68.13 48.32 67.05 47.85C66.44 47.59 66.5101 47.11 66.8501 46.62C67.0101 46.38 67.26 46.12 67.53 45.99C67.91 45.81 68.0901 46.03 68.3501 46.31C69.2201 47.24 70.21 48.49 70.11 49.83C69.87 52.9 66.07 53.74 63.58 53.33C63.27 53.28 62.1 52.99 62.43 52.44C62.7 51.99 63.91 52.22 64.28 52.35C65.47 52.75 66.17 54 65.94 55.23C65.68 56.64 64.23 57.48 62.92 57.7C62.02 57.85 61.08 57.72 60.2 57.51C59.79 57.41 59.38 57.29 58.98 57.15C58.84 57.1 57.9 56.9 57.84 56.71C57.54 55.59 55.8001 56.07 56.1001 57.19L56.09 57.2Z" fill="#9E93FB"/>
<path d="M72.31 54.6299C71.8 57.8799 71.51 61.17 71.48 64.46C71.47 65.62 73.27 65.62 73.28 64.46C73.31 61.33 73.56 58.2 74.05 55.11C74.13 54.63 73.93 54.1399 73.42 53.9999C72.99 53.8799 72.39 54.1499 72.31 54.6299Z" fill="#9E93FB"/>
<path d="M75.9001 55.08C75.6301 57.8 75.4601 60.53 75.3801 63.26C75.3501 64.42 77.1501 64.42 77.1801 63.26C77.2601 60.53 77.4301 57.8 77.7001 55.08C77.7501 54.6 77.2501 54.18 76.8001 54.18C76.2701 54.18 75.9501 54.59 75.9001 55.08Z" fill="#9E93FB"/>
<path d="M33.56 6.93C35.96 8.06 38.35 9.18998 40.75 10.32C41.19 10.53 41.72 10.44 41.98 9.99998C42.21 9.60998 42.1 8.98 41.66 8.77C39.26 7.64 36.87 6.50998 34.47 5.37998C34.03 5.16998 33.5 5.25999 33.24 5.69999C33.01 6.08999 33.12 6.72 33.56 6.93Z" fill="#9E93FB"/>
<path d="M38.6101 6.17995C41.6801 7.48995 44.8701 8.43993 48.1701 8.96993C48.6501 9.04993 49.1401 8.84992 49.2801 8.33992C49.4001 7.90992 49.1301 7.30994 48.6501 7.22994C45.5201 6.72994 42.4401 5.86995 39.5201 4.61995C39.0701 4.42995 38.5601 4.48993 38.2901 4.93993C38.0701 5.31993 38.1601 5.97994 38.6101 6.16994V6.17995Z" fill="#9E93FB"/>
<path d="M45.0601 11.52C46.9001 12.56 48.7401 13.61 50.5701 14.65C50.9801 14.88 51.5701 14.76 51.8001 14.33C52.0301 13.9 51.91 13.35 51.4801 13.1C49.64 12.06 47.8001 11.01 45.9701 9.96998C45.5601 9.73998 44.9701 9.85999 44.7401 10.29C44.5101 10.72 44.6301 11.27 45.0601 11.52Z" fill="#9E93FB"/>
<path d="M50.61 11.26C52.23 11.9 53.8501 12.54 55.4701 13.19C56.7301 13.69 58.18 14.09 59.08 15.17C59.39 15.55 60.0301 15.49 60.3501 15.17C60.7201 14.8 60.6601 14.27 60.3501 13.9C59.3301 12.66 57.72 12.15 56.27 11.58C54.54 10.9 52.81 10.21 51.08 9.52998C50.63 9.34998 50.0901 9.72998 49.9701 10.16C49.8301 10.67 50.1401 11.09 50.6001 11.27L50.61 11.26Z" fill="#9E93FB"/>
<path d="M54.42 16.31C56.58 17.83 58.74 19.35 60.9 20.87C61.3 21.15 61.9 20.94 62.13 20.55C62.39 20.1 62.21 19.6 61.81 19.32C59.65 17.8 57.49 16.28 55.33 14.76C54.93 14.48 54.33 14.69 54.1 15.08C53.84 15.53 54.02 16.03 54.42 16.31Z" fill="#9E93FB"/>
<path d="M61.7601 17.0299C62.6601 17.8399 63.5001 18.7099 64.2801 19.6299C64.6801 20.0999 64.9801 20.48 65.3101 20.93C65.6701 21.42 66.0201 21.9299 66.3501 22.4499C66.6001 22.8499 67.1601 23.04 67.5801 22.77C67.9801 22.51 68.1701 21.9599 67.9001 21.5399C66.5401 19.4099 64.9101 17.4499 63.0301 15.7599C62.6801 15.4399 62.1001 15.3899 61.7601 15.7599C61.4401 16.0999 61.3901 16.6999 61.7601 17.0299Z" fill="#9E93FB"/>
<path d="M64.3801 24.01C64.7101 24.3 65.0201 24.61 65.3101 24.93C65.4601 25.09 65.6001 25.26 65.7401 25.43C65.7701 25.47 65.8001 25.51 65.8301 25.54C65.9401 25.67 65.7801 25.47 65.8401 25.56C65.9001 25.65 65.9701 25.74 66.0301 25.82C66.2801 26.17 66.5001 26.53 66.7101 26.9C66.8201 27.09 66.9201 27.28 67.0201 27.48C67.0701 27.58 67.1201 27.68 67.1601 27.78C67.1801 27.82 67.2001 27.87 67.2201 27.91C67.2301 27.94 67.3301 28.16 67.2401 27.96C67.3301 28.19 67.4301 28.37 67.6501 28.5C67.8401 28.61 68.1301 28.66 68.3401 28.59C68.7601 28.46 69.1601 27.95 68.9701 27.48C68.2101 25.67 67.1101 24.04 65.6401 22.73C65.2901 22.42 64.7101 22.36 64.3701 22.73C64.0601 23.07 64.0001 23.67 64.3701 24L64.3801 24.01Z" fill="#9E93FB"/>
<path d="M69.57 25.12C70.14 27.15 70.39 29.24 70.32 31.35C70.3 31.84 70.75 32.25 71.22 32.25C71.72 32.25 72.1 31.84 72.12 31.35C72.2 29.09 71.92 26.82 71.31 24.65C71 23.54 69.26 24.01 69.57 25.13V25.12Z" fill="#9E93FB"/>
<path d="M35.7801 75.76C34.9901 78.36 34.6401 81.11 34.7801 83.83C34.8501 85.11 35.11 86.34 35.27 87.61C35.27 87.68 35.3201 87.85 35.2901 87.9C35.2501 87.98 35.26 87.93 35.27 87.92C35.15 88.03 34.5801 87.97 34.4101 87.98C33.6901 88.03 32.9701 88.08 32.2501 88.12L33.0301 89.47C33.1301 89.28 33.2401 89.09 33.3401 88.9C33.9001 87.88 32.3401 86.97 31.7901 87.99C31.6901 88.18 31.58 88.37 31.48 88.56C31.17 89.12 31.55 89.96 32.26 89.91C33.06 89.86 33.8601 89.8 34.6601 89.75C35.3201 89.71 36.04 89.71 36.55 89.22C37.54 88.26 36.88 86.65 36.73 85.49C36.32 82.38 36.61 79.22 37.52 76.23C37.86 75.12 36.1201 74.64 35.7801 75.75V75.76Z" fill="#9E93FB"/>
<path d="M42.9701 77.89C42.9201 79.86 42.67 81.9599 44.08 83.5599C45.07 84.6799 46.72 85.2699 48.2 85.0999C49.14 84.9899 49.98 84.6499 50.7 84.0299C51.07 83.7099 51.03 83.0799 50.7 82.7599C50.33 82.3899 49.8001 82.4399 49.4301 82.7599C49.3901 82.7899 49.3501 82.83 49.3201 82.86C49.4001 82.8 49.4101 82.79 49.3201 82.86C49.2401 82.91 49.1601 82.97 49.0701 83.02C48.9801 83.07 48.9001 83.11 48.8101 83.15C49.0101 83.06 48.7201 83.1799 48.6801 83.1899C48.5201 83.2399 48.3501 83.2799 48.1801 83.3099C48.0801 83.3299 48.08 83.3299 48.2 83.3099C48.15 83.3099 48.1 83.3199 48.05 83.3199C47.95 83.3199 47.8501 83.33 47.7501 83.33C47.6501 83.33 47.55 83.33 47.45 83.33C47.4 83.33 47.0901 83.28 47.3201 83.33C47.1501 83.3 46.9801 83.2699 46.8101 83.2199C46.7101 83.1899 46.6201 83.1599 46.5301 83.1299C46.4801 83.1099 46.44 83.1 46.39 83.08C46.49 83.12 46.4901 83.12 46.4001 83.08C46.2301 83 46.0701 82.9099 45.9101 82.8099C45.8401 82.7599 45.77 82.7099 45.7 82.6599C45.87 82.7899 45.6301 82.5899 45.6001 82.5699C45.5301 82.4999 45.46 82.43 45.39 82.36C45.36 82.33 45.17 82.0799 45.3 82.2599C45.02 81.8599 44.9301 81.65 44.8201 81.21C44.7001 80.73 44.6901 80.24 44.6901 79.7C44.6901 79.1 44.74 78.5099 44.76 77.9099C44.77 77.4199 44.34 77.0099 43.86 77.0099C43.38 77.0099 42.9701 77.4199 42.9601 77.9099L42.9701 77.89Z" fill="#9E93FB"/>
<path d="M49.34 83.61C49.9 84.41 50.46 85.21 51.02 86.01C51.16 86.21 51.32 86.36 51.56 86.42C51.78 86.48 52.06 86.45 52.25 86.33C52.44 86.21 52.61 86.0199 52.66 85.7899C52.71 85.5599 52.71 85.2899 52.57 85.0999C52.01 84.2999 51.45 83.5 50.89 82.7C50.75 82.5 50.59 82.3499 50.35 82.2899C50.13 82.2299 49.85 82.2599 49.66 82.3799C49.47 82.4999 49.3 82.69 49.25 82.92C49.2 83.15 49.2 83.42 49.34 83.61Z" fill="#9E93FB"/>
</svg>
