<svg width="100" height="100" viewBox="0 0 100 100" fill="none" xmlns="http://www.w3.org/2000/svg">
<path d="M65.52 62.92C63.79 47.84 59.34 39.28 51.11 35.18C47.39 33.33 38.8 33.81 33.9 35.46C30.11 36.74 27.47 38.82 26.06 41.67C23.26 47.32 22.34 55.88 22.61 67.6C27.18 66.5 31.74 66.05 36.31 65.62C36.19 57.27 36.75 51.72 38 48.54C39.69 47.85 43.7 47.55 45.56 47.76C47.2 48.74 50.45 51.77 51.91 64.5C52.42 68.94 53.38 77.34 53.67 85.52H67.39C67.12 76.77 66.12 68.03 65.53 62.94L65.52 62.92Z" fill="#2F2E45"/>
<path d="M53 13.3799C53.06 18.4599 52.03 23.79 52.95 28.96C60.47 29.17 66.91 30.51 70.17 34.45L82.18 24.52C75.21 16.09 64.49 13.6499 53 13.3799Z" fill="#2F2E45"/>
<path d="M22.7401 24.37C22.7701 25.54 23.5801 26.22 24.5901 26.66C26.0001 27.29 27.5401 27.72 29.0801 27.89C31.7401 28.18 34.6301 27.45 36.4001 25.33C37.8901 23.54 38.2101 20.86 36.9301 18.86C35.7101 16.96 32.7501 16 30.7101 17.13C28.2101 18.51 29.3901 21.72 31.5401 22.7C33.8801 23.77 36.7901 23.28 39.0201 22.17C41.2501 21.06 43.4501 18.92 44.2701 16.45C44.9901 14.27 44.1201 11.39 41.5501 11.05C38.4001 10.63 37.5901 14.44 38.7301 16.65C40.0801 19.27 43 21.51 45.85 22.17C46.98 22.43 47.4601 20.69 46.3301 20.43C44.6501 20.05 43.25 19.14 42.0301 17.94C40.9801 16.91 39.3301 15.17 40.1501 13.56C40.5601 12.76 41.4001 12.63 42.0701 13.22C42.8301 13.88 42.8701 14.9 42.5901 15.81C42.1101 17.39 40.8701 18.79 39.5601 19.76C38.3401 20.65 36.9001 21.28 35.4001 21.45C34.1101 21.6 31.0001 21.45 31.1201 19.54C31.2501 17.51 34.7101 18.79 35.3901 19.79C36.2001 21 36.1001 22.69 35.2901 23.87C34.2501 25.4 32.3401 26.13 30.5501 26.18C29.4401 26.21 28.3501 26.03 27.2801 25.73C26.7201 25.57 24.5701 25.16 24.5501 24.39C24.5201 23.23 22.7201 23.23 22.7501 24.39L22.7401 24.37Z" fill="#9E93FB"/>
<path d="M39.04 28.61C40 29.4 41.22 29.65 42.43 29.38C43.52 29.14 44.58 28.39 45.04 27.36C45.23 26.93 45.18 26.37 44.72 26.13C44.33 25.92 43.7 25.99 43.49 26.45C43.44 26.55 43.39 26.65 43.34 26.74C43.31 26.79 43.28 26.83 43.25 26.88C43.16 27.01 43.35 26.77 43.28 26.85C43.21 26.92 43.15 27 43.08 27.07C43.04 27.11 43 27.15 42.96 27.18C42.94 27.2 42.92 27.22 42.9 27.23C42.85 27.27 42.87 27.25 42.97 27.17C42.9 27.18 42.78 27.3 42.72 27.34C42.63 27.39 42.54 27.44 42.45 27.48C42.43 27.49 42.4 27.5 42.37 27.51C42.31 27.54 42.34 27.53 42.46 27.47C42.42 27.47 42.34 27.52 42.3 27.53C42.2 27.56 42.11 27.59 42.01 27.61C41.91 27.63 41.8 27.63 41.71 27.67C41.89 27.6 41.84 27.65 41.73 27.67C41.68 27.67 41.64 27.67 41.59 27.67C41.49 27.67 41.39 27.67 41.29 27.67C41.24 27.67 41.17 27.65 41.13 27.66C41.27 27.68 41.3 27.68 41.23 27.67C41.2 27.67 41.18 27.67 41.15 27.66C41.05 27.64 40.95 27.62 40.86 27.59C40.81 27.57 40.76 27.56 40.7 27.54C40.55 27.49 40.7 27.51 40.74 27.56C40.69 27.5 40.53 27.45 40.45 27.41C40.4 27.38 40.36 27.35 40.31 27.32C40.17 27.23 40.46 27.44 40.31 27.32C39.95 27.02 39.39 26.94 39.04 27.32C38.74 27.65 38.65 28.27 39.04 28.59V28.61Z" fill="#9E93FB"/>
<path d="M30.46 29.7C30.14 30.17 29.84 30.64 29.56 31.13C29.42 31.38 29.28 31.64 29.15 31.9C28.98 32.23 28.79 32.57 28.79 32.96C28.79 33.52 29.18 33.95 29.69 34.13C30 34.24 30.35 34.27 30.68 34.3C31.3 34.35 31.93 34.28 32.53 34.11C32.98 33.99 33.31 33.47 33.16 33C33.01 32.53 32.54 32.24 32.05 32.37C31.84 32.43 31.64 32.47 31.42 32.5L31.66 32.47C31.25 32.52 30.85 32.52 30.44 32.47L30.68 32.5C30.55 32.48 30.42 32.46 30.29 32.43C30.2 32.41 30.12 32.35 30.33 32.46C30.25 32.41 30.28 32.4399 30.41 32.5299C30.48 32.5999 30.53 32.68 30.56 32.77L30.59 33.01C30.59 33.01 30.59 32.95 30.59 32.91L30.56 33.15C30.56 33.15 30.57 33.08 30.58 33.05C30.61 32.96 30.6 32.98 30.55 33.12C30.58 33.09 30.6 33.01 30.62 32.97C30.68 32.85 30.74 32.73 30.81 32.61C30.93 32.39 31.05 32.16 31.18 31.94C31.44 31.48 31.72 31.04 32.02 30.61C32.29 30.22 32.11 29.59 31.7 29.38C31.24 29.14 30.75 29.29 30.47 29.7H30.46Z" fill="#9E93FB"/>
</svg>
