<svg width="100" height="100" viewBox="0 0 100 100" fill="none" xmlns="http://www.w3.org/2000/svg">
<path d="M66.2199 20.86L51.4199 25.73C55.9099 39.36 60.3599 50.23 64.9199 58.55C68.1899 53.77 71.6899 49.14 75.3999 44.69C72.6299 38.74 69.5499 30.98 66.2199 20.86Z" fill="#2F2E45"/>
<path d="M48.06 32.47C41.52 32.31 34.73 32.85 28.24 33.39C27.53 38.58 27.24 43.86 27.57 49.08C28.02 49.04 28.48 49.01 28.93 48.97C35.27 48.45 41.99 47.89 48.01 48.06C47.09 42.88 48.12 37.55 48.06 32.48V32.47Z" fill="#2F2E45"/>
<path d="M47.75 27.57C46.2 24.87 44.83 22.08 43.67 19.19C43.37 18.44 42.15 18.24 41.93 19.19C41.33 21.79 40.89 24.42 40.58 27.08L42.35 26.84C41.57 24.3 40.79 21.76 40.01 19.22C39.84 18.68 39.19 18.37 38.69 18.68C37.52 19.41 37.51 20.82 37.31 22.06C37.02 23.79 36.73 25.51 36.44 27.24H38.1799C37.3699 25.09 36.55 22.93 35.74 20.78C35.44 19.99 34.25 19.86 34 20.78C33.28 23.53 32.55 26.28 31.83 29.04H33.57C32.82 26.1 31.97 23.19 31 20.32C30.75 19.57 29.4 19.36 29.26 20.32C28.89 23.03 28.51 25.74 28.14 28.45H29.88C29.3 25.96 28.4 23.58 27.21 21.33C26.89 20.73 25.98 20.76 25.66 21.33C24.44 23.46 23.56 25.74 23.05 28.14C22.81 29.27 24.55 29.75 24.79 28.62C25.26 26.36 26.06 24.24 27.21 22.24H25.66C26.78 24.36 27.61 26.59 28.15 28.93C28.34 29.75 29.76 29.83 29.89 28.93C30.26 26.22 30.64 23.51 31.01 20.8H29.27C30.24 23.67 31.1 26.58 31.84 29.52C32.06 30.38 33.35 30.37 33.58 29.52C34.3 26.77 35.03 24.02 35.75 21.26H34.01C34.82 23.41 35.64 25.57 36.45 27.72C36.73 28.46 38.02 28.69 38.19 27.72C38.4 26.44 38.62 25.17 38.83 23.89C38.93 23.29 39.03 22.69 39.13 22.09C39.2 21.68 39.21 20.49 39.61 20.24L38.29 19.7C39.07 22.24 39.85 24.78 40.63 27.32C40.94 28.35 42.29 28.06 42.4 27.08C42.69 24.59 43.12 22.12 43.68 19.67H41.94C43.16 22.7 44.57 25.65 46.2 28.48C46.78 29.48 48.33 28.58 47.75 27.57Z" fill="#9E93FB"/>
<path d="M60.94 60.89C59.69 57.8 57.8301 55.01 55.3501 52.78C54.2801 51.82 53.1 50.88 51.69 50.48C50.14 50.04 48.4501 50.4 46.9001 50.7C44.1801 51.22 41.36 52.11 39.27 53.99C36.72 56.29 36.38 59.56 36.32 62.8C36.3 63.99 37.98 63.91 38.12 62.8C38.81 57.46 43.33 54.1601 48.63 54.6001C53.93 55.0401 55.9501 59.61 57.6501 63.8L59.2901 63.11C56.0401 58.82 52.2701 54.0901 46.5401 53.4101C44.2401 53.1401 41.79 53.6601 40.63 55.8501C39.61 57.7701 39.84 60.1 40.12 62.17C40.25 63.15 41.5801 62.89 41.8601 62.17C42.9901 59.24 46.16 57.2001 49.31 57.5401C52.46 57.8801 55.0501 60.53 55.6101 63.64L57.3501 63.1601C56.3001 59.9801 54.6801 56.87 52.0501 54.71C49.4201 52.55 45.79 51.58 42.38 51.24C38.97 50.9 35.97 51.81 33.68 54.28C31.59 56.53 30.49 59.54 30.38 62.59C30.34 63.75 32.11 63.74 32.18 62.59C32.35 59.75 33.54 56.86 35.7 54.95C36.71 54.06 38.1301 53.28 39.5301 53.58C40.9301 53.88 41.8601 55.03 41.6701 56.4L42.81 55.53C41.32 55.13 40.41 53.7301 39.08 53.0401C37.75 52.3501 36.3701 52.58 35.2301 53.53C32.3601 55.92 31.8501 59.98 31.4801 63.45C31.3701 64.51 32.94 64.59 33.25 63.69C34.46 60.19 36.29 56.96 38.69 54.13L37.1501 53.49C36.9001 55.87 36.65 58.25 36.39 60.62H38.19C38.23 58.39 37.82 56.19 36.94 54.14C36.33 52.72 35.2401 50.15 33.4701 49.9C31.7001 49.65 29.9601 51.92 28.9801 53.14C27.6001 54.85 26.57 56.76 25.82 58.82C25.43 59.91 27.16 60.38 27.56 59.3C28.08 57.85 28.7801 56.47 29.6701 55.2C30.1301 54.54 30.64 53.92 31.18 53.34C31.57 52.92 32.3301 51.92 32.9101 51.78C34.1501 51.49 35.43 55.07 35.7 55.9C36.21 57.43 36.42 59.01 36.39 60.62C36.37 61.8 38.07 61.75 38.19 60.62C38.44 58.24 38.69 55.86 38.95 53.49C39.03 52.73 37.9001 52.2801 37.4101 52.8501C34.8001 55.9201 32.82 59.39 31.51 63.2L33.2801 63.44C33.5901 60.57 33.95 57.06 36.25 55.01C37.44 53.95 38.3701 54.59 39.4201 55.46C40.3201 56.2 41.1901 56.94 42.3401 57.25C42.9601 57.42 43.4001 56.95 43.4801 56.38C43.7101 54.67 42.68 53.1001 41.2 52.2901C39.62 51.4201 37.7901 51.6201 36.2301 52.4101C32.5601 54.2501 30.63 58.67 30.39 62.58H32.19C32.28 60.02 33.2 57.4401 34.96 55.5401C37.13 53.2001 40 52.67 43.08 53.12C45.98 53.54 48.9901 54.3501 51.2201 56.3501C53.4501 58.3501 54.72 60.92 55.62 63.64C55.99 64.75 57.5601 64.2901 57.3601 63.1601C56.6601 59.2701 53.29 56.09 49.33 55.74C45.37 55.39 41.5701 58 40.1501 61.69H41.89C41.67 60.09 41.4601 58.1 42.2901 56.63C43.3901 54.67 46.1401 54.99 47.9701 55.53C52.2901 56.81 55.17 60.59 57.77 64.02C58.32 64.75 59.8401 64.36 59.4101 63.33C57.3101 58.16 54.46 53.01 48.21 52.78C45.29 52.67 42.26 53.51 40.01 55.42C37.76 57.33 36.7001 60 36.3401 62.8H38.14C38.19 60.04 38.37 57.22 40.56 55.26C42.33 53.67 44.7601 52.96 47.0501 52.5C48.3801 52.23 49.9001 51.84 51.2301 52.21C52.5601 52.58 53.6001 53.5701 54.5501 54.4701C56.5801 56.4101 58.1701 58.76 59.2301 61.37C59.6601 62.43 61.4001 61.97 60.9701 60.89H60.94Z" fill="#9E93FB"/>
<path d="M34.51 64.73C34.41 67.71 34.31 70.68 34.21 73.66L34.06 77.95C34.01 79.43 34.06 80.95 33.62 82.38L34.49 81.72C33.14 81.6 31.8 81.57 30.45 81.63C29.3 81.68 29.29 83.48 30.45 83.43C31.8 83.37 33.14 83.4 34.49 83.52C34.89 83.55 35.25 83.21 35.36 82.86C35.78 81.5 35.79 80.08 35.84 78.66L36 74.02C36.11 70.92 36.21 67.83 36.32 64.73C36.36 63.57 34.56 63.57 34.52 64.73H34.51Z" fill="#9E93FB"/>
<path d="M54.78 65.52C55.23 68.91 55.49 72.32 55.54 75.73C55.56 77.44 55.5399 79.15 55.4599 80.85C55.4499 81.08 55.4399 81.3 55.4299 81.53L55.55 81.32C55.26 81.51 54.6699 81.54 54.3299 81.61C53.4799 81.78 52.6299 81.88 51.7699 81.93C50.6199 82 50.6099 83.8 51.7699 83.73C52.6299 83.68 53.49 83.59 54.35 83.44C55.11 83.31 56.1799 83.22 56.7699 82.67C57.3599 82.12 57.26 81.24 57.29 80.51C57.33 79.49 57.3599 78.46 57.3699 77.44C57.3999 73.45 57.13 69.47 56.61 65.52C56.46 64.39 54.6599 64.37 54.8099 65.52H54.78Z" fill="#9E93FB"/>
<path d="M70.2 58.76C72.09 58.66 74.25 58.38 75.32 56.59C75.86 55.68 75.84 54.6201 75.7 53.6001C75.56 52.5801 75.31 51.64 74.92 50.71C74.74 50.26 74.32 49.94 73.81 50.08C73.38 50.2 73 50.73 73.18 51.19C73.5 51.96 73.74 52.7701 73.88 53.59C73.94 53.9601 73.9901 54.33 73.9901 54.7C73.9901 54.86 73.99 55.03 73.95 55.19C73.91 55.37 73.86 55.5101 73.81 55.6001C73.56 56.0501 73.08 56.41 72.61 56.59C71.84 56.88 71.02 56.92 70.2 56.96C69.71 56.99 69.3 57.36 69.3 57.86C69.3 58.33 69.71 58.79 70.2 58.76Z" fill="#9E93FB"/>
<path d="M76.01 49.91C77.97 49.52 79.94 48.03 80.27 45.96C80.58 44.03 79.4699 41.81 77.4399 41.4C76.9599 41.3 76.47 41.54 76.33 42.03C76.21 42.47 76.48 43.04 76.96 43.14C77.04 43.16 77.13 43.18 77.21 43.2C77.25 43.21 77.4499 43.3 77.3099 43.23C77.4599 43.3 77.61 43.39 77.74 43.49C77.61 43.39 77.7899 43.55 77.8199 43.57C77.8799 43.63 77.9399 43.69 77.9999 43.76C78.1699 43.94 77.9399 43.6401 78.0699 43.8501C78.1199 43.9201 78.17 43.99 78.21 44.07C78.38 44.37 78.42 44.51 78.51 44.92C78.57 45.17 78.51 44.78 78.52 45.03C78.52 45.12 78.53 45.2001 78.52 45.2901C78.51 45.3801 78.52 45.46 78.51 45.55C78.52 45.37 78.49 45.64 78.49 45.66C78.2 47.04 76.92 47.9 75.52 48.18C75.04 48.27 74.77 48.8401 74.89 49.2901C75.03 49.7901 75.5199 50.01 75.9999 49.92L76.01 49.91Z" fill="#9E93FB"/>
</svg>
