<svg width="100" height="100" viewBox="0 0 100 100" fill="none" xmlns="http://www.w3.org/2000/svg">
<path d="M51.03 37.0999L50.88 21.52C33.72 21.68 22.21 38.29 12.07 53.14C15.65 56.96 19.57 60.5099 23.84 63.5399C24.1 63.1599 24.35 62.7899 24.61 62.4099C32.68 50.5899 41.82 37.1799 51.03 37.0999Z" fill="#2F2E45"/>
<path d="M57.37 40.63C53.45 40.63 49.7 42.5 47.2 45.51C45.95 47.01 45 48.74 44.5 50.63C44.05 52.34 43.72 54.61 44.95 56.08C46.18 57.55 48.32 57.7 50.12 57.79C52.68 57.91 55.24 57.78 57.78 57.43C60.32 57.08 62.81 56.51 65.24 55.69C67.31 55 70.02 54.24 71.46 52.48C72.55 51.14 72.7 48.98 71.23 47.85C69.76 46.72 67.85 47.4 66.45 48.22C64.16 49.57 62.07 51.41 59.94 52.99C58.83 53.81 57.72 54.63 56.62 55.46C55.94 55.98 55.24 56.53 54.9 57.35C53.15 61.64 61.78 62.25 64.12 61.7C67.98 60.79 70.42 56.06 67.08 53.07C65.15 51.34 62.51 51.22 60.06 51.5C57.29 51.82 54.57 52.48 51.97 53.5C49.7 54.39 47.07 55.44 45.56 57.45C44.29 59.13 44.16 61.55 45.72 63.08C46.17 63.52 47.1 63.37 47.22 62.68C47.87 59.2 47.57 55.6 46.16 52.34C45.59 51.02 44.72 49.83 43.31 49.35C41.9 48.87 40.37 49.12 38.97 49.31C36.45 49.66 33.57 50.51 32.53 53.09C31.29 56.16 33.6 59.3 35.75 61.28C38.23 63.56 41.34 65.18 44.64 65.86C45.93 66.13 47.49 66.43 48.72 65.77C50.02 65.07 50.4 63.52 50.62 62.16C51.13 59.08 50.59 55.88 49.09 53.14C47.93 51.02 45.35 47.55 42.95 50.25C40.95 52.49 39.15 55.98 39.35 59.05C39.58 62.52 42.06 64.24 45.16 65.14C51.64 67.01 59.59 66.23 64.98 61.92C66.93 60.36 69.51 57.27 68.95 54.54C68.64 53.05 67.24 52.57 65.94 52.18C64.04 51.61 62.12 51.1 60.14 50.9C56.98 50.58 53.69 51.26 51.33 53.51C49.7 55.07 47.76 58.77 50.49 60.24C53.01 61.6 56.58 60.54 58.66 58.84C61.02 56.91 62.06 53.68 61.46 50.72C61.18 49.33 60.51 47.92 59.36 47.05C58.13 46.11 56.57 46.16 55.1 46.3C51.84 46.6 48.67 47.65 45.88 49.37C44.46 50.24 43.16 51.29 41.98 52.47L43.39 52.65C41.77 49.57 43.86 45.93 46.97 44.89C50.56 43.69 53.98 45.35 56.81 47.49C59.64 49.63 62.15 52.07 65.58 53.03C68.55 53.86 71.71 53.18 73.64 50.66C75.32 48.46 75.17 45.44 72.95 43.66C70.56 41.75 67.35 42.03 64.75 43.34C61.95 44.75 59.25 47.14 57.35 49.63C55.96 51.45 53.56 55.7 56.03 57.57C57.29 58.52 59.26 58.79 60.79 58.98C62.57 59.2 64.37 59.14 66.14 58.83C68.67 58.38 72.3 57.11 72.67 54.1C73.04 51.09 69.83 49.06 67.32 48.58C64.53 48.05 61.65 49 59.89 51.27C58.13 53.54 57.7 56.58 58.87 59.17C60.16 62.04 62.98 63.85 65.9 64.76C67.56 65.28 69.29 65.54 71.02 65.76C72.64 65.97 74.31 66.14 75.93 65.76C78.97 65.04 80.37 62.15 80.91 59.3C81.95 53.87 79.9 47.95 75.76 44.29C73.37 42.17 70.42 40.99 67.27 40.56C65.51 40.32 63.74 40.3 61.97 40.43C60.98 40.5 58.92 40.43 58.79 41.84C58.7 42.81 59.83 43.4 60.61 42.86C60.94 42.63 61.14 42.25 61.02 41.84L60.98 41.72C60.66 40.61 58.93 41.08 59.24 42.2L59.28 42.32L59.69 41.3L59.96 41.24L60.59 41.87L60.54 41.72L60.45 42.41C60.62 42.02 63.64 42.14 64.17 42.14C65.77 42.14 67.37 42.3 68.93 42.69C71.27 43.28 73.37 44.41 75.09 46.12C78.23 49.24 79.9 53.92 79.26 58.33C78.92 60.67 78.01 63.42 75.45 64.02C72.89 64.62 69.85 63.92 67.42 63.31C64.8 62.65 62.12 61.35 60.76 58.9C59.56 56.76 59.88 54.04 61.47 52.17C63.06 50.3 65.78 49.75 68.07 50.65C69.17 51.08 70.52 51.99 70.84 53.19C71.2 54.53 69.93 55.54 68.88 56.09C66.39 57.4 63.1 57.56 60.38 57.1C59.3 56.92 56.85 56.65 56.82 55.29C56.79 53.93 57.61 52.41 58.34 51.31C59.81 49.1 62.03 47.18 64.22 45.72C66.41 44.26 69.05 43.32 71.4 44.75C73.96 46.3 73.06 49.38 70.87 50.78C68.39 52.36 65.36 51.32 63.06 49.93C58.23 47.02 54.44 41.94 48.18 42.77C43.16 43.44 39.28 48.7 41.84 53.55C42.11 54.07 42.86 54.13 43.25 53.73C46.64 50.36 51.27 48.19 56.08 48.03C57.53 47.98 58.57 48.37 59.23 49.71C59.76 50.78 59.92 52.04 59.79 53.21C59.51 55.68 57.84 57.78 55.49 58.61C54.42 58.99 53.21 59.13 52.08 58.9C51.48 58.77 50.95 58.64 50.92 57.91C50.9 57.31 51.27 56.58 51.56 56.08C52.67 54.16 54.89 53.03 57.03 52.73C59.88 52.32 62.75 53.12 65.46 53.93C66 54.09 66.96 54.25 67.19 54.86C67.37 55.34 67.02 56.15 66.86 56.59C66.46 57.66 65.81 58.62 65.03 59.45C61.69 63 56.35 64.34 51.63 64.29C49.01 64.27 46.09 63.88 43.7 62.73C41.14 61.5 40.69 58.78 41.54 56.28C41.92 55.16 42.53 54.12 43.16 53.11C43.48 52.6 43.79 52.04 44.18 51.58C44.79 50.87 45.33 51.17 45.89 51.77C47.52 53.52 48.55 55.83 48.89 58.18C49.14 59.9 49.39 64.33 46.93 64.38C44.61 64.42 42.05 63.38 40.08 62.26C37.8 60.96 35.34 58.99 34.34 56.49C33.21 53.66 35.25 51.97 37.8 51.37C38.95 51.1 40.18 50.93 41.37 50.92C43 50.9 43.9 51.66 44.55 53.11C45.8 55.94 46.06 59.2 45.5 62.23L47 61.83C45.58 60.43 46.78 58.47 48.07 57.5C49.48 56.44 51.24 55.71 52.88 55.09C55.97 53.92 59.74 52.84 63.07 53.24C64.61 53.43 66.4 54.24 66.84 55.89C67.28 57.54 65.95 59.06 64.55 59.69C62.87 60.44 60.91 60.14 59.19 59.73C58.5 59.57 57.61 59.42 57.04 58.97C56.11 58.24 56.88 57.57 57.56 57.02C60.52 54.64 63.67 52.29 66.81 50.15C67.65 49.58 69.87 48.21 70.49 49.71C71.29 51.64 67.88 52.8 66.7 53.26C63.42 54.54 59.96 55.41 56.46 55.79C54.82 55.97 53.16 56.05 51.51 56.02C50.08 56 48.04 56.16 46.79 55.29C45.35 54.29 46.01 51.82 46.47 50.43C46.96 48.93 47.8 47.54 48.85 46.37C51.05 43.93 54.11 42.42 57.41 42.41C58.57 42.41 58.57 40.61 57.41 40.61L57.37 40.63Z" fill="#9E93FB"/>
<path d="M50.88 52.0299C56.12 54.9299 61.65 57.32 67.36 59.12C73.07 60.92 79.04 62.4499 84.94 62.7499C90.28 63.0199 92.42 58.3299 93.05 53.7299C93.35 51.5499 93.14 49.0499 91.12 47.7299C89.27 46.5199 86.81 46.8999 84.86 47.6699C80.05 49.5699 75.34 54.4099 75.97 59.9199L77.32 59.1399C75.7 58.0599 73.88 56.8399 73.12 54.9699C72.58 53.6299 72.76 51.4899 74.23 50.7799C75.7 50.0699 77.5 50.9699 79.02 50.2199C80.54 49.4699 80.91 47.8399 80.69 46.2999C79.55 38.5699 69.47 36.5999 63.95 40.9099C61.14 43.1099 59.9 47.4999 62.86 50.1599C63.72 50.9299 65 49.6599 64.13 48.8899C62.48 47.4099 62.68 44.9699 64.01 43.3399C65.41 41.6099 67.75 40.65 69.92 40.43C72.09 40.21 74.24 40.6899 75.97 41.9699C77.51 43.0999 79.04 45.1499 78.97 47.1599C78.88 49.7099 75.45 48.42 73.81 49.02C72.49 49.5 71.59 50.7199 71.23 52.0499C70.18 55.9799 73.5 58.7599 76.41 60.6999C76.94 61.0499 77.84 60.5999 77.76 59.9199C77.26 55.5599 80.53 52.0099 84.1 50.0099C85.71 49.1099 88.13 48.16 89.92 49.12C91.96 50.21 91.39 53.1799 90.99 55.0099C90.59 56.8399 89.94 58.8699 88.43 60.0699C86.5 61.5999 83.6 60.8599 81.38 60.5299C76.57 59.8099 71.82 58.6899 67.19 57.1899C61.85 55.4599 56.7 53.2 51.78 50.49C50.77 49.93 49.86 51.4799 50.87 52.0399L50.88 52.0299Z" fill="#9E93FB"/>
<path d="M55.11 57.1899C60.4 56.4599 64.84 53.06 67.93 48.83C71.55 43.88 73.22 37.8 74.75 31.95C74.96 31.15 73.83 30.3299 73.25 31.0699C72.3 32.2799 71.23 33.34 69.97 34.23C69.04 34.89 69.85 36.3699 70.88 35.7799C72.55 34.8299 74.04 33.6599 75.36 32.2499L73.82 31.61C74.06 34.13 75.54 36.11 77.87 37.08C78.94 37.53 79.4 35.7899 78.35 35.3399C76.83 34.6999 75.77 33.2399 75.62 31.5999C75.55 30.8799 74.66 30.35 74.08 30.96C72.87 32.26 71.51 33.33 69.97 34.21L70.88 35.76C72.27 34.79 73.49 33.6599 74.53 32.3199L73.03 31.4399C70.48 41.2099 66.32 53.82 54.65 55.42C53.51 55.58 53.99 57.3099 55.13 57.1599L55.11 57.1899Z" fill="#9E93FB"/>
<path d="M57.38 39.82C58.37 39.62 59.3701 39.43 60.3601 39.23C60.8201 39.14 61.13 38.56 60.99 38.12C60.83 37.63 60.38 37.39 59.88 37.49C58.89 37.69 57.89 37.88 56.9 38.08C56.44 38.17 56.13 38.75 56.27 39.19C56.43 39.68 56.88 39.92 57.38 39.82Z" fill="#9E93FB"/>
<path d="M62.37 38.5C63.53 38.04 64.63 37.47 65.65 36.75C65.85 36.61 66 36.45 66.06 36.21C66.12 35.99 66.09 35.71 65.97 35.52C65.72 35.14 65.15 34.91 64.74 35.2C64.27 35.53 63.79 35.84 63.29 36.11C63.05 36.24 62.8 36.37 62.55 36.49C62.42 36.55 62.28 36.61 62.15 36.67C62.06 36.71 62.08 36.7 62.21 36.64C62.18 36.65 62.14 36.67 62.11 36.68C62.04 36.71 61.97 36.74 61.9 36.76C61.67 36.85 61.49 36.96 61.36 37.17C61.25 37.36 61.2 37.65 61.27 37.86C61.34 38.07 61.48 38.29 61.68 38.4C61.88 38.51 62.15 38.58 62.37 38.49V38.5Z" fill="#9E93FB"/>
<path d="M67.78 34.7999L69.82 32.3299C69.98 32.1399 70.08 31.9499 70.08 31.6899C70.08 31.4699 69.98 31.2099 69.82 31.0499C69.66 30.8899 69.42 30.7799 69.18 30.7899C68.95 30.7999 68.69 30.8699 68.54 31.0499L66.5 33.5199C66.34 33.7099 66.24 33.8999 66.24 34.1599C66.24 34.3799 66.34 34.6399 66.5 34.7999C66.66 34.9599 66.9 35.0699 67.14 35.0599C67.37 35.0499 67.63 34.9799 67.78 34.7999Z" fill="#9E93FB"/>
<path d="M47.99 68.4C47.99 71.14 47.99 73.88 47.98 76.61L48.88 75.71C47.38 75.73 45.89 75.74 44.39 75.76C43.23 75.77 43.23 77.5699 44.39 77.5599C45.89 77.5399 47.38 77.53 48.88 77.51C49.37 77.51 49.78 77.1 49.78 76.61C49.78 73.87 49.78 71.13 49.79 68.4C49.79 67.24 47.99 67.24 47.99 68.4Z" fill="#9E93FB"/>
<path d="M69.83 67.6299C70.46 70.5099 70.86 73.4399 71.03 76.3799L71.93 75.48C70.66 75.43 69.41 75.52 68.15 75.71C67.67 75.79 67.4 76.39 67.52 76.82C67.66 77.33 68.15 77.52 68.63 77.45C69.72 77.28 70.83 77.2299 71.93 77.2799C72.4 77.2999 72.86 76.8499 72.83 76.3799C72.66 73.2799 72.23 70.19 71.57 67.15C71.32 66.02 69.59 66.4999 69.83 67.6299Z" fill="#9E93FB"/>
<path d="M82.71 32.78C86.05 32.78 88.49 30.41 88.49 27.22C88.49 24.03 86.04 21.66 82.71 21.66C79.38 21.66 76.93 24.03 76.93 27.22C76.93 30.41 79.38 32.78 82.71 32.78Z" fill="#2F2E45"/>
</svg>
