<svg width="100" height="100" viewBox="0 0 100 100" fill="none" xmlns="http://www.w3.org/2000/svg">
<path d="M66.29 73.75L54.29 63.81C62.28 54.17 62.42 42.91 58.49 37.22C55.89 33.44 50.8 30.83 44.87 30.23C36.8 29.41 28.57 32.39 22.32 38.41L11.52 27.18C21.07 17.99 33.8 13.45 46.44 14.73C57.01 15.8 66.08 20.77 71.32 28.37C79.89 40.81 77.78 59.89 66.29 73.75Z" fill="#2F2E45"/>
<path d="M19.74 43.92C20.35 45.98 22.48 47.42 24.63 47.13C26.78 46.84 28.45 44.91 28.51 42.76C28.52 42.27 28.09 41.86 27.61 41.86C27.13 41.86 26.72 42.27 26.71 42.76C26.69 43.33 26.45 43.97 26.04 44.42C25.58 44.93 25.01 45.28 24.38 45.36C24.31 45.36 24.06 45.38 23.92 45.36C23.7 45.35 23.73 45.36 23.49 45.29C23.4 45.27 23.3 45.24 23.21 45.21C23.19 45.21 22.95 45.11 23.06 45.16C22.9 45.09 22.74 45 22.59 44.9C22.07 44.56 21.65 44.02 21.47 43.43C21.14 42.32 19.4 42.79 19.73 43.91L19.74 43.92Z" fill="#9E93FB"/>
<path d="M44.82 42.0899C44.85 43.8499 46.19 45.19 47.8 45.71C49.54 46.27 51.48 45.7399 52.61 44.2799C53.24 43.4699 53.56 42.36 53.15 41.37C52.96 40.92 52.55 40.6 52.04 40.74C51.62 40.86 51.22 41.3999 51.41 41.8499C51.46 41.9599 51.49 42.0699 51.52 42.1899C51.57 42.3599 51.54 42.0999 51.52 42.2899C51.52 42.3399 51.51 42.5499 51.52 42.3899C51.51 42.4999 51.47 42.6099 51.44 42.7199C51.39 42.8899 51.49 42.6599 51.4 42.8299C51.35 42.9199 51.3 43.0099 51.24 43.0999C51.22 43.1399 51.19 43.18 51.16 43.21C51.21 43.15 51.2 43.16 51.13 43.24C51.07 43.31 51 43.3799 50.94 43.4399C50.9 43.4799 50.85 43.5299 50.8 43.5699C50.72 43.6299 50.7 43.65 50.74 43.62C50.78 43.59 50.76 43.5999 50.68 43.6599C50.63 43.6999 50.58 43.7299 50.52 43.7599C50.44 43.8099 50.36 43.86 50.27 43.9C50.21 43.93 50.16 43.9599 50.1 43.9799C50.16 43.9499 50.16 43.9599 50.1 43.9799C49.92 44.0499 49.73 44.0899 49.54 44.1299C49.73 44.0999 49.44 44.1299 49.4 44.1299C49.3 44.1299 49.2 44.1299 49.1 44.1299C49.01 44.1299 48.93 44.1199 48.85 44.1099C48.74 44.0999 48.74 44.0999 48.84 44.1099C48.78 44.1099 48.73 44.0899 48.67 44.0799C48.5 44.0399 48.34 43.9999 48.18 43.9399C48.13 43.9199 48.07 43.8999 48.02 43.8799C48.1 43.9199 48.1 43.9099 48 43.8799C47.92 43.8399 47.85 43.81 47.77 43.77C47.69 43.73 47.62 43.6899 47.55 43.6399C47.52 43.6199 47.26 43.4299 47.4 43.5399C47.27 43.4399 47.15 43.3299 47.04 43.1999C47 43.1599 46.97 43.1199 46.93 43.0799C46.99 43.1499 46.99 43.1599 46.93 43.0799C46.89 43.0099 46.84 42.9499 46.8 42.8799C46.79 42.8499 46.67 42.6099 46.71 42.6999C46.75 42.7899 46.66 42.5399 46.65 42.5099C46.63 42.4299 46.61 42.35 46.6 42.27C46.64 42.47 46.6 42.1399 46.6 42.0999C46.6 41.6099 46.19 41.1999 45.7 41.1999C45.21 41.1999 44.79 41.6099 44.8 42.0999L44.82 42.0899Z" fill="#9E93FB"/>
<path d="M31.24 33.95C30.14 34.92 29.01 36.07 28.28 37.37C27.71 38.39 28.18 39.49 29.41 39.52C30.12 39.54 30.89 39.19 31.54 38.98C32.38 38.71 33.22 38.42 34.05 38.11C35.72 37.5 37.36 36.81 38.97 36.06L37.74 34.83C36.4 36.93 35.11 39.06 34.49 41.49C34.29 42.26 35.12 42.88 35.81 42.51C39.49 40.51 43.17 38.51 46.85 36.51L45.94 34.96C44.25 36.1 42.86 37.53 41.8 39.28C41.47 39.82 41.89 40.71 42.58 40.63C45.94 40.27 49.24 39.58 52.46 38.52C53.56 38.16 53.09 36.42 51.98 36.78C48.92 37.78 45.78 38.48 42.58 38.82L43.36 40.17C44.26 38.69 45.42 37.47 46.86 36.5C47.82 35.86 46.98 34.39 45.95 34.95C42.27 36.95 38.59 38.95 34.91 40.95L36.23 41.97C36.81 39.69 38.04 37.71 39.3 35.74C39.82 34.92 38.82 34.16 38.07 34.51C36.6 35.19 35.1 35.82 33.58 36.38C32.89 36.64 32.19 36.88 31.49 37.11C30.99 37.27 29.8 37.86 29.29 37.68L29.83 38.09C29.81 38.34 29.85 38.35 29.95 38.12C30.06 37.96 30.17 37.79 30.28 37.64C30.5 37.33 30.74 37.04 30.99 36.75C31.46 36.21 31.98 35.71 32.52 35.24C33.39 34.48 32.12 33.21 31.25 33.97L31.24 33.95Z" fill="#9E93FB"/>
<path d="M44.36 50.94C39.43 48.76 33.2801 48.65 28.5201 51.41C26.8001 52.41 24.88 54.39 25.39 56.57C25.94 58.94 28.96 59.92 31.01 60.52C32.35 60.91 33.76 61.15 35.16 61.23C36.32 61.3 37.8701 61.45 38.83 60.66C40.75 59.09 38.67 56.64 37.14 55.79C34.9 54.55 32.0701 53.97 29.6201 54.89C27.5601 55.67 25.88 57.55 25.57 59.76C25.26 61.97 26.44 64.09 28.72 64.35C31 64.61 34.21 63.49 35.88 61.83C37.55 60.17 36.3801 57.9 34.3401 57.26C32.3001 56.62 29.82 57.39 28.2 58.76C24.27 62.1 25.58 68.27 30.01 70.43C32.48 71.63 35.23 71.64 37.86 71.03C40.34 70.46 42.99 69.48 45.04 67.94C46.94 66.51 48.2701 64.35 47.7101 61.91C47.1501 59.47 44.86 57.68 42.45 57.31C36.57 56.41 31.4 61.77 29.88 66.97C29.7 67.58 30.1901 68.05 30.7501 68.11C34.1201 68.49 37.5201 67.87 40.5601 66.37C43.2201 65.07 46.63 62.68 47.16 59.54C47.69 56.4 44.82 54.86 42.16 54.92C39.07 54.99 35.7701 56.77 33.7801 59.1C32.9101 60.12 32.61 61.69 34.11 62.3C35.61 62.91 37.62 62.62 39.14 62.45C42.5 62.07 46.2701 60.92 48.9001 58.71C51.1801 56.8 50.76 53.74 48.54 51.97C46.08 50 42.91 50.79 40.61 52.6C39.49 53.48 37.8201 54.9 37.5001 56.34C37.2101 57.67 38.38 58.78 39.67 58.79C42.25 58.82 45.2501 55.72 42.2701 53.86C40.8301 52.97 38.93 52.56 37.3001 52.18C35.43 51.74 33.52 51.45 31.6 51.32C27.77 51.06 23.88 51.45 20.19 52.48C17.21 53.31 13.2801 54.64 12.8001 58.2C12.4001 61.24 15.36 63.19 18.13 62.95C19.88 62.8 21.46 62 22.97 61.17C24.17 60.51 25.55 59.64 25.94 58.23C26.87 54.86 22.1201 53.45 19.6501 53.74C16.7201 54.09 14.07 56.74 14.73 59.85C15.39 62.96 18.6101 64.2 21.2501 64.95C25.2001 66.07 29.35 66.54 33.45 66.31C35.82 66.18 39.8701 65.21 38.5501 61.89C37.34 58.85 32.7301 57.52 29.8001 57.37C26.6001 57.2 22.8901 58.31 21.4001 61.4C20.0201 64.25 21.15 67.23 23.85 68.76C26.92 70.5 30.9301 70.68 34.3101 70.01C37.1301 69.46 40.7301 67.92 40.6501 64.5C40.5701 61.27 37.34 59.04 34.33 59.03C31.32 59.02 28.43 61.31 27.83 64.34C27.28 67.13 28.7001 70.07 31.0501 71.59C33.5601 73.21 36.9501 72.86 39.33 71.16C41.96 69.28 43.01 65.95 42.39 62.84C42.14 61.57 41.54 59.82 40.38 59.11C38.93 58.22 37.8101 59.56 37.1801 60.73C35.6001 63.68 34.61 67.89 35.7 71.18C36.63 74 40.1301 74.39 42.2701 72.69C44.0901 71.24 46.5401 66.71 43.6201 65.15C41.0401 63.77 37.9601 66.3 38.0001 68.99C38.0401 71.98 41.0301 74.03 43.8401 73.75C46.6501 73.47 49.5101 71.27 49.5301 68.34C49.5401 65.21 45.93 64.9 44.22 66.97C42.2 69.41 43.03 73.23 45.61 74.89C46.81 75.66 48.61 76.1 49.97 75.53C51.26 74.99 51.5201 73.54 51.0901 72.32C50.2101 69.86 47.2 68.91 44.95 69.98C43.9 70.48 44.82 72.03 45.86 71.53C46.64 71.16 47.5401 71.25 48.2801 71.68C49.0201 72.11 50.24 73.59 48.88 73.94C46.46 74.57 44.54 71.64 44.95 69.57C45.13 68.67 45.84 67.3 46.94 67.38C48.11 67.46 47.72 68.97 47.36 69.65C46.41 71.42 43.8201 72.51 41.9301 71.77C40.0401 71.03 38.95 68.61 40.7 67.14C41.76 66.26 43.48 66.51 43.01 68.23C42.74 69.23 42.22 70.27 41.48 71C40.8 71.67 39.88 72.1 38.91 71.92C37.59 71.68 37.2901 70.52 37.1801 69.35C36.9701 66.99 37.3601 64.58 38.3401 62.42C38.5301 61.99 38.73 61.42 39.04 61.08C39.66 60.41 39.88 61.18 40.14 61.73C40.61 62.74 40.81 63.88 40.76 64.99C40.67 67.05 39.61 68.95 37.82 70C34.32 72.05 29.4701 69.92 29.4901 65.59C29.4901 63.49 31.0101 61.58 33.0201 61.01C35.1801 60.4 37.9 61.44 38.67 63.67C39.49 66.07 37.08 67.41 35.14 67.96C32.76 68.64 30.2101 68.75 27.7801 68.26C25.9501 67.89 23.6901 67.15 22.8401 65.32C21.8701 63.22 23.4001 60.95 25.2401 60C27.3101 58.94 29.88 58.95 32.08 59.54C33.2001 59.84 38.6501 62.07 36.5001 63.8C35.8101 64.35 34.76 64.42 33.92 64.48C32.66 64.57 31.39 64.59 30.13 64.54C27.68 64.45 25.2501 64.11 22.8701 63.52C20.9801 63.05 18.8101 62.51 17.4001 61.08C15.8101 59.47 16.4 56.99 18.36 55.96C19.43 55.4 20.7201 55.38 21.8701 55.67C22.8401 55.91 24.6501 56.63 24.1201 57.93C23.7701 58.79 22.64 59.3 21.88 59.72C20.82 60.3 19.7201 60.87 18.5301 61.1C16.5301 61.48 13.8501 60.27 14.7401 57.84C15.5601 55.61 18.4 54.86 20.45 54.28C24.9 53.01 29.64 52.71 34.22 53.41C36.41 53.74 38.8201 54.22 40.8401 55.15C41.3301 55.38 41.9201 55.68 41.4601 56.22C41.2201 56.5 40.26 56.98 39.94 56.95C39.08 56.86 39.55 56.22 39.95 55.75C40.32 55.31 40.7301 54.89 41.1501 54.5C42.6001 53.18 44.7901 51.97 46.7401 52.93C48.3801 53.74 49.41 55.76 47.91 57.2C46.41 58.64 43.8801 59.57 41.8401 60.12C40.7501 60.42 39.63 60.62 38.51 60.72C38.1 60.75 35.32 61.08 35.1 60.72C34.76 60.17 36.7201 58.85 37.0901 58.6C38.0001 57.98 38.9801 57.48 40.0301 57.15C41.5301 56.67 44.02 56.29 45.1 57.81C46.42 59.65 43.9001 61.94 42.6201 62.98C40.9101 64.36 38.88 65.36 36.76 65.92C34.8 66.44 32.7901 66.56 30.7701 66.33L31.64 67.47C32.6 64.19 34.86 61.32 37.98 59.84C39.61 59.07 41.62 58.71 43.33 59.41C44.76 60 46.05 61.39 46.08 63C46.14 66.33 41.78 67.95 39.22 68.79C35.86 69.9 31.5001 70.32 28.9001 67.37C26.4701 64.61 27.82 60.19 31.26 59.1C32.03 58.86 32.93 58.75 33.72 58.96C34.06 59.05 34.5901 59.24 34.7801 59.57C35.1301 60.19 34.6101 60.63 34.1201 60.97C32.7901 61.92 30.55 62.85 28.88 62.54C26.79 62.15 27.2001 59.46 28.1501 58.18C29.2901 56.65 31.1601 56.08 33.0001 56.28C33.9401 56.38 34.85 56.66 35.7 57.06C36.28 57.33 37.7701 58.03 37.7701 58.84C37.7701 60.2 32.93 59.16 32.17 58.97C30.74 58.61 27.12 57.76 27.17 55.83C27.22 53.9 29.7901 52.71 31.3101 52.15C35.2301 50.68 39.6801 50.82 43.5001 52.51C44.5501 52.97 45.47 51.42 44.41 50.96L44.36 50.94Z" fill="#9E93FB"/>
<path d="M13.58 36.91C13.66 40.83 13.44 44.75 12.88 48.62C12.81 49.1 13 49.58 13.51 49.73C13.93 49.85 14.55 49.58 14.62 49.1C15.2 45.06 15.47 40.99 15.39 36.91C15.37 35.75 13.57 35.75 13.59 36.91H13.58Z" fill="#9E93FB"/>
<path d="M9.34998 34.42C8.77998 39.66 8.48997 44.93 8.46997 50.2C8.46997 51.36 10.27 51.36 10.27 50.2C10.29 44.93 10.58 39.66 11.15 34.42C11.28 33.27 9.46998 33.28 9.34998 34.42Z" fill="#9E93FB"/>
<path d="M78.3701 45.1899C81.9301 45.5599 85.4701 46.0499 88.9901 46.6699L88.5901 45.1699C86.9901 46.5199 85.1501 47.5599 83.1801 48.2499C82.3301 48.5399 82.3201 49.6899 83.1801 49.9899C85.2501 50.6999 87.3301 51.4099 89.4001 52.1299V50.3899C86.9301 51.2699 84.3601 51.8199 81.7401 51.9999C80.5901 52.0799 80.5801 53.8799 81.7401 53.7999C84.5201 53.6099 87.2501 53.06 89.8701 52.12C90.7101 51.82 90.7301 50.6799 89.8701 50.3799C87.8001 49.6699 85.7201 48.9599 83.6501 48.2399V49.9799C85.9301 49.1899 88.0101 47.9999 89.8601 46.4399C90.3501 46.0199 90.1101 45.0499 89.4601 44.9399C85.7801 44.2899 82.0801 43.7799 78.3601 43.3899C77.8801 43.3399 77.4601 43.8399 77.4601 44.2899C77.4601 44.8199 77.8701 45.1399 78.3601 45.1899H78.3701Z" fill="#9E93FB"/>
<path d="M33.94 47.51C35.38 47.9 36.96 47.67 38.22 46.88C38.62 46.63 38.81 46.07 38.54 45.65C38.27 45.23 37.73 45.06 37.31 45.33C37.18 45.41 37.04 45.4899 36.9 45.5599C36.84 45.5899 36.77 45.62 36.71 45.65C36.65 45.68 36.67 45.67 36.79 45.62C36.75 45.63 36.72 45.6499 36.68 45.6599C36.4 45.7599 36.11 45.83 35.82 45.88C35.72 45.89 35.74 45.89 35.88 45.88C35.84 45.88 35.8 45.88 35.76 45.89C35.7 45.89 35.64 45.89 35.58 45.9C35.42 45.9 35.26 45.9 35.11 45.9C35.05 45.9 34.99 45.9 34.93 45.89C34.89 45.89 34.85 45.89 34.81 45.88C34.95 45.9 34.97 45.9 34.87 45.88C34.71 45.85 34.56 45.8199 34.41 45.7799C33.96 45.6599 33.41 45.9299 33.3 46.4099C33.19 46.8899 33.44 47.39 33.93 47.52L33.94 47.51Z" fill="#9E93FB"/>
<path d="M34.37 76.59C34.49 78.93 34.6 81.27 34.72 83.6L34.8 85.24L34.85 86.18C34.86 86.42 34.79 86.9 34.9 87.12C34.87 87.32 34.9 87.33 35.01 87.17L34.92 87.2C34.77 87.15 34.26 87.39 34.09 87.43C33.53 87.56 32.98 87.63 32.41 87.65C31.26 87.7 31.25 89.51 32.41 89.45C33.57 89.39 35.1 89.3 36.06 88.62C36.57 88.26 36.72 87.7 36.71 87.1C36.7 86.4 36.64 85.7 36.61 85C36.47 82.19 36.33 79.39 36.19 76.58C36.13 75.43 34.33 75.42 34.39 76.58L34.37 76.59Z" fill="#9E93FB"/>
<path d="M46.94 77.91C47.33 79.25 47.9 80.54 48.65 81.72C49.02 82.3 49.42 82.85 49.86 83.38C50.09 83.65 50.32 83.92 50.57 84.17C50.68 84.28 50.78 84.39 50.89 84.49C50.96 84.56 51.03 84.63 51.1 84.7C51.16 84.77 51.15 84.76 51.1 84.68L51.22 84.23C51.15 84.38 50.91 84.49 50.76 84.59C50.52 84.76 50.27 84.92 50.03 85.09C49.54 85.42 49.06 85.76 48.57 86.09C48.17 86.36 47.99 86.88 48.25 87.32C48.48 87.72 49.08 87.92 49.48 87.64C49.97 87.31 50.45 86.97 50.94 86.64C51.43 86.31 52.02 85.99 52.45 85.58C52.92 85.14 53.04 84.48 52.73 83.91C52.48 83.43 52 83.08 51.63 82.69C50.25 81.2 49.25 79.38 48.67 77.44C48.34 76.33 46.61 76.8 46.93 77.92L46.94 77.91Z" fill="#9E93FB"/>
</svg>
