<svg width="100" height="100" viewBox="0 0 100 100" fill="none" xmlns="http://www.w3.org/2000/svg">
<path d="M83.42 43.3799C79.82 39.8499 75.3401 40.1299 72.3701 40.3199C71.5701 40.3699 70.2901 40.4499 69.7101 40.3399C66.9301 43.3099 64.47 46.7399 61.78 49.8499C61.78 49.8499 61.78 49.8499 61.79 49.8499C65.73 53.0499 70.1901 52.7699 73.1401 52.5799C73.5901 52.5499 74.1701 52.5199 74.6501 52.5099C74.7001 53.4699 74.54 55.4999 73.28 59.2499L84.9401 63.18C86.0901 59.78 89.57 49.4199 83.42 43.3799Z" fill="#2F2E45"/>
<path d="M35.5701 37.59C31.1901 42.42 27.48 47.87 24.54 53.77L35.55 59.25C37.99 54.35 41.0601 49.85 44.6801 45.85C45.5501 44.89 46.4301 43.97 47.3101 43.1C44.1201 40.48 39.9901 38.91 36.5601 36.53C36.2301 36.88 35.9001 37.23 35.5801 37.58L35.5701 37.59Z" fill="#2F2E45"/>
<path d="M47.5001 45.68C50.3901 48.66 53.4201 51.7 57.3701 53.21C59.4001 53.98 61.5801 54.21 63.7201 54.41C65.8601 54.61 68.8702 54.5799 70.7702 55.8399L70.3601 55.3L70.4201 55.52L70.5101 54.83C70.2601 55.43 67.7601 55.4 67.2101 55.44C66.1101 55.51 65.0002 55.52 63.9002 55.44C61.6402 55.3 59.42 54.84 57.28 54.11C55.14 53.38 52.9901 52.29 51.0801 50.97C50.1801 50.35 49.34 49.66 48.53 48.91C47.79 48.22 47.0301 47.45 45.9701 47.3C43.9201 47.01 43.0901 48.84 43.5501 50.58C44.0401 52.44 45.4601 53.82 46.9401 54.95C48.7901 56.35 50.8201 57.69 52.9601 58.6C55.2501 59.57 57.6902 59.71 60.1502 59.76C62.9702 59.81 65.7901 59.86 68.6101 59.91C68.9301 59.91 69.2601 59.93 69.5801 59.93C69.9201 59.93 69.9501 59.8 69.7301 59.91C69.2201 60.17 68.5501 60.25 67.9901 60.37C66.5501 60.67 65.1002 60.87 63.6402 60.98C61.0102 61.18 58.3601 61.09 55.7401 60.83C52.9801 60.55 50.48 60.1399 48.28 58.3399C46.59 56.9599 45.0402 55.2 42.9002 54.52C41.1502 53.96 38.9801 54.43 38.1301 56.2C36.0801 60.45 43.2401 63.2099 46.0601 64.25C51.0001 66.0599 56.3601 66.59 61.6001 66.45C65.8201 66.34 71.7501 66.49 74.4501 62.6C75.1101 61.64 73.5502 60.74 72.9002 61.69C71.4902 63.73 68.7401 64.1199 66.4601 64.3399C63.7901 64.5999 61.1101 64.72 58.4301 64.64C52.9601 64.47 47.4101 63.41 42.6101 60.69C41.5101 60.07 40.0101 59.3 39.7001 57.95C39.1601 55.6 42.2201 56.04 43.4101 56.71C45.6401 57.98 47.18 60.18 49.53 61.3C51.88 62.42 54.9601 62.6099 57.6201 62.7799C60.5601 62.9699 63.5201 62.9 66.4401 62.47C67.9401 62.25 72.1201 62 71.7901 59.6C71.6701 58.73 70.9402 58.3 70.1402 58.17C68.7202 57.94 67.1601 58.0799 65.7201 58.0599C62.7101 58.0099 59.5701 58.19 56.5801 57.75C53.5901 57.31 51.2602 55.76 48.9002 54.15C47.9702 53.52 47.0401 52.83 46.3101 51.96C45.8901 51.47 45.5301 50.9 45.3401 50.27C45.3001 50.13 45.1301 49.62 45.1901 49.46C45.4601 48.73 46.1301 49.19 46.5401 49.52C48.5201 51.08 50.2501 52.73 52.4901 53.96C56.7801 56.3 61.7401 57.49 66.6301 57.27C67.9501 57.21 72.5402 57.31 72.1502 55.04C71.9502 53.85 70.0501 53.5599 69.1101 53.3399C67.7001 52.9999 66.2501 52.85 64.8101 52.71C61.6101 52.41 58.5201 52.09 55.7001 50.41C53.0501 48.84 50.8902 46.59 48.7702 44.4C47.9602 43.57 46.6901 44.84 47.5001 45.67V45.68Z" fill="#9E93FB"/>
<path d="M41.8101 63.19C44.3901 57.35 48.2201 52.24 52.3701 47.43C56.5201 42.62 60.7601 37.36 65.9901 33.65L64.67 32.63C64.2801 34.16 63.8901 35.68 63.5001 37.21C63.3201 37.91 64.1601 38.71 64.8201 38.23C66.7901 36.8 68.9201 35.71 71.2401 35L70.1301 33.89C69.5901 35.2 69.0501 36.52 68.5201 37.83C68.1901 38.64 69.2201 39.13 69.8401 38.85C72.4701 37.63 75.1001 36.42 77.7401 35.2L76.42 34.18C76.19 35.28 75.7801 36.25 75.0701 37.13C74.5201 37.81 75.0201 38.86 75.9501 38.63C77.9601 38.15 79.9401 37.56 81.8801 36.86L80.7701 35.75C80.4601 36.6 80.1501 37.44 79.8401 38.29C79.4401 39.38 81.1801 39.85 81.5801 38.77C81.8901 37.92 82.2001 37.08 82.5101 36.23C82.7401 35.61 82.0302 34.9 81.4002 35.12C79.4501 35.82 77.4801 36.41 75.4701 36.89L76.3501 38.39C77.2501 37.26 77.87 36.06 78.17 34.64C78.34 33.83 77.5701 33.29 76.8501 33.62C74.2201 34.84 71.5901 36.05 68.9501 37.27L70.2701 38.29C70.8101 36.98 71.3501 35.66 71.8801 34.35C72.1401 33.71 71.3801 33.06 70.7701 33.24C68.3001 34 66 35.13 63.92 36.66L65.2401 37.68C65.6301 36.15 66.02 34.63 66.41 33.1C66.59 32.39 65.7601 31.61 65.0901 32.08C59.7101 35.89 55.3801 41.18 51.1101 46.14C46.8401 51.1 42.9101 56.29 40.2701 62.26C39.8101 63.31 41.3601 64.23 41.8201 63.17L41.8101 63.19Z" fill="#9E93FB"/>
<path d="M57.19 44.1299C57.91 45.1599 59.1 45.6799 60.35 45.4699C61.47 45.2799 62.4 44.3599 62.72 43.2899C62.85 42.8399 62.56 42.29 62.09 42.18C61.62 42.07 61.1301 42.3299 60.9801 42.8099C60.9701 42.8499 60.95 42.8999 60.94 42.9399C60.88 43.1099 60.93 42.9099 60.96 42.9099C60.94 42.9099 60.85 43.12 60.83 43.15C60.81 43.18 60.7901 43.2099 60.7701 43.2399C60.6701 43.3899 60.87 43.14 60.79 43.21C60.72 43.28 60.66 43.3499 60.6 43.4099C60.57 43.4399 60.5201 43.4699 60.4901 43.4999C60.5201 43.4699 60.64 43.39 60.54 43.46C60.46 43.51 60.38 43.5599 60.3 43.5999C60.28 43.5999 60.1101 43.6799 60.2601 43.6299C60.4101 43.5799 60.24 43.6299 60.21 43.6399C60.12 43.6699 60.03 43.69 59.94 43.71C59.82 43.74 59.9701 43.7 60.0101 43.71C59.9701 43.71 59.9101 43.71 59.8701 43.71C59.7701 43.71 59.68 43.7099 59.58 43.6999C59.47 43.6999 59.8101 43.7499 59.6201 43.6999C59.5701 43.6899 59.5301 43.6799 59.4801 43.6699C59.4001 43.6499 59.3201 43.5999 59.2401 43.5899C59.4201 43.6199 59.3501 43.6399 59.2701 43.5899C59.2301 43.5699 59.1901 43.5499 59.1401 43.5199C59.0901 43.4899 59.0601 43.4699 59.0201 43.4399C58.9601 43.3999 58.91 43.32 59.04 43.46C58.98 43.4 58.91 43.3499 58.85 43.2899C58.82 43.2599 58.7901 43.22 58.7501 43.18C58.6301 43.05 58.8601 43.33 58.7501 43.18C58.4801 42.79 57.9501 42.5799 57.5201 42.8599C57.1401 43.1099 56.91 43.6799 57.2 44.0899L57.19 44.1299Z" fill="#9E93FB"/>
<path d="M43.7502 35.62C45.4902 38.3 50.7402 41.38 52.6102 37.15C53.2402 35.72 53.5001 33.43 52.3101 32.19C51.3001 31.14 49.0802 31.41 48.8502 33.04C48.6002 34.78 50.9801 36.21 52.3401 36.7C54.0501 37.32 56.0202 37.15 57.4802 36.03C58.8402 35 59.7102 33.28 59.5202 31.56C59.3302 29.84 57.8101 28.09 56.0901 29.36C54.3701 30.63 55.3702 33.06 57.2502 33.53C59.6602 34.13 61.2101 31.79 62.5301 30.23C63.2801 29.35 62.0102 28.07 61.2602 28.96C60.4502 29.91 59.6502 31.38 58.3602 31.74C57.9502 31.85 56.8802 31.77 56.9702 31.09C56.9902 30.96 57.1601 30.72 57.3001 30.72C57.5501 30.72 57.6902 31.38 57.7202 31.56C58.1602 34.05 55.4801 35.68 53.3101 35.1C52.7301 34.95 52.1701 34.68 51.6901 34.33C51.4401 34.15 51.2102 33.94 51.0002 33.72C50.8502 33.56 50.5001 33.36 50.6901 33.34C51.6701 33.24 51.2902 35.47 51.1302 36C50.1902 39.14 46.3701 36.31 45.3201 34.69C44.6901 33.72 43.1302 34.62 43.7702 35.6L43.7502 35.62Z" fill="#9E93FB"/>
<path d="M76.5701 65.26C76.7501 66.24 77.1602 67.18 77.7602 67.97C78.0902 68.4 78.7501 68.63 79.1701 68.15C79.5301 67.75 79.8902 67.34 80.2502 66.94L80.7901 66.33C80.9301 66.17 81.0902 65.91 81.2502 65.78L80.5601 65.87L80.6801 65.89L80.2801 65.66C80.9801 66.25 81.5801 67.02 82.2201 67.68C82.6501 68.14 83.3002 67.95 83.6302 67.5C84.1002 66.86 84.6102 66.24 85.1402 65.64H83.8702C84.3502 66.04 84.8402 66.41 85.3802 66.73C85.8702 67.02 86.5502 67.47 87.1302 67.48C87.8202 67.49 88.1601 67.03 88.3601 66.44C88.5901 65.78 88.7801 65.11 88.9901 64.44C89.3401 63.33 87.6002 62.86 87.2502 63.96C87.1302 64.34 87.0102 64.72 86.8902 65.1C86.8302 65.29 86.7701 65.48 86.7101 65.67L86.6502 65.86C86.5702 66.09 86.5702 66.11 86.6502 65.92L87.2901 65.66C87.0001 65.69 86.4601 65.28 86.2101 65.13C85.8301 64.9 85.4802 64.65 85.1402 64.37C84.7902 64.07 84.2102 63.98 83.8702 64.37C83.2402 65.08 82.6501 65.83 82.0801 66.6L83.4901 66.42C83.0401 65.95 82.6002 65.48 82.1502 65C81.7302 64.56 81.2601 63.95 80.5601 64.14C80.0201 64.29 79.6002 64.96 79.2502 65.36C78.8002 65.86 78.3502 66.37 77.9002 66.87L79.3101 67.05C78.7801 66.36 78.4501 65.63 78.3001 64.77C78.2101 64.29 77.6301 64.02 77.1901 64.14C76.6901 64.28 76.4701 64.77 76.5601 65.25L76.5701 65.26Z" fill="#9E93FB"/>
<path d="M31.9801 60.71C32.0401 64.36 33.2601 67.8599 34.2701 71.3399C35.3401 75.0299 36.4101 78.7199 37.4901 82.4099L38.1201 81.3C36.2901 81.66 34.4401 81.8599 32.5701 81.9099C31.4101 81.9399 31.4101 83.74 32.5701 83.71C34.6001 83.65 36.6001 83.4199 38.6001 83.0299C39.0701 82.9399 39.3601 82.36 39.2301 81.92C38.2001 78.37 37.1701 74.82 36.1301 71.27C35.0901 67.72 33.84 64.32 33.78 60.7C33.76 59.54 31.9601 59.54 31.9801 60.7V60.71Z" fill="#9E93FB"/>
<path d="M58.0501 68.04C58.0901 69.58 58.1501 71.12 58.3901 72.64C58.6001 73.96 59.0701 75.29 60.2201 76.06C61.4501 76.88 62.9101 76.49 64.1101 75.81C65.3101 75.13 66.2001 74.17 66.8401 73.02L65.4301 73.2C66.3201 74.13 67.2001 75.06 68.0901 75.99C68.8901 76.83 70.1601 75.56 69.3601 74.72C68.4701 73.79 67.5901 72.86 66.7001 71.93C66.3101 71.52 65.56 71.61 65.29 72.11C64.83 72.93 64.2002 73.64 63.4002 74.14C62.6702 74.59 61.7201 75.07 60.9901 74.38C60.3101 73.74 60.1801 72.64 60.0701 71.76C59.9101 70.53 59.8901 69.28 59.8501 68.04C59.8201 66.88 58.0201 66.88 58.0501 68.04Z" fill="#9E93FB"/>
<path d="M27.3401 57.78C25.8101 58.24 24.26 58.53 22.67 58.61L23.54 59.75C23.77 58.91 24.0601 58.1 24.4501 57.32C24.7701 56.68 24.37 56.03 23.67 55.97L18.9501 55.53L19.5901 57.07C20.3401 56.24 21.1301 55.43 21.8501 54.58C22.5101 53.81 22.4301 53.12 21.8201 52.35C21.4901 51.93 21.1601 51.51 20.8301 51.1C20.6801 50.91 20.5201 50.72 20.3701 50.52L20.2201 50.33C19.9901 49.91 19.7801 50.15 19.6001 51.05C19.7501 51.1 20.1801 51.02 20.3401 51.02C20.5901 51.01 20.8301 51 21.0801 50.99C21.6501 50.96 22.23 50.94 22.8 50.91C23.27 50.89 23.7201 50.51 23.7001 50.01C23.6601 48.77 23.6201 47.52 23.5801 46.28L22.4401 47.15L25.0101 47.8C26.1301 48.08 26.6101 46.35 25.4901 46.06L22.92 45.41C22.37 45.27 21.76 45.68 21.78 46.28C21.82 47.52 21.8601 48.77 21.9001 50.01L22.8 49.11C21.7 49.16 20.5401 49.1 19.4601 49.27C18.4401 49.43 18.11 50.4 18.66 51.23C18.94 51.67 19.3201 52.06 19.6401 52.47C19.7501 52.6 20.4301 53.68 20.5801 53.66C20.6601 53.25 20.6 53.2 20.41 53.5L20.1501 53.79L19.54 54.46L18.3201 55.8C17.7701 56.41 18.1801 57.26 18.9601 57.34L23.68 57.78L22.9001 56.43C22.4501 57.35 22.0801 58.3 21.8101 59.29C21.6701 59.83 22.09 60.46 22.68 60.43C24.43 60.34 26.1601 60.05 27.8301 59.54C28.9401 59.2 28.4601 57.47 27.3501 57.8L27.3401 57.78Z" fill="#9E93FB"/>
<path d="M87.81 48.39C88.31 49.41 88.2801 50.61 88.2501 51.72C88.2101 53.06 88.1501 54.39 88.1101 55.72C88.0701 56.88 89.87 56.88 89.91 55.72C89.96 54.29 90.03 52.87 90.06 51.44C90.09 50.01 89.9801 48.72 89.3701 47.48C89.1601 47.04 88.5401 46.92 88.1401 47.16C87.6901 47.42 87.6 47.95 87.82 48.39H87.81Z" fill="#9E93FB"/>
<path d="M87.0801 45.7C88.2401 45.7 88.2401 43.9 87.0801 43.9C85.9201 43.9 85.9201 45.7 87.0801 45.7Z" fill="#9E93FB"/>
</svg>
