<svg width="100" height="100" viewBox="0 0 100 100" fill="none" xmlns="http://www.w3.org/2000/svg">
<path d="M23.48 52.42C24.01 55.56 24.98 58.78 26.11 61.08C27.88 64.67 30.3099 67 33.3099 68.02C39.2799 70.03 47.89 69.8 59.46 67.97C57.76 63.59 56.7 59.13 55.66 54.66C47.4 55.9 41.8299 56.09 38.4999 55.27C37.9399 54.29 37.3999 52.4 37.0599 50.66C32.5899 51.36 28 52.1 23.46 52.43L23.48 52.42Z" fill="#2F2E45"/>
<path d="M74.02 43.19C70.74 28.37 65.44 20.31 56.83 17.08C54.86 16.34 51.71 16.33 48.47 16.77C48.66 21.32 49.2599 25.92 49.8199 30.42C50.8899 30.25 51.89 30.15 52.6 30.16C54.33 30.97 57.87 33.65 60.64 46.16C61.61 50.52 63.43 58.78 64.55 66.89C69.18 66.41 73.65 65.95 78.2 65.48C77.03 56.8 75.13 48.22 74.02 43.21V43.19Z" fill="#2F2E45"/>
<path d="M44.4299 71.94C44.8899 75.7 45.1799 79.48 45.3199 83.26L46.22 82.36C44.98 82.36 43.74 82.29 42.52 82.09C42.04 82.01 41.55 82.21 41.41 82.72C41.29 83.15 41.56 83.75 42.04 83.83C43.42 84.05 44.82 84.17 46.22 84.16C46.69 84.16 47.1399 83.75 47.1199 83.26C46.9799 79.48 46.69 75.7 46.23 71.94C46.17 71.46 45.86 71.04 45.33 71.04C44.89 71.04 44.3699 71.45 44.4299 71.94Z" fill="#9E93FB"/>
<path d="M56.47 71.3499C57.51 73.4199 58.2101 75.6699 58.4901 77.9699C58.6301 79.1099 58.6701 80.2599 58.6101 81.4099C58.6001 81.6799 58.5301 82 58.5501 82.27C58.5701 82.45 58.41 82.6299 58.7 82.3399C58.97 82.0699 58.78 82.18 58.54 82.18C57.92 82.17 57.3 82.15 56.67 82.12C55.51 82.07 55.51 83.87 56.67 83.92C57.4 83.95 58.14 84.02 58.87 83.99C59.54 83.96 60.09 83.67 60.27 82.99C60.45 82.31 60.42 81.56 60.43 80.89C60.45 80.17 60.4301 79.45 60.3601 78.74C60.1201 75.85 59.33 73.05 58.02 70.46C57.5 69.43 55.95 70.34 56.47 71.37V71.3499Z" fill="#9E93FB"/>
<path d="M41.39 52.12C42.58 47.17 43.77 42.22 44.96 37.26L43.1899 37.02C43.7399 41.71 44.3 46.4 44.85 51.1C44.96 52.01 46.4299 52.43 46.6199 51.34C47.4799 46.25 48.35 41.15 49.21 36.06H47.47C49.35 41.66 49.5 47.57 49.49 53.42C49.49 54.47 50.9399 54.6 51.2599 53.66C53.1099 48.22 54.47 42.64 55.34 36.96H53.6C55.47 41.63 56.64 46.55 57.02 51.57L57.6799 50.7L58.24 51.03C57.83 49.96 56.0899 50.42 56.4999 51.51C56.7799 52.26 57.36 52.61 58.16 52.44C58.52 52.36 58.8499 51.94 58.8199 51.57C58.4299 46.39 57.27 41.3 55.33 36.48C55.04 35.77 53.75 35.49 53.59 36.48C52.72 42.16 51.3499 47.74 49.5099 53.18L51.28 53.42C51.29 47.42 51.1199 41.32 49.1899 35.59C48.9299 34.82 47.61 34.65 47.45 35.59C46.59 40.68 45.72 45.78 44.86 50.87L46.6299 51.11C46.0799 46.42 45.52 41.73 44.97 37.03C44.86 36.1 43.46 35.72 43.2 36.79C42.01 41.74 40.8199 46.69 39.6299 51.65C39.3599 52.78 41.0899 53.26 41.3699 52.13L41.39 52.12Z" fill="#9E93FB"/>
<path d="M42.07 19.85C39.85 21.76 38.2901 24.26 37.5301 27.08C37.3901 27.61 37.8001 28.26 38.4001 28.22C40.8901 28.05 43.0101 26.29 43.4701 23.8C43.6201 23 42.8801 22.44 42.1501 22.78C39.4301 24.04 37.4801 26.62 37.0301 29.59C36.9301 30.27 37.42 30.86 38.14 30.7C40.47 30.17 42.2801 28.32 42.7401 25.97C42.8801 25.23 42.1301 24.53 41.4201 24.95C39.7101 25.97 38.14 29.41 40.25 30.88C41.36 31.65 42.91 30.72 43.88 30.1C45.09 29.32 46.07 28.31 46.88 27.12C47.28 26.53 46.7401 25.78 46.1001 25.77C44.0901 25.71 42.2 26.52 40.89 28.05L42.3001 29.14C43.1001 27.68 44.3901 25.27 43.7801 23.55C43.1701 21.83 40.97 22.5 39.71 23.02C38.05 23.7 36.41 24.91 35.46 26.46C34.65 27.78 35.38 29.47 37.08 28.97C38.5 28.55 39.8301 26.97 39.6701 25.44C39.5001 23.79 37.8701 23.12 36.4001 23.36C34.5801 23.65 32.82 24.88 31.63 26.24C30.63 27.38 29.12 29.36 30.25 30.85C31.38 32.34 34.24 32.57 35.96 32.43C38.1101 32.25 40.07 31.4 41.71 30.01C42.33 29.49 41.81 28.48 41.07 28.47C37.95 28.45 35.6901 30.66 33.9101 32.99C33.2301 33.88 31.89 35.41 33 36.51C33.98 37.49 35.85 36.74 36.76 36.06C37.67 35.38 38.7001 34.02 38.2201 32.81C37.7701 31.69 36.4601 31.65 35.4901 32.06C32.6501 33.27 30.65 36.83 29.82 39.63C29.55 40.54 30.68 41.07 31.32 40.51C32.59 39.4 33.57 38.02 34.18 36.44C34.63 35.26 35.33 33.14 33.81 32.42C32.4 31.75 30.68 32.98 29.57 33.72C27.98 34.78 26.5701 36.05 25.3401 37.51L26.6101 38.78C29.5501 35.17 31.91 31.19 33.68 26.88C34.05 25.97 32.78 25.49 32.18 26C29.26 28.51 27.11 31.7 25.82 35.33C25.51 36.21 26.71 36.8 27.32 36.21C28.59 34.97 29.68 33.59 30.58 32.07L28.94 31.38C27.39 36.72 26.4201 42.21 26.0301 47.76C25.9701 48.58 27.03 48.89 27.57 48.4C30.68 45.53 32.9401 41.9 34.1601 37.85L32.4201 37.37C31.8301 39.62 31.45 41.9 31.25 44.22C31.17 45.21 32.45 45.3 32.93 44.67C33.66 43.7 34.1801 42.66 34.5501 41.51L32.7801 41.27C32.6201 44.35 32.38 47.43 32.07 50.49L33.4201 49.71C30.7001 47.68 27.33 46.75 23.95 47.09C22.95 47.19 22.72 48.51 23.71 48.86C28.88 50.68 33.39 44.94 30.51 40.32C30.25 39.91 29.7101 39.75 29.2801 40C26.7601 41.48 24.98 43.87 24.32 46.72C24.05 47.88 25.62 48.24 26.06 47.2C26.73 45.61 26.8201 43.95 26.4101 42.28C26.2401 41.59 25.3901 41.44 24.9101 41.88C23.8901 42.81 23.38 43.98 23.31 45.35C23.26 46.32 24.5101 46.46 24.9901 45.8C27.3401 42.55 28.1401 38.5 27.3001 34.59C27.1501 33.87 25.9801 33.68 25.6601 34.38C25.0301 35.74 24.77 37.1 24.96 38.59C25.06 39.31 25.9 39.85 26.5 39.23C28.55 37.08 30.3501 34.73 31.9001 32.19C32.3901 31.38 31.4401 30.57 30.6701 30.96C29.0101 31.8 28.02 33.48 28.06 35.34C28.07 36.07 28.8001 36.39 29.4101 36.12C31.5701 35.16 33.6401 34.03 35.6101 32.73C36.5101 32.13 37.3801 31.5 38.2301 30.84C38.6801 30.49 39.13 30.13 39.56 29.76C39.97 29.42 40.4501 28.8 40.9701 28.67L40.2801 28.58L40.5 28.7L40.0901 28.16L40.18 28.39L40.27 27.7L40.1701 27.89C39.6901 28.75 40.89 29.77 41.58 28.98C42.66 27.76 43.63 26.45 44.45 25.04C45.15 23.82 46.1101 22.3 45.7901 20.82C45.0801 17.48 41.1 17.61 38.64 18.65C33.44 20.86 30.0701 26.47 30.4101 32.08C30.4401 32.54 30.8 33.01 31.31 32.98C35.09 32.77 39.07 28.95 37.89 24.92C37.24 22.69 34.9201 22.75 33.0301 23.16C30.9201 23.62 28.9201 24.73 27.4201 26.27C23.8701 29.91 23.25 35.7 22.63 40.5C22.35 42.66 21.8801 45.25 23.3401 47.11C24.5301 48.62 26.5901 49.04 28.4101 48.69C30.7601 48.24 32.4601 46.42 33.7901 44.55C35.6701 41.91 37.3401 39.09 39.0901 36.36C39.7201 35.38 38.1601 34.48 37.5401 35.45C36.4001 37.23 35.2501 39.01 34.1101 40.79C33.1601 42.27 32.2601 43.83 31.0401 45.11C29.9301 46.27 28.5101 47.15 26.8501 47C24.8101 46.82 24.0801 45.22 24.1501 43.35C24.2201 41.36 24.5701 39.35 24.9101 37.39C25.2501 35.43 25.59 33.65 26.2 31.86C27.37 28.42 29.87 25.67 33.52 24.89C34.45 24.69 35.88 24.37 36.21 25.54C36.44 26.37 36.1501 27.39 35.8001 28.13C34.9701 29.86 33.24 31.07 31.32 31.17L32.2201 32.07C31.9701 27.9 33.96 23.72 37.43 21.35C38.95 20.31 42.79 18.36 43.94 20.84C44.45 21.93 43.25 23.56 42.69 24.47C42 25.62 41.2 26.68 40.32 27.68L41.7301 28.77C42.2101 27.9 41.67 26.86 40.63 26.89C40 26.91 39.57 27.38 39.12 27.76C38.47 28.32 37.82 28.88 37.14 29.41C34.49 31.47 31.58 33.17 28.52 34.54L29.87 35.32C29.85 34.06 30.4701 33.06 31.5901 32.5L30.3601 31.27C28.8901 33.68 27.1901 35.9 25.2401 37.94L26.7801 38.58C26.6301 37.42 26.7301 36.35 27.2301 35.28L25.5901 35.07C26.3301 38.53 25.53 42.04 23.46 44.89L25.14 45.34C25.19 44.44 25.5501 43.75 26.2201 43.15L24.7201 42.75C25.0501 44.13 24.91 45.42 24.37 46.72L26.1101 47.2C26.6701 44.79 28.1101 42.81 30.2401 41.55L29.01 41.23C31.08 44.56 27.9001 48.42 24.2401 47.13L24 48.9C27.1 48.58 30.06 49.4 32.56 51.27C33.17 51.72 33.8501 51.09 33.9101 50.49C34.2201 47.42 34.45 44.35 34.62 41.27C34.67 40.22 33.1501 40.1 32.8501 41.03C32.5201 42.05 32.0501 42.91 31.4101 43.76L33.0901 44.21C33.2701 42.05 33.64 39.93 34.19 37.84C34.48 36.72 32.79 36.25 32.45 37.36C31.31 41.13 29.22 44.45 26.32 47.11L27.8601 47.75C28.2401 42.36 29.2 37.04 30.7 31.85C30.99 30.86 29.57 30.28 29.06 31.16C28.23 32.56 27.24 33.8 26.08 34.94L27.58 35.82C28.77 32.48 30.8001 29.59 33.4801 27.29L31.9801 26.41C30.3401 30.42 28.11 34.16 25.37 37.52C24.65 38.41 25.89 39.68 26.64 38.79C28.15 37 30 35.34 32.14 34.32C32.48 34.16 32.61 33.99 32.82 34.3C32.99 34.55 32.8501 34.81 32.7801 35.07C32.6301 35.61 32.43 36.13 32.18 36.62C31.66 37.64 30.94 38.5 30.08 39.25L31.58 40.13C32.1 38.36 32.9701 36.74 34.2301 35.39C34.8301 34.74 35.48 34.22 36.21 33.74C36.5601 33.51 36.82 33.42 36.38 33.9C36.08 34.23 35.91 34.55 35.5 34.79C35.39 34.86 34.43 35.34 34.32 35.17C34.49 35.43 34.9701 34.62 35.0501 34.51C35.5901 33.77 36.16 33.05 36.81 32.39C37.99 31.19 39.3601 30.27 41.1001 30.28L40.46 28.74C39.2 29.81 37.6301 30.48 35.9801 30.64C35.1901 30.71 34.3801 30.68 33.6001 30.52C33.2401 30.45 32.86 30.35 32.51 30.21C31.82 29.94 31.57 29.83 31.88 29.05C32.46 27.61 33.92 26.38 35.25 25.68C35.85 25.37 37.0501 24.76 37.6501 25.33C38.2001 25.86 37.2101 27.52 36.4101 27.21L36.95 27.62C36.73 27.29 38.3701 25.91 38.6001 25.73C39.2901 25.19 40.0801 24.76 40.9101 24.49C41.0301 24.45 41.8801 24.14 41.9901 24.22C42.2701 24.39 42.06 24.84 42 25.1C41.77 26.2 41.31 27.25 40.76 28.23C40.28 29.09 41.4801 30.12 42.1701 29.32C43.2001 28.12 44.5201 27.52 46.1101 27.56L45.33 26.21C44.48 27.45 43.3501 28.45 41.9801 29.09C41.6501 29.25 41.44 29.45 41.25 29.25C41.06 29.05 41.1 28.61 41.12 28.35C41.19 27.55 41.65 26.89 42.33 26.49L41.01 25.47C40.67 27.25 39.4401 28.54 37.6701 28.94L38.7801 30.05C39.1701 27.48 40.71 25.41 43.07 24.32L41.75 23.3C41.45 24.98 40.1601 26.28 38.4201 26.4L39.2901 27.54C39.9801 24.99 41.37 22.82 43.37 21.1C44.25 20.34 42.9701 19.08 42.1001 19.83L42.07 19.85Z" fill="#9E93FB"/>
<path d="M23.3 51.06C24.53 51.29 25.79 51.36 27.03 51.24C27.27 51.22 27.49 51.16 27.67 50.98C27.83 50.82 27.94 50.57 27.93 50.34C27.91 49.89 27.53 49.39 27.03 49.44C26.46 49.5 25.88 49.51 25.31 49.49C25.03 49.48 24.75 49.46 24.47 49.43C24.4 49.43 24.34 49.41 24.27 49.41C24.06 49.39 24.43 49.44 24.24 49.41C24.08 49.39 23.93 49.36 23.77 49.33C23.53 49.29 23.3 49.29 23.08 49.42C22.89 49.53 22.72 49.74 22.67 49.96C22.57 50.4 22.8 50.98 23.3 51.07V51.06Z" fill="#9E93FB"/>
<path d="M25.55 28.6499C25.82 28.1299 26.1199 27.6399 26.4599 27.1699C26.5099 27.1099 26.55 27.0399 26.6 26.9799C26.49 27.1299 26.6399 26.9299 26.6499 26.9099C26.7299 26.8099 26.8199 26.7099 26.8999 26.6099C27.0999 26.3799 27.3099 26.1599 27.5199 25.9399C27.7299 25.7199 27.94 25.5399 28.16 25.3499C28.27 25.2599 28.3799 25.1599 28.4999 25.0699C28.3799 25.1699 28.5299 25.0499 28.5699 25.0199C28.6199 24.9799 28.68 24.9399 28.73 24.8999C29.21 24.5499 29.7199 24.2499 30.2599 23.9799C30.6799 23.7699 30.8299 23.1399 30.5799 22.7499C30.2999 22.3199 29.8 22.1999 29.35 22.4299C27.07 23.5699 25.16 25.4699 23.99 27.7299C23.77 28.1499 23.8699 28.7299 24.3099 28.9599C24.7199 29.1799 25.31 29.0799 25.54 28.6399L25.55 28.6499Z" fill="#9E93FB"/>
<path d="M35.08 20.7L35.3 20.4799C35.39 20.3999 35.4501 20.2999 35.4901 20.1899C35.5501 20.0799 35.57 19.9699 35.57 19.8399C35.57 19.7199 35.5501 19.6 35.4901 19.49C35.4501 19.38 35.39 19.28 35.3 19.2L35.12 19.0599C34.98 18.9799 34.83 18.9399 34.67 18.9399L34.43 18.9699C34.28 19.0099 34.15 19.09 34.03 19.2L33.81 19.42C33.72 19.5 33.66 19.6 33.62 19.71C33.56 19.82 33.54 19.9299 33.54 20.0599C33.54 20.1799 33.56 20.2999 33.62 20.4099C33.66 20.5199 33.72 20.62 33.81 20.7L33.9901 20.8399C34.1301 20.9199 34.28 20.96 34.44 20.96L34.68 20.93C34.83 20.89 34.96 20.81 35.08 20.7Z" fill="#9E93FB"/>
<path d="M38.16 18.95C38.67 18.74 39.2 18.56 39.74 18.43C40 18.36 40.27 18.3 40.54 18.25C40.68 18.22 40.82 18.2 40.96 18.18C40.99 18.18 41.02 18.18 41.05 18.17C41.12 18.17 41.09 18.17 40.96 18.18C40.96 18.16 41.17 18.15 41.2 18.15C41.45 18.12 41.66 18.07 41.84 17.89C42 17.73 42.11 17.48 42.1 17.25C42.08 16.81 41.7 16.29 41.2 16.35C39.99 16.48 38.81 16.75 37.68 17.21C37.45 17.3 37.27 17.4 37.14 17.62C37.03 17.81 36.98 18.1 37.05 18.31C37.12 18.52 37.26 18.74 37.46 18.85C37.66 18.96 37.93 19.03 38.15 18.94L38.16 18.95Z" fill="#9E93FB"/>
<path d="M65.44 21.0999C68.19 23.3199 70.09 26.5699 70.51 30.0999C70.57 30.5799 70.88 30.9999 71.41 30.9999C71.85 30.9999 72.37 30.5899 72.31 30.0999C71.83 26.0999 69.86 22.37 66.71 19.83C66.33 19.52 65.81 19.46 65.44 19.83C65.12 20.15 65.06 20.7999 65.44 21.0999Z" fill="#9E93FB"/>
<path d="M62.87 19.2099L63.09 19.65C63.15 19.75 63.22 19.84 63.32 19.9C63.41 19.98 63.51 20.0299 63.63 20.0599C63.75 20.0999 63.8701 20.0999 63.9901 20.0799C64.1101 20.0799 64.22 20.0399 64.32 19.9699L64.5 19.8299C64.61 19.7199 64.69 19.59 64.73 19.43L64.76 19.1899C64.76 19.0299 64.72 18.8799 64.64 18.7399L64.42 18.2999C64.36 18.1999 64.29 18.1099 64.19 18.0499C64.1 17.9699 64 17.9199 63.88 17.8899C63.76 17.8499 63.64 17.85 63.52 17.87C63.4 17.87 63.29 17.9099 63.19 17.9799L63.01 18.12C62.9 18.23 62.82 18.3599 62.78 18.5199L62.75 18.7599C62.75 18.9199 62.79 19.0699 62.87 19.2099Z" fill="#9E93FB"/>
<path d="M72.48 34.2399C73.49 35.6699 74.98 36.7199 76.69 37.0999C77.15 37.1999 77.69 36.9599 77.8 36.4699C77.9 36.0099 77.66 35.4699 77.17 35.3599C76.99 35.3199 76.82 35.2699 76.64 35.2199C76.56 35.1899 76.48 35.1699 76.4 35.1399C76.36 35.1199 76.31 35.1099 76.27 35.0899C76.12 35.0299 76.27 35.0599 76.3 35.0999C76.27 35.0499 76.12 35.0199 76.07 34.9899C75.98 34.9499 75.9 34.9099 75.82 34.8599C75.66 34.7699 75.5 34.6799 75.35 34.5799C75.28 34.5299 75.21 34.4799 75.14 34.4299C75.1 34.3999 75.06 34.3699 75.02 34.3399C75.06 34.3599 75.16 34.4499 75.07 34.3799C74.93 34.2699 74.79 34.1499 74.66 34.0199C74.53 33.8899 74.4 33.7599 74.29 33.6299C74.23 33.5599 74.17 33.4799 74.11 33.4099C74.14 33.4399 74.22 33.5499 74.15 33.4599C74.12 33.4099 74.08 33.3699 74.05 33.3199C73.78 32.9399 73.25 32.7199 72.82 32.9999C72.44 33.2499 72.21 33.8199 72.5 34.2299L72.48 34.2399Z" fill="#9E93FB"/>
<path d="M74.35 39.7199C75.52 40.2299 76.76 40.5099 78.03 40.4799C78.5 40.4699 78.95 40.07 78.93 39.58C78.91 39.09 78.53 38.67 78.03 38.68C77.63 38.68 77.24 38.67 76.85 38.62L77.09 38.65C76.75 38.6 76.41 38.5299 76.07 38.4399C75.91 38.3999 75.75 38.3499 75.59 38.2899C75.52 38.2599 75.44 38.24 75.37 38.21C75.32 38.19 75.28 38.1699 75.23 38.1599C75.12 38.1199 75.44 38.2499 75.25 38.1599C75.02 38.0599 74.81 37.9999 74.56 38.0699C74.35 38.1299 74.12 38.2899 74.02 38.4799C73.81 38.8699 73.88 39.51 74.34 39.71L74.35 39.7199Z" fill="#9E93FB"/>
<path d="M75.1701 43.54C76.3801 44.2 77.75 44.55 79.13 44.51C79.6 44.5 80.05 44.11 80.03 43.61C80.01 43.11 79.63 42.7 79.13 42.71C78.84 42.71 78.55 42.71 78.27 42.68C78.23 42.68 78.19 42.68 78.15 42.67C78.05 42.66 78.07 42.67 78.21 42.67C78.16 42.68 78.08 42.65 78.03 42.64C77.88 42.61 77.73 42.58 77.58 42.55C77.3 42.48 77.02 42.4 76.75 42.29C76.69 42.27 76.47 42.21 76.71 42.28C76.64 42.26 76.58 42.22 76.51 42.19C76.37 42.12 76.2301 42.05 76.1001 41.98C75.6901 41.75 75.1 41.87 74.87 42.3C74.64 42.73 74.75 43.29 75.19 43.53L75.1701 43.54Z" fill="#9E93FB"/>
<path d="M76.0499 46.9999C77.1699 47.5299 78.3299 47.8499 79.5599 48.0099C79.7699 48.0399 80.0499 47.8899 80.1999 47.7499C80.3599 47.5899 80.4699 47.3399 80.4599 47.1099C80.4499 46.8799 80.3699 46.6399 80.1999 46.4699C80.0099 46.2999 79.8099 46.2399 79.5599 46.2099C79.5199 46.2099 79.4899 46.2099 79.4499 46.1999L79.6899 46.2299C79.1899 46.1599 78.6999 46.0599 78.2099 45.9199C77.9799 45.8499 77.7499 45.7799 77.5199 45.6899C77.4599 45.6699 77.3999 45.64 77.3399 45.62C77.2799 45.6 77.0799 45.5 77.3199 45.62C77.1999 45.57 77.0799 45.5099 76.9599 45.4599C76.7399 45.3499 76.5099 45.3 76.2699 45.37C76.0599 45.43 75.8299 45.5899 75.7299 45.7799C75.5199 46.1799 75.5999 46.7999 76.0499 47.0099V46.9999Z" fill="#9E93FB"/>
<path d="M25.72 64.97C25.55 66.57 25.39 68.16 25.22 69.76C25.17 70.23 25.67 70.68 26.12 70.66C26.65 70.64 26.97 70.26 27.02 69.76C27.19 68.16 27.35 66.57 27.52 64.97C27.57 64.5 27.07 64.05 26.62 64.07C26.09 64.09 25.77 64.47 25.72 64.97Z" fill="#9E93FB"/>
</svg>
