<svg width="100" height="100" viewBox="0 0 100 100" fill="none" xmlns="http://www.w3.org/2000/svg">
<path d="M68.79 36.99C62.61 36.11 56.48 35.66 50.37 35.46L53.92 40.39V49.12C58.15 48.76 62.36 48.1199 66.56 47.1599V40.08L68.79 36.99Z" fill="#2F2E45"/>
<path d="M43.57 51.7599C46.91 51.7599 49.35 49.39 49.35 46.2C49.35 43.01 46.9 40.64 43.57 40.64C40.24 40.64 37.79 43.01 37.79 46.2C37.79 49.39 40.24 51.7599 43.57 51.7599Z" fill="#2F2E45"/>
<path d="M38.6699 56.35V65.63C41.9199 65.65 45.18 65.7 48.46 65.78V56.36H38.6699V56.35Z" fill="#2F2E45"/>
<path d="M50.47 54.69C55.3 53.71 60.14 52.73 64.97 51.75L64.49 50.01C60.32 51.73 56.14 53.46 51.97 55.18C51.1 55.54 51.11 56.96 52.21 56.95C55.84 56.89 59.46 56.84 63.09 56.78L62.85 55.01C59.15 56.45 55.38 57.71 51.56 58.8C50.57 59.08 50.79 60.53 51.8 60.57C57.76 60.79 63.72 61.02 69.69 61.24L69.45 59.47C63.41 60.93 57.03 59.89 51.08 61.89C50.26 62.17 50.19 63.37 51.08 63.63C56.17 65.07 61.45 65.54 66.71 65.98V64.18C61.55 64.83 56.35 65.09 51.15 64.94C49.99 64.91 49.99 66.71 51.15 66.74C56.35 66.89 61.55 66.64 66.71 65.98C67.84 65.84 67.89 64.28 66.71 64.18C61.61 63.75 56.5 63.29 51.56 61.89V63.63C57.49 61.64 63.89 62.68 69.93 61.21C70.94 60.96 70.68 59.48 69.69 59.44C63.73 59.22 57.77 58.99 51.8 58.77L52.04 60.54C55.86 59.45 59.62 58.18 63.33 56.75C64.22 56.4 64.18 54.97 63.09 54.98C59.46 55.04 55.84 55.09 52.21 55.15L52.45 56.92C56.62 55.2 60.8 53.47 64.97 51.75C66.02 51.32 65.65 49.78 64.49 50.01C59.66 50.99 54.82 51.97 49.99 52.95C48.86 53.18 49.34 54.92 50.47 54.69Z" fill="#9E93FB"/>
<path d="M42.39 37.1599C40.12 37.0999 37.83 38.0199 36.26 39.6799C34.69 41.3399 33.84 43.7399 34.07 46.0499C34.12 46.5299 34.45 46.9499 34.97 46.9499C35.42 46.9499 35.92 46.5399 35.87 46.0499C35.69 44.1999 36.2501 42.3099 37.5401 40.9499C38.8301 39.5899 40.57 38.9099 42.4 38.9599C43.56 38.9899 43.56 37.1899 42.4 37.1599H42.39Z" fill="#9E93FB"/>
<path d="M46.0301 37.81C47.0001 33.43 48.84 29.33 51.46 25.68L49.7801 25.23C49.7801 27.04 49.7801 28.84 49.7801 30.65C49.7801 31.61 50.95 31.78 51.46 31.1C52.74 29.36 54.26 27.81 55.95 26.46L54.5401 26.28L54.56 26.33V25.85C54.48 26.42 54.18 27 53.98 27.54C53.74 28.19 53.5 28.83 53.26 29.48C52.8 30.74 52.33 31.99 51.87 33.25C51.47 34.34 53.21 34.81 53.61 33.73C54.15 32.28 54.6801 30.84 55.2201 29.39C55.4701 28.7 55.73 28.02 55.98 27.33C56.21 26.71 56.5601 25.97 56.1001 25.37C55.7201 24.88 55.18 24.79 54.69 25.19C52.88 26.65 51.3 28.33 49.92 30.2L51.6001 30.65C51.6001 28.84 51.6001 27.04 51.6001 25.23C51.6001 24.28 50.42 24.08 49.92 24.78C47.23 28.53 45.31 32.83 44.31 37.34C44.06 38.47 45.79 38.95 46.05 37.82L46.0301 37.81Z" fill="#9E93FB"/>
<path d="M35.4 49.1299C31.12 51.4199 30.35 56.6199 30.7 60.9999C30.79 62.1499 32.59 62.1599 32.5 60.9999C32.2 57.2699 32.61 52.6599 36.31 50.6899C37.33 50.1399 36.42 48.5899 35.4 49.1399V49.1299Z" fill="#9E93FB"/>
<path d="M38.8801 67.11C38.9801 69.08 39.0801 71.0599 39.1801 73.03C39.2301 73.99 39.2801 74.94 39.3301 75.9C39.3301 76.01 39.3401 76.13 39.3401 76.24C39.7001 76.01 39.74 75.91 39.48 75.95C39.3 75.88 38.9201 75.95 38.7201 75.95C38.2201 75.95 37.7101 75.95 37.2101 75.95C36.0501 75.95 36.0501 77.75 37.2101 77.75C37.7801 77.75 38.3401 77.75 38.9101 77.75C39.4801 77.75 40.0701 77.8 40.5601 77.46C41.0501 77.12 41.1501 76.56 41.1301 76C41.1001 75.39 41.0701 74.79 41.0401 74.18C40.9201 71.82 40.8001 69.47 40.6801 67.11C40.6201 65.96 38.8201 65.95 38.8801 67.11Z" fill="#9E93FB"/>
<path d="M46.7399 68.2799C47.5499 71.3299 47.8099 74.47 47.5499 77.61L48.45 76.71C47.58 76.77 46.71 76.75 45.83 76.67C45.35 76.62 44.9299 77.12 44.9299 77.57C44.9299 78.1 45.34 78.42 45.83 78.47C46.7 78.56 47.57 78.57 48.45 78.51C48.97 78.48 49.31 78.12 49.35 77.61C49.63 74.32 49.3199 70.9999 48.4799 67.8099C48.1799 66.6899 46.4499 67.17 46.7399 68.29V68.2799Z" fill="#9E93FB"/>
<path d="M66.2601 65.86C67.4701 66.52 68.8401 66.87 70.2201 66.83C70.6901 66.82 71.1401 66.43 71.1201 65.93C71.1001 65.43 70.7201 65.02 70.2201 65.03C69.9301 65.03 69.6401 65.03 69.3601 65C69.3201 65 69.2801 65 69.2401 64.99C69.1401 64.98 69.1601 64.99 69.3001 64.99C69.2501 65 69.1701 64.97 69.1201 64.96C68.9701 64.93 68.8201 64.9 68.6701 64.87C68.3901 64.8 68.1101 64.72 67.8401 64.61C67.7801 64.59 67.5601 64.53 67.8001 64.6C67.7301 64.58 67.6701 64.54 67.6001 64.51C67.4601 64.44 67.3201 64.37 67.1901 64.3C66.7801 64.07 66.1901 64.19 65.9601 64.62C65.7301 65.05 65.8401 65.61 66.2801 65.85L66.2601 65.86Z" fill="#9E93FB"/>
</svg>
