<svg width="100" height="100" viewBox="0 0 100 100" fill="none" xmlns="http://www.w3.org/2000/svg">
<path d="M43.29 64.34L34.26 60.57L38.77 49.76C41.54 51.6 44.29 53.47 47.04 55.36L43.29 64.34Z" fill="#2F2E45"/>
<path d="M63.36 55.56L72.74 52.57C69.93 43.74 67.93 36.75 66.71 31.36C63.57 32.34 60.42 33.34 57.38 34.79C58.76 40.64 60.8 47.51 63.36 55.56Z" fill="#2F2E45"/>
<path d="M54.0301 33.66C48.4101 36.68 42.8001 39.71 37.1801 42.73C36.4101 43.15 36.7401 44.45 37.6301 44.41C44.0401 44.1 50.4001 43.08 56.5901 41.35L55.9001 39.71C50.7801 42.38 45.6601 45.04 40.5401 47.71C39.7501 48.12 40.12 49.41 40.99 49.39C46.57 49.23 52.1201 48.57 57.5901 47.4L56.9001 45.76C53.6301 48.26 50.0001 50.15 46.0701 51.37C45.1301 51.66 45.2601 53.18 46.3101 53.14C50.3601 52.99 54.4201 52.84 58.4701 52.69L58.0201 51.01C54.6101 52.96 51.3001 55.06 48.0901 57.33C47.3901 57.82 47.6001 59 48.5401 59.01C52.7001 59.02 56.84 58.64 60.93 57.9C62.07 57.69 61.5901 55.96 60.4501 56.16C56.5101 56.87 52.5301 57.22 48.5301 57.2L48.98 58.88C52.19 56.62 55.5001 54.51 58.9101 52.56C59.6701 52.13 59.3601 50.85 58.4601 50.88C54.4101 51.03 50.35 51.18 46.3 51.33L46.5401 53.1C50.6101 51.84 54.41 49.89 57.8 47.31C58.59 46.71 58.16 45.44 57.11 45.67C51.8 46.8 46.42 47.44 40.99 47.59L41.4401 49.27C46.5601 46.6 51.68 43.94 56.8 41.27C57.71 40.79 57.08 39.35 56.11 39.63C50.07 41.31 43.8901 42.32 37.6301 42.62L38.0801 44.3L54.93 35.23C55.9501 34.68 55.0401 33.13 54.0201 33.68L54.0301 33.66Z" fill="#9E93FB"/>
<path d="M32.33 44.7201C31.17 44.4601 29.8599 44.7201 29.0699 45.6601C28.3499 46.5201 28.2099 47.8201 28.8099 48.7901C29.4699 49.8501 30.8499 50.14 31.9899 49.83C33.0299 49.54 34.3399 48.77 34.8799 47.81C36.1399 45.59 33.8099 42.94 31.8099 42.23C29.6399 41.46 27.22 42.68 26.46 44.83C25.7 46.98 27.1899 49.54 29.4299 49.98C31.8699 50.46 34.0899 48.53 34.4499 46.18C34.8099 43.83 33.63 40.89 30.96 40.93C29.68 40.95 28.5699 41.72 27.8099 42.69C27.1299 43.56 26.2799 44.79 26.3599 45.94C26.4499 47.36 27.88 47.8 29.08 47.52C30.28 47.24 31.2 46.3201 31.65 45.2201C32.1 44.1201 32.2199 42.72 31.6999 41.67C31.4799 41.21 31.09 40.85 30.58 40.74C29.87 40.59 29.28 41.06 28.9 41.62C28.2 42.66 28.18 44 28.34 45.19C28.5 46.38 28.95 47.52 30.16 47.99C32.4 48.86 34.4099 46.9801 34.8699 44.9001C35.3299 42.8201 35.07 40.07 33.27 38.69C31.47 37.31 28.3799 37.9401 26.5499 39.1601C24.6299 40.4501 23.5099 42.7201 24.0599 45.0301C24.2999 46.0401 24.9899 47.32 26.0699 47.61C26.6799 47.78 27.28 47.56 27.84 47.33C28.4 47.1 28.97 46.85 29.46 46.49C30.38 45.83 31.0499 44.91 31.1099 43.75C31.1699 42.67 30.6299 41.5901 29.6099 41.1601C27.3599 40.2201 24.6399 42.8701 24.1099 44.9001C23.7699 46.17 24.0599 47.53 24.4199 48.76C24.7799 49.99 25.49 50.98 26.85 51.24C29.27 51.7 32.0599 51.31 34.0099 49.73C34.8899 49.02 35.53 48.07 35.85 46.99C36.17 45.91 34.4499 45.4 34.1099 46.51C33.6399 48.07 32.19 49.02 30.66 49.39C29.79 49.6 28.8799 49.62 27.9899 49.57C27.1499 49.52 26.5099 49.42 26.2299 48.55C25.9499 47.68 25.7099 46.81 25.7499 45.92C25.7899 45.03 26.2799 44.3901 26.8799 43.7901C27.3199 43.3501 28.15 42.5701 28.85 42.7901C29.36 42.9501 29.38 43.66 29.22 44.08C28.98 44.74 28.2999 45.13 27.6999 45.43C27.4299 45.56 26.95 45.8601 26.64 45.8501C26.35 45.8501 26.17 45.48 26.04 45.23C25.36 43.98 25.7599 42.3401 26.6999 41.3401C27.7599 40.2101 29.4999 39.56 31.0499 39.7C32.5999 39.84 33.1699 41.38 33.2299 42.77C33.2899 44.16 32.9699 46.5 31.1299 46.36C30.3299 46.3 30.17 45.55 30.09 44.87C29.99 44.04 29.9299 42.88 30.6699 42.31L30.27 42.5401C29.71 42.7701 30.1 42.19 30.09 42.5C30.09 42.62 30.1599 42.8 30.1799 42.93C30.2099 43.22 30.2099 43.5401 30.1699 43.8401C30.0799 44.5001 29.77 45.13 29.21 45.52C29 45.66 28.7599 45.78 28.5099 45.82C28.3999 45.84 28.2699 45.85 28.1699 45.83C28.0099 45.79 28.15 45.92 28.14 45.81C28.12 45.26 28.6899 44.56 28.9799 44.13C29.6499 43.14 31.0599 42.12 32.0499 43.3C32.8199 44.22 32.9 45.7 32.41 46.76C31.92 47.82 30.5999 48.63 29.4399 48.14C28.4999 47.75 27.86 46.65 28.1 45.64C28.36 44.55 29.46 43.73 30.58 43.82C31.7 43.91 32.7899 44.78 33.2299 45.81C33.5299 46.5 33.4299 47 32.8199 47.43C32.2799 47.81 31.6099 48.27 30.9199 48.19C30.3599 48.13 30.07 47.64 30.28 47.11C30.52 46.51 31.28 46.37 31.85 46.5C32.98 46.75 33.46 45.02 32.33 44.76V44.7201Z" fill="#9E93FB"/>
<path d="M40.2499 39.42C46.0599 34.68 52.85 30.14 60.71 30.89C61.86 31 61.86 29.2 60.71 29.09C52.37 28.3 45.1399 33.13 38.9799 38.15C38.0799 38.88 39.3599 40.15 40.2499 39.42Z" fill="#9E93FB"/>
<path d="M66.02 58.83C67.18 58.83 67.18 57.03 66.02 57.03C64.86 57.03 64.86 58.83 66.02 58.83Z" fill="#9E93FB"/>
<path d="M68.23 57.66C69.39 57.66 69.39 55.86 68.23 55.86C67.07 55.86 67.07 57.66 68.23 57.66Z" fill="#9E93FB"/>
<path d="M70.4401 56.77C71.6001 56.77 71.6001 54.97 70.4401 54.97C69.2801 54.97 69.2801 56.77 70.4401 56.77Z" fill="#9E93FB"/>
<path d="M72.65 55.74C73.81 55.74 73.81 53.94 72.65 53.94C71.49 53.94 71.49 55.74 72.65 55.74Z" fill="#9E93FB"/>
<path d="M51.74 61.86C51.9 62.71 52.01 63.54 52.07 64.4C52.1 64.86 52.13 65.31 52.14 65.77C52.14 65.97 52.14 66.17 52.14 66.37C52.14 66.49 52.14 66.61 52.14 66.73C52.14 66.79 52.11 67.01 52.14 67.06L52.49 66.56C52.58 66.55 52.58 66.55 52.49 66.56C52.37 66.56 52.24 66.58 52.12 66.59C51.9 66.61 51.67 66.62 51.45 66.64C51 66.67 50.55 66.71 50.1 66.74C49.16 66.81 48.22 66.88 47.28 66.95C46.8 66.99 46.38 67.34 46.38 67.85C46.38 68.31 46.79 68.79 47.28 68.75C48.34 68.67 49.4 68.59 50.47 68.52C51 68.48 51.53 68.44 52.06 68.4C52.66 68.36 53.36 68.36 53.72 67.78C54.01 67.31 53.95 66.68 53.94 66.14C53.93 65.6 53.92 65.11 53.88 64.59C53.81 63.52 53.67 62.45 53.47 61.4C53.38 60.92 52.8 60.65 52.36 60.77C51.86 60.91 51.64 61.4 51.73 61.88L51.74 61.86Z" fill="#9E93FB"/>
<path d="M60.0699 60.59C60.1799 62.26 60.2999 63.93 60.4099 65.6C60.4299 65.84 60.3399 65.92 60.6199 65.56C60.6599 65.38 60.7599 65.3 60.8999 65.3H60.7799C60.5799 65.33 60.3899 65.35 60.1899 65.36C59.7799 65.4 59.3699 65.43 58.9499 65.47C58.1099 65.55 57.2599 65.62 56.4199 65.7C55.9499 65.74 55.4999 66.08 55.5199 66.6C55.5399 67.05 55.9199 67.54 56.4199 67.5C57.3599 67.42 58.2999 67.33 59.2399 67.25C59.7099 67.21 60.1799 67.17 60.6499 67.12C61.2199 67.07 61.7599 67 62.0599 66.44C62.3099 65.98 62.1799 65.38 62.1499 64.88L62.0499 63.45C61.9899 62.5 61.9199 61.54 61.8599 60.59C61.8299 60.12 61.4699 59.67 60.9599 59.69C60.4999 59.71 60.0299 60.09 60.0599 60.59H60.0699Z" fill="#9E93FB"/>
</svg>
