<svg width="100" height="100" viewBox="0 0 100 100" fill="none" xmlns="http://www.w3.org/2000/svg">
<path d="M56.02 39.6L52.61 45.3L45.4 33.09C42.64 34.86 39.8 36.7 37 38.51L47.42 55.76V65.03C50.76 65.26 54.15 65.57 57.5 65.7V55.46L64.39 44.11C62.08 41.86 59.36 40.65 56.01 39.6H56.02Z" fill="#2F2E45"/>
<path d="M47.29 66.96C47.39 68.45 47.4401 69.94 47.4401 71.43C47.4401 71.8 47.44 72.1599 47.42 72.5299C47.42 72.7099 47.4201 72.9 47.4001 73.08C47.4001 73.16 47.3701 73.2799 47.4001 73.3499C47.4001 73.4299 47.4001 73.44 47.4001 73.39C47.4201 73.28 47.5001 73.21 47.6401 73.17C47.9501 72.92 47.9301 72.9799 47.7201 72.9799C47.6301 72.9799 47.5401 72.9799 47.4401 72.9799C47.2601 72.9799 47.0701 72.9799 46.8901 72.9799C46.5001 72.9799 46.1101 72.95 45.7201 72.93C45.2301 72.9 44.8201 73.37 44.8201 73.83C44.8201 74.34 45.2301 74.7 45.7201 74.7299C46.1601 74.7599 46.5901 74.7799 47.0301 74.7899C47.4401 74.7899 47.89 74.8499 48.29 74.7299C49.37 74.4199 49.2101 73.1299 49.2201 72.2599C49.2501 70.4999 49.2001 68.7299 49.0801 66.9699C49.0501 66.4899 48.6901 66.0699 48.1801 66.0699C47.7201 66.0699 47.2501 66.4799 47.2801 66.9699L47.29 66.96Z" fill="#9E93FB"/>
<path d="M56.1001 67.3099C56.0801 69.5599 56.06 71.81 56.04 74.07L56.9401 73.17C56.0201 73.17 55.1001 73.15 54.1901 73.11C53.7001 73.09 53.29 73.54 53.29 74.01C53.29 74.52 53.7001 74.8899 54.1901 74.9099C55.1101 74.9499 56.0301 74.9799 56.9401 74.9699C57.4301 74.9699 57.8401 74.56 57.8401 74.07C57.8601 71.82 57.8801 69.5699 57.9001 67.3099C57.9101 66.1499 56.1101 66.1499 56.1001 67.3099Z" fill="#9E93FB"/>
<path d="M65.3901 45.71C62.9301 48.75 60.2901 52.04 59.6301 56.01C59.3201 57.86 59.3501 59.94 60.9501 61.21C62.4101 62.36 64.4901 62.59 66.2701 62.27C69.8101 61.63 73.1301 57.84 72.2701 54.09C71.4901 50.71 67.0301 50.27 64.6301 52.14C63.3201 53.16 62.3901 54.88 62.8501 56.57C63.3901 58.55 65.6901 58.15 66.9501 57.1C68.4701 55.82 68.7901 53.89 69.0201 52.03C69.1301 51.12 69.2301 50.18 69.6001 49.33C69.7601 48.96 69.9801 48.59 70.2601 48.3L70.4301 48.13C70.6501 48.07 70.6901 47.97 70.5501 47.84C70.4601 47.64 70.4401 47.66 70.4701 47.91C70.4601 48.09 70.4401 48.27 70.4101 48.45C70.1501 50.74 70.0201 53.14 69.5401 55.39C69.3301 56.37 68.6801 56.81 67.8401 57.24C66.8001 57.77 65.7201 58.2 64.6101 58.56C63.0401 59.07 60.7101 59.99 61.3701 62.13C61.9401 63.99 64.4501 64.28 66.0601 64.45C67.1001 64.56 68.1901 64.69 69.1201 64.12C70.1101 63.51 70.7901 62.34 71.5101 61.46C72.9501 59.67 74.7901 57.82 75.3401 55.52C75.8501 53.42 75.1601 51.49 73.3901 50.25C71.4801 48.91 69.1101 48.04 66.8701 47.45C65.7501 47.16 65.2701 48.89 66.3901 49.19C68.1001 49.64 69.7501 50.26 71.3201 51.1C72.7201 51.85 73.8701 52.76 73.7001 54.5C73.5301 56.24 72.3201 57.58 71.3101 58.85C70.7401 59.56 70.1701 60.27 69.6001 60.98C69.1101 61.59 68.5701 62.57 67.7501 62.73C66.9801 62.88 66.0001 62.67 65.2301 62.54C64.7101 62.45 63.3101 62.28 63.1101 61.65C62.8601 60.86 64.3001 60.55 64.8001 60.4C65.6601 60.13 66.5101 59.82 67.3501 59.46C68.6401 58.91 70.2001 58.28 70.9001 56.97C71.6401 55.59 71.5801 53.69 71.7601 52.17C71.8701 51.27 71.9801 50.38 72.0901 49.48C72.1801 48.72 72.4101 47.85 72.1601 47.1C71.6501 45.55 69.9501 46.12 69.0701 46.97C68.0801 47.92 67.6101 49.3 67.4001 50.63C67.1601 52.15 67.2201 53.93 66.2801 55.22C66.0201 55.58 65.2001 56.45 64.6901 56.17C64.1801 55.89 64.7901 54.66 65.0201 54.33C65.7901 53.24 67.1301 52.68 68.4501 52.87C71.9701 53.36 70.4101 57.71 68.5901 59.27C67.2601 60.42 65.3701 60.88 63.6601 60.5C62.8301 60.32 61.9301 59.96 61.5301 59.16C61.1301 58.36 61.2601 57.34 61.3901 56.51C61.9601 52.85 64.4201 49.79 66.6801 47C67.4001 46.11 66.1401 44.83 65.4101 45.73L65.3901 45.71Z" fill="#9E93FB"/>
<path d="M53.1901 41.07C54.6001 39.8 55.8001 38.31 56.7501 36.67C57.1401 36 56.4901 35.13 55.7301 35.35C54.9701 35.57 54.2101 35.79 53.4501 36C53.0701 36.11 52.6901 36.22 52.3101 36.33C52.1501 36.38 51.9901 36.42 51.8301 36.47C51.5501 36.55 51.6401 36.44 51.7801 36.54L52.1001 36.86V37.33C52.1601 37.06 52.4701 36.75 52.6301 36.52C52.8601 36.2 53.0801 35.88 53.3101 35.56C53.7601 34.92 54.2201 34.28 54.6701 33.64C55.1501 32.97 54.3601 32.14 53.6501 32.32C51.7601 32.78 49.8801 33.24 47.9601 33.59L48.9801 34.91C49.6501 33.6 50.3201 32.3 50.9901 30.99C51.2801 30.43 50.9401 29.58 50.2101 29.64C48.6001 29.76 47.0801 30.17 45.6301 30.85C45.1901 31.06 45.0801 31.69 45.3101 32.08C45.5701 32.53 46.1001 32.61 46.5401 32.4C47.6901 31.86 48.9501 31.53 50.2101 31.43L49.4301 30.08C48.7601 31.39 48.0901 32.69 47.4201 34C47.0501 34.73 47.6601 35.46 48.4401 35.32C50.3501 34.97 52.2401 34.51 54.1301 34.05L53.1101 32.73C52.5001 33.59 51.9001 34.44 51.2901 35.3C50.7901 36.01 49.8601 36.99 50.5901 37.86C51.2501 38.65 52.3201 38.19 53.1401 37.96C54.1501 37.67 55.1701 37.38 56.1801 37.09L55.1601 35.77C54.2801 37.29 53.1801 38.63 51.8801 39.8C51.0201 40.58 52.2901 41.85 53.1501 41.07H53.1901Z" fill="#9E93FB"/>
<path d="M45.6001 55.68C43.7201 55.71 41.9601 54.8499 40.6701 53.4999C39.2901 52.0599 38.5401 50.15 38.1901 48.21C38.1001 47.73 37.5201 47.46 37.0801 47.58C36.5801 47.72 36.3601 48.2099 36.4501 48.6899C36.8701 50.9699 37.8501 53.2 39.4901 54.87C41.1301 56.54 43.3101 57.52 45.6001 57.48C46.7601 57.46 46.7601 55.66 45.6001 55.68Z" fill="#9E93FB"/>
<path d="M36.9801 35.24C36.9801 35.24 36.9201 35.29 36.8901 35.31L37.0701 35.17C36.5201 35.59 35.9201 35.94 35.2801 36.21L35.4901 36.12C35.4201 36.15 35.3501 36.18 35.2801 36.2C35.0501 36.29 34.8701 36.4 34.7401 36.61C34.6301 36.8 34.5801 37.09 34.6501 37.3C34.7201 37.51 34.8601 37.73 35.0601 37.84C35.2601 37.95 35.5301 38.02 35.7501 37.93C36.2001 37.75 36.6301 37.56 37.0501 37.32C37.4701 37.08 37.8501 36.8 38.2301 36.5C38.4001 36.37 38.4901 36.07 38.4901 35.86C38.4901 35.64 38.3901 35.38 38.2301 35.22C38.0701 35.06 37.8301 34.95 37.5901 34.96L37.3501 34.99C37.2001 35.03 37.0701 35.11 36.9501 35.22L36.9801 35.24Z" fill="#9E93FB"/>
</svg>
