<svg width="100" height="100" viewBox="0 0 100 100" fill="none" xmlns="http://www.w3.org/2000/svg">
<path d="M74.73 64.8L85.12 53.19C74.43 43.62 65.14 36.42 57.04 31.49C56.59 37.26 55.88 43.02 54.88 48.74C60.25 52.51 66.79 57.7 74.73 64.81V64.8Z" fill="#2F2E45"/>
<path d="M53.29 34.16L53.14 18.58C35.98 18.74 24.47 35.35 14.33 50.2C17.91 54.02 21.83 57.57 26.1 60.6C26.36 60.22 26.61 59.85 26.87 59.47C34.94 47.65 44.08 34.24 53.29 34.16Z" fill="#2F2E45"/>
<path d="M37.72 56.71C38.86 54.84 40.2 52.67 42.48 52.11C44.76 51.55 47.12 53.49 46.02 55.84C45.79 56.33 44.43 57.98 43.71 57.26C43.17 56.72 44.33 56.01 44.67 55.87C45.2 55.65 45.81 55.54 46.38 55.5C48.3 55.33 51.39 56.45 50.88 58.95C50.77 59.51 50.38 60.05 49.88 60.33C49.38 60.61 48.45 60.86 48.62 60.02C48.78 59.28 50.61 58.68 51.21 58.53C53.09 58.06 55.26 58.75 55.6 60.87C55.71 61.53 55.38 63.33 54.3 63.06C52.84 62.69 54.88 61.05 55.35 60.75C57.34 59.45 59.65 58.85 62.01 58.85C63.17 58.85 63.17 57.05 62.01 57.05C58.91 57.05 54.8 58.03 52.77 60.59C50.91 62.93 53.28 66.1 55.93 64.33C58.24 62.79 57.62 59.26 55.73 57.68C53.45 55.76 49.53 56.49 47.54 58.52C46.63 59.45 46.27 60.91 47.4 61.82C48.46 62.68 50.02 62.43 51.06 61.69C53.64 59.86 52.84 56.26 50.48 54.66C48.3 53.18 43.2 53.06 42.02 55.98C41.6 57.03 41.91 58.4 42.95 58.96C44.16 59.6 45.72 58.87 46.62 58C49.08 55.64 48.09 51.39 44.82 50.39C40.86 49.17 37.93 52.86 36.14 55.8C35.53 56.79 37.09 57.7 37.69 56.71H37.72Z" fill="#9E93FB"/>
<path d="M63.39 23.48C65.38 23.52 67.33 23.79 69.25 24.29L69.04 22.65C66.81 24 64.57 25.36 62.34 26.71C61.53 27.2 61.94 28.3 62.79 28.39C65.04 28.61 67.28 28.83 69.53 29.05L69.08 27.37C66.6 28.57 64.12 29.78 61.64 30.98C60.98 31.3 61.09 32.51 61.85 32.62C64.56 33.01 67.26 33.41 69.97 33.8C70.45 33.87 70.94 33.68 71.08 33.17C71.2 32.75 70.94 32.13 70.45 32.06C67.74 31.67 65.04 31.27 62.33 30.88L62.54 32.52C65.02 31.32 67.5 30.11 69.98 28.91C70.86 28.48 70.32 27.31 69.53 27.23C67.28 27.01 65.04 26.79 62.79 26.57L63.24 28.25C65.47 26.9 67.71 25.54 69.94 24.19C70.59 23.8 70.49 22.74 69.73 22.55C67.66 22.01 65.53 21.71 63.39 21.68C62.23 21.66 62.23 23.46 63.39 23.48Z" fill="#9E93FB"/>
<path d="M47.46 41.28C45.86 41.35 44.43 42.54 44.16 44.13C43.89 45.72 44.61 47.76 46.28 48.2C47.06 48.4 47.95 48.18 48.51 47.6C49.07 47.02 49.21 46.2 48.96 45.47C48.66 44.61 47.93 44.13 47.04 44.08C46.65 44.06 46.24 44.12 45.85 44.17C45.34 44.23 44.83 44.3 44.34 44.44C43.46 44.7 42.67 45.17 41.97 45.75C41.65 46.02 41.26 46.34 41.06 46.71C40.65 47.46 41.34 48.47 42.21 48.17C42.67 48.01 42.97 47.55 42.84 47.06C42.72 46.61 42.19 46.27 41.73 46.43L41.67 46.45L42.36 46.54L42.3 46.51L42.62 46.83L42.59 46.77L42.68 47.46C42.64 47.72 42.46 47.74 42.61 47.6C42.66 47.56 42.7 47.5 42.75 47.45C42.83 47.37 42.92 47.28 43 47.2C43.21 47.01 43.33 46.91 43.53 46.78C43.97 46.48 44.34 46.29 44.8 46.15C45.37 45.98 45.93 45.92 46.52 45.87C46.64 45.86 46.75 45.85 46.87 45.85C46.89 45.85 47.09 45.85 47 45.85C46.92 45.85 47.08 45.87 47.08 45.86L47.17 45.89L47.11 45.87C47.11 45.87 47.21 45.94 47.11 45.85C47.15 45.88 47.18 45.92 47.21 45.95C47.09 45.82 47.24 45.95 47.21 45.98L47.23 46.01L47.2 45.93C47.2 45.93 47.23 46.03 47.24 46.07C47.29 46.22 47.24 46.1 47.24 46.05C47.24 46.1 47.24 46.15 47.24 46.2C47.24 46.28 47.19 46.31 47.24 46.18C47.23 46.21 47.23 46.25 47.21 46.29V46.32C47.24 46.23 47.24 46.21 47.21 46.27C47.11 46.27 47.21 46.44 47.19 46.3C47.19 46.31 47.04 46.43 47.19 46.31C47.16 46.33 47.12 46.35 47.09 46.37C47.07 46.38 46.92 46.45 47.02 46.41C47.12 46.37 46.96 46.42 46.94 46.43C46.9 46.43 46.86 46.45 46.82 46.45C47 46.42 46.85 46.45 46.82 46.44C46.77 46.44 46.71 46.44 46.66 46.44C46.79 46.46 46.7 46.44 46.63 46.42C46.5 46.38 46.76 46.47 46.63 46.42C46.59 46.41 46.56 46.38 46.53 46.36C46.62 46.42 46.51 46.35 46.49 46.33C46.44 46.29 46.4 46.24 46.36 46.2C46.36 46.2 46.25 46.07 46.32 46.17C46.28 46.12 46.25 46.06 46.21 46.01C46.14 45.9 46.08 45.79 46.02 45.67C46.07 45.77 46 45.63 46 45.62C45.98 45.56 45.96 45.5 45.94 45.44C45.91 45.33 45.88 45.22 45.86 45.11C45.83 44.95 45.86 45.22 45.86 45.06C45.86 45.01 45.86 44.96 45.86 44.92C45.86 44.86 45.86 44.79 45.86 44.73C45.86 44.73 45.88 44.49 45.86 44.56C45.85 44.66 45.88 44.46 45.88 44.44C45.9 44.36 45.92 44.28 45.94 44.21C45.96 44.15 45.98 44.09 46 44.03C45.95 44.15 46.02 44.01 46.04 43.97C46.06 43.93 46.08 43.89 46.11 43.86C46.11 43.86 46.27 43.63 46.17 43.76C46.24 43.67 46.32 43.58 46.41 43.5C46.55 43.37 46.67 43.28 46.95 43.15C46.93 43.15 46.84 43.19 46.94 43.15C47.01 43.13 47.08 43.1 47.15 43.09C47.21 43.08 47.26 43.06 47.32 43.05C47.16 43.08 47.38 43.05 47.43 43.05C47.92 43.03 48.33 42.65 48.33 42.15C48.33 41.68 47.92 41.23 47.43 41.25L47.46 41.28Z" fill="#9E93FB"/>
<path d="M49.15 51.38C49.43 51.27 49.71 51.17 50 51.11C50.03 51.11 50.27 51.07 50.13 51.08C49.99 51.09 50.23 51.08 50.26 51.08C50.33 51.08 50.41 51.08 50.48 51.08C50.51 51.08 50.54 51.08 50.57 51.08C50.58 51.08 50.79 51.1 50.64 51.08C50.51 51.07 50.71 51.1 50.75 51.11C50.81 51.12 50.86 51.14 50.92 51.16C50.94 51.16 50.97 51.18 50.99 51.19C50.99 51.19 50.81 51.1 50.89 51.15C50.95 51.18 51.01 51.21 51.07 51.24C51.12 51.27 51.17 51.31 51.22 51.34C51.21 51.34 51.05 51.2 51.16 51.29C51.18 51.31 51.2 51.32 51.22 51.34C51.26 51.38 51.3 51.42 51.34 51.46C51.36 51.48 51.37 51.5 51.39 51.52C51.49 51.63 51.38 51.52 51.36 51.47C51.4 51.56 51.47 51.65 51.52 51.75C51.57 51.85 51.45 51.56 51.49 51.67C51.49 51.69 51.51 51.72 51.51 51.74C51.53 51.8 51.55 51.87 51.56 51.93C51.6 52.08 51.54 51.71 51.56 51.91C51.56 51.97 51.56 52.02 51.56 52.08C51.56 52.1 51.56 52.13 51.56 52.15C51.56 52.26 51.6 51.94 51.57 52.06C51.56 52.12 51.55 52.17 51.53 52.23C51.53 52.26 51.45 52.45 51.51 52.31C51.57 52.17 51.49 52.35 51.47 52.38C51.44 52.43 51.41 52.48 51.38 52.52C51.34 52.6 51.45 52.43 51.45 52.43C51.42 52.46 51.4 52.49 51.37 52.52C51.33 52.56 51.29 52.6 51.25 52.64C51.14 52.74 51.43 52.52 51.25 52.63C51.21 52.66 51.17 52.68 51.12 52.7C51.02 52.75 51.31 52.64 51.2 52.66C51.17 52.66 51.14 52.68 51.11 52.69C51.08 52.7 51.05 52.7 51.02 52.71C50.93 52.74 51.22 52.7 51.12 52.7C51.06 52.7 51 52.7 50.94 52.7C50.75 52.7 51.14 52.75 50.95 52.7C50.89 52.69 50.83 52.66 50.77 52.65C50.66 52.63 50.95 52.74 50.86 52.69C50.83 52.67 50.81 52.66 50.78 52.65C50.76 52.64 50.74 52.63 50.72 52.62C50.59 52.55 50.82 52.73 50.78 52.67C50.75 52.64 50.61 52.49 50.71 52.62C50.81 52.75 50.68 52.56 50.66 52.52C50.45 52.1 49.82 51.94 49.43 52.2C49 52.48 48.88 52.98 49.11 53.43C49.47 54.13 50.29 54.54 51.06 54.51C51.88 54.47 52.62 54.01 53.01 53.29C53.4 52.57 53.43 51.7 53.09 50.92C52.78 50.21 52.13 49.71 51.42 49.45C50.53 49.12 49.51 49.32 48.66 49.66C48.43 49.75 48.25 49.86 48.12 50.07C48.01 50.26 47.96 50.55 48.03 50.76C48.17 51.18 48.67 51.57 49.14 51.39L49.15 51.38Z" fill="#9E93FB"/>
<path d="M54.24 54.8C54.39 54.96 54.58 55.1 54.79 55.2C54.93 55.26 55.07 55.33 55.22 55.36C55.37 55.39 55.52 55.41 55.67 55.43C55.75 55.43 55.83 55.43 55.91 55.43C56.06 55.42 56.21 55.4 56.36 55.36C56.58 55.3 56.8 55.21 56.98 55.07C57.08 55.01 57.17 54.94 57.23 54.84C57.31 54.75 57.36 54.65 57.39 54.53C57.45 54.31 57.42 54.03 57.3 53.84C57.18 53.65 56.99 53.48 56.76 53.43C56.53 53.38 56.26 53.38 56.07 53.52C55.99 53.58 55.91 53.63 55.82 53.67L56.03 53.58C55.93 53.62 55.82 53.65 55.71 53.67L55.95 53.64C55.84 53.65 55.73 53.65 55.61 53.64L55.85 53.67C55.73 53.65 55.62 53.62 55.51 53.58L55.72 53.67C55.63 53.63 55.55 53.58 55.47 53.53L55.65 53.67C55.65 53.67 55.56 53.59 55.52 53.55C55.36 53.39 55.11 53.29 54.88 53.29C54.65 53.29 54.4 53.39 54.24 53.55C54.08 53.71 53.97 53.95 53.98 54.19C53.99 54.43 54.07 54.65 54.24 54.83V54.8Z" fill="#9E93FB"/>
<path d="M60.93 61.6001C61.02 61.6101 61.11 61.63 61.19 61.66C61.04 61.61 61.33 61.75 61.28 61.71C61.36 61.77 61.51 61.95 61.54 62.01C61.75 62.37 61.83 62.77 61.99 63.21C62.04 63.34 61.96 63.18 61.99 63.17C61.97 63.17 61.93 63.2501 61.88 63.2901C61.74 63.4301 61.68 63.4801 61.47 63.6001C61.34 63.6701 61.39 63.65 61.28 63.69C61.19 63.72 61.09 63.75 60.99 63.77C60.99 63.77 60.84 63.8001 60.91 63.7901C60.98 63.7801 60.83 63.7901 60.83 63.7901C60.76 63.7901 60.7 63.7901 60.63 63.7901C60.6 63.7901 60.48 63.7801 60.58 63.7901C60.55 63.7901 60.33 63.74 60.42 63.76C60.42 63.76 60.28 63.69 60.35 63.73H60.36C60.29 63.67 60.27 63.65 60.31 63.7C60.33 63.7 60.35 63.7801 60.35 63.7901C60.33 63.7501 60.35 63.68 60.33 63.75C60.31 63.84 60.27 63.9 60.23 63.98C60.21 64.02 60.08 64.03 60.27 63.97C60.16 64.02 60.25 63.97 60.27 63.97C60.38 63.92 60.49 63.8901 60.6 63.8501C60.83 63.7701 61.06 63.71 61.3 63.67C61.34 63.67 61.39 63.65 61.43 63.65C61.41 63.65 61.31 63.66 61.41 63.65C61.51 63.64 61.62 63.63 61.72 63.63C61.91 63.63 62.11 63.63 62.3 63.65C62.34 63.65 62.39 63.65 62.43 63.66C62.28 63.64 62.43 63.66 62.46 63.66C62.55 63.68 62.64 63.69 62.72 63.71C62.92 63.76 63.13 63.82 63.32 63.89C63.36 63.91 63.4 63.92 63.45 63.94C63.59 64 63.35 63.89 63.48 63.96C63.59 64.01 63.7 64.06 63.8 64.12C63.98 64.22 64.16 64.33 64.33 64.46C64.45 64.55 64.25 64.39 64.36 64.48C64.41 64.52 64.45 64.5601 64.5 64.6001C64.58 64.6701 64.65 64.74 64.73 64.81C64.81 64.9 64.89 64.99 64.97 65.07C64.97 65.07 65.06 65.18 65.01 65.12C64.96 65.06 65.1 65.25 65.1 65.25C65.38 65.65 65.89 65.83 66.33 65.57C66.72 65.34 66.93 64.74 66.65 64.34C65.2 62.26 62.47 61.29 60.05 62.13C59.25 62.41 58.51 62.8301 58.52 63.7901C58.52 64.6001 59.13 65.25 59.88 65.48C61.24 65.89 63.15 65.15 63.65 63.76C63.93 62.99 63.52 61.9801 63.16 61.2901C62.8 60.6001 62.15 59.98 61.37 59.87C60.89 59.8 60.4 59.99 60.26 60.5C60.14 60.92 60.4 61.54 60.89 61.61L60.93 61.6001Z" fill="#9E93FB"/>
<path d="M36.16 59.39C36.44 62.77 36.7 66.16 36.92 69.54C37.03 71.2 37.13 72.87 37.22 74.54C37.25 74.99 37.22 75.48 37.3 75.92L37.32 76.26C37.47 75.97 37.38 75.9 37.04 76.03C36.67 75.94 36.07 76.09 35.68 76.11C35.23 76.13 34.77 76.13 34.32 76.14C33.16 76.14 33.16 77.95 34.32 77.94C35.28 77.94 36.25 77.9 37.21 77.82C37.94 77.76 38.67 77.73 38.99 76.97C39.31 76.21 39.06 75.15 39.02 74.36C38.96 73.33 38.9 72.29 38.84 71.26C38.59 67.3 38.3 63.34 37.97 59.38C37.87 58.23 36.07 58.22 36.17 59.38L36.16 59.39Z" fill="#9E93FB"/>
<path d="M67.83 63.44C67.79 66.61 69.16 69.55 69.38 72.69C69.41 73.09 69.39 77.55 69.35 77.54L69.86 77.04H69.58C69.38 76.98 69.08 77.05 68.88 77.05C68.5 77.05 68.13 77.06 67.75 77.07C66.86 77.08 65.97 77.1 65.08 77.11C63.92 77.13 63.92 78.93 65.08 78.91C66.02 78.9 66.96 78.88 67.9 78.87C68.67 78.86 69.76 79.04 70.48 78.71C71.26 78.35 71.18 77.43 71.21 76.71C71.25 75.79 71.28 74.86 71.26 73.93C71.23 72.17 70.97 70.45 70.55 68.74C70.13 67.03 69.64 65.25 69.66 63.44C69.67 62.28 67.87 62.28 67.86 63.44H67.83Z" fill="#9E93FB"/>
<path d="M73.44 34.09C74.66 35.18 75.92 36.24 77.2 37.27C77.39 37.42 77.58 37.53 77.84 37.53C78.06 37.53 78.32 37.43 78.48 37.27C78.78 36.94 78.87 36.31 78.48 36C77.2 34.97 75.95 33.91 74.72 32.82C74.37 32.51 73.79 32.45 73.45 32.82C73.14 33.16 73.07 33.76 73.45 34.09H73.44Z" fill="#9E93FB"/>
<path d="M76.34 32.89C76.24 33.02 76.42 32.79 76.34 32.88C76.31 32.91 76.29 32.95 76.26 32.98C76.2 33.05 76.14 33.13 76.09 33.2C75.97 33.35 75.84 33.5 75.72 33.65C75.47 33.94 75.22 34.23 74.96 34.51C74.44 35.07 73.9 35.61 73.33 36.12C72.98 36.44 72.98 37.08 73.33 37.39C73.7 37.73 74.23 37.73 74.6 37.39C75.81 36.3 76.89 35.09 77.88 33.8C78.01 33.63 78.03 33.3 77.97 33.11C77.91 32.9 77.75 32.67 77.56 32.57C77.35 32.46 77.1 32.4 76.87 32.48C76.64 32.56 76.48 32.7 76.33 32.89H76.34Z" fill="#9E93FB"/>
</svg>
