<svg width="100" height="100" viewBox="0 0 100 100" fill="none" xmlns="http://www.w3.org/2000/svg">
<path d="M63.6801 42.7299V66.4399H73.54V48.42C73.54 45.75 73.8301 43.4 74.3801 41.4C70.7301 41.35 67.0901 41.5499 63.6801 42.7299Z" fill="#2F2E45"/>
<path d="M28.36 65.6299H39.21V42.1899C35.59 42.7999 31.98 43.34 28.36 43.83V65.6299Z" fill="#2F2E45"/>
<path d="M43.73 64.87H59.15V25.53C54 26.75 48.86 27.86 43.73 28.87V64.87Z" fill="#2F2E45"/>
<path d="M43.69 67.79C43.74 69.37 43.76 70.96 43.77 72.54C43.77 73.32 43.77 74.09 43.77 74.87C43.77 75.26 43.77 75.65 43.76 76.03C43.76 76.22 43.76 76.42 43.76 76.61C43.76 76.71 43.76 76.8 43.76 76.9C43.74 77.12 43.75 77.16 43.78 77.01L44.1 76.69C44.18 76.64 43.84 76.68 43.78 76.68C43.62 76.68 43.47 76.68 43.31 76.68C42.97 76.68 42.62 76.68 42.28 76.68C41.59 76.68 40.91 76.68 40.22 76.68C39.06 76.68 39.06 78.48 40.22 78.48C41.47 78.48 42.71 78.49 43.96 78.48C44.61 78.48 45.28 78.3 45.49 77.6C45.67 77 45.57 76.26 45.58 75.64C45.61 73.02 45.58 70.4 45.5 67.79C45.47 66.63 43.67 66.63 43.7 67.79H43.69Z" fill="#9E93FB"/>
<path d="M57.27 67.2499C57.3 69.2899 57.3 71.3399 57.27 73.3799C57.26 74.3699 57.24 75.36 57.21 76.3499C57.21 76.4599 57.21 76.57 57.2 76.68C57.14 76.83 57.23 76.7499 57.47 76.4399C57.44 76.3799 56.83 76.39 56.74 76.39C56.21 76.35 55.69 76.31 55.16 76.27C54.01 76.18 54.01 77.98 55.16 78.07C55.75 78.12 56.35 78.16 56.94 78.21C57.53 78.26 58.09 78.3 58.53 77.87C58.92 77.49 58.99 76.98 59.01 76.46C59.03 75.83 59.04 75.21 59.05 74.58C59.1 72.14 59.1 69.7 59.06 67.26C59.04 66.1 57.24 66.1 57.26 67.26L57.27 67.2499Z" fill="#9E93FB"/>
<path d="M66.7 68.7499C66.95 70.4399 66.99 72.16 66.85 73.86C66.82 74.25 66.78 74.63 66.73 75.02C66.7 75.24 66.67 75.46 66.63 75.67C66.6 75.85 66.5099 76.0899 66.5199 76.2799C66.4299 76.5099 66.52 76.47 66.8 76.14C66.7 76.14 66.6 76.14 66.51 76.14C66.29 76.14 66.08 76.14 65.86 76.14C65.43 76.14 65 76.1199 64.57 76.0999C63.41 76.0399 63.42 77.84 64.57 77.9C65.08 77.93 65.59 77.9399 66.1 77.9399C66.61 77.9399 67.17 77.9699 67.62 77.6899C68.11 77.3799 68.2399 76.83 68.3399 76.3C68.4399 75.77 68.5099 75.22 68.5799 74.67C68.8299 72.53 68.76 70.38 68.44 68.26C68.37 67.78 67.7599 67.5099 67.3299 67.6299C66.8099 67.7699 66.63 68.25 66.7 68.74V68.7499Z" fill="#9E93FB"/>
<path d="M70.9599 68.33C70.9299 70.11 70.89 71.8799 70.86 73.6599C70.85 74.3799 70.94 75.2 70.73 75.9C70.66 76.12 70.5799 76.28 70.3999 76.39C70.2199 76.5 70.2299 76.46 70.0899 76.36C69.6999 76.07 69.08 76.3 68.86 76.68C68.59 77.14 68.79 77.6199 69.18 77.9099C69.93 78.4699 71 78.25 71.67 77.68C72.45 77.03 72.61 75.97 72.63 75.01C72.7 72.79 72.71 70.56 72.75 68.33C72.77 67.17 70.97 67.17 70.95 68.33H70.9599Z" fill="#9E93FB"/>
<path d="M29.13 67.9699C29.06 70.4599 28.98 72.94 28.91 75.43L28.86 77.21C28.84 77.79 28.73 78.45 28.86 79.02C29.12 80.26 30.71 80.09 31.69 80.18C32.17 80.23 32.59 79.7299 32.59 79.2799C32.59 78.7599 32.18 78.4299 31.69 78.3799C31.4 78.3499 31.11 78.33 30.82 78.3C30.67 78.29 30.53 78.27 30.38 78.26C30.13 78.25 30.09 78.24 30.26 78.23L30.5799 78.55C30.7099 78.8 30.63 78.3 30.64 78.2L30.66 77.5299L30.7 76.1899L30.78 73.4099L30.94 67.95C30.97 66.79 29.17 66.79 29.14 67.95L29.13 67.9699Z" fill="#9E93FB"/>
<path d="M35.57 67.95C35.75 70.53 35.73 73.12 35.5 75.7C35.44 76.32 35.38 76.95 35.3 77.57C35.23 78.14 35 78.83 35.11 79.4C35.22 79.97 35.68 80.27 36.22 80.44C36.81 80.63 37.4 80.8 37.99 80.99C39.1 81.33 39.57 79.6 38.47 79.25C37.98 79.1 37.5 78.95 37.01 78.8C36.87 78.76 36.73 78.71 36.59 78.67C36.83 79.06 36.94 79.09 36.93 78.74C37.02 78.56 37 78.25 37.03 78.04C37.18 76.91 37.3 75.78 37.38 74.64C37.53 72.41 37.52 70.17 37.36 67.94C37.28 66.79 35.48 66.78 35.56 67.94L35.57 67.95Z" fill="#9E93FB"/>
<path d="M28.8899 42.54C29.7299 41.97 30.5799 41.39 31.4199 40.82C31.6199 40.69 31.7699 40.5199 31.8299 40.2799C31.8899 40.0599 31.8599 39.7799 31.7399 39.5899C31.4899 39.1999 30.9299 38.98 30.5099 39.27C29.6699 39.84 28.8199 40.42 27.9799 40.99C27.7799 41.12 27.6299 41.2899 27.5699 41.5299C27.5099 41.7499 27.5399 42.0299 27.6599 42.2199C27.9099 42.6099 28.4699 42.83 28.8899 42.54Z" fill="#9E93FB"/>
<path d="M33.57 38.89C34.22 38.53 34.8699 38.17 35.5199 37.81C35.7199 37.7 35.87 37.49 35.93 37.27C35.99 37.05 35.9599 36.77 35.8399 36.58C35.5699 36.16 35.05 36.01 34.61 36.26C33.96 36.62 33.31 36.98 32.66 37.34C32.46 37.45 32.31 37.66 32.25 37.88C32.19 38.1 32.2199 38.38 32.3399 38.57C32.6099 38.99 33.13 39.14 33.57 38.89Z" fill="#9E93FB"/>
<path d="M38 36.01C38.7 35.57 39.39 35.13 40.09 34.69C40.29 34.57 40.44 34.38 40.5 34.15C40.56 33.92 40.53 33.65 40.41 33.46C40.29 33.27 40.1 33.1 39.87 33.05C39.64 33 39.38 33.01 39.18 33.14C38.48 33.58 37.79 34.02 37.09 34.46C36.89 34.58 36.74 34.77 36.68 35C36.62 35.23 36.65 35.5 36.77 35.69C36.89 35.88 37.08 36.05 37.31 36.1C37.54 36.15 37.8 36.14 38 36.01Z" fill="#9E93FB"/>
<path d="M37.7799 39.24C38.7199 39.84 39.66 40.45 40.61 41.05C41.01 41.3 41.6199 41.1399 41.8399 40.7299C42.0799 40.2799 41.9399 39.7699 41.5199 39.4999C40.5799 38.8999 39.64 38.2899 38.69 37.6899C38.29 37.4399 37.6799 37.5999 37.4599 38.0099C37.2199 38.4599 37.3599 38.97 37.7799 39.24Z" fill="#9E93FB"/>
<path d="M40.47 37.29C39.41 37.96 38.36 38.63 37.3 39.3C36.9 39.55 36.71 40.11 36.98 40.53C37.25 40.95 37.7899 41.12 38.2099 40.85C39.2699 40.18 40.32 39.51 41.38 38.84C41.78 38.59 41.97 38.03 41.7 37.61C41.43 37.19 40.89 37.02 40.47 37.29Z" fill="#9E93FB"/>
<path d="M45.21 26.4L46.16 24.13L46.59 23.1L46.85 22.48C46.9 22.36 47.16 22.03 46.94 22.13L46.25 22.22L46.39 22.25L45.99 22.02C46.17 22.2 46.27 22.59 46.38 22.82C46.54 23.17 46.7 23.52 46.86 23.87C47.17 24.53 47.47 25.2 47.78 25.86C48.13 26.63 49.19 26.3 49.42 25.65C50.01 24.01 50.96 22.55 52.18 21.32L50.68 20.92C51.05 22.59 51.83 24.1 52.92 25.41C53.32 25.89 54.03 25.65 54.33 25.23L56.66 22C56.95 21.6 56.73 21 56.34 20.77C55.89 20.5 55.39 20.7 55.11 21.09L52.78 24.32L54.19 24.14C53.29 23.07 52.71 21.8 52.41 20.44C52.26 19.77 51.37 19.58 50.91 20.04C49.46 21.5 48.38 23.23 47.68 25.17L49.32 24.96C48.87 23.98 48.41 23.01 47.96 22.03C47.6 21.25 47.07 19.99 45.96 20.61C45.57 20.83 45.43 21.21 45.27 21.6C45.07 22.08 44.87 22.56 44.66 23.04C44.26 24 43.85 24.97 43.45 25.93C43.26 26.38 43.65 26.92 44.08 27.04C44.6 27.18 45 26.86 45.19 26.41L45.21 26.4Z" fill="#9E93FB"/>
<path d="M60.8 26.67L63.17 27.96C63.47 28.13 63.94 28.2799 64.19 28.5299C64.42 28.7499 64.48 29.16 64.58 29.45C64.86 30.28 65.14 31.11 65.42 31.93C65.66 32.64 65.83 33.4699 66.25 34.0899C66.67 34.7099 67.38 34.97 68.09 35.17C68.46 35.27 68.8301 35.37 69.2001 35.48C69.5701 35.59 69.61 35.6999 69.74 36.0599C70.27 37.5299 71.04 38.86 72.02 40.08C72.75 40.98 74.01 39.6999 73.29 38.8099C72.82 38.2199 72.41 37.59 72.06 36.92C71.71 36.25 71.5201 35.44 71.1401 34.77C70.7601 34.1 70.06 33.8599 69.34 33.6599C68.62 33.4599 67.8401 33.45 67.5701 32.7C67.2701 31.88 67.01 31.0399 66.73 30.2199C66.47 29.4499 66.27 28.5999 65.9 27.8799C65.53 27.1599 64.87 26.85 64.19 26.48L61.7001 25.12C60.6801 24.56 59.77 26.12 60.79 26.67H60.8Z" fill="#9E93FB"/>
<path d="M62.1 33.64C63.26 33.64 63.26 31.84 62.1 31.84C60.94 31.84 60.94 33.64 62.1 33.64Z" fill="#9E93FB"/>
<path d="M62.1 38.4399C63.26 38.4399 63.26 36.64 62.1 36.64C60.94 36.64 60.94 38.4399 62.1 38.4399Z" fill="#9E93FB"/>
<path d="M64.95 36.66C66.11 36.66 66.11 34.86 64.95 34.86C63.79 34.86 63.79 36.66 64.95 36.66Z" fill="#9E93FB"/>
<path d="M67.97 39.33C69.13 39.33 69.13 37.53 67.97 37.53C66.81 37.53 66.81 39.33 67.97 39.33Z" fill="#9E93FB"/>
<path d="M62.91 41.9099L63.09 41.7299C63.18 41.6499 63.24 41.5499 63.28 41.4399C63.34 41.3299 63.36 41.2199 63.36 41.0899C63.36 40.9699 63.34 40.85 63.28 40.74C63.24 40.63 63.18 40.53 63.09 40.45L62.91 40.3099C62.77 40.2299 62.62 40.1899 62.46 40.1899L62.22 40.2199C62.07 40.2599 61.94 40.34 61.82 40.45L61.64 40.6299C61.55 40.7099 61.49 40.81 61.45 40.92C61.39 41.03 61.37 41.14 61.37 41.27C61.37 41.39 61.39 41.51 61.45 41.62C61.49 41.73 61.55 41.8299 61.64 41.9099L61.82 42.05C61.96 42.13 62.11 42.17 62.27 42.17L62.51 42.14C62.66 42.1 62.79 42.0199 62.91 41.9099Z" fill="#9E93FB"/>
<path d="M67.26 26.51C69.34 26.54 71.42 26.53 73.5 26.46L73.05 24.78C72.93 24.86 72.8 24.93 72.68 25.01C72.27 25.27 72.11 25.81 72.36 26.24C72.61 26.67 73.18 26.82 73.59 26.56C73.71 26.48 73.84 26.41 73.96 26.33C74.69 25.87 74.43 24.62 73.51 24.65C71.43 24.71 69.35 24.73 67.27 24.7C66.78 24.7 66.37 25.12 66.37 25.6C66.37 26.08 66.78 26.49 67.27 26.5L67.26 26.51Z" fill="#9E93FB"/>
<path d="M68.3299 30.07C70.0399 30.28 71.77 30.33 73.49 30.24C73.96 30.21 74.41 29.8399 74.39 29.3399C74.37 28.8699 73.99 28.41 73.49 28.44C71.77 28.53 70.0399 28.48 68.3299 28.27C67.8599 28.21 67.41 28.72 67.43 29.17C67.45 29.71 67.8299 30.01 68.3299 30.07Z" fill="#9E93FB"/>
<path d="M71.3499 33.64H73.6599C74.1299 33.64 74.58 33.23 74.56 32.74C74.54 32.25 74.1599 31.84 73.6599 31.84H71.3499C70.8799 31.84 70.43 32.25 70.45 32.74C70.47 33.23 70.8499 33.64 71.3499 33.64Z" fill="#9E93FB"/>
<path d="M75.33 48.27C75.65 50.31 75.7901 52.38 75.7901 54.44C75.7901 54.93 76.2001 55.34 76.6901 55.34C77.1801 55.34 77.59 54.93 77.59 54.44C77.59 52.21 77.4101 49.99 77.0701 47.79C76.9901 47.31 76.39 47.04 75.96 47.16C75.45 47.3 75.26 47.79 75.33 48.27Z" fill="#9E93FB"/>
</svg>
