<svg width="100" height="100" viewBox="0 0 100 100" fill="none" xmlns="http://www.w3.org/2000/svg">
<path d="M61.43 41.09C61.35 48.65 59.59 50.41 59.05 50.77C58.73 50.98 53.78 53.79 35.83 42.61C35.15 48.37 34.75 54.16 34.62 59.95C49.31 67.82 59.96 68.92 67.74 63.71C79.77 55.63 77.6 36.86 74.82 18.14C69.65 18 64.27 18.37 59.33 19.94C60.45 27.45 61.5 35.03 61.43 41.09Z" fill="#2F2E45"/>
<path d="M50.97 45.49C53.03 44.89 55.42 45.07 57.07 43.47C58.28 42.29 58.79 40.39 57.61 39.01C56.37 37.56 54.18 37.62 52.44 37.68C49.93 37.77 47.42 38.11 44.98 38.69C43.62 39.02 40.57 39.63 41.68 41.76C42.51 43.35 45.36 43.9 46.96 43.76C48.72 43.6 50.42 42.44 50.77 40.63C51.09 38.98 50.01 37.58 48.57 36.91C46.69 36.03 44.37 36.02 42.33 36.03C39.99 36.04 37.62 36.44 35.71 37.87C35.23 38.23 35.03 39.1 35.71 39.42C38.88 40.92 42.3 41.42 45.78 41.49C48.83 41.55 52.17 41.63 55.14 40.8C57.45 40.15 59.9 38.5 59.9 35.83C59.9 34.35 58.92 33.41 57.64 32.87C55.98 32.17 54.19 31.7 52.42 31.34C48.79 30.61 45.06 30.48 41.39 30.97C39.96 31.16 37.9 31.24 36.71 32.19C35.63 33.05 35.85 34.34 36.75 35.23C38.83 37.31 42.02 38.36 44.91 38.48C47.29 38.57 51.41 38.07 52.64 35.65C54.28 32.41 49.06 30.39 46.79 29.86C43.25 29.04 39.53 29.58 36.38 31.39C36.05 31.58 35.84 32.03 35.97 32.41C36.85 35.1 41.01 34.4 43.13 34.15C46.3 33.78 49.52 32.89 52.33 31.33C54.53 30.11 56.45 27.93 55.57 25.26C54.69 22.59 51.93 21.4 49.3 21.25C47.78 21.16 46.23 21.35 44.74 21.58C43.51 21.77 41.84 21.92 40.97 22.97C38.93 25.44 42.95 27.03 44.7 27.43C47.99 28.18 51.59 28.42 54.92 27.78C57.57 27.27 58.28 24.67 56.4 22.75C54.41 20.72 51.14 20.43 48.47 20.69C45.18 21 41.9 21.87 38.75 22.81C37.04 23.32 32.15 24.17 33.47 27.04C34.61 29.52 38.44 29.52 40.72 29.62C44 29.77 47.32 29.37 50.48 28.47C51.95 28.05 53.41 27.52 54.8 26.87C55.95 26.33 57.05 25.55 57.24 24.2C57.61 21.56 54.47 20.16 52.41 19.62C49.37 18.82 46.2 18.5 43.06 18.67C39.57 18.86 36.12 19.62 32.89 20.96C30.58 21.92 26.48 23.42 26.88 26.59C27.33 30.15 32.13 31.05 35 31.44C38.04 31.85 41.33 31.1 43 28.31C43.31 27.8 43.01 27.15 42.46 26.99C38.76 25.86 34.88 25.32 31.01 25.44C29.11 25.5 27.22 25.71 25.36 26.07C23.91 26.35 22.4 26.7 21.2 27.61C18.77 29.47 19.32 32.9 21.53 34.71C24.03 36.75 27.96 37.16 31.07 37.35C34.76 37.57 38.58 36.96 41.57 34.66C42.04 34.3 42.26 33.42 41.57 33.11C39.2 32.04 36.73 31.29 34.15 30.96C31.99 30.68 29.61 30.52 27.52 31.3C25.87 31.91 24.45 33.19 24.3 35.03C24.14 36.97 25.41 38.82 27.07 39.73C29.22 40.91 31.85 40.52 34.09 39.83C35.14 39.51 36.17 39.12 37.18 38.68C38.27 38.21 39.6 37.75 40.49 36.95C41.05 36.45 41.37 35.72 41.03 35C40.57 34.02 39.27 33.95 38.35 33.79C35.56 33.29 32.74 32.92 29.91 32.74C25.65 32.46 20.59 32.98 18.1 36.93C17.86 37.31 17.99 37.96 18.42 38.16C20.8 39.25 23.32 39.71 25.92 39.42C27.06 39.3 27.07 37.49 25.92 37.62C23.64 37.87 21.42 37.56 19.33 36.6L19.65 37.83C21.73 34.53 26.23 34.32 29.74 34.52C32.38 34.68 35.02 35.01 37.62 35.48C38.07 35.56 38.98 35.56 39.35 35.82C39.39 35.48 39.27 35.48 39 35.8C38.74 35.94 38.49 36.07 38.23 36.2C37.2 36.72 36.14 37.19 35.05 37.59C32.91 38.38 30.14 39.32 27.96 38.16C26.07 37.15 25.28 34.59 27.35 33.33C29.04 32.3 31.35 32.46 33.24 32.64C35.8 32.89 38.32 33.59 40.66 34.65V33.1C37.84 35.27 34.35 35.78 30.87 35.54C27.97 35.34 22.31 34.95 21.45 31.46C20.5 27.64 27.84 27.41 30.1 27.28C34.12 27.05 38.12 27.56 41.98 28.73L41.44 27.41C40.34 29.25 38.2 29.86 36.17 29.76C34.92 29.7 33.69 29.4 32.49 29.07C31.39 28.77 30.11 28.47 29.3 27.61C27.24 25.45 30.65 23.97 32.25 23.2C34.19 22.28 36.25 21.59 38.34 21.12C42.53 20.19 46.94 20.18 51.12 21.15C52.19 21.4 56.73 22.63 55.2 24.5C54.57 25.27 53.17 25.65 52.29 25.98C51.27 26.37 50.22 26.69 49.16 26.96C46.97 27.51 44.73 27.81 42.47 27.84C40.5 27.87 37.8 27.99 36.01 27.05C35.59 26.83 34.79 26.4 35.35 25.84C35.66 25.53 36.56 25.38 36.95 25.25C38.08 24.87 39.22 24.52 40.36 24.2C42.57 23.58 44.83 23.02 47.1 22.65C49.13 22.32 51.33 22.18 53.29 22.9C54.14 23.22 55.47 23.87 55.65 24.88C55.88 26.16 53.79 26.13 52.93 26.2C50.5 26.41 48.03 26.27 45.64 25.78C44.81 25.61 43.17 25.46 42.61 24.71C41.85 23.68 44.11 23.5 44.76 23.38C47.08 22.97 50.15 22.52 52.26 23.86C53.2 24.45 54.02 25.51 53.99 26.67C53.96 27.83 53 28.78 52.05 29.39C50.06 30.69 47.62 31.46 45.31 31.96C44.01 32.24 42.68 32.42 41.35 32.49C40.62 32.53 38.02 32.88 37.7 31.92L37.29 32.94C39.4 31.73 41.77 31.17 44.21 31.3C46.28 31.41 49.47 32.08 50.83 33.83C52.42 35.89 46.57 36.69 45.48 36.69C43.19 36.7 40.91 36.04 39.02 34.74C38.64 34.48 37.83 34.06 38.05 33.63C38.29 33.17 39.37 33.14 39.85 33.04C41.25 32.77 42.67 32.6 44.09 32.52C46.72 32.38 49.36 32.56 51.94 33.08C53.19 33.33 54.43 33.66 55.65 34.06C57.02 34.51 58.68 35.02 57.85 36.83C57.02 38.64 54.79 39.15 53.04 39.4C50.53 39.77 47.87 39.75 45.34 39.67C42.34 39.58 39.35 39.15 36.61 37.86V39.41C39.19 37.48 43 37.53 46.07 38.03C47.16 38.21 48.99 38.64 49.02 40.04C49.04 40.95 48.12 41.67 47.33 41.88C46.34 42.15 45.23 41.86 44.31 41.5C42.75 40.9 44.47 40.66 45.22 40.48C46.21 40.24 47.21 40.03 48.22 39.87C50.09 39.57 52.03 39.39 53.93 39.45C54.6 39.47 55.39 39.52 55.95 39.92C56.84 40.54 56.43 41.56 55.78 42.19C54.46 43.46 52.14 43.26 50.48 43.75C49.37 44.07 49.84 45.81 50.96 45.49H50.97Z" fill="#9E93FB"/>
<path d="M30.16 44.06C26.98 44.34 23.81 44.81 20.69 45.46C19.77 45.65 19.9 46.94 20.69 47.2C23.71 48.2 26.72 49.19 29.74 50.19V48.45C26.13 49.23 22.53 50.01 18.92 50.79C18.06 50.98 18.06 52.34 18.92 52.53C22.13 53.24 25.33 53.96 28.54 54.67V52.93C25.78 54.05 23.15 55.4 20.65 57.02C20.06 57.4 20.05 58.53 20.86 58.66C23.41 59.09 25.98 59.29 28.57 59.23C29.73 59.2 29.73 57.4 28.57 57.43C26.15 57.48 23.73 57.32 21.34 56.92L21.55 58.56C23.91 57.03 26.4 55.71 29.01 54.65C29.76 54.35 29.97 53.13 29.01 52.91C25.8 52.2 22.6 51.48 19.39 50.77V52.51C23 51.73 26.6 50.95 30.21 50.17C31.13 49.97 31 48.7 30.21 48.43C27.19 47.43 24.18 46.44 21.16 45.44V47.18C24.13 46.56 27.13 46.11 30.15 45.84C31.29 45.74 31.31 43.94 30.15 44.04L30.16 44.06Z" fill="#9E93FB"/>
<path d="M77.74 23.42C78.82 27.15 79.38 31 79.39 34.89C79.39 36.05 81.19 36.05 81.19 34.89C81.18 30.85 80.6 26.82 79.47 22.94C79.15 21.83 77.41 22.3 77.73 23.42H77.74Z" fill="#9E93FB"/>
<path d="M79.89 39.16V43.16C79.89 43.63 80.3 44.08 80.79 44.06C81.28 44.04 81.69 43.66 81.69 43.16V39.16C81.69 38.69 81.28 38.24 80.79 38.26C80.3 38.28 79.89 38.66 79.89 39.16Z" fill="#9E93FB"/>
<path d="M80.26 49.11C81.42 49.11 81.42 47.31 80.26 47.31C79.1 47.31 79.1 49.11 80.26 49.11Z" fill="#9E93FB"/>
<path d="M54.58 70.6C54.58 73.47 54.58 76.34 54.58 79.22V83.39C54.58 83.58 54.58 83.76 54.58 83.95C54.55 84.23 54.59 84.19 54.72 83.84C54.7 83.79 53.74 83.84 53.64 83.84C52.92 83.84 52.2 83.84 51.48 83.83C50.32 83.83 50.32 85.62 51.48 85.63C52.29 85.63 53.1 85.64 53.91 85.65C54.58 85.65 55.4 85.76 55.93 85.25C56.46 84.74 56.38 84.04 56.38 83.4V80.76C56.38 77.38 56.38 74 56.38 70.61C56.38 69.45 54.58 69.45 54.58 70.61V70.6Z" fill="#9E93FB"/>
<path d="M62.9601 71.12C63.2401 73.91 63.4501 76.7 63.5801 79.5C63.6101 80.2 63.64 80.9 63.66 81.6C63.68 82.08 63.85 82.89 63.57 83.32C63.17 83.94 61.9601 83.75 61.3601 83.66C60.8801 83.58 60.4001 83.78 60.2501 84.29C60.1301 84.72 60.4 85.32 60.88 85.4C62.01 85.58 63.3001 85.69 64.3101 85.05C65.6301 84.22 65.49 82.7 65.44 81.34C65.32 77.93 65.0901 74.52 64.7501 71.12C64.6301 69.98 62.83 69.97 62.95 71.12H62.9601Z" fill="#9E93FB"/>
</svg>
