<svg width="100" height="100" viewBox="0 0 100 100" fill="none" xmlns="http://www.w3.org/2000/svg">
<path d="M42.83 24.06C30.77 23.52 22.4 31.37 21.89 42.83C21.56 50.13 24.31 58.85 31.19 64.04C30.79 64.19 31.57 63.87 31.19 64.04C31.27 64.09 31.36 64.13 31.44 64.18C43.86 71.09 57.72 75 71.92 75.63L77.49 75.88L78.09 62.4L53.46 61.3C40.49 60.72 33.21 55.42 33.58 47.21C33.86 40.93 38.59 37.38 45.58 37.69L50.69 37.92C49.41 33.15 48.65 28.91 48.03 24.29L42.84 24.06H42.83Z" fill="#2F2E45"/>
<path d="M50.32 25.47C54.08 25.26 57.83 25.44 61.55 26.05V24.31C58.05 25.64 54.65 27.22 51.39 29.07C50.76 29.42 50.82 30.59 51.6 30.71C55.24 31.31 58.89 31.91 62.53 32.51V30.77C59.14 32.11 55.76 33.46 52.37 34.8C51.54 35.13 51.5 36.22 52.37 36.54C55.96 37.85 59.54 39.15 63.13 40.46V38.72C59.71 39.79 56.29 40.86 52.87 41.93C52.01 42.2 52.02 43.39 52.87 43.67C57.08 45.05 61.3 46.44 65.51 47.82V46.08C61.25 46.84 56.98 47.68 53.14 49.75C52.4 50.15 52.67 51.14 53.35 51.39C57.21 52.84 61.07 54.26 64.95 55.66L64.74 54.02C61.45 55.5 57.94 56.32 54.34 56.48C53.19 56.53 53.18 58.33 54.34 58.28C58.27 58.1 62.06 57.19 65.65 55.57C66.42 55.22 66.08 54.16 65.44 53.93C61.57 52.53 57.7 51.11 53.84 49.66L54.05 51.3C57.75 49.3 61.9 48.54 65.99 47.81C66.92 47.64 66.76 46.33 65.99 46.07C61.78 44.69 57.56 43.3 53.35 41.92V43.66C56.77 42.59 60.19 41.52 63.61 40.45C64.49 40.17 64.43 39.01 63.61 38.71C60.02 37.4 56.44 36.1 52.85 34.79V36.53C56.24 35.19 59.62 33.84 63.01 32.5C63.73 32.21 63.99 30.93 63.01 30.76C59.37 30.16 55.72 29.56 52.08 28.96L52.29 30.6C55.42 28.83 58.66 27.3 62.02 26.02C62.75 25.74 62.99 24.44 62.02 24.28C58.14 23.64 54.24 23.42 50.31 23.64C49.16 23.7 49.15 25.5 50.31 25.44L50.32 25.47Z" fill="#9E93FB"/>
<path d="M37.51 44.37C36.45 45.83 35.34 47.65 34.99 49.45C34.67 51.08 36.19 51.87 37.61 51.75C40.7 51.5 43.36 48.93 43.84 45.89C43.94 45.27 43.45 44.53 42.73 44.78C40.23 45.65 38.34 47.69 37.74 50.28C37.6 50.88 38.01 51.37 38.61 51.42C40.88 51.6 43.09 50.23 44.08 48.2C44.55 47.24 44.83 46.0201 44.51 44.9701C44.16 43.8101 42.94 43.41 41.91 44.01C40.88 44.61 40.12 45.7 39.67 46.76C39.26 47.72 38.77 49.24 39.52 50.15C40.27 51.06 41.88 50.82 42.89 50.65C44.26 50.41 45.47 49.7701 46.54 48.9101C47.12 48.4401 46.66 47.28 45.9 47.37C43.27 47.69 41.66 50.62 41.82 53.14C41.89 54.19 42.55 55.22 43.72 55.13C44.81 55.04 45.67 53.98 45.94 52.98C46.21 51.98 45.89 50.87 44.85 50.53C43.63 50.13 42.65 51.1501 42.18 52.1601C41.13 54.4201 40.82 58.08 43.6 59.25C46.38 60.42 48.49 57.3601 49.29 55.1601C50.24 52.5501 49.97 49.59 48.61 47.18C47.79 45.72 44.49 41.64 42.92 44.33C42.28 45.42 41.96 46.94 42.63 48.08C43.3 49.22 44.73 49.3801 45.89 48.8501C48.12 47.8201 49.1 44.71 47.68 42.65C46.26 40.59 42.98 40.34 41.17 42.08C40.85 42.39 40.79 43.0501 41.17 43.3501C43.04 44.8401 45.11 43.66 46.53 42.15C47.09 41.56 47.57 40.82 47.28 39.98C46.95 39.02 45.92 38.7101 45.02 38.6001C41.87 38.2001 34.28 37.96 35.15 43.13C35.52 45.36 37.59 46.85 39.45 47.86C41.31 48.87 43.75 49.19 45.04 47.19C45.96 45.75 45.4 43.15 43.27 43.43C42.35 43.55 41.72 44.34 41.16 45.02C40.37 45.99 39.69 47.05 39.2 48.21C38.74 49.28 38.55 50.47 39.14 51.53C39.7 52.53 40.75 53.21 41.83 53.52C42.91 53.83 44.09 53.8 45.01 53.15C45.93 52.5 46.34 51.35 45.97 50.3C45.73 49.62 45 49.46 44.47 49.9C43.39 50.78 43.65 52.44 44.76 53.14C45.74 53.76 46.65 52.2 45.67 51.59C45.45 51.45 45.61 51.28 45.74 51.18L44.24 50.78C44.54 51.63 43.63 51.95 42.94 51.9C42.25 51.85 41.52 51.56 41.04 51.07C39.86 49.89 41.26 47.94 42.01 46.87C42.17 46.64 43.15 45.12 43.5 45.2C44.03 45.32 43.59 46.17 43.4 46.39C42.25 47.71 40.13 46.24 39.08 45.52C38.03 44.8 36.41 43.41 37.01 41.87C37.46 40.7 39.06 40.41 40.16 40.31C40.99 40.23 41.83 40.22 42.66 40.24C43.4 40.26 44.45 40.17 45.14 40.44C45.54 40.59 45.55 40.53 45.26 40.89C45.05 41.15 44.76 41.39 44.51 41.61C44 42.04 43.1 42.6 42.45 42.09V43.36C44.09 41.78 47.05 43.18 46.47 45.51C46.35 46 46.1 46.45 45.74 46.8C45.31 47.22 44.28 47.75 44.08 46.88C44 46.53 44.11 46.07 44.27 45.75C44.46 45.39 44.47 45.37 44.83 45.58C45.39 45.9 45.91 46.5 46.31 47C48.1 49.2 48.52 52.2301 47.5 54.8501C47.07 55.9401 46.02 57.92 44.58 57.69C42.97 57.44 43.11 55.2301 43.42 54.1001C43.53 53.6801 43.65 53.2301 43.86 52.8501C43.93 52.7201 44.01 52.61 44.09 52.49C44.17 52.37 44.23 52.0601 44.24 52.3501C44.24 52.5801 44.1 52.82 43.98 53.01C43.77 53.33 43.68 53.45 43.62 53.05C43.51 52.36 43.89 51.37 44.17 50.76C44.49 50.05 45.07 49.3 45.91 49.2L45.27 47.6601C44.33 48.4201 42.52 49.35 41.25 49.01C40.97 49.1 40.87 49.04 40.96 48.83C40.99 48.62 41.03 48.41 41.08 48.21C41.16 47.91 41.26 47.61 41.4 47.33C41.68 46.75 42.08 46.17 42.59 45.77C42.71 45.71 42.77 45.6101 42.77 45.4701C42.83 45.6501 42.85 45.83 42.84 46.01C42.84 46.28 42.79 46.55 42.72 46.81C42.56 47.38 42.26 47.9 41.86 48.34C41.02 49.28 39.87 49.75 38.62 49.65L39.49 50.7901C39.94 48.8301 41.31 47.22 43.22 46.55L42.11 45.44C41.79 47.46 40.39 49.21 38.41 49.8C38.05 49.91 37.43 50.12 37.06 49.99C36.53 49.81 36.97 49.15 37.14 48.74C37.63 47.51 38.31 46.37 39.08 45.3C39.76 44.36 38.2 43.46 37.53 44.39L37.51 44.37Z" fill="#9E93FB"/>
<path d="M39.4 43.01C40.14 43.09 40.88 43.18 41.63 43.26C41.84 43.28 42.12 43.14 42.27 43C42.43 42.84 42.54 42.59 42.53 42.36C42.52 42.13 42.44 41.8901 42.27 41.7201L42.09 41.58C41.95 41.5 41.8 41.46 41.64 41.46C40.9 41.38 40.16 41.29 39.41 41.21C39.2 41.19 38.92 41.3301 38.77 41.4701C38.61 41.6301 38.5 41.88 38.51 42.11C38.52 42.34 38.6 42.58 38.77 42.75L38.95 42.89C39.09 42.97 39.24 43.01 39.4 43.01Z" fill="#9E93FB"/>
<path d="M48.91 44.58C48.96 44.68 49.01 44.78 49.06 44.88C49.1 44.98 49.11 44.98 49.06 44.9C49.08 44.95 49.1 45 49.12 45.06C49.19 45.24 49.24 45.43 49.29 45.62C49.34 45.81 49.38 46 49.4 46.2C49.37 46 49.41 46.34 49.41 46.38C49.41 46.48 49.42 46.58 49.42 46.67C49.42 46.88 49.42 47.09 49.4 47.3C49.4 47.32 49.37 47.59 49.4 47.39C49.38 47.5 49.36 47.61 49.34 47.72C49.3 47.91 49.25 48.1 49.19 48.29C49.16 48.4 49.12 48.5 49.08 48.61C49.04 48.71 49.04 48.71 49.08 48.63C49.06 48.68 49.03 48.73 49.01 48.78C48.81 49.21 48.88 49.77 49.33 50.01C49.73 50.22 50.35 50.14 50.56 49.69C51.46 47.77 51.44 45.56 50.45 43.67C50.23 43.25 49.61 43.09 49.22 43.35C48.79 43.62 48.66 44.13 48.9 44.58H48.91Z" fill="#9E93FB"/>
<path d="M46.3 55.75C48.01 55.79 49.72 55.35 51.22 54.52C51.63 54.29 51.8 53.6901 51.54 53.2901C51.28 52.8901 50.75 52.72 50.31 52.97C50.15 53.06 49.99 53.15 49.82 53.23C49.73 53.28 49.63 53.32 49.53 53.36C49.71 53.28 49.49 53.38 49.45 53.39C49.1 53.53 48.73 53.65 48.36 53.74C48.18 53.78 48 53.82 47.82 53.86C47.73 53.88 47.64 53.89 47.55 53.91C47.44 53.93 47.45 53.93 47.55 53.91C47.51 53.91 47.47 53.91 47.43 53.92C47.05 53.96 46.67 53.98 46.29 53.97C45.82 53.96 45.37 54.39 45.39 54.87C45.41 55.35 45.79 55.76 46.29 55.77L46.3 55.75Z" fill="#9E93FB"/>
<path d="M38.95 55.08C40.11 55.08 40.11 53.28 38.95 53.28C37.79 53.28 37.79 55.08 38.95 55.08Z" fill="#9E93FB"/>
<path d="M43.9 72.68C43.79 75.1 43.67 77.52 43.56 79.93L43.4 83.44L43.38 83.91C43.81 83.63 43.84 83.51 43.48 83.56C43.23 83.48 42.83 83.55 42.57 83.54C41.96 83.53 41.35 83.52 40.74 83.51C39.58 83.49 39.58 85.29 40.74 85.31C41.43 85.32 42.11 85.33 42.8 85.35C43.38 85.35 44.08 85.48 44.6 85.14C45.19 84.76 45.19 84.07 45.21 83.44L45.31 81.22C45.44 78.37 45.58 75.53 45.71 72.68C45.76 71.52 43.96 71.52 43.91 72.68H43.9Z" fill="#9E93FB"/>
<path d="M53.06 75.35C53.72 77.33 53.75 79.41 53.61 81.48C53.58 82 53.53 82.51 53.48 83.03C53.45 83.34 53.5 83.95 53.29 84.2C53.02 84.51 52.11 84.28 51.72 84.18C50.6 83.89 50.12 85.63 51.24 85.92C52.15 86.15 53.25 86.3 54.11 85.81C55.27 85.15 55.22 83.75 55.32 82.58C55.55 80.01 55.62 77.36 54.79 74.88C54.42 73.79 52.69 74.26 53.05 75.36L53.06 75.35Z" fill="#9E93FB"/>
<path d="M45.35 21.41C44.29 18.15 40.74 16.04 37.37 16.78C34 17.52 31.71 21.16 32.22 24.56C32.29 25.04 32.9 25.31 33.33 25.19C33.85 25.05 34.03 24.57 33.96 24.08C33.59 21.61 35.44 19.04 37.86 18.51C40.28 17.98 42.88 19.59 43.62 21.88C43.98 22.98 45.71 22.51 45.36 21.4L45.35 21.41Z" fill="#9E93FB"/>
<path d="M20.54 33.43C18.81 36.99 17.86 40.86 17.77 44.82C17.74 45.98 19.54 45.98 19.57 44.82C19.65 41.19 20.51 37.61 22.09 34.34C22.59 33.3 21.04 32.39 20.54 33.43Z" fill="#9E93FB"/>
<path d="M18.5 48.51C18.73 49.89 18.96 51.27 19.19 52.66C19.27 53.13 19.87 53.43 20.3 53.29C20.8 53.13 21.01 52.68 20.93 52.18C20.7 50.8 20.47 49.42 20.24 48.03C20.16 47.56 19.56 47.26 19.13 47.4C18.63 47.56 18.42 48.01 18.5 48.51Z" fill="#9E93FB"/>
</svg>
