<svg width="100" height="100" viewBox="0 0 100 100" fill="none" xmlns="http://www.w3.org/2000/svg">
<path d="M63.5401 53.54L63.5102 49.38L59.3701 49.69C55.1101 50.01 43.7402 50.58 38.2602 49.78C37.7002 47.94 37.3101 43.85 39.4801 42.41C43.2901 39.87 54.0501 38.6 59.9401 38.39L59.6701 30.63C57.8901 30.69 42.0601 31.37 35.1801 35.94C31.0801 38.66 29.2701 43.88 30.3201 49.9C31.2301 55.08 33.4201 56.66 35.1101 57.08C40.0501 58.29 50.0601 58 55.8001 57.7C55.8201 60.46 55.8401 64.37 55.8701 68.73C58.4401 68.48 61.0301 68.37 63.6301 68.32C63.5801 60.2 63.53 53.7 63.53 53.54H63.5401Z" fill="#2F2E45"/>
<path d="M54.04 66.87C52.88 64.51 51.59 62.23 50.18 60.02C49.9 59.58 49.1501 59.36 48.7701 59.84C46.7201 62.37 45.12 65.14 43.94 68.17L45.58 67.96C44.5 66.25 43.4301 64.54 42.3501 62.83C41.7901 61.93 40.9901 59.74 39.6401 59.9C39.0201 59.97 38.68 60.43 38.33 60.91C37.79 61.66 37.2901 62.43 36.7701 63.19C35.6501 64.83 34.53 66.46 33.41 68.1L35.05 68.31C34.2 65.61 33.1301 62.99 31.8701 60.46C31.3501 59.42 29.8 60.33 30.32 61.37C31.52 63.77 32.52 66.24 33.32 68.79C33.56 69.56 34.53 69.64 34.96 69C35.76 67.83 36.5601 66.66 37.3601 65.5C37.7601 64.92 38.16 64.33 38.56 63.75C38.8 63.4 39.04 63.05 39.28 62.7L39.5201 62.35C39.8201 62.15 39.84 61.96 39.58 61.77C39.37 61.48 39.3501 61.47 39.5201 61.73L39.8701 62.28L40.45 63.2L41.6001 65.03C42.4101 66.31 43.2101 67.59 44.0201 68.87C44.4601 69.57 45.39 69.37 45.66 68.66C46.71 65.94 48.19 63.39 50.03 61.12L48.6201 60.94C50.0401 63.15 51.3201 65.43 52.4801 67.79C52.9901 68.83 54.54 67.92 54.03 66.88L54.04 66.87Z" fill="#9E93FB"/>
<path d="M41.8301 45.38C42.4801 46.15 43.5701 46.53 44.5601 46.46C45.6501 46.38 46.6502 45.87 47.2602 44.94C47.5202 44.54 47.3501 43.93 46.9401 43.71C46.4901 43.47 45.9801 43.61 45.7101 44.03C45.6901 44.06 45.6402 44.11 45.6302 44.15C45.6602 44.07 45.7602 44 45.6502 44.12C45.6002 44.18 45.5402 44.24 45.4802 44.29C45.4502 44.32 45.4002 44.35 45.3702 44.38C45.5302 44.22 45.4702 44.3 45.4002 44.35C45.3302 44.39 45.2701 44.44 45.2001 44.47C45.1601 44.49 45.1101 44.51 45.0701 44.53C44.9101 44.61 45.2802 44.46 45.1102 44.51C45.0302 44.54 44.9602 44.56 44.8802 44.58C44.7902 44.61 44.6901 44.62 44.6001 44.64C44.4501 44.67 44.7801 44.63 44.6701 44.64C44.6201 44.64 44.5701 44.64 44.5301 44.65C44.4401 44.65 44.3502 44.65 44.2602 44.65C44.2202 44.65 44.1802 44.65 44.1402 44.65C44.1002 44.65 43.9201 44.63 44.0901 44.65C44.2601 44.67 44.1001 44.65 44.0701 44.65C44.0201 44.65 43.9801 44.63 43.9301 44.62C43.8401 44.6 43.7601 44.57 43.6801 44.54C43.5401 44.49 43.6902 44.54 43.7402 44.57C43.7002 44.55 43.6502 44.53 43.6102 44.51C43.5302 44.47 43.4602 44.42 43.3902 44.38C43.2702 44.3 43.3901 44.38 43.4401 44.42C43.4101 44.39 43.3601 44.36 43.3301 44.33C43.2601 44.26 43.1902 44.19 43.1302 44.12C42.8202 43.76 42.1702 43.78 41.8602 44.12C41.5102 44.5 41.5302 45.01 41.8602 45.39L41.8301 45.38Z" fill="#9E93FB"/>
<path d="M55.29 43.83C55.83 44.74 56.9101 45.24 57.9601 45.16C58.4801 45.12 59 44.99 59.45 44.7C59.97 44.37 60.31 43.93 60.54 43.37C60.62 43.17 60.55 42.85 60.45 42.68C60.34 42.49 60.13 42.32 59.91 42.27C59.68 42.22 59.4201 42.23 59.2201 42.36C59.0201 42.49 58.9 42.67 58.81 42.9C58.94 42.59 58.8101 42.9 58.7501 42.96C58.7101 43.02 58.61 43.1 58.8 42.9C58.77 42.93 58.7501 42.96 58.7301 42.99C58.6701 43.05 58.61 43.1 58.55 43.16C58.5 43.21 58.7601 43.01 58.5901 43.12C58.5601 43.14 58.5301 43.16 58.4901 43.18C58.4201 43.22 58.35 43.25 58.28 43.29C58.53 43.15 58.41 43.24 58.33 43.26C58.29 43.28 58.24 43.29 58.2 43.3C58.12 43.32 58.0501 43.34 57.9701 43.35C57.7801 43.39 58.04 43.33 58.05 43.35C58.05 43.35 57.93 43.36 57.91 43.36C57.82 43.36 57.7401 43.36 57.6501 43.36C57.6101 43.36 57.57 43.36 57.53 43.36C57.37 43.36 57.7701 43.4 57.6101 43.37C57.5301 43.35 57.4401 43.34 57.3601 43.31C57.2601 43.28 57.02 43.16 57.3 43.31C57.23 43.27 57.1601 43.24 57.1001 43.2C57.0601 43.18 57.0301 43.15 56.9901 43.13C56.8301 43.03 57.15 43.27 57.04 43.16C56.98 43.11 56.9301 43.05 56.8801 43C56.7701 42.89 57 43.18 56.92 43.06C56.89 43.02 56.86 42.97 56.83 42.93C56.59 42.52 56.0101 42.34 55.6001 42.61C55.1901 42.88 55.02 43.41 55.28 43.84L55.29 43.83Z" fill="#9E93FB"/>
<path d="M53.8802 24.82C55.1102 28.05 59.4501 27.8 62.1701 26.88C65.0801 25.89 67.4802 22.69 65.1302 19.85C64.2602 18.8 62.8101 18.38 61.5601 19.03C60.2101 19.74 59.6802 21.31 59.6402 22.75C59.5602 26.16 62.2102 29.79 65.6202 30.37C68.4902 30.86 72.7102 28.64 71.3802 25.17C71.1702 24.62 70.6701 23.91 70.0501 23.76C69.3101 23.58 68.4202 24.33 67.8802 24.76C66.3702 25.93 65.3201 27.58 64.5901 29.33C63.2601 32.5 62.9502 37.31 66.8502 38.82C69.9502 40.02 73.7902 36.26 71.1502 33.46C68.5102 30.66 63.7302 32.97 61.8702 35.52C59.2302 39.15 63.6901 42.44 66.5901 43.89C68.9701 45.08 74.7602 47.39 76.4702 44.05C77.1802 42.67 76.4801 41.07 75.4501 40.06C74.2001 38.85 72.4602 38.39 70.7502 38.51C67.4902 38.73 64.4101 41.02 64.0701 44.41C63.7301 47.8 65.8701 50.84 69.1801 51.24C71.2201 51.49 73.3002 50.74 74.9902 49.64C76.2402 48.82 77.6401 47.41 77.3101 45.77C76.9501 43.95 74.8702 43.81 73.3702 43.75C71.6602 43.68 69.8001 43.83 68.3101 44.73C66.8201 45.63 65.9701 47.19 65.7801 48.91C65.5901 50.63 65.7101 53.17 66.5501 54.75C67.3901 56.33 69.0802 56.6 70.6402 56.52C72.2002 56.44 74.2702 56.25 75.2302 54.78C77.8702 50.73 70.4301 49.9 68.0701 50.52C64.3301 51.5 62.9902 55.62 65.4702 58.6C66.7502 60.14 68.7002 60.87 70.6102 61.27C71.7402 61.5 72.2201 59.77 71.0901 59.53C69.2701 59.15 67.3002 58.47 66.3602 56.72C65.4202 54.97 66.2202 53.16 68.0002 52.43C68.9102 52.06 69.9202 52.02 70.8902 52.13C71.6402 52.21 73.4702 52.35 73.7502 53.14C74.3302 54.75 70.1902 54.86 69.2202 54.63C67.5302 54.21 67.5401 51.48 67.5301 50.05C67.5101 48.18 68.2201 46.51 70.0901 45.88C71.4301 45.43 73.3201 45.32 74.7001 45.66C77.3601 46.31 72.8301 48.85 71.9101 49.15C70.2301 49.7 68.3101 49.63 67.0401 48.25C66.1001 47.22 65.6802 45.7 65.8902 44.33C66.3702 41.2 70.4702 39.34 73.2602 40.68C74.6902 41.37 75.9502 43.71 73.5102 43.89C71.8002 44.02 69.8801 43.37 68.3201 42.71C66.7601 42.05 64.9901 41.05 63.7901 39.73C62.2301 38.01 63.0601 36.41 64.8001 35.28C65.7001 34.69 66.7301 34.12 67.8101 34.03C68.7301 33.95 70.0001 34.32 70.1701 35.38C70.3201 36.36 69.3002 37.2301 68.3902 37.2901C67.3802 37.3601 66.4802 36.6201 65.9902 35.7901C64.8902 33.9601 65.5402 31.58 66.3502 29.77C67.1602 27.96 68.4101 26.29 70.2801 25.4H69.3702C70.6102 26.23 69.1501 27.94 68.2901 28.34C67.0201 28.93 65.4102 28.69 64.2602 27.95C62.4202 26.76 60.3401 23.18 61.9301 21.06C62.7701 19.94 63.9201 20.8 64.1901 21.88C64.5301 23.22 63.6002 24.24 62.4702 24.82C60.9102 25.62 56.5002 26.62 55.6302 24.34C55.2202 23.27 53.4802 23.73 53.8902 24.82H53.8802Z" fill="#9E93FB"/>
<path d="M51.1001 28.29C50.1501 26.33 48.6402 24.71 46.7702 23.59C46.3002 23.31 45.5701 23.56 45.4501 24.13C45.0601 26.05 44.6602 27.97 44.2702 29.88L45.9101 29.67C44.8001 28.09 43.2901 26.9 41.4601 26.26C40.6501 25.98 39.6802 25.84 39.1502 26.69C38.6602 27.49 39.0601 28.44 39.2401 29.26C39.3501 29.77 39.4301 30.29 39.4701 30.82C39.4801 30.93 39.4901 31.04 39.4901 31.15C39.9001 30.96 39.9801 30.84 39.7401 30.79C39.6401 30.69 39.3501 30.59 39.2101 30.52C38.2201 30.01 37.1801 29.65 36.0801 29.5C35.2401 29.38 34.2801 29.39 33.8501 30.27C33.6201 30.73 33.6401 31.28 33.6101 31.78C33.5701 32.39 33.5301 32.99 33.4901 33.6C33.4101 34.76 35.2101 34.75 35.2901 33.6C35.3201 33.15 35.3502 32.69 35.3802 32.24C35.3902 32.02 35.5301 31.12 35.3401 31.23C35.5801 31.09 36.3001 31.36 36.5601 31.42C36.9801 31.52 37.4001 31.66 37.8001 31.83C38.4501 32.12 39.0701 32.61 39.8101 32.63C40.4701 32.64 41.0701 32.23 41.2401 31.58C41.4101 30.93 41.2201 30.13 41.1101 29.47C41.0401 29.06 40.9601 28.65 40.8501 28.24C40.8601 28.28 40.7301 27.69 40.7201 27.68C40.7201 27.54 40.6901 27.56 40.6101 27.72C40.4601 27.82 40.4701 27.87 40.6201 27.88C40.7901 28.06 41.4301 28.17 41.6901 28.29C42.0301 28.46 42.3501 28.65 42.6601 28.86C43.3201 29.32 43.8901 29.91 44.3601 30.57C44.7701 31.15 45.8401 31.18 46.0001 30.36C46.3901 28.44 46.7901 26.52 47.1801 24.61L45.8601 25.15C47.4801 26.13 48.7201 27.51 49.5401 29.21C50.0501 30.25 51.6001 29.34 51.0901 28.3L51.1001 28.29Z" fill="#9E93FB"/>
<path d="M27.3501 46.2C25.5701 46.33 23.8001 46.61 22.0701 47.05C21.6101 47.17 21.2901 47.7 21.4401 48.16C21.5901 48.62 22.0601 48.91 22.5501 48.79C23.3601 48.58 24.1801 48.41 25.0001 48.28C25.4701 48.2 25.6601 48.18 26.1001 48.13C26.5201 48.08 26.9301 48.05 27.3501 48.02C27.8201 47.99 28.2701 47.63 28.2501 47.12C28.2301 46.66 27.8501 46.18 27.3501 46.22V46.2Z" fill="#9E93FB"/>
<path d="M55.8301 70.67C56.1501 72.32 56.2701 74.01 56.1901 75.69C56.1701 76.12 56.1301 76.54 56.0901 76.97C56.0701 77.12 56.06 77.28 56.03 77.43C55.93 77.88 56.0801 77.38 56.1501 77.48C56.1201 77.44 55.2001 77.63 55.1201 77.64C54.7101 77.69 54.3001 77.75 53.9001 77.8C53.4201 77.86 53.0001 78.17 53.0001 78.7C53.0001 79.14 53.4101 79.66 53.9001 79.6C54.4101 79.53 54.9201 79.46 55.4301 79.4C55.9001 79.34 56.4101 79.33 56.8501 79.12C57.8601 78.66 57.8601 77.44 57.9501 76.49C58.1301 74.39 57.9901 72.27 57.5801 70.2C57.4901 69.72 56.9201 69.45 56.4701 69.57C55.9701 69.71 55.7501 70.2 55.8401 70.68L55.8301 70.67Z" fill="#9E93FB"/>
<path d="M34.4401 70.73C34.3301 73.29 34.1502 75.86 33.9002 78.41L34.8001 77.51C33.4701 77.51 32.1401 77.52 30.8001 77.53C29.6401 77.53 29.6401 79.33 30.8001 79.33C32.1301 79.33 33.4601 79.32 34.8001 79.31C35.3201 79.31 35.6501 78.9 35.7001 78.41C35.9501 75.86 36.1301 73.29 36.2401 70.73C36.2601 70.24 35.8101 69.83 35.3401 69.83C34.8401 69.83 34.4601 70.24 34.4401 70.73Z" fill="#9E93FB"/>
</svg>
