<svg width="100" height="100" viewBox="0 0 100 100" fill="none" xmlns="http://www.w3.org/2000/svg">
<path d="M64.08 55.51L48.63 55.59L48.71 56.38C49.01 59.47 49.18 62.79 49.26 67.17V67.88L77.22 67.72L76.74 61.16C76.48 57.67 76.06 50.02 76.07 42.92C72.01 44.84 67.6 46.28 63.84 48.84C63.9 51.27 63.99 53.56 64.09 55.51H64.08Z" fill="#2F2E45"/>
<path d="M62.76 39.55C62.36 38.82 62.48 36.21 62.55 34.8C62.72 31.04 62.98 25.36 58.11 22.31C51.65 18.27 43.68 23.9201 41.06 25.7801C37.45 28.3401 33.31 32.0201 29.76 35.7801C33.19 38.1601 37.32 39.7301 40.51 42.3501C44.19 38.6901 47.76 35.93 50.25 34.43C50.06 38.66 49.86 44.92 54.99 49.09C57.68 45.99 60.15 42.55 62.92 39.58C62.86 39.57 62.8 39.5601 62.76 39.5401V39.55Z" fill="#2F2E45"/>
<path d="M43.94 43.08C42.5 44.37 39.75 48.36 42.23 49.97C43.14 50.56 44.28 50.12 44.87 49.29C45.61 48.24 45.4 46.95 44.48 46.09C42.57 44.31 38.72 44.72 36.93 46.44C35.14 48.16 35.04 51.55 37.65 52.6C40.26 53.65 42.22 51.27 41.53 48.8C40.75 46.03 37.78 44.33 35.11 43.85C32.59 43.4 28.93 43.76 27.47 46.21C26.01 48.66 27.28 52.44 29.26 54.34C31.47 56.47 34.89 57.03 37.69 55.8C40.01 54.78 42.4 51.58 39.98 49.33C37.93 47.43 34.08 48.18 32.03 49.64C29.71 51.3 28.39 54.47 29.12 57.28C29.97 60.6 34.03 60.56 36.82 60.6C39.88 60.65 43 59.78 44.76 57.09C46.19 54.9 46.08 51.21 43.19 50.26C40.45 49.36 37.93 51.32 36.51 53.49C35.09 55.66 33.45 59.05 34.04 61.7C34.63 64.35 37.58 65.28 39.88 64.12C42.51 62.8 42.98 59.45 42.21 56.87C41.4 54.14 39.34 51.8 36.75 50.64C31.51 48.3 24.96 51.61 24.47 57.51C24.23 60.37 25.52 63.12 27.9 64.73C30.28 66.34 33.58 66.6 36.45 66.32C37.83 66.18 39.35 66.04 40.49 65.18C41.63 64.32 42.21 62.99 42.39 61.64C42.72 59.09 41.48 56.45 39.36 55.01C37.12 53.48 34.09 53.62 31.77 54.9C29.21 56.31 27.77 59.07 27.79 61.96C27.81 64.48 29.04 68.42 32.07 68.53C35.1 68.64 38.58 67.55 40.83 65.67C43.29 63.61 44.27 60.32 44.26 57.19C44.26 55.39 43.94 53.6 43.56 51.85C43.18 50.1 42.86 48.24 41.99 46.68C40.39 43.79 36.81 42.81 33.82 42.13C30.83 41.45 26.97 40.55 24.26 42.26C21.55 43.97 21.26 47.65 21.42 50.5C21.58 53.35 22.34 56.88 24.61 58.9C26.88 60.92 30 60.46 32.19 58.59C33.39 57.56 34.26 56.18 34.99 54.8C35.72 53.42 36.41 51.96 35.76 50.47C34.45 47.44 30.89 49.55 29.3 51.15C26.92 53.54 27.12 56.46 28.68 59.26C29.32 60.41 30.07 61.85 31.42 62.27C32.52 62.61 33.57 62.24 34.22 61.32C34.87 60.4 33.33 59.47 32.67 60.41C31.96 61.41 30.7 59.16 30.45 58.72C29.84 57.67 29.18 56.51 29.22 55.26C29.27 53.38 31.08 51.47 32.82 50.89C34.56 50.31 34.31 52.11 33.82 53.16C33.36 54.15 32.81 55.14 32.16 56.01C30.9 57.69 28.62 59.22 26.52 58.08C24.84 57.17 24.08 55.09 23.65 53.35C23.13 51.21 22.96 48.79 23.48 46.63C24.04 44.3 25.61 43.18 27.98 43.17C30.22 43.16 32.51 43.64 34.66 44.23C36.65 44.77 39.03 45.44 40.22 47.27C41.41 49.1 41.72 51.67 42.1 53.75C42.89 58.04 42.48 63.12 38.13 65.33C37.28 65.77 36.35 66.06 35.42 66.28C34.41 66.52 33.1 66.9 32.06 66.76C29.96 66.49 29.46 62.88 29.61 61.23C29.97 57.4 34.23 54.38 37.88 56.25C39.37 57.01 40.39 58.61 40.59 60.26C40.7 61.13 40.58 62.05 40.16 62.82C39.59 63.89 38.63 64.22 37.49 64.4C33.95 64.97 29.09 64.84 27.05 61.34C25.01 57.84 26.98 53.31 30.78 52.05C34.58 50.79 38.54 52.91 40.12 56.46C40.88 58.16 41.19 60.7 39.67 62.1C38.15 63.5 35.69 62.82 35.71 60.57C35.73 58.74 36.71 56.73 37.59 55.16C38.47 53.59 39.73 52.02 41.6 51.89C44.55 51.68 44.1 55.2 42.78 56.72C41.33 58.39 39.13 58.83 37 58.83C35.99 58.83 34.99 58.73 33.99 58.62C32.72 58.48 31.35 58.42 30.88 57.01C30.24 55.07 31.17 52.71 32.66 51.43C34.06 50.22 36.45 49.58 38.22 50.38C39.55 50.98 39.19 52.47 38.31 53.31C37.51 54.07 36.38 54.51 35.29 54.64C33.11 54.9 30.91 53.96 29.69 52.12C28.59 50.47 27.89 47.52 29.92 46.29C31.59 45.28 33.9 45.32 35.71 45.87C37.41 46.39 39.59 47.66 39.85 49.61C39.99 50.65 39.23 51.37 38.22 50.91C37.21 50.45 37.18 49.23 37.68 48.36C38.55 46.83 41.71 46.12 43.12 47.33C43.62 47.76 43.33 48.67 43.1 48.21C42.96 47.93 43.26 47.22 43.35 46.99C43.73 45.95 44.38 45.11 45.2 44.38C46.07 43.61 44.79 42.34 43.93 43.11L43.94 43.08Z" fill="#9E93FB"/>
<path d="M47.0401 50.14C47.3701 51.12 48.2901 51.67 49.2901 51.71C50.2901 51.75 51.1601 51.19 51.9401 50.64C52.1401 50.5 52.2901 50.3401 52.3501 50.1001C52.4101 49.8801 52.3801 49.6001 52.2601 49.4101C52.0101 49.0301 51.44 48.8001 51.03 49.0901C50.73 49.3101 50.42 49.52 50.09 49.7C50.05 49.72 50.0201 49.74 49.9801 49.76C49.9501 49.77 49.7901 49.8401 49.9201 49.7901C50.0401 49.7401 49.9101 49.79 49.8901 49.8C49.8401 49.82 49.7901 49.8301 49.7501 49.8501C49.6601 49.8801 49.5701 49.89 49.4801 49.92C49.3601 49.95 49.6601 49.92 49.5601 49.92C49.5201 49.92 49.4801 49.92 49.4401 49.92C49.3801 49.92 49.3101 49.92 49.2501 49.92C49.2201 49.92 49.0601 49.9 49.2301 49.92C49.2701 49.92 49.3901 49.94 49.2301 49.92C49.1601 49.9 49.09 49.89 49.02 49.86C48.99 49.86 48.8401 49.79 49.0001 49.86C49.0301 49.87 49.1401 49.92 49.0001 49.86C48.9501 49.83 48.8801 49.77 48.8201 49.75C48.8701 49.76 48.9801 49.9001 48.8801 49.7901C48.8601 49.7701 48.8401 49.75 48.8101 49.73C48.7501 49.67 48.7601 49.6101 48.8501 49.7901C48.8401 49.7601 48.8101 49.7401 48.8001 49.7201C48.7901 49.7001 48.7701 49.67 48.7601 49.64C48.6701 49.5 48.84 49.85 48.78 49.68C48.63 49.23 48.1501 48.9 47.6701 49.05C47.2301 49.19 46.8801 49.6801 47.0401 50.1601V50.14Z" fill="#9E93FB"/>
<path d="M65.39 33.18C67.87 31.51 70.3499 29.84 72.8299 28.18L71.51 27.16C71.1 29.35 70.07 31.28 68.45 32.82C67.84 33.4 68.4699 34.68 69.3299 34.32C70.5899 33.79 71.87 33.31 73.18 32.9C73.83 32.69 74.4899 32.5 75.1499 32.32C75.3799 32.26 76.6199 31.8 76.7799 31.98V30.71C74.5699 32.42 72.35 34.14 70.14 35.85C69.51 36.34 70.0499 37.41 70.7799 37.39C73.8099 37.29 76.8299 37.19 79.8599 37.08L79.2199 35.54C74.8599 40.07 68.04 40.79 63.32 44.85C62.44 45.61 63.7199 46.87 64.5899 46.12C69.3199 42.06 76.1 41.38 80.49 36.81C81.01 36.27 80.6499 35.25 79.8499 35.27C76.8199 35.37 73.7999 35.47 70.7699 35.58L71.4099 37.12C73.6199 35.41 75.84 33.69 78.05 31.98C78.45 31.67 78.34 31.03 78.05 30.71C77.06 29.59 75.18 30.44 74.01 30.77C72.25 31.27 70.5399 31.88 68.8499 32.59L69.7299 34.09C71.5499 32.36 72.79 30.11 73.25 27.64C73.38 26.93 72.63 26.15 71.93 26.62C69.45 28.29 66.97 29.96 64.49 31.62C63.53 32.26 64.4299 33.82 65.3999 33.17L65.39 33.18Z" fill="#9E93FB"/>
<path d="M50.11 70.44C50.16 72.23 50.22 74.02 50.27 75.82L50.29 76.46C50.29 76.65 50.25 76.92 50.31 77.1C50.29 77.3 50.38 77.25 50.58 76.94C50.89 76.76 50.97 76.68 50.8 76.69C50.71 76.66 50.57 76.69 50.48 76.69C50.27 76.69 50.06 76.69 49.85 76.69C48.94 76.69 48.03 76.69 47.12 76.69C45.96 76.69 45.96 78.49 47.12 78.49C48.14 78.49 49.17 78.49 50.19 78.49C50.72 78.49 51.3 78.55 51.72 78.15C52.14 77.75 52.1 77.19 52.09 76.67C52.03 74.59 51.96 72.52 51.9 70.44C51.89 69.95 51.5 69.54 51 69.54C50.5 69.54 50.09 69.95 50.1 70.44H50.11Z" fill="#9E93FB"/>
<path d="M63.77 70.07C63.83 71.94 63.9 73.81 63.96 75.68L64.01 77.06C64.01 77.21 63.96 77.61 64.03 77.73C64.02 77.86 64.06 77.83 64.15 77.65C64.28 77.51 64.32 77.46 64.27 77.5C64.26 77.49 64.04 77.53 64.01 77.53C63.08 77.63 62.15 77.72 61.23 77.82C60.75 77.87 60.33 78.2 60.33 78.72C60.33 79.17 60.74 79.67 61.23 79.62C62.28 79.51 63.34 79.42 64.39 79.29C65 79.22 65.56 78.94 65.76 78.31C65.91 77.81 65.82 77.23 65.8 76.71C65.72 74.5 65.65 72.28 65.57 70.07C65.53 68.91 63.73 68.91 63.77 70.07Z" fill="#9E93FB"/>
<path d="M23.5899 38.62C25.0799 39.53 27.2999 38.94 28.0799 37.36C28.2899 36.94 28.21 36.37 27.76 36.13C27.35 35.92 26.7499 36 26.5299 36.45C26.4999 36.52 26.4599 36.58 26.4199 36.65C26.3999 36.68 26.3799 36.71 26.3599 36.74C26.2699 36.87 26.5099 36.57 26.3999 36.69C26.2999 36.8 26.1999 36.9 26.0899 36.99C26.0099 37.06 26.2799 36.86 26.1599 36.94C26.1299 36.96 26.09 36.99 26.06 37.01C26 37.05 25.94 37.08 25.88 37.11C25.84 37.13 25.8099 37.15 25.7699 37.16C25.6399 37.22 25.9499 37.09 25.8499 37.13C25.7799 37.15 25.71 37.18 25.63 37.2C25.56 37.22 25.5 37.24 25.43 37.25C25.42 37.25 25.32 37.28 25.31 37.27C25.31 37.27 25.5799 37.24 25.4099 37.26C25.2599 37.26 25.1199 37.26 24.9799 37.26C24.8199 37.26 25.22 37.3 25.06 37.27C25.03 37.27 24.9899 37.26 24.9599 37.25C24.8899 37.23 24.8099 37.22 24.7399 37.19C24.7099 37.18 24.68 37.17 24.64 37.16C24.54 37.13 24.8499 37.26 24.7199 37.2C24.6499 37.16 24.57 37.13 24.5 37.08C24.1 36.83 23.4899 36.98 23.2699 37.4C23.0499 37.82 23.1599 38.37 23.5899 38.63V38.62Z" fill="#9E93FB"/>
</svg>
