<svg width="63" height="53" viewBox="0 0 63 53" fill="none" xmlns="http://www.w3.org/2000/svg">
<path d="M49.4757 40.5282C49.4063 40.5282 49.3368 40.5282 49.2673 40.5282C46.1312 40.3785 44.9204 39.5497 44.4639 38.8707L47.2229 36.9637C47.0938 36.774 46.9946 36.704 46.9847 36.704C46.9847 36.704 47.5504 37.0735 49.4261 37.1634C49.6543 37.1733 49.7238 37.1134 49.7734 37.0635C50.5872 36.2747 50.5376 33.2693 50.5277 32.2808C50.5277 32.0911 50.5277 31.9213 50.5277 31.7816H53.8722C53.8722 31.9014 53.8722 32.0511 53.8722 32.2309C53.902 34.138 53.9616 37.6826 52.1057 39.4898C51.4011 40.1788 50.4979 40.5382 49.4856 40.5382L49.4757 40.5282Z" fill="#2F2E45"/>
<path d="M18.6902 44.1827C17.6283 44.1827 16.9336 44.1627 16.874 44.1527L16.9931 40.7878C20.6949 40.9176 27.2649 40.658 29.1406 39.4C29.5177 39.1404 29.7857 38.6711 29.9147 38.0021C30.1628 36.754 29.875 35.3362 29.6269 34.6772C26.9572 34.2478 21.2011 34.5374 19.0673 34.6971L17.2809 34.8269V33.0297C17.271 32.85 17.142 14.5179 17.142 10.494C17.142 10.1146 17.142 9.74515 17.142 9.38569C17.1122 5.901 17.0725 1.94703 21.4393 0.928578C23.2455 0.509217 24.893 0.848705 26.203 1.91708C29.2498 4.38332 29.9842 10.1346 30.1033 16.8643C33.4875 6.1007 36.4251 0 40.1766 0C40.1964 0 40.2163 0 40.2361 0C42.2806 0.0399391 44.2754 1.10832 45.3273 2.73584C46.2801 4.22357 46.3893 6.02082 45.6251 7.8081C44.1364 11.3128 41.3973 18.372 39.7995 26.3199C39.2139 29.2155 39.2834 33.6487 39.3131 35.5458C39.3727 39.38 40.2758 40.2886 40.7522 40.6081C41.308 40.7479 42.6478 40.7679 43.1341 40.5782C43.7494 39.4699 44.4143 36.7939 44.4143 27.0588H47.7588C47.7588 37.403 47.0443 40.6381 45.8831 42.4953C45.4464 43.1942 44.712 43.6635 43.6898 43.9031C42.3302 44.2126 40.0178 44.1228 39.0948 43.5337C37.0008 42.2057 36.0381 39.7594 35.9786 35.5958C35.9289 32.2908 35.9587 28.5166 36.5343 25.6509C38.1917 17.4035 41.0301 10.1046 42.5684 6.48013C42.8959 5.72129 42.8859 5.09224 42.5386 4.55306C42.1019 3.87409 41.1194 3.36487 40.1964 3.35489C40.1865 3.35489 38.6383 3.57456 35.8793 10.474C34.1028 14.9073 32.5645 20.2192 31.5522 23.7438C31.2545 24.7723 30.9965 25.6709 30.7881 26.3299C30.4903 27.2884 29.5574 27.8875 28.565 27.7577C27.5726 27.6279 26.8282 26.7992 26.7885 25.8007C26.7488 24.8022 26.7687 23.4742 26.7885 21.9466C26.858 16.6646 26.9771 6.82959 24.1387 4.53309C23.7913 4.25351 23.2654 3.96395 22.2233 4.20359C20.7148 4.55305 20.4766 5.28195 20.5064 9.35574C20.5064 9.72518 20.5064 10.1046 20.5064 10.494C20.5064 13.759 20.5858 26.4996 20.6255 31.2224C23.3844 31.0727 28.5054 30.9029 30.9766 31.512C32.0882 31.7816 32.8424 33.0097 33.2096 35.1464C33.7555 38.2817 32.9317 40.9177 31.0064 42.2057C29.478 43.2341 26.6893 43.8432 22.4714 44.0828C21.0423 44.1627 19.7025 44.1827 18.7001 44.1827H18.6902Z" fill="#2F2E45"/>
<path d="M15.9412 32.3207C11.0782 32.3906 6.03658 32.4905 1.48127 34.4076C0.637691 34.757 -0.0470848 35.2163 0.00253732 36.2348C0.042235 37.1634 0.538452 38.062 1.11407 38.7509C2.49356 40.3984 4.67694 41.1073 6.71145 41.5067C9.67885 42.0859 12.6959 42.4353 15.6831 42.8846C16.5763 43.0144 16.9634 41.6365 16.0603 41.5067C13.2119 41.0774 10.3438 40.718 7.51532 40.2087C5.40142 39.8293 2.52334 39.1404 1.61029 36.8838C1.53089 36.6841 1.38202 36.3546 1.4515 36.1249C1.53089 35.8554 1.85841 35.7855 2.12636 35.6856C2.71191 35.446 3.31729 35.2363 3.92268 35.0566C5.22278 34.6572 6.56259 34.3876 7.91231 34.2079C10.5721 33.8484 13.2715 33.8085 15.9511 33.7685C16.8641 33.7585 16.8741 32.3207 15.9511 32.3307L15.9412 32.3207Z" fill="#9E93FB"/>
<path d="M1.27295 37.0236C10.2943 39.9192 19.8515 38.8109 29.0614 37.5927C29.9546 37.4729 29.9645 36.0351 29.0614 36.1549C19.9805 37.3631 10.5523 38.4913 1.65007 35.6457C0.776722 35.3661 0.399604 36.744 1.27295 37.0236Z" fill="#9E93FB"/>
<path d="M30.2422 28.8759C30.5995 29.8744 31.582 30.3637 32.5943 30.3337C33.1004 30.3237 33.5867 30.154 33.9043 29.7546C34.1822 29.4051 34.341 29.0057 34.4601 28.5764C34.5593 28.2169 34.331 27.7776 33.9638 27.6977C33.5966 27.6179 33.1996 27.8076 33.0905 28.197C33.0508 28.3268 33.0111 28.4566 32.9615 28.5864C32.9218 28.7062 33.021 28.4666 32.9813 28.5464C32.9714 28.5764 32.9515 28.6063 32.9416 28.6363C32.9118 28.6962 32.8721 28.7561 32.8424 28.806C32.7927 28.8859 32.8622 28.7661 32.8821 28.7561C32.8622 28.7761 32.8424 28.806 32.8126 28.826C32.7828 28.846 32.753 28.866 32.7431 28.8959C32.7729 28.856 32.8821 28.806 32.7729 28.866C32.6439 28.9358 32.8027 28.846 32.8126 28.866C32.8126 28.866 32.7034 28.8959 32.6935 28.8959C32.6737 28.8959 32.6637 28.8959 32.6439 28.8959C32.5843 28.8959 32.6141 28.8959 32.7133 28.8959C32.7133 28.8959 32.6042 28.8959 32.5943 28.8959C32.5149 28.8959 32.4454 28.8959 32.366 28.8959C32.3263 28.8959 32.2866 28.8959 32.237 28.8859C32.1477 28.8859 32.3858 28.9159 32.2469 28.8859C32.1675 28.8659 32.0881 28.846 31.9988 28.826C31.9789 28.826 31.84 28.7761 31.9392 28.806C32.0385 28.836 31.9095 28.7861 31.8996 28.7761C31.84 28.7461 31.7805 28.6962 31.7209 28.6662C31.7507 28.6862 31.8301 28.7661 31.7705 28.6962C31.7408 28.6663 31.711 28.6363 31.6812 28.6063C31.6614 28.5864 31.6415 28.5564 31.6217 28.5464C31.7408 28.6563 31.6812 28.6263 31.6514 28.5764C31.6316 28.5464 31.6217 28.5165 31.6018 28.4865C31.5323 28.3767 31.6514 28.6363 31.6018 28.5065C31.4728 28.157 31.1056 27.8775 30.7285 28.0073C30.3811 28.1171 30.0933 28.5065 30.2322 28.8859L30.2422 28.8759Z" fill="#9E93FB"/>
<path d="M14.0456 45.6205C12.9837 48.5361 17.8368 48.7458 19.4942 48.9554C23.0272 49.3848 26.5901 49.4247 30.1431 49.4447C36.8917 49.4846 43.7395 49.5246 50.2797 47.6275C51.163 47.3778 50.7859 45.9899 49.9026 46.2496C44.2755 47.8771 38.42 48.0368 32.6043 48.0268C29.6965 48.0268 26.7787 48.0268 23.8708 47.8871C22.4119 47.8172 20.953 47.7073 19.4942 47.5276C18.8193 47.4477 14.9686 47.248 15.4152 46.0099C15.7328 45.1413 14.3533 44.7718 14.0456 45.6305V45.6205Z" fill="#9E93FB"/>
<path d="M54.4579 40.5283C54.5174 40.5383 54.5671 40.5582 54.6266 40.5782C54.5373 40.5483 54.577 40.5582 54.6365 40.5882C54.6762 40.6082 54.7159 40.6381 54.7556 40.6681C54.6266 40.5882 54.7556 40.6681 54.7854 40.698C54.8251 40.728 54.8549 40.7679 54.8846 40.7979C54.9442 40.8578 54.8251 40.698 54.8946 40.8179C54.9541 40.9077 55.0037 41.0076 55.0534 41.0974C55.0931 41.1673 55.0236 40.9976 55.0534 41.1274C55.0732 41.1873 55.093 41.2472 55.103 41.3071C55.1129 41.357 55.1228 41.407 55.1327 41.4569C55.1427 41.5268 55.1427 41.5867 55.1327 41.4768C55.1327 41.5867 55.1427 41.7065 55.1327 41.8163C55.1327 41.8663 55.1328 41.9162 55.1228 41.9661C55.1427 41.7964 55.1228 41.9961 55.103 42.016C55.0434 42.2856 55.0037 42.3555 54.8648 42.5951C54.835 42.6451 54.7953 42.705 54.7655 42.7549C54.7655 42.7549 54.6365 42.9346 54.6961 42.8547C54.6167 42.9546 54.5373 43.0544 54.4479 43.1443C54.041 43.5736 53.6937 43.8233 53.2173 44.1428C52.8997 44.3624 52.7608 44.7718 52.9593 45.1213C53.1478 45.4408 53.6143 45.5906 53.9319 45.3809C55.0434 44.632 56.284 43.6435 56.5023 42.2157C56.7008 40.9476 56.1153 39.4699 54.7755 39.1304C54.3983 39.0406 54.0014 39.2502 53.9021 39.6297C53.8029 40.0091 54.0212 40.4184 54.3983 40.5083L54.4579 40.5283Z" fill="#9E93FB"/>
<path d="M10.6714 44.9015C9.65912 46.9085 10.9195 49.0552 12.696 50.0836C14.661 51.2219 17.1223 51.6413 19.3652 51.6712C20.2783 51.6812 20.2783 50.2534 19.3652 50.2334C17.5193 50.2034 15.5542 49.8939 13.877 49.0852C12.6761 48.506 11.1478 47.1281 11.902 45.6204C12.3189 44.8017 11.0882 44.0728 10.6714 44.9015Z" fill="#9E93FB"/>
<path d="M43.4715 52.0007C46.4588 52.1405 49.4063 51.5814 52.2745 50.8026C53.7136 50.4132 55.1427 49.9738 56.5619 49.5145C57.8123 49.1151 59.0827 48.6558 60.1644 47.877C62.1196 46.4592 63.3006 44.0528 62.9334 41.6166C62.586 39.2801 60.6408 37.413 58.2391 37.4829C57.3261 37.5128 57.3161 38.9406 58.2391 38.9207C60.6011 38.8508 61.9111 41.2172 61.4943 43.3739C61.0576 45.6604 59.2514 47.0383 57.1871 47.7971C52.87 49.3847 48.0964 50.7926 43.4616 50.5829C42.5486 50.543 42.5486 51.9708 43.4616 52.0207L43.4715 52.0007Z" fill="#9E93FB"/>
<path d="M5.72898 47.1582C5.8183 48.0867 6.21529 48.8855 6.81076 49.5845C7.37645 50.2435 8.10093 50.7527 8.80556 51.2519C9.11322 51.4716 9.60944 51.3118 9.77815 50.9923C9.96671 50.6229 9.84763 50.2435 9.52012 50.0138C9.37125 49.904 9.22239 49.7941 9.07352 49.6943C8.99413 49.6444 8.92466 49.5845 8.85519 49.5245C8.80556 49.4946 8.74602 49.4447 8.82541 49.5046C8.79564 49.4746 8.75594 49.4547 8.72616 49.4247C8.42843 49.1851 8.15055 48.9355 7.89251 48.6459C7.83297 48.586 7.78335 48.5161 7.7238 48.4462C7.67418 48.3863 7.69403 48.4063 7.7238 48.4462C7.69403 48.4063 7.66425 48.3663 7.6444 48.3264C7.54516 48.1866 7.45584 48.0368 7.37644 47.887C7.35659 47.8571 7.34666 47.8172 7.32681 47.7872C7.28712 47.7073 7.26727 47.7073 7.32681 47.7772C7.27719 47.7173 7.26727 47.6075 7.2375 47.5376C7.20773 47.4577 7.18788 47.3778 7.16804 47.288C7.16804 47.248 7.15811 47.2181 7.14818 47.1781C7.10848 46.9884 7.15811 47.3379 7.14818 47.1382C7.10848 46.7687 6.85045 46.3993 6.43362 46.4193C6.07634 46.4393 5.67936 46.7388 5.71906 47.1382L5.72898 47.1582Z" fill="#9E93FB"/>
<path d="M28.853 52.8794L31.2547 52.9992C31.6318 53.0192 31.9791 52.6597 31.9692 52.2803C31.9494 51.8709 31.6516 51.5814 31.2547 51.5614L28.853 51.4416C28.4758 51.4216 28.1285 51.7811 28.1384 52.1605C28.1582 52.5699 28.456 52.8594 28.853 52.8794Z" fill="#9E93FB"/>
</svg>
