<svg width="79" height="45" viewBox="0 0 79 45" fill="none" xmlns="http://www.w3.org/2000/svg">
<path d="M38.7767 33.4747C38.7767 33.4055 38.7767 33.3363 38.7767 33.267C38.9253 30.1412 39.7476 28.9344 40.4213 28.4794L42.3136 31.2293C42.5018 31.1007 42.5712 31.0018 42.5712 30.9919C42.5712 30.9919 42.2047 31.5558 42.1155 33.4253C42.1056 33.6528 42.165 33.722 42.2145 33.7715C42.9972 34.5826 45.9792 34.5331 46.9601 34.5233C47.1483 34.5233 47.3167 34.5233 47.4554 34.5233V37.8568C47.3365 37.8568 47.188 37.8568 47.0096 37.8568C45.1174 37.8864 41.6003 37.9458 39.8071 36.096C39.1235 35.3937 38.7668 34.4936 38.7668 33.4846L38.7767 33.4747Z" fill="#2F2E45"/>
<path d="M35.1606 2.79071C35.1606 1.7323 35.1805 1.03988 35.1904 0.98053L38.5291 1.09923C38.4003 4.78883 38.6579 11.3371 39.9062 13.2067C40.1638 13.5826 40.6294 13.8496 41.2932 13.9782C42.5316 14.2255 43.9384 13.9387 44.5923 13.6914C45.0183 11.0305 44.731 5.29331 44.5725 3.16659L44.4437 1.38609H46.227C46.4053 1.3762 64.5949 1.2476 68.5875 1.2476C68.964 1.2476 69.3306 1.2476 69.6872 1.2476C73.1448 1.21793 77.0681 1.17836 78.0787 5.53071C78.4948 7.331 78.1579 8.97302 77.0979 10.2787C74.6508 13.3155 68.9442 14.0475 62.2667 14.1662C72.9467 17.5392 79 20.4672 79 24.2062C79 24.226 79 24.2458 79 24.2656C78.9604 26.3033 77.9003 28.2915 76.2855 29.34C74.8093 30.2896 73.026 30.3984 71.2526 29.6368C67.7752 28.153 60.7708 25.4229 52.8846 23.8304C50.0116 23.2467 45.6128 23.316 43.7304 23.3457C39.926 23.405 39.0244 24.3052 38.7074 24.78C38.5687 25.3339 38.5489 26.6693 38.7371 27.154C39.8368 27.7673 42.492 28.43 52.1515 28.43V31.7635C41.8877 31.7635 38.6777 31.0513 36.835 29.894C36.1415 29.4587 35.6758 28.7267 35.438 27.7079C35.1309 26.3527 35.2201 24.048 35.8046 23.128C37.1223 21.0409 39.5495 20.0814 43.6808 20.0221C46.9601 19.9726 50.705 20.0023 53.5484 20.576C61.7318 22.2279 68.9739 25.0569 72.5703 26.5901C73.3232 26.9166 73.9473 26.9067 74.4823 26.5605C75.156 26.1252 75.6613 25.146 75.6712 24.226C75.6712 24.2161 75.4533 22.673 68.6074 19.9231C64.2086 18.1525 58.9379 16.6193 55.4407 15.6104C54.4202 15.3136 53.5286 15.0564 52.8747 14.8487C51.9236 14.5519 51.3292 13.6221 51.458 12.633C51.5868 11.6438 52.4091 10.9019 53.3998 10.8623C54.3905 10.8228 55.7082 10.8426 57.224 10.8623C62.4649 10.9316 72.2235 11.0503 74.5022 8.22125C74.7796 7.87504 75.0668 7.35078 74.8291 6.31215C74.4823 4.80862 73.7591 4.57122 69.717 4.60089C69.3504 4.60089 68.9739 4.60089 68.5875 4.60089C65.3479 4.60089 52.7063 4.68002 48.0202 4.71959C48.1688 7.46948 48.3372 12.5736 47.7329 15.0366C47.4654 16.1445 46.2468 16.8963 44.1267 17.2623C41.0158 17.8063 38.4003 16.9853 37.1223 15.0663C36.1018 13.543 35.4975 10.7634 35.2597 6.55945C35.1805 5.13504 35.1606 3.79966 35.1606 2.8006V2.79071Z" fill="#2F2E45"/>
<path d="M19.7747 16.649H23.1134C23.1134 32.2383 29.2856 33.5341 35.6064 33.5341V36.8677C29.236 36.8677 26.4818 35.0377 24.7976 33.4451C21.4193 30.2501 19.7747 24.7503 19.7747 16.649Z" fill="#2F2E45"/>
<path d="M31.0195 38.3613C30.6529 40.31 30.5142 42.2883 30.6232 44.2666L31.3365 43.5544C29.9792 43.5841 28.6219 43.5742 27.2647 43.5445C26.3532 43.5248 26.3532 44.9393 27.2647 44.969C28.6219 45.0085 29.9792 45.0085 31.3365 44.9789C31.7031 44.9789 32.0696 44.6623 32.0498 44.2666C31.9507 42.4169 32.0498 40.5671 32.3966 38.7471C32.4659 38.3712 32.2876 37.9854 31.9012 37.8766C31.5545 37.7777 31.0987 37.9953 31.0294 38.3712L31.0195 38.3613Z" fill="#9E93FB"/>
<path d="M35.8441 38.8558C36.0918 40.0527 36.2701 41.2496 36.3593 42.4663C36.3692 42.6147 36.3791 42.7631 36.389 42.9114C36.389 43.0104 36.3593 43.2082 36.3989 43.2972C36.2999 43.1093 36.6763 43.04 36.6664 42.951C36.7259 42.951 36.6962 42.951 36.5872 42.951H36.4881C36.3395 42.9708 36.1909 42.9807 36.0423 42.9906C35.3983 43.0202 34.7643 43.0202 34.1203 42.9906C33.7339 42.9708 33.407 43.3269 33.407 43.7028C33.407 44.0984 33.7339 44.3952 34.1203 44.415C34.8633 44.4447 35.5965 44.4446 36.3395 44.3952C36.7457 44.3655 37.2113 44.3655 37.5185 44.049C37.8058 43.7522 37.8256 43.3566 37.8058 42.9609C37.7166 41.4574 37.5185 39.9538 37.2113 38.48C37.1321 38.1041 36.6863 37.8865 36.3395 37.9854C35.9531 38.0942 35.7649 38.48 35.8441 38.8558Z" fill="#9E93FB"/>
<path d="M32.6641 0.377111C28.7111 0.0407933 24.7482 -0.077907 20.7853 0.0506851C17.4664 0.159494 14.0682 0.248518 10.9772 1.57401C8.15362 2.78079 5.68672 4.76902 3.66565 7.05401C1.62476 9.35877 0 12.1186 0 15.274C0 15.8477 0.594419 16.1049 1.06996 15.8873C7.1728 13.0187 14.2366 12.7417 20.5773 15.0168C21.4392 15.3235 21.8157 13.9584 20.9537 13.6518C14.2466 11.2382 6.79632 11.6438 0.346728 14.6706L1.41672 15.2839C1.41672 12.2175 3.20992 9.57639 5.25081 7.42989C7.29169 5.28339 9.69913 3.47321 12.4831 2.51372C15.5048 1.47509 18.8831 1.50476 22.0534 1.44541C25.5903 1.37617 29.1371 1.50477 32.6641 1.81141C33.5755 1.89054 33.5656 0.466137 32.6641 0.387003V0.377111Z" fill="#9E93FB"/>
<path d="M1.5059 15.2146C5.16166 8.32012 13.8007 7.92446 20.6367 8.66633C21.5482 8.76525 21.5383 7.34085 20.6367 7.24193C13.2856 6.4407 4.17095 7.14301 0.277415 14.4925C-0.148595 15.3037 1.07989 16.0159 1.5059 15.2047V15.2146Z" fill="#9E93FB"/>
<path d="M21.2708 14.5124C22.1525 12.5538 22.1723 10.2194 22.3408 8.10253C22.5191 5.80765 22.5191 3.51278 22.1228 1.2278C21.9643 0.327653 20.5971 0.713429 20.7556 1.60368C21.1123 3.67105 21.0826 5.76809 20.934 7.85524C20.8646 8.87408 20.7556 9.88304 20.6565 10.9019C20.5575 11.9207 20.4485 12.8802 20.0423 13.7903C19.6658 14.6212 20.8943 15.3433 21.2708 14.5025V14.5124Z" fill="#9E93FB"/>
<path d="M25.3326 4.68993C24.7282 5.50105 24.0645 6.34184 23.8663 7.36069C23.688 8.26083 23.8168 9.15108 24.1833 9.98199C24.9462 11.7031 26.7988 12.7022 28.6515 12.534C30.6032 12.356 32.1785 11.0899 32.9116 9.29946C33.2583 8.44877 33.4664 7.36069 33.1791 6.47043C32.862 5.49116 32.0001 4.80863 31.1283 4.34372C29.1468 3.26552 26.6007 3.13693 24.8868 4.77895C24.223 5.41202 25.2335 6.41108 25.8874 5.77801C26.9772 4.73939 28.6118 4.75917 29.9196 5.323C30.5338 5.59007 31.2373 5.96596 31.6336 6.52978C32.0298 7.09361 31.8812 7.90473 31.6831 8.52791C31.267 9.81383 30.2267 10.8228 28.8893 11.08C27.5518 11.3372 26.244 10.7733 25.5902 9.61599C25.2632 9.04227 25.1146 8.33007 25.2533 7.67722C25.4415 6.80675 26.0459 6.09455 26.571 5.39224C26.7988 5.08559 26.6205 4.6009 26.3134 4.42285C25.9468 4.21513 25.5703 4.37339 25.3425 4.68004L25.3326 4.68993Z" fill="#9E93FB"/>
<path d="M27.5421 7.25182C27.5025 7.31117 27.4728 7.4002 27.453 7.45955C27.453 7.46944 27.4431 7.48922 27.4431 7.49911C27.4331 7.56835 27.4232 7.6376 27.4133 7.70684V7.72662C27.4133 7.73651 27.4133 7.7563 27.4133 7.76619C27.4133 7.81565 27.4232 7.92446 27.4431 7.9937C27.4629 8.06294 27.5025 8.13218 27.5322 8.20143C27.5619 8.26078 27.5917 8.30034 27.6313 8.3498C27.6709 8.39926 27.7006 8.44872 27.7502 8.48828C27.8096 8.53774 27.8691 8.57731 27.9285 8.62677C27.9384 8.62677 27.9582 8.64655 27.9681 8.65644C28.0474 8.69601 28.1366 8.73558 28.2158 8.76525C28.2257 8.76525 28.2455 8.76525 28.2554 8.76525C28.3248 8.77514 28.3941 8.78503 28.4635 8.79493H28.4833C28.5527 8.79493 28.6616 8.77514 28.7112 8.76525C28.731 8.76525 28.7409 8.76525 28.7607 8.75536C28.8301 8.73558 28.8994 8.7059 28.9688 8.66633C28.9688 8.66633 28.9787 8.66634 28.9886 8.65644C29.048 8.61688 29.0976 8.57731 29.1471 8.52785C29.157 8.52785 29.1669 8.50807 29.1768 8.49818C29.2164 8.44872 29.2561 8.38937 29.2957 8.33991C29.2957 8.33991 29.3056 8.33002 29.3155 8.32013C29.3155 8.32013 29.3155 8.31023 29.3254 8.30034C29.3551 8.24099 29.3849 8.17175 29.4047 8.1124C29.4047 8.10251 29.4146 8.08272 29.4146 8.07283C29.4344 7.9937 29.4542 7.89478 29.4443 7.80576C29.4443 7.72662 29.4245 7.65738 29.4146 7.57825C29.4146 7.55846 29.4146 7.54857 29.4047 7.52879C29.375 7.44966 29.3452 7.36063 29.2957 7.2815C29.2462 7.20236 29.1966 7.13312 29.1273 7.06388C29.0579 6.99464 28.9886 6.93529 28.9093 6.88583C28.8895 6.88583 28.8796 6.86605 28.8598 6.85615C28.8004 6.82648 28.7409 6.7968 28.6716 6.77702C28.6716 6.77702 28.6616 6.77702 28.6517 6.77702C28.5725 6.75724 28.4932 6.74734 28.414 6.74734C28.3942 6.74734 28.3843 6.74734 28.3644 6.74734C28.1861 6.76713 28.0771 6.78691 27.9186 6.87594C27.8393 6.9254 27.77 6.98474 27.7205 7.05399C27.661 7.12323 27.6115 7.20236 27.5917 7.29139C27.5619 7.3903 27.562 7.47933 27.5818 7.57825C27.5818 7.67716 27.6115 7.7563 27.6709 7.84532L27.7799 7.9937C27.8691 8.08272 27.978 8.14207 28.0969 8.17175L28.2852 8.20143C28.414 8.20143 28.5329 8.17175 28.6418 8.10251C28.6418 8.10251 28.6617 8.10251 28.6716 8.09262L28.5031 8.16186C28.5031 8.16186 28.5428 8.15197 28.5626 8.14207L28.3743 8.17175C28.3743 8.17175 28.414 8.17175 28.4338 8.17175L28.2455 8.14207C28.2455 8.14207 28.2951 8.15197 28.3248 8.16186L28.1564 8.09262C28.1564 8.09262 28.2059 8.12229 28.2356 8.14207L28.087 8.03327C28.087 8.03327 28.1366 8.08273 28.1663 8.1124L28.0573 7.96402C28.0573 7.96402 28.0969 8.02337 28.1168 8.06294L28.0474 7.89478C28.0474 7.89478 28.0672 7.95413 28.0771 7.98381L28.0474 7.79586C28.0474 7.79586 28.0474 7.84532 28.0474 7.875L28.0771 7.68706C28.0771 7.68706 28.0771 7.72662 28.0573 7.7563L28.1266 7.58814C28.1266 7.58814 28.1068 7.6277 28.0969 7.6376L28.2059 7.48922C28.2059 7.48922 28.1762 7.5189 28.1564 7.53868L28.305 7.42987C28.305 7.42987 28.2753 7.44966 28.2554 7.45955L28.4239 7.3903C28.4239 7.3903 28.3843 7.4002 28.3644 7.41009L28.5527 7.38041C28.5527 7.38041 28.5031 7.38041 28.4734 7.38041L28.6616 7.41009C28.6616 7.41009 28.6022 7.40019 28.5725 7.3903L28.7409 7.45955C28.7409 7.45955 28.6716 7.42987 28.6418 7.4002L28.7904 7.50901C28.7904 7.50901 28.731 7.45955 28.7112 7.42987L28.8202 7.57825C28.8202 7.57825 28.7805 7.52879 28.7706 7.49911L28.84 7.66727C28.84 7.66727 28.8202 7.61782 28.8202 7.59803L28.8499 7.78597C28.8499 7.78597 28.8499 7.74641 28.8499 7.71673L28.8202 7.90467C28.8202 7.90467 28.8202 7.86511 28.84 7.84532L28.7706 8.01348C28.7706 8.01348 28.7805 7.9937 28.7904 7.97391C28.84 7.89478 28.8697 7.80576 28.8796 7.70684C28.8994 7.60792 28.8994 7.5189 28.8697 7.41998C28.8499 7.33096 28.8003 7.25182 28.7409 7.18258C28.6914 7.10344 28.622 7.04409 28.5428 7.00453L28.3743 6.93529C28.2455 6.90561 28.1266 6.90561 27.9979 6.93529L27.8294 7.00453C27.7205 7.06388 27.6412 7.15291 27.5718 7.26171L27.5421 7.25182Z" fill="#9E93FB"/>
</svg>
