<svg width="79" height="47" viewBox="0 0 79 47" fill="none" xmlns="http://www.w3.org/2000/svg">
<path d="M38.8541 37.2037C38.8541 37.1346 38.8541 37.0654 38.8541 36.9963C39.0025 33.8749 39.8234 32.6698 40.496 32.2154L42.3851 34.9614C42.573 34.833 42.6422 34.7342 42.6422 34.7244C42.6422 34.7244 42.2763 35.2874 42.1873 37.1543C42.1774 37.3815 42.2367 37.4506 42.2862 37.5C43.0675 38.31 46.0446 38.2606 47.0238 38.2508C47.2117 38.2508 47.3798 38.2508 47.5183 38.2508V41.5796C47.3996 41.5796 47.2513 41.5796 47.0732 41.5796C45.1841 41.6092 41.6729 41.6685 39.8827 39.8213C39.2003 39.12 38.8442 38.2211 38.8442 37.2136L38.8541 37.2037Z" fill="#2F2E45"/>
<path d="M35.2341 6.56268C35.2341 5.50575 35.2539 4.8143 35.2638 4.75504L38.5969 4.87357C38.4684 8.558 38.7255 15.0971 39.9717 16.9641C40.2289 17.3394 40.6938 17.6061 41.3564 17.7345C42.5927 17.9815 43.9972 17.695 44.65 17.4481C45.0753 14.7909 44.7885 9.06177 44.6302 6.93804L44.5016 5.16003H46.2819C46.46 5.15015 64.6191 5.02174 68.605 5.02174C68.9809 5.02174 69.3468 5.02174 69.7029 5.02174C73.1547 4.9921 77.0714 4.95259 78.0802 9.29884C78.4956 11.0966 78.1594 12.7363 77.1011 14.0402C74.6581 17.0727 68.9611 17.8037 62.2948 17.9222C72.9569 21.2905 79.0001 24.2144 79.0001 27.9482C79.0001 27.968 79.0001 27.9877 79.0001 28.0075C78.9605 30.0423 77.9022 32.0278 76.29 33.0748C74.8163 34.0231 73.036 34.1317 71.2656 33.3712C67.794 31.8895 60.8013 29.1632 52.9284 27.5729C50.0601 26.9901 45.6687 27.0592 43.7895 27.0888C39.9915 27.1481 39.0915 28.047 38.775 28.5211C38.6365 29.0743 38.6167 30.4078 38.8046 30.8918C39.9025 31.5042 42.5532 32.1661 52.1965 32.1661V35.4949C41.9499 35.4949 38.7453 34.7837 36.9056 33.628C36.2133 33.1933 35.7484 32.4624 35.5111 31.445C35.2045 30.0917 35.2935 27.7902 35.877 26.8715C37.1925 24.7873 39.6156 23.8292 43.74 23.7699C47.0138 23.7205 50.7525 23.7501 53.5911 24.323C61.7608 25.9726 68.9908 28.7977 72.5811 30.3288C73.3327 30.6547 73.9559 30.6449 74.49 30.2991C75.1625 29.8645 75.6669 28.8866 75.6768 27.968C75.6768 27.9581 75.4592 26.4171 68.6248 23.6711C64.2334 21.903 58.9716 20.3719 55.4802 19.3644C54.4615 19.068 53.5713 18.8112 52.9185 18.6038C51.969 18.3074 51.3756 17.3789 51.5042 16.3911C51.6327 15.4034 52.4537 14.6625 53.4427 14.623C54.4318 14.5835 55.7472 14.6032 57.2605 14.623C62.4926 14.6921 72.2349 14.8107 74.5097 11.9856C74.7867 11.6399 75.0735 11.1164 74.8361 10.0792C74.4899 8.57776 73.7679 8.34069 69.7326 8.37033C69.3666 8.37033 68.9908 8.37033 68.605 8.37033C65.3708 8.37033 52.7504 8.44935 48.0721 8.48886C48.2205 11.2349 48.3886 16.3319 47.7853 18.7915C47.5183 19.8978 46.3017 20.6485 44.1851 21.014C41.0795 21.5572 38.4683 20.7374 37.1925 18.8211C36.1737 17.2999 35.5704 14.5242 35.333 10.3261C35.2539 8.90373 35.2341 7.57022 35.2341 6.57256V6.56268Z" fill="#2F2E45"/>
<path d="M19.8838 20.4016H23.2169C23.2169 35.969 29.3788 37.263 35.689 37.263V40.5919C29.3293 40.5919 26.5797 38.7645 24.8983 37.1741C21.5256 33.9836 19.8838 28.4915 19.8838 20.4016Z" fill="#2F2E45"/>
<path d="M33.5328 41.7476L33.3548 43.7231C33.2954 44.3948 33.1866 45.0764 33.1767 45.7481C33.1767 45.8172 33.1767 45.8074 33.1767 45.7283V45.7876C33.2361 45.6394 33.2559 45.6296 33.3746 45.5604H33.3152C33.3943 45.5604 33.4042 45.5604 33.3548 45.5604C33.2756 45.5604 33.2064 45.5604 33.1273 45.5604C32.8009 45.5604 32.4646 45.5703 32.1382 45.5703C31.4657 45.5703 30.7931 45.5703 30.1205 45.5703C29.7447 45.5703 29.3985 45.8963 29.4084 46.2815C29.4183 46.6667 29.7249 46.9828 30.1205 46.9927C30.8722 46.9927 31.614 46.9927 32.3657 46.9927C33.1174 46.9927 34.1361 47.1211 34.4823 46.3012C34.6307 45.9555 34.6109 45.5308 34.6504 45.1554L34.7493 44.0293L34.9571 41.7377C34.9867 41.3722 34.6109 41.0166 34.2449 41.0265C33.8295 41.0462 33.5724 41.3426 33.5328 41.7377V41.7476Z" fill="#9E93FB"/>
<path d="M41.6135 42.5772C41.6233 43.1205 41.6332 43.6638 41.6431 44.217C41.6431 44.5034 41.6431 44.7899 41.6431 45.0665C41.6431 45.3233 41.6036 45.6196 41.6431 45.8764C41.6431 45.9357 41.6431 45.916 41.653 45.8172L41.8706 45.5505C41.8706 45.5505 42.1278 45.511 42.0091 45.5011C41.8805 45.4912 41.7519 45.4912 41.6333 45.4813C41.3563 45.4616 41.0893 45.4517 40.8123 45.4319C40.2584 45.4023 39.6947 45.3628 39.1408 45.3332C38.765 45.3134 38.4188 45.6789 38.4287 46.0444C38.4485 46.4494 38.7452 46.7259 39.1408 46.7556C39.754 46.7951 40.3771 46.8346 40.9903 46.8642C41.6036 46.8939 42.5333 47.1112 42.919 46.4395C43.1069 46.1234 43.0674 45.7382 43.0674 45.3826C43.0674 45.0763 43.0674 44.7701 43.0674 44.454C43.0674 43.8219 43.0575 43.1996 43.0377 42.5674C43.0377 42.192 42.7212 41.8364 42.3256 41.8562C41.93 41.8759 41.6036 42.1723 41.6135 42.5674V42.5772Z" fill="#9E93FB"/>
<path d="M33.2261 4.6167C25.6203 4.48829 18.0243 5.18961 10.5667 6.68117C9.99309 6.7997 9.84472 7.72822 10.3986 7.97517C12.5844 8.96295 14.6713 10.1088 16.6692 11.4225V10.1977C14.5329 11.6794 12.3174 13.0524 10.0326 14.297C9.50844 14.5834 9.60736 15.4626 10.2008 15.591C12.0306 15.996 13.89 16.2429 15.7593 16.2824C16.2242 16.2824 16.6989 16.2824 17.1638 16.2824C17.3814 16.2824 18.232 16.1046 18.4001 16.2232C18.5682 16.3417 18.6276 17.211 18.677 17.4381C18.7858 17.9715 18.8847 18.5148 18.9935 19.0482C19.1716 19.9471 20.5365 19.5619 20.3584 18.6729C20.1606 17.6851 20.1211 16.4504 19.7057 15.5317C19.3397 14.702 18.5287 14.7909 17.7572 14.8304C15.3439 14.9687 12.9306 14.7514 10.5667 14.2278L10.7349 15.5218C13.0196 14.2674 15.2351 12.9042 17.3715 11.4225C17.8166 11.1163 17.8364 10.5039 17.3715 10.1977C15.3736 8.88393 13.2866 7.72822 11.1008 6.75032L10.9327 8.04431C18.2715 6.57251 25.729 5.90082 33.2063 6.02923C34.1163 6.04899 34.1163 4.62658 33.2063 4.60682L33.2261 4.6167Z" fill="#9E93FB"/>
<path d="M21.9016 10.0792C22.0005 12.4598 23.8896 14.3958 26.293 14.4946C26.8568 14.5144 27.4601 14.4353 27.9744 14.1785C28.5283 13.9118 28.8843 13.4179 29.1811 12.9043C29.8141 11.8177 30.3679 10.6422 30.091 9.35812C29.8932 8.46911 28.5283 8.84447 28.7261 9.73348C28.9041 10.5632 28.4096 11.393 28.014 12.0943C27.8261 12.4301 27.6382 12.8055 27.2623 12.9537C26.926 13.0821 26.5403 13.0919 26.1842 13.0623C24.6215 12.9537 23.3852 11.6201 23.3258 10.0693C23.2863 9.16057 21.8719 9.15069 21.9016 10.0693V10.0792Z" fill="#9E93FB"/>
<path d="M8.14369 9.64454C7.72829 9.6643 7.32277 9.6643 6.90737 9.64454C6.5612 9.62479 6.07656 9.64454 5.74028 9.51613C5.57214 9.45686 5.62159 9.51613 5.55236 9.40747C5.47323 9.28894 5.48313 9.06175 5.49302 8.93334C5.5128 8.69627 5.5919 8.46908 5.72048 8.2814C6.06665 7.77763 6.72935 7.61958 7.04585 7.06642C7.43159 6.40461 7.15465 5.63414 6.61066 5.15012C6.03701 4.64635 5.30509 4.42904 4.62264 4.1327C4.11822 3.91539 3.4061 3.54991 3.32697 2.92761C3.25774 2.36457 3.95008 2.16701 4.37537 2.05836C5.11717 1.8608 5.78973 1.69287 6.38317 1.17923C7.07551 0.586556 6.07655 -0.411107 5.38421 0.181564C4.80066 0.675456 3.87094 0.655702 3.18849 0.981671C2.50604 1.30764 1.9225 1.9497 1.90272 2.75968C1.88294 3.56967 2.3379 4.29075 2.94122 4.78464C3.61378 5.32792 4.4644 5.52548 5.21608 5.91072C5.37433 5.98974 5.54246 6.07864 5.67104 6.19717C5.74028 6.24656 5.77985 6.30583 5.80952 6.37497C5.82931 6.32558 5.80953 6.32558 5.77985 6.38485C5.63149 6.64168 5.16661 6.8096 4.94902 7.00715C4.38525 7.5208 4.05888 8.30115 4.06877 9.06175C4.08855 9.92112 4.48417 10.6718 5.36443 10.8793C6.2447 11.0867 7.23376 11.1065 8.14369 11.0571C9.05363 11.0077 9.05363 9.59515 8.14369 9.63466V9.64454Z" fill="#9E93FB"/>
<path d="M0.112445 8.12336C-0.12493 9.15066 0.0135216 10.2372 0.527833 11.1559C1.04215 12.0745 1.97189 12.8351 3.05986 12.7956C3.42581 12.7857 3.79176 12.4795 3.77198 12.0844C3.7522 11.709 3.45548 11.3633 3.05986 11.3732C3.0104 11.3732 2.96093 11.3732 2.91147 11.3732C2.89169 11.3732 2.87191 11.3732 2.85213 11.3732C2.80268 11.3732 2.81259 11.3732 2.9016 11.3732C2.87193 11.4028 2.6939 11.3238 2.65434 11.304C2.5851 11.2843 2.55541 11.2546 2.63454 11.304C2.59498 11.2843 2.54552 11.2645 2.50596 11.2349C2.42683 11.1954 2.35763 11.146 2.28839 11.0966C2.40708 11.1756 2.28837 11.0966 2.26859 11.0768C2.22903 11.0472 2.19937 11.0077 2.15981 10.9781C2.09057 10.9089 2.02133 10.8398 1.96198 10.7607C1.91253 10.7114 1.93231 10.7114 1.96198 10.7607C1.93231 10.7212 1.90264 10.6817 1.87297 10.6323C1.81363 10.5434 1.76417 10.4644 1.71472 10.3755C1.67516 10.2965 1.6356 10.2175 1.59604 10.1286C1.6356 10.2175 1.60593 10.1582 1.59604 10.0989C1.57626 10.0495 1.56638 10.0002 1.5466 9.96064C1.51692 9.87174 1.49714 9.78284 1.47735 9.69394C1.46746 9.64455 1.45757 9.59516 1.44768 9.54577C1.44768 9.52601 1.41799 9.35809 1.42788 9.45687C1.43777 9.55565 1.42788 9.36797 1.42788 9.36797C1.42788 9.32845 1.42788 9.28894 1.42788 9.24943C1.42788 9.15065 1.42788 9.05187 1.42788 8.94322C1.42788 8.89383 1.42788 8.84444 1.42788 8.79505C1.42788 8.76542 1.44766 8.61725 1.42788 8.7753C1.44766 8.67652 1.46744 8.57774 1.48722 8.47896C1.57624 8.12336 1.37843 7.69861 0.992693 7.60971C0.626741 7.53069 0.21136 7.71837 0.122345 8.1036L0.112445 8.12336Z" fill="#9E93FB"/>
</svg>
