<svg width="67" height="68" viewBox="0 0 67 68" fill="none" xmlns="http://www.w3.org/2000/svg">
<g clip-path="url(#clip0_1165_250)">
<path d="M11.2155 45.3091C13.5055 41.5091 15.9055 37.7691 18.4055 34.1091C19.0255 33.1891 19.6655 32.2791 20.2955 31.3691C20.6155 30.9091 21.1955 30.3391 21.3955 29.8191C21.8255 29.3791 21.7655 29.2991 21.2055 29.5991L21.6055 29.8091C21.9655 30.1691 22.7555 30.3991 23.2055 30.6391C23.6055 30.8491 24.0055 31.0591 24.3955 31.2791C25.3855 31.8191 26.3555 32.3891 27.3055 32.9991C30.4555 35.0291 33.5355 37.7891 34.8055 41.4291C35.0855 42.2491 35.3855 42.9991 34.3755 43.2991C33.3655 43.5991 32.3655 43.4191 31.4355 43.0891C29.4655 42.3791 27.9655 40.7891 26.5155 39.3491C25.1455 37.9791 23.0255 40.0991 24.3955 41.4691C27.1755 44.2491 30.7055 47.2791 34.9655 46.2491C39.7355 45.0991 37.8655 39.9891 35.9455 37.1091C33.6855 33.7191 30.3855 31.2491 26.8955 29.2491C25.9855 28.7291 25.0555 28.2291 24.1255 27.7391C23.2955 27.2991 22.3455 26.6291 21.3755 26.5791C19.3555 26.4791 18.1355 29.2491 17.1655 30.6391C14.1755 34.9291 11.3355 39.3291 8.63549 43.7991C7.63549 45.4591 10.2255 46.9691 11.2255 45.3091H11.2155Z" fill="#9E93FB"/>
<path d="M23.1055 28.6392C25.7855 25.1392 28.5455 21.7092 31.3655 18.3192C34.1855 14.9292 36.8255 11.6992 39.8455 8.67922C41.1855 7.32922 42.6255 6.08922 44.2955 5.14922C45.7255 4.33922 48.1355 3.22922 49.5855 4.59922C51.0355 5.96921 48.8755 8.03922 47.9555 9.06922C46.5855 10.5892 45.2655 12.1492 43.9855 13.7492C41.0255 17.4592 38.3055 21.3592 35.8655 25.4392C35.0755 26.7492 36.6255 28.2092 37.9155 27.4892C45.3255 23.3392 52.7355 19.1792 60.1555 15.0492C61.2255 14.4592 63.1855 13.2092 63.6455 15.0092C63.9955 16.3792 63.5655 17.7492 62.6755 18.8092C61.7855 19.8692 60.5155 20.7492 59.3855 21.5892C57.9655 22.6392 56.5155 23.6492 55.0455 24.6292C52.3755 26.3992 49.6355 28.0692 46.8555 29.6692C45.1855 30.6292 46.6955 33.2292 48.3655 32.2592C51.2655 30.5892 54.1155 28.8392 56.8955 26.9792C58.6555 25.7992 60.3755 24.5792 62.0555 23.2892C63.3755 22.2692 64.6855 21.2592 65.6155 19.8392C67.2755 17.3192 67.4255 12.1092 63.7955 11.1692C61.6355 10.6092 59.5755 11.9192 57.7755 12.9292C55.6155 14.1392 53.4555 15.3392 51.2955 16.5492C46.3255 19.3292 41.3655 22.0992 36.3955 24.8792L38.4455 26.9292C40.9955 22.6892 43.8155 18.6192 46.9555 14.7892C48.4455 12.9792 50.1255 11.2992 51.5355 9.42922C52.8155 7.74922 53.6355 5.53922 52.5255 3.53922C50.1355 -0.770782 44.4555 1.24922 41.3455 3.42922C37.4555 6.15922 34.4355 10.0392 31.3755 13.6192C27.6255 18.0092 24.0055 22.5092 20.4855 27.0892C19.3155 28.6192 21.9155 30.1192 23.0755 28.5992L23.1055 28.6392Z" fill="#9E93FB"/>
<path d="M44.9354 32.8193C46.4254 36.3993 47.9154 39.9793 49.4054 43.5593C50.0054 44.9993 51.0954 46.7593 51.1154 48.3593C51.1354 49.7293 49.9054 50.6593 48.8054 51.2393C47.9254 51.6993 46.0154 52.5293 45.6954 51.0693C45.4754 50.0793 45.8154 49.0193 46.2954 48.1693C47.2254 46.5293 48.7254 45.2193 50.2854 44.1893L48.4654 41.8293C47.0254 43.0993 44.7254 45.0393 42.6354 44.9293C42.1354 44.8993 42.0554 44.7993 41.9854 44.2093C41.8854 43.3493 42.0854 42.4293 42.2954 41.5993C43.2154 37.8493 45.2954 34.6093 48.3754 32.2593C49.0254 31.7593 49.3454 30.9693 48.9154 30.2093C48.5554 29.5693 47.5054 29.1793 46.8654 29.6693C42.6654 32.8793 39.6754 37.4493 39.0554 42.7693C38.7754 45.1993 39.6254 47.7893 42.4354 47.9293C45.4854 48.0793 48.4454 45.8493 50.5954 43.9493C51.8654 42.8293 50.2054 40.6493 48.7754 41.5893C47.0454 42.7293 45.4454 44.1193 44.2354 45.8193C42.7854 47.8493 41.8754 51.0293 43.4254 53.2693C45.3754 56.0893 49.4854 54.6393 51.6754 52.9293C52.8054 52.0493 53.7354 50.8493 54.0054 49.4093C54.3554 47.6093 53.6254 45.9593 52.9554 44.3393C51.2454 40.2293 49.5354 36.1193 47.8254 31.9993C47.5154 31.2493 46.8354 30.7293 45.9754 30.9493C45.2654 31.1393 44.6154 32.0493 44.9254 32.7993L44.9354 32.8193Z" fill="#9E93FB"/>
<path d="M42.9355 52.3891C38.0355 55.1491 32.6555 56.9991 27.0755 57.7691C25.7355 57.9491 24.3955 58.0691 23.0455 58.1291C21.6955 58.1891 20.2455 57.9891 18.9755 58.3991C17.8355 58.7691 16.8855 59.6691 15.9455 60.3691C14.6855 61.3091 13.4255 62.2492 12.1555 63.1792C10.6255 64.3192 12.1155 66.9191 13.6655 65.7691C14.8655 64.8791 16.0655 63.9891 17.2655 63.0991C18.1655 62.4291 19.2455 61.2791 20.3955 61.1691C21.7855 61.0391 23.2055 61.1291 24.5955 61.0291C25.9855 60.9291 27.3855 60.7491 28.7655 60.5191C34.2655 59.6291 39.5755 57.7091 44.4355 54.9691C46.1155 54.0191 44.6055 51.4291 42.9255 52.3791L42.9355 52.3891Z" fill="#9E93FB"/>
<path d="M9.68553 45.5592C18.7255 48.3592 27.4255 52.1093 35.6655 56.7593C37.3455 57.7093 38.8655 55.1193 37.1755 54.1693C28.7155 49.3993 19.7555 45.5392 10.4755 42.6592C8.62554 42.0892 7.83553 44.9793 9.67553 45.5493L9.68553 45.5592Z" fill="#9E93FB"/>
<path d="M9.95549 42.5392C6.94549 45.0792 3.8655 47.5492 0.725495 49.9392C-0.144505 50.5992 -0.334505 51.9092 0.725495 52.5292C6.1055 55.6692 11.4755 58.8192 16.8555 61.9592C18.5255 62.9392 20.0355 60.3392 18.3655 59.3692C12.9855 56.2292 7.61549 53.0792 2.23549 49.9392V52.5292C5.57549 49.9892 8.86549 47.3692 12.0755 44.6592C12.6955 44.1392 12.6155 43.0792 12.0755 42.5392C11.4655 41.9292 10.5755 42.0192 9.95549 42.5392Z" fill="#9E93FB"/>
<path d="M6.95549 48.9191C13.4055 52.4291 19.8555 55.9392 26.3055 59.4592C28.0055 60.3792 29.5155 57.7891 27.8155 56.8691C21.3655 53.3591 14.9155 49.8492 8.46548 46.3292C6.76548 45.4092 5.25549 47.9991 6.95549 48.9191Z" fill="#9E93FB"/>
<path d="M30.2556 18.1291C31.6656 20.0391 31.9956 22.4691 33.2256 24.4791C34.1456 25.9891 35.1556 27.3291 35.8356 28.9691C37.5156 33.0391 38.4156 37.4691 38.9756 41.8191C39.0756 42.6291 39.5956 43.3091 40.4756 43.3191C41.2056 43.3191 42.0756 42.6191 41.9756 41.8191C41.3756 37.1791 40.4956 32.5191 38.7256 28.1691C38.0356 26.4691 37.1856 25.0491 36.1756 23.5191C34.7456 21.3591 34.3857 18.6891 32.8457 16.6091C31.7157 15.0691 29.1056 16.5691 30.2556 18.1191V18.1291Z" fill="#9E93FB"/>
<path d="M24.7155 23.029C26.1455 26.619 27.5655 30.199 28.9955 33.789C29.2955 34.539 29.9955 35.069 30.8455 34.839C31.5655 34.639 32.1955 33.749 31.8955 32.989C30.4655 29.399 29.0455 25.819 27.6155 22.229C27.3155 21.479 26.6155 20.949 25.7655 21.179C25.0455 21.379 24.4155 22.269 24.7155 23.029Z" fill="#9E93FB"/>
<path d="M32.0556 46.0191C32.0056 47.6791 32.8456 49.2491 33.4656 50.7491C34.0856 52.2491 34.7756 53.8791 35.4556 55.4391C35.7656 56.1591 36.8856 56.3791 37.5056 55.9791C38.2556 55.4991 38.3756 54.6991 38.0456 53.9291C37.4256 52.4991 36.9356 51.3491 36.3656 49.9591C36.0856 49.2891 35.8156 48.6191 35.5456 47.9491C35.4056 47.5991 35.2656 47.2491 35.1656 46.8891C35.1256 46.7391 35.0856 46.5791 35.0556 46.4191C35.0756 46.5591 35.0756 46.5291 35.0556 46.3491C35.0556 46.2391 35.0556 46.1391 35.0556 46.0291C35.0756 45.2391 34.3456 44.4891 33.5556 44.5291C32.7256 44.5691 32.0856 45.1891 32.0556 46.0291V46.0191Z" fill="#9E93FB"/>
</g>
<defs>
<clipPath id="clip0_1165_250">
<rect width="66.7399" height="67.0563" fill="white"/>
</clipPath>
</defs>
</svg>
