<svg width="103" height="99" viewBox="0 0 103 99" fill="none" xmlns="http://www.w3.org/2000/svg">
<g clip-path="url(#clip0_801_2160)">
<path d="M70.5425 51.0478C71.5119 45.4467 71.0935 38.9055 67.7975 34.0446C66.2975 31.8241 63.8994 29.7538 61.0014 30.0238C58.5625 30.2438 56.6748 31.9242 55.2972 33.7945C52.0318 38.2254 51.5522 44.7066 52.3175 49.9476C52.991 54.6084 55.7972 62.0398 61.6749 61.9998C67.1036 61.9698 69.7363 55.3586 70.5425 51.0578C70.8894 49.1674 67.9403 48.3573 67.5934 50.2576C67.0424 53.1982 65.8689 57.409 62.7668 58.7592C61.1035 59.4794 59.3993 58.3992 58.3993 57.1089C56.9605 55.2586 56.0727 53.0682 55.5727 50.8077C54.6543 46.6569 54.8175 41.406 56.6543 37.4952C57.4094 35.8949 58.5523 34.0946 60.236 33.3044C62.1443 32.4143 63.8586 33.8245 64.9504 35.2848C68.0117 39.3856 68.4199 45.4067 67.5832 50.2676C67.2566 52.158 70.2057 52.9681 70.5322 51.0678L70.5425 51.0478Z" fill="#9E93FB"/>
<path d="M76.4431 53.2059L76.534 53.2257C77.5955 53.4443 78.3233 52.7786 78.4547 51.7849C79.6476 42.9414 79.3342 31.7627 72.8444 24.7872C69.6298 21.3392 64.7674 19.4811 60.0466 20.127C56.3569 20.6337 52.9401 22.3031 50.3119 24.8965C44.7318 30.3915 42.9122 38.8177 43.0032 46.3397C43.0942 53.7921 44.9744 61.9699 49.9985 67.7629C52.8694 71.0718 57.0949 73.2877 61.6034 72.9697C67.9012 72.5226 72.7331 68.0909 75.3513 62.6854C76.1095 61.1253 76.716 59.5056 77.2114 57.8562C77.3832 57.2699 77.1103 56.4452 76.5139 56.1769L76.4835 56.157C74.7246 55.3522 73.188 57.9158 74.9571 58.7306L74.9874 58.7505L74.2899 57.0712C72.7028 62.3574 69.5489 67.9319 63.8071 69.5913C59.7232 70.7638 55.71 69.3627 52.8593 66.4612C48.2497 61.7712 46.4604 54.6069 46.0965 48.2773C45.7023 41.5999 46.7839 34.1674 50.9689 28.6824C52.7885 26.2976 55.2955 24.4395 58.2068 23.565C61.9774 22.4323 65.9502 23.0285 69.1041 25.4431C72.7635 28.2452 74.4415 32.816 75.2704 37.1483C76.1903 41.9576 76.069 46.9657 75.4221 51.7949L77.3427 50.3541L77.2518 50.3342C75.3513 49.9367 74.5325 52.8084 76.4431 53.2059Z" fill="#9E93FB"/>
<path d="M73.7627 74.8964C69.5722 78.0237 64.6097 80.4417 59.2563 79.9521C54.8552 79.5524 51.0056 77.0346 48.0682 73.8673C40.8802 66.1039 37.9328 54.5038 38.0531 44.1626C38.1133 38.8272 39.0355 33.3518 41.3313 28.496C43.9479 22.9607 48.4191 18.0649 53.9029 15.2573C58.9555 12.6695 64.9906 12.1699 70.2739 14.408C76.0484 16.8559 80.1086 22.1214 82.2139 27.8865C84.8204 35.0004 85.452 42.9636 84.7202 50.4672C83.9883 57.9409 81.6424 65.6843 76.8504 71.6092C75.8278 72.8781 74.685 74.0671 73.4519 75.1362C71.9882 76.4051 74.1236 78.5233 75.5772 77.2544C81.6023 72.0089 85.1412 64.3754 86.7753 56.6819C88.4896 48.6088 88.3994 40.0861 86.5347 32.0429C84.9006 24.969 81.5522 18.2647 75.5271 13.9484C70.4042 10.2815 63.8478 9.14248 57.7425 10.6412C50.785 12.3497 45.0205 17.2156 41.0105 23.0007C37.7022 27.7766 36.028 33.4817 35.3463 39.1968C33.9829 50.687 36.6295 63.686 43.5669 73.1079C46.5745 77.2044 50.5344 80.7114 55.4768 82.2401C60.75 83.8687 66.314 82.7397 71.096 80.1819C72.5596 79.4026 73.9431 78.4833 75.2764 77.4842C76.8103 76.3352 75.3066 73.7374 73.7627 74.8964Z" fill="#9E93FB"/>
<path d="M57.2181 43.1876C59.212 45.8859 61.2059 48.5842 63.1998 51.2728C63.6584 51.8918 64.5258 52.2496 65.2436 51.795C65.8716 51.3985 66.2704 50.4701 65.7819 49.8124C63.788 47.1141 61.7941 44.4158 59.8002 41.7272C59.3416 41.1082 58.4743 40.7504 57.7565 41.205C57.1284 41.6015 56.7296 42.5299 57.2181 43.1876Z" fill="#9E93FB"/>
<path d="M62.9617 41.1012C62.4138 42.7924 61.4731 44.2823 60.4599 45.8124C59.3745 47.4532 58.2993 49.0941 57.2139 50.7349C56.759 51.4194 57.0692 52.4059 57.7721 52.7985C58.5268 53.2213 59.4365 52.9495 59.8914 52.255C61.0079 50.5638 62.1243 48.8625 63.2408 47.1714C64.3573 45.4802 65.3187 43.8192 65.939 41.9066C66.1871 41.1516 65.6495 40.2254 64.8535 40.0442C64.0058 39.853 63.2098 40.2959 62.941 41.1012H62.9617Z" fill="#9E93FB"/>
<path d="M57.7573 99C57.0565 99 56.3557 98.99 55.6749 98.9601C54.8439 98.9302 54.2032 98.2324 54.2332 97.405C54.2633 96.5776 54.924 95.9496 55.795 95.9696C56.7462 96.0094 57.7173 96.0194 58.7184 95.9995H58.7485C59.5695 95.9995 60.2302 96.6474 60.2502 97.4648C60.2603 98.2922 59.6095 98.9701 58.7785 98.99C58.4381 98.99 58.1077 98.99 57.7673 98.99L57.7573 99ZM64.7154 98.5215C63.9745 98.5215 63.3338 97.9832 63.2337 97.2356C63.1136 96.4181 63.6942 95.6605 64.5152 95.5409C65.4763 95.4014 66.4374 95.2419 67.3785 95.0425C68.1795 94.873 68.9804 95.3914 69.1506 96.1988C69.3208 97.0063 68.8002 97.8038 67.9892 97.9732C66.9881 98.1826 65.9669 98.362 64.9357 98.5016C64.8656 98.5016 64.7955 98.5115 64.7254 98.5115L64.7154 98.5215ZM49.758 98.4218C49.6879 98.4218 49.6179 98.4218 49.5478 98.4019C48.5366 98.2623 47.5154 98.0829 46.5142 97.8935C45.7033 97.734 45.1726 96.9465 45.3228 96.139C45.483 95.3316 46.284 94.8032 47.0849 94.9627C48.046 95.1521 49.0071 95.3116 49.9682 95.4512C50.7892 95.5708 51.3599 96.3284 51.2397 97.1459C51.1296 97.8935 50.4888 98.4318 49.758 98.4318V98.4218ZM40.9577 96.468C40.8076 96.468 40.6574 96.4481 40.5172 96.3982C39.6863 96.139 39.0955 95.9397 38.7952 95.83C38.3847 95.6805 37.9843 95.5309 37.5838 95.3714C36.8129 95.0724 36.4324 94.2051 36.7328 93.4376C37.0331 92.67 37.9142 92.2912 38.6751 92.5902C39.0555 92.7398 39.4259 92.8793 39.8164 93.0189C40.0967 93.1186 40.6474 93.308 41.4083 93.5472C42.1992 93.7964 42.6397 94.6338 42.3994 95.4213C42.1992 96.0593 41.6085 96.478 40.9678 96.478L40.9577 96.468ZM73.4556 96.3783C72.8449 96.3783 72.2642 95.9995 72.044 95.3914C71.7636 94.6138 72.1641 93.7565 72.945 93.4774C73.8561 93.1485 74.7571 92.7896 75.6281 92.4008C76.379 92.0619 77.27 92.4008 77.6104 93.1485C77.9508 93.9061 77.6104 94.7833 76.8495 95.1222C75.9084 95.5409 74.9373 95.9297 73.9662 96.2886C73.796 96.3484 73.6258 96.3783 73.4556 96.3783ZM32.6981 92.9391C32.4478 92.9391 32.2075 92.8793 31.9773 92.7497C31.0862 92.2613 30.1852 91.7329 29.3142 91.1747C28.6134 90.7361 28.4031 89.809 28.8536 89.1112C29.3041 88.4134 30.2252 88.2041 30.926 88.6527C31.747 89.171 32.588 89.6694 33.429 90.128C34.1598 90.5267 34.4201 91.4339 34.0197 92.1616C33.7494 92.66 33.2288 92.9391 32.7081 92.9391H32.6981ZM81.515 92.4108C81.0244 92.4108 80.5339 92.1715 80.2535 91.723C79.803 91.0252 80.0033 90.1081 80.7041 89.6595C81.495 89.1511 82.2659 88.6228 83.0067 88.0645L83.0968 87.9947C83.7676 87.5163 84.7087 87.6658 85.1893 88.3337C85.6698 89.0016 85.5196 89.9386 84.8488 90.4171C84.0079 91.0451 83.1769 91.6233 82.326 92.1715C82.0757 92.331 81.7953 92.4108 81.515 92.4108ZM25.2494 87.905C24.9191 87.905 24.5787 87.7954 24.2983 87.5661C23.5074 86.9281 22.7265 86.2502 21.9656 85.5524C21.3549 84.9942 21.3149 84.0472 21.8755 83.4391C22.4362 82.831 23.3873 82.7912 23.998 83.3494C24.7188 84.0073 25.4597 84.6453 26.2006 85.2534C26.8413 85.7718 26.9414 86.7188 26.4108 87.3568C26.1104 87.7156 25.6799 87.905 25.2494 87.905ZM88.4831 86.7586C88.1026 86.7586 87.7222 86.6191 87.4319 86.33C86.8412 85.7518 86.8312 84.8048 87.4119 84.2167C88.0827 83.5388 88.7334 82.8211 89.3541 82.0834C89.8847 81.4554 90.8359 81.3657 91.4666 81.904C92.0973 82.4323 92.1874 83.3793 91.6468 84.0073C90.976 84.7948 90.2752 85.5724 89.5543 86.3001C89.264 86.5991 88.8735 86.7487 88.4831 86.7487V86.7586ZM18.7719 81.6847C18.3514 81.6847 17.941 81.5152 17.6406 81.1763C16.9698 80.4186 16.309 79.6212 15.6683 78.8237C15.1577 78.1757 15.2578 77.2387 15.9085 76.7203C16.5593 76.2119 17.5004 76.3116 18.021 76.9596C18.6317 77.7172 19.2624 78.4748 19.9032 79.1925C20.4538 79.8106 20.3938 80.7576 19.773 81.3059C19.4827 81.5551 19.1323 81.6747 18.7819 81.6747L18.7719 81.6847ZM94.0196 79.7009C93.7493 79.7009 93.479 79.6311 93.2287 79.4716C92.5278 79.033 92.3075 78.1159 92.7481 77.4181C93.2486 76.6107 93.7292 75.7733 94.1897 74.916C94.5802 74.1883 95.4913 73.9092 96.2221 74.298C96.953 74.6867 97.2333 75.5939 96.8429 76.3216C96.3523 77.2387 95.8316 78.1458 95.301 79.0031C95.0207 79.4617 94.5302 79.7109 94.0196 79.7109V79.7009ZM13.3456 74.5272C12.855 74.5272 12.3744 74.288 12.0841 73.8394C11.5334 72.9921 10.9928 72.1149 10.4722 71.2376C10.0517 70.5299 10.292 69.6128 11.0128 69.1941C11.7237 68.7754 12.6448 69.0146 13.0653 69.7324C13.5558 70.5697 14.0764 71.4071 14.607 72.2245C15.0576 72.9223 14.8573 73.8394 14.1565 74.288C13.9062 74.4475 13.6259 74.5272 13.3456 74.5272ZM97.9742 71.6563C97.794 71.6563 97.6237 71.6264 97.4435 71.5566C96.6626 71.2675 96.2722 70.4003 96.5625 69.6327C96.9029 68.7355 97.2233 67.8084 97.5036 66.8913C97.7439 66.1038 98.5849 65.6652 99.3858 65.9045C100.177 66.1437 100.617 66.9811 100.377 67.7785C100.077 68.7654 99.7362 69.7423 99.3758 70.6894C99.1455 71.2875 98.5749 71.6563 97.9742 71.6563ZM8.97047 66.692C8.40982 66.692 7.8692 66.373 7.6089 65.8347C7.1784 64.9176 6.75791 63.9905 6.35744 63.0435C6.03707 62.2859 6.39748 61.4087 7.15836 61.0797C7.91925 60.7607 8.80031 61.1196 9.13069 61.8772C9.51114 62.7843 9.91155 63.6715 10.332 64.5487C10.6825 65.2964 10.3721 66.1836 9.62125 66.5424C9.41101 66.6421 9.19074 66.692 8.98049 66.692H8.97047ZM100.407 63.0236C100.317 63.0236 100.217 63.0236 100.117 62.9937C99.3057 62.8342 98.7651 62.0566 98.9253 61.2392C99.1055 60.2922 99.2657 59.3252 99.4058 58.3583C99.526 57.5409 100.287 56.9627 101.098 57.0823C101.919 57.192 102.489 57.9496 102.379 58.767C102.239 59.7738 102.069 60.7906 101.879 61.7974C101.739 62.5152 101.108 63.0136 100.407 63.0136V63.0236ZM5.63657 58.3683C5.00584 58.3683 4.41517 57.9695 4.21493 57.3415C3.89456 56.3845 3.59424 55.4076 3.3039 54.4307C3.07363 53.6332 3.53412 52.8058 4.32505 52.5765C5.12598 52.3473 5.95699 52.8058 6.18726 53.5933C6.45758 54.5403 6.74791 55.4774 7.05827 56.3945C7.31857 57.182 6.88806 58.0293 6.10715 58.2885C5.94696 58.3383 5.78675 58.3683 5.63657 58.3683ZM25.4597 54.8294C25.3996 54.8294 25.3395 54.8294 25.2794 54.8195C24.1081 54.6799 23.0069 54.4307 22.0157 54.0718C21.2348 53.7927 20.8343 52.9354 21.1146 52.1579C21.395 51.3803 22.2659 50.9816 23.0368 51.2607C23.8077 51.5398 24.6788 51.7392 25.6199 51.8488C26.4408 51.9485 27.0315 52.6862 26.9414 53.5036C26.8513 54.2612 26.2006 54.8294 25.4497 54.8294H25.4597ZM101.448 54.1117C101.448 54.1117 101.398 54.1117 101.378 54.1117C100.547 54.0718 99.9064 53.374 99.9465 52.5466C99.9865 51.6993 100.007 50.8221 100.007 49.9349V49.6458C100.007 48.8184 100.667 48.1405 101.488 48.1405H101.498C102.319 48.1405 102.99 48.7985 103 49.6258V49.9448C103 50.8819 102.98 51.809 102.94 52.7061C102.9 53.5036 102.239 54.1316 101.438 54.1316L101.448 54.1117ZM18.031 50.4134C17.4904 50.4134 16.9598 50.1143 16.6995 49.6059C16.1288 48.4994 15.8485 47.4228 15.6082 46.4658C15.408 45.6683 15.8886 44.8509 16.6995 44.6516C17.5004 44.4522 18.3213 44.9307 18.5216 45.7381C18.7318 46.5755 18.9521 47.4427 19.3626 48.2402C19.743 48.9779 19.4527 49.8751 18.7118 50.2539C18.4915 50.3635 18.2513 50.4233 18.021 50.4233L18.031 50.4134ZM3.29388 49.7056C2.60307 49.7056 1.97231 49.2171 1.82213 48.5193C1.61189 47.5325 1.42166 46.5356 1.25146 45.5288C1.11129 44.7114 1.66197 43.9438 2.47291 43.8042C3.30388 43.6647 4.06475 44.2129 4.20491 45.0303C4.37511 45.9973 4.55531 46.9643 4.75554 47.9113C4.92574 48.7187 4.40516 49.5162 3.59421 49.6857C3.4941 49.7056 3.38397 49.7156 3.28385 49.7156L3.29388 49.7056ZM101.178 45.15C100.417 45.15 99.7662 44.5718 99.6861 43.8042C99.586 42.8472 99.4659 41.8703 99.3157 40.9034C99.1956 40.086 99.7562 39.3284 100.577 39.2087C101.408 39.0891 102.159 39.6473 102.289 40.4648C102.439 41.4816 102.57 42.4983 102.67 43.5052C102.75 44.3226 102.149 45.0603 101.328 45.15C101.278 45.15 101.228 45.15 101.178 45.15ZM16.3691 41.671C16.3691 41.671 16.3491 41.671 16.339 41.671C15.5081 41.651 14.8473 40.9732 14.8674 40.1458C14.8874 39.109 14.9775 38.0524 15.1277 36.9857C15.2478 36.1683 16.0087 35.6001 16.8297 35.7197C17.6506 35.8394 18.2212 36.597 18.1011 37.4144C17.9609 38.3614 17.8909 39.2984 17.8709 40.2056C17.8508 41.023 17.1801 41.671 16.3691 41.671ZM1.9323 40.8436C1.17142 40.8436 0.520609 40.2654 0.440516 39.4978C0.340399 38.491 0.260306 37.4842 0.190224 36.4674C0.140166 35.64 0.760913 34.9322 1.59188 34.8824C2.43286 34.8226 3.1337 35.4506 3.18376 36.278C3.24383 37.2649 3.32392 38.2418 3.42403 39.2087C3.50413 40.0261 2.9034 40.7638 2.08244 40.8436C2.03238 40.8436 1.98236 40.8436 1.9323 40.8436ZM99.6361 36.3079C98.9653 36.3079 98.3446 35.8493 98.1844 35.1715C97.9441 34.2245 97.6838 33.2775 97.4035 32.3603C97.1632 31.5728 97.6138 30.7355 98.4047 30.4962C99.2056 30.257 100.037 30.7056 100.277 31.4931C100.567 32.46 100.848 33.4569 101.098 34.4537C101.298 35.2512 100.807 36.0686 100.007 36.268C99.8864 36.2979 99.7663 36.3079 99.6461 36.3079H99.6361ZM18.0911 32.9086C17.9209 32.9086 17.7507 32.8787 17.5805 32.8189C16.7996 32.5398 16.3991 31.6825 16.6795 30.9049C17.0299 29.948 17.4303 28.971 17.8709 28.024C18.2213 27.2764 19.1023 26.9474 19.8632 27.2864C20.614 27.6353 20.9444 28.5225 20.604 29.2701C20.2036 30.1473 19.8332 31.0445 19.5128 31.9217C19.2925 32.5298 18.7118 32.9086 18.1011 32.9086H18.0911ZM1.50175 31.8918C0.670781 31.8918 0 31.214 0 30.3965C0 29.3897 0.020082 28.3729 0.0601286 27.3561C0.0901636 26.5288 0.770945 25.8808 1.61192 25.9107C2.44289 25.9406 3.09366 26.6384 3.06363 27.4558C3.02358 28.4427 3.01351 29.4196 3.0035 30.3965C3.0035 31.2239 2.33272 31.8918 1.50175 31.8918ZM96.7928 27.8047C96.2121 27.8047 95.6515 27.4658 95.4112 26.8976C95.0207 25.9905 94.6102 25.1132 94.1897 24.2659C93.8193 23.5282 94.1196 22.6311 94.8605 22.2622C95.6014 21.8934 96.5024 22.1924 96.8729 22.9301C97.3234 23.8273 97.7539 24.7643 98.1644 25.7213C98.4948 26.4789 98.1343 27.3561 97.3735 27.6851C97.1832 27.7649 96.983 27.8047 96.7828 27.8047H96.7928ZM22.1459 24.9139C21.8655 24.9139 21.5752 24.8341 21.3249 24.6746C20.6341 24.226 20.4339 23.299 20.8944 22.6012C21.4551 21.7439 22.0557 20.8965 22.6764 20.0691C23.177 19.4112 24.1181 19.2816 24.7789 19.7801C25.4396 20.2785 25.5698 21.2155 25.0692 21.8734C24.4886 22.641 23.9279 23.4385 23.3973 24.236C23.107 24.6746 22.6264 24.9139 22.1358 24.9139H22.1459ZM92.5178 19.9196C92.0373 19.9196 91.5567 19.6903 91.2664 19.2617C90.7257 18.4642 90.1551 17.6767 89.5644 16.9291C89.0538 16.2811 89.1739 15.3341 89.8247 14.8357C90.4754 14.3273 91.4265 14.4469 91.9371 15.0948C92.5679 15.9023 93.1786 16.7397 93.7593 17.5969C94.2198 18.2848 94.0396 19.2119 93.3488 19.6704C93.0885 19.8399 92.7981 19.9196 92.5178 19.9196ZM27.6723 17.8262C27.3218 17.8262 26.9715 17.7066 26.6911 17.4574C26.0704 16.9191 26.0003 15.9721 26.5409 15.3441C27.2518 14.5266 27.9326 13.789 28.6334 13.0812C29.2141 12.4931 30.1652 12.4731 30.7559 13.0513C31.3465 13.6295 31.3665 14.5765 30.7859 15.1646C30.1351 15.8325 29.4844 16.5303 28.8136 17.3079C28.5132 17.6468 28.1028 17.8262 27.6823 17.8262H27.6723ZM86.7211 13.0812C86.3507 13.0812 85.9802 12.9416 85.6899 12.6725C84.989 12.0146 84.2582 11.3866 83.5173 10.7884C82.8666 10.2701 82.7665 9.33303 83.2771 8.68508C83.7977 8.03712 84.7388 7.93744 85.3895 8.44583C86.2005 9.08382 86.9914 9.77165 87.7523 10.4894C88.353 11.0576 88.383 12.0046 87.8123 12.6027C87.522 12.9117 87.1216 13.0712 86.7211 13.0712V13.0812ZM34.1698 11.6258C33.7193 11.6258 33.2788 11.4264 32.9884 11.0476C32.4778 10.3997 32.598 9.45266 33.2488 8.94426C34.0697 8.30627 34.9207 7.69819 35.7717 7.12002C36.4625 6.66147 37.3936 6.8409 37.8542 7.52873C38.3147 8.21656 38.1344 9.14363 37.4436 9.60218C36.6527 10.1305 35.8618 10.6987 35.101 11.2968C34.8306 11.5062 34.5002 11.6158 34.1798 11.6158L34.1698 11.6258ZM79.4826 7.78791C79.2323 7.78791 78.982 7.7281 78.7518 7.59851C78.091 7.22968 77.4102 6.88078 76.7294 6.55181L76.1888 6.3026C75.4379 5.9537 75.1075 5.0665 75.4479 4.31886C75.7883 3.57122 76.6894 3.24226 77.4403 3.58119L78.021 3.85034C78.7718 4.20921 79.5026 4.58801 80.2235 4.98675C80.9443 5.3855 81.2046 6.3026 80.8042 7.02033C80.5238 7.50879 80.0132 7.78791 79.4926 7.78791H79.4826ZM41.8187 6.92065C41.2581 6.92065 40.7175 6.60166 40.4572 6.06336C40.1068 5.31572 40.4271 4.42852 41.178 4.06965C41.9789 3.69084 42.8099 3.33198 43.6409 3.01298C43.731 2.97311 43.8811 2.92327 44.0513 2.85349C44.8222 2.5644 45.6933 2.95317 45.9836 3.73072C46.274 4.50826 45.8835 5.36556 45.1026 5.65465L44.7421 5.7942C43.9612 6.10323 43.1903 6.43219 42.4495 6.78109C42.2392 6.88077 42.029 6.92065 41.8087 6.92065H41.8187ZM71.1729 4.39861C71.0428 4.39861 70.9126 4.37867 70.7725 4.34877C69.8514 4.09956 68.9103 3.88025 67.9592 3.70081C67.1482 3.54132 66.6076 2.76377 66.7678 1.94635C66.928 1.1389 67.7189 0.610568 68.5298 0.760096C69.551 0.959467 70.5723 1.18874 71.5634 1.46786C72.3643 1.68717 72.8349 2.50459 72.6146 3.30207C72.4344 3.96996 71.8237 4.39861 71.1629 4.39861H71.1729ZM50.3487 4.08959C49.6579 4.08959 49.0371 3.6111 48.887 2.9133C48.7068 2.10585 49.2274 1.30836 50.0383 1.12893C51.0395 0.909623 52.0707 0.720221 53.0819 0.560725C53.9128 0.431134 54.6637 0.989372 54.7939 1.80679C54.924 2.62421 54.3634 3.38182 53.5424 3.51141C52.5913 3.66094 51.6202 3.84037 50.6791 4.03974C50.569 4.05968 50.4588 4.07962 50.3587 4.07962L50.3487 4.08959ZM62.2826 3.03292C62.2826 3.03292 62.2425 3.03292 62.2125 3.03292C61.2213 2.99305 60.2502 2.98308 59.3091 3.00302C58.4782 3.03292 57.7873 2.375 57.7673 1.54761C57.7473 0.720221 58.4081 0.0323932 59.229 0.0124561C60.2402 -0.00748092 61.2714 -0.00748214 62.3326 0.0423605C63.1636 0.0822347 63.8043 0.780033 63.7643 1.59745C63.7242 2.4049 63.0635 3.02295 62.2625 3.02295L62.2826 3.03292Z" fill="#9E93FB"/>
<path d="M22.731 48.832C25.4985 50.3198 28.1757 51.9707 30.7527 53.7846C31.4044 54.2432 32.4473 53.9273 32.8082 53.2343C33.2093 52.4599 32.9587 51.6344 32.2668 51.1452C29.6898 49.3313 27.0126 47.6804 24.2451 46.1926C23.5532 45.8155 22.5805 45.9887 22.1895 46.7429C21.8184 47.446 21.9889 48.4345 22.731 48.832Z" fill="#9E93FB"/>
<path d="M31.1735 51.7602C29.2518 54.7765 27.2693 57.7514 25.2161 60.6745C24.7508 61.3378 25.0846 62.4366 25.7623 62.7994C26.5411 63.2244 27.3401 62.9445 27.8357 62.2396C29.8788 59.3062 31.8714 56.3417 33.7931 53.3254C34.228 52.6413 33.9448 51.5736 33.2469 51.2005C32.4884 50.7858 31.6388 51.0346 31.1735 51.7602Z" fill="#9E93FB"/>
</g>
<defs>
<clipPath id="clip0_801_2160">
<rect width="103" height="99" fill="white"/>
</clipPath>
</defs>
</svg>
