<svg width="100" height="100" viewBox="0 0 100 100" fill="none" xmlns="http://www.w3.org/2000/svg">
<path d="M72.2199 49.15C71.8499 46.82 72.2399 44.42 73.5199 42.33C73.9999 41.56 74.5799 40.88 75.2199 40.29C73.3499 37.73 71.07 35.44 69.01 33.07C67.64 34.28 66.42 35.7 65.42 37.32C62.7 41.72 61.98 46.82 63 51.63C66.12 51.06 69.2999 50.29 72.2199 49.14V49.15Z" fill="#2F2E45"/>
<path d="M28.9601 52.34C26.8501 54.55 23.7601 55.96 20.3001 55.96C17.5401 55.96 15.0001 55.06 13.0201 53.57C10.4101 54.93 7.63008 56.9 4.83008 58.98C8.67008 62.97 14.1901 65.47 20.3001 65.47C28.8101 65.47 36.1501 60.62 39.4501 53.67C35.9201 53.05 32.4001 52.63 28.9601 52.32V52.34Z" fill="#2F2E45"/>
<path d="M29.6701 50.26C30.8001 47.58 32.4201 45.05 34.9501 43.5C37.4801 41.95 40.2501 41.44 43.0301 41.04C49.4301 40.12 55.9801 40.34 62.3201 41.6C63.4501 41.82 63.9401 40.09 62.8001 39.86C55.8401 38.48 48.6801 38.3 41.6701 39.43C38.6301 39.92 35.5301 40.76 33.0201 42.63C30.5101 44.5 29.0801 47.03 27.9301 49.77C27.4801 50.84 29.2201 51.3 29.6701 50.25V50.26Z" fill="#9E93FB"/>
<path d="M84.0798 44.68C85.5498 44.81 87.0398 44.66 88.4598 44.28C89.3098 44.05 89.3198 42.78 88.4598 42.54C87.0998 42.17 85.6498 42.18 84.2998 42.57C83.7398 42.73 83.4699 43.38 83.7599 43.89C84.1499 44.57 84.9598 44.96 85.7298 44.89C86.6098 44.81 87.3299 44.33 87.6399 43.49C87.8499 42.91 87.3098 42.37 86.7698 42.35C86.5198 42.35 86.2798 42.33 86.0298 42.32C85.5598 42.3 85.1099 42.75 85.1299 43.22C85.1499 43.72 85.5298 44.1 86.0298 44.12C86.2798 44.12 86.5198 44.14 86.7698 44.15L85.8998 43.01C85.8498 43.16 85.9998 42.79 85.8998 42.99C85.8298 43.12 86.0499 42.83 85.9399 42.95C85.9099 42.98 85.8798 43.01 85.8498 43.04C85.7498 43.14 86.0498 42.91 85.8498 43.03C85.8098 43.05 85.7698 43.07 85.7398 43.09C85.9298 42.96 85.8798 43.03 85.7898 43.06C85.7298 43.08 85.6798 43.09 85.6198 43.1C85.4698 43.14 85.8498 43.09 85.6798 43.1C85.6398 43.1 85.5898 43.1 85.5498 43.1C85.5098 43.1 85.3098 43.08 85.4898 43.1C85.6698 43.12 85.4799 43.1 85.4399 43.08C85.3999 43.07 85.3599 43.05 85.3199 43.04C85.5499 43.09 85.4498 43.1 85.3598 43.04C85.3398 43.03 85.3198 43.02 85.3098 43.01C85.2398 42.96 85.2599 42.98 85.3899 43.07C85.3799 43.05 85.3198 42.99 85.2998 42.98C85.3898 43.11 85.4098 43.13 85.3598 43.06C85.3398 43.04 85.3298 43.01 85.3098 42.98L84.7698 44.3C85.0498 44.22 85.3698 44.11 85.6598 44.1C85.4998 44.1 85.6398 44.1 85.7198 44.1C85.7798 44.1 85.8498 44.09 85.9098 44.08C86.0598 44.07 86.2098 44.06 86.3698 44.06C86.6398 44.06 86.9798 44.04 87.2398 44.11C87.0298 44.06 87.2698 44.11 87.2998 44.12C87.3798 44.13 87.4498 44.15 87.5198 44.16C87.6698 44.19 87.8198 44.23 87.9598 44.27V42.53C87.6298 42.62 87.2998 42.7 86.9598 42.76C86.8798 42.77 86.7998 42.79 86.7298 42.8C86.6998 42.8 86.4198 42.84 86.5398 42.83C86.6598 42.82 86.3698 42.85 86.3498 42.85C86.2698 42.85 86.1898 42.87 86.1098 42.87C85.4298 42.93 84.7398 42.92 84.0598 42.87C83.5898 42.83 83.1398 43.31 83.1598 43.77C83.1798 44.29 83.5598 44.63 84.0598 44.67L84.0798 44.68Z" fill="#9E93FB"/>
<path d="M75.1701 42.59C75.3001 42.92 75.4701 43.23 75.7501 43.45C76.0301 43.67 76.3301 43.85 76.6801 43.93C77.3001 44.07 78.0101 44.01 78.5501 43.65C78.7001 43.55 78.8501 43.43 78.9701 43.3C79.1601 43.08 79.2601 42.89 79.3701 42.62C79.4501 42.42 79.3801 42.11 79.2801 41.93C79.1801 41.75 78.9601 41.57 78.7401 41.52C78.5101 41.47 78.2501 41.48 78.0501 41.61L77.8701 41.75C77.7601 41.86 77.6801 41.99 77.6401 42.15V42.17C77.6601 42.1 77.6901 42.03 77.7201 41.96C77.6801 42.05 77.6401 42.12 77.5801 42.2L77.7201 42.02C77.6601 42.09 77.6001 42.15 77.5301 42.21L77.7101 42.07C77.6201 42.13 77.5301 42.19 77.4301 42.23L77.6401 42.14C77.5201 42.19 77.4001 42.22 77.2701 42.24L77.5101 42.21C77.3601 42.23 77.2201 42.23 77.0701 42.21L77.3101 42.24C77.1701 42.22 77.0401 42.19 76.9201 42.14L77.1301 42.23C77.0301 42.19 76.9401 42.13 76.8501 42.07L77.0301 42.21C76.9501 42.15 76.8801 42.08 76.8201 42L76.9601 42.18C76.9101 42.11 76.8701 42.04 76.8301 41.96L76.9201 42.17C76.9201 42.17 76.9101 42.14 76.9001 42.12C76.8101 41.9 76.7001 41.71 76.4901 41.58C76.3001 41.47 76.0101 41.42 75.8001 41.49C75.5901 41.56 75.3701 41.7 75.2601 41.9C75.1501 42.1 75.0801 42.37 75.1701 42.59Z" fill="#9E93FB"/>
<path d="M75.93 54.57C78.07 54.38 80.41 54.41 82.35 55.45C84.29 56.49 85.34 58.39 85.82 60.47C86.07 61.55 86.17 62.66 86.17 63.77C86.17 64.19 86.21 64.77 85.95 65.12C85.88 65.22 85.77 65.35 85.63 65.34C85.49 65.33 85.5799 65.35 85.5199 65.22C85.4199 65.01 85.4699 64.6 85.4599 64.38C85.4399 64.05 85.41 63.72 85.38 63.39C85.31 62.73 85.22 62.07 85.06 61.42C84.79 60.31 84.32 59.27 83.61 58.38C82.8 57.37 81.68 56.66 80.39 56.44C78.94 56.19 77.4 56.26 75.93 56.35C74.78 56.42 74.77 58.22 75.93 58.15C77.34 58.07 78.93 57.92 80.32 58.26C81.51 58.55 82.35 59.49 82.87 60.57C83.48 61.85 83.59 63.32 83.68 64.71C83.72 65.3 83.7499 65.89 84.0899 66.39C84.4599 66.94 85.11 67.19 85.76 67.14C88.64 66.89 88.06 62.85 87.75 60.92C87.35 58.44 86.27 56.04 84.22 54.5C81.88 52.75 78.76 52.52 75.95 52.77C74.81 52.87 74.79 54.67 75.95 54.57H75.93Z" fill="#9E93FB"/>
<path d="M73.37 60.34C73 62.38 73.13 64.43 73.06 66.49C73.03 67.4 72.96 68.31 72.75 69.2C72.64 69.66 72.33 71.21 71.8 71.28H72.28C72.53 71.32 72.2799 71.5 72.3299 71.31C72.3799 71.12 72.3299 70.87 72.3299 70.67C72.3299 70.21 72.34 69.76 72.35 69.3C72.35 68.35 72.35 67.4 72.35 66.46C72.33 64.56 72.28 62.67 72.2 60.77C72.15 59.62 70.3499 59.61 70.3999 60.77C70.5099 63.2 70.56 65.62 70.56 68.05C70.56 69.13 70.46 70.24 70.54 71.31C70.61 72.3 71.32 73.3 72.44 72.99C73.46 72.71 73.92 71.51 74.23 70.62C74.56 69.67 74.72 68.67 74.81 67.68C75.02 65.4 74.72 63.08 75.12 60.82C75.32 59.69 73.59 59.2 73.38 60.34H73.37Z" fill="#9E93FB"/>
<path d="M39.4501 57C39.2401 59.88 38.6601 62.67 37.8701 65.44C37.4401 66.94 35.96 72.29 38.97 72.14C41.98 71.99 42.48 68.36 42.96 66.16C43.59 63.31 43.9901 60.42 44.1901 57.51C44.2701 56.35 42.4701 56.36 42.3901 57.51C42.2201 59.89 41.9101 62.26 41.4501 64.61C41.2201 65.76 40.96 66.91 40.65 68.04C40.52 68.53 40.38 69.02 40.1 69.45C39.98 69.63 39.2501 70.5 38.9301 70.32C39.1401 70.43 38.98 69.97 38.98 69.88C38.96 69.62 38.96 69.35 38.97 69.09C38.99 68.46 39.1101 67.83 39.2601 67.22C39.5301 66.08 39.9001 64.97 40.1801 63.84C40.7401 61.59 41.0901 59.3 41.2501 56.99C41.3301 55.83 39.5301 55.84 39.4501 56.99V57Z" fill="#9E93FB"/>
<path d="M51.96 57.01C52.76 59.27 53.31 61.61 53.5 64C53.6 65.23 53.62 66.47 53.56 67.71C53.54 68.15 53.63 69.98 53.03 70.16C52.07 70.44 52.1 68.34 52.09 67.87C52.06 66.64 52.03 65.41 51.98 64.17C51.87 61.68 51.63 59.19 51.03 56.77C50.75 55.65 49.02 56.12 49.29 57.25C49.86 59.57 50.08 61.93 50.18 64.31C50.23 65.5 50.25 66.68 50.29 67.87C50.32 68.87 50.34 69.96 50.92 70.82C52 72.42 54.24 72.27 54.96 70.46C55.31 69.57 55.32 68.53 55.37 67.58C55.42 66.43 55.4 65.28 55.31 64.14C55.11 61.54 54.57 58.99 53.69 56.54C53.3 55.46 51.56 55.92 51.95 57.02L51.96 57.01Z" fill="#9E93FB"/>
<path d="M55.6501 57.92L58.1901 56.5L56.96 56.18C57.26 56.77 57.6001 57.35 57.9701 57.9C58.2801 58.36 58.6101 58.91 59.2401 58.92C59.8701 58.93 60.2601 58.36 60.6401 57.95C61.1101 57.44 61.5801 56.94 62.0401 56.43L60.5401 56.03C60.8401 56.8 61.1401 57.56 61.4401 58.33C61.6601 58.89 62.2001 59.15 62.7601 58.87C63.9701 58.26 65.05 57.45 65.96 56.45L64.46 56.05C64.71 56.77 64.9901 57.49 65.3101 58.18C65.5801 58.76 65.8201 59.49 66.4701 59.73C67.1201 59.97 67.6201 59.53 68.0101 59.06C68.5201 58.45 69.0201 57.84 69.5301 57.23C70.2601 56.34 69.0001 55.06 68.2601 55.96C67.9401 56.35 67.6201 56.73 67.3001 57.12C67.1701 57.28 67.0301 57.44 66.9001 57.6C66.8201 57.7 66.7401 57.79 66.6601 57.89C66.3801 58.11 66.4701 58.2 66.9101 58.14C67.5701 58.23 67.2601 58.1 67.0901 57.74C66.9801 57.51 66.8701 57.28 66.7601 57.04C66.5501 56.56 66.3701 56.07 66.2001 55.58C65.9901 54.97 65.1801 54.66 64.7001 55.18C63.8801 56.07 62.9401 56.77 61.8601 57.31L63.1801 57.85C62.8801 57.08 62.5801 56.32 62.2801 55.55C62.0501 54.96 61.2801 54.61 60.7801 55.15C60.4301 55.53 60.0801 55.91 59.7301 56.29C59.5501 56.48 59.3801 56.67 59.2001 56.86C59.0801 56.99 58.6101 57.27 59.0101 57.15L59.7001 57.24C59.5101 57.15 59.2301 56.54 59.1201 56.36C58.9001 56 58.7001 55.64 58.5101 55.27C58.2801 54.83 57.6901 54.72 57.2801 54.95L54.7401 56.37C53.7301 56.93 54.6301 58.49 55.6501 57.92Z" fill="#9E93FB"/>
<path d="M79.6801 48.12C81.3301 48.34 83 48.42 84.66 48.36C85.47 48.33 86.35 48.34 87.11 48.02C87.81 47.73 88.3001 47.18 88.7601 46.6C89.0601 46.22 89.1301 45.7 88.7601 45.33C88.4501 45.02 87.7901 44.95 87.4901 45.33C87.1501 45.76 86.7901 46.28 86.2401 46.42C85.5901 46.59 84.84 46.56 84.17 46.57C82.67 46.6 81.1701 46.52 79.6801 46.32C79.2001 46.26 78.78 46.78 78.78 47.22C78.78 47.76 79.2001 48.06 79.6801 48.12Z" fill="#9E93FB"/>
</svg>
