<svg width="254" height="145" viewBox="0 0 254 145" fill="none" xmlns="http://www.w3.org/2000/svg">
<g clip-path="url(#clip0_450_5)">
<path d="M80.931 144.99C65.4686 144.99 48.0412 137.527 28 122.4L39.9209 106.18C59.2938 120.822 75.0654 126.849 86.7869 124.109C92.2436 122.835 95.346 119.963 99.2665 116.322C104.474 111.499 110.948 105.503 122.64 104.228C135.698 102.803 144.945 108.324 153.105 113.188C159.949 117.273 165.864 120.792 174.304 121.035C183.95 121.328 194.086 117.141 204.48 108.658L217 124.412C202.795 136.01 188.24 141.683 173.745 141.259C160.168 140.864 150.651 135.191 143 130.621C135.518 126.161 130.989 123.664 124.784 124.341C119.816 124.887 117.372 126.97 112.734 131.258C107.886 135.748 101.84 141.339 91.2859 143.817C87.9341 144.606 84.4824 145 80.931 145V144.99Z" fill="#2F2E45"/>
<path d="M124.173 89.3586C124.942 90.9741 126.811 92.0889 128.605 91.9944C130.598 91.8905 132.23 90.6151 132.933 88.7918C133.198 88.1022 132.639 87.2047 131.936 87.0441C131.12 86.8551 130.475 87.2897 130.181 88.036C130.076 88.3195 130.294 87.8377 130.2 87.9794C130.162 88.0455 130.133 88.1116 130.095 88.1777C130.057 88.2439 130.019 88.3006 129.981 88.3667C129.839 88.5745 129.981 88.3195 130.019 88.3289C130 88.3289 129.753 88.6218 129.715 88.6501C129.668 88.6879 129.63 88.7257 129.582 88.7729C129.355 88.9808 129.848 88.6029 129.582 88.7729C129.469 88.8485 129.355 88.9146 129.241 88.9808C129.212 88.9997 129.051 89.0469 129.042 89.0752C129.061 89.0186 129.364 88.9524 129.089 89.0469C128.947 89.0941 128.804 89.1319 128.662 89.1603C128.633 89.1603 128.605 89.1697 128.577 89.1791C128.463 89.198 128.52 89.1886 128.738 89.1603C128.7 89.1414 128.558 89.1697 128.52 89.1697C128.387 89.1697 128.254 89.1508 128.121 89.1508C128.453 89.1319 128.32 89.1791 128.187 89.1508C128.111 89.1319 128.045 89.1225 127.969 89.1036C127.893 89.0847 127.827 89.0658 127.76 89.0374C127.485 88.943 127.798 89.0185 127.808 89.0658C127.798 89.028 127.466 88.8863 127.419 88.8579C127.352 88.8202 127.295 88.7729 127.229 88.7351C127.087 88.6501 127.495 88.9619 127.267 88.7635C127.153 88.6595 127.049 88.5651 126.944 88.4517C126.906 88.4139 126.868 88.3572 126.83 88.3194C127.058 88.5084 126.944 88.4612 126.868 88.3572C126.773 88.225 126.698 88.0833 126.631 87.9321C126.308 87.2614 125.293 87.0346 124.685 87.422C123.993 87.866 123.831 88.6407 124.173 89.3586Z" fill="#9E93FB"/>
<path d="M109.815 85.1022C108.404 88.6522 107.148 92.2618 106.056 95.9312C105.786 96.8461 106.53 97.8504 107.457 97.8206C108.955 97.7808 110.453 97.7311 111.951 97.6913C112.28 97.6913 112.685 97.741 113.004 97.6615H113.265C113.072 97.4725 112.869 97.2836 112.676 97.1046C112.647 97.1344 112.743 97.4924 112.753 97.5322C112.898 98.3178 113.033 99.1133 113.169 99.9088C113.304 100.704 114.241 101.152 114.956 100.953C115.768 100.724 116.106 99.9088 115.971 99.1133C115.807 98.1885 115.71 97.214 115.468 96.3091C115.179 95.2053 114.328 94.6981 113.265 94.6683C111.342 94.6186 109.38 94.7876 107.457 94.8373L108.859 96.7267C109.951 93.0574 111.197 89.4477 112.618 85.8977C112.917 85.1519 112.299 84.2569 111.603 84.058C110.772 83.8194 110.115 84.3464 109.815 85.1022Z" fill="#9E93FB"/>
<path d="M95.2685 83.5136C98.4927 81.8508 102.137 81.3702 105.752 81.1684C109.657 80.9473 113.603 80.8319 117.518 80.9184C124.787 81.0722 132.477 82.2545 138.355 86.6663C139.857 87.8005 142 85.7724 140.478 84.6286C134.049 79.8035 125.999 78.256 117.998 78.0445C113.783 77.9292 109.517 78.0445 105.312 78.3137C101.106 78.5828 97.3212 79.1883 93.7465 81.0338C92.0443 81.9084 93.5563 84.3979 95.2585 83.5232L95.2685 83.5136Z" fill="#9E93FB"/>
<path d="M115.999 78.5787C115.538 75.4003 118.116 72.7432 120.896 71.7305C123.835 70.6577 127.096 70.8281 130.016 71.891C136.066 74.0868 139.547 80.2732 138.905 86.5599C138.704 88.485 141.724 88.475 141.915 86.5599C142.738 78.4785 137.51 70.8181 129.694 68.6323C125.902 67.5695 121.578 67.7901 118.086 69.7252C114.595 71.6604 112.508 75.3802 113.1 79.3809C113.381 81.2859 116.28 80.4738 115.999 78.5787Z" fill="#9E93FB"/>
<path d="M135.947 93.0268C136.128 93.0268 136.32 93.047 136.501 93.0571C136.602 93.0571 136.713 93.0571 136.804 93.0873C136.683 93.0571 136.592 93.0571 136.763 93.0873C137.146 93.1478 137.529 93.2285 137.902 93.3395C138.084 93.3899 138.255 93.4404 138.427 93.5009C138.507 93.5311 138.578 93.5513 138.658 93.5815C138.699 93.5916 139.022 93.7228 138.82 93.6421C138.649 93.5715 138.89 93.6723 138.921 93.6925C139.011 93.7329 139.102 93.7833 139.203 93.8236C139.384 93.9144 139.566 94.0153 139.747 94.1161V91.5038C137.741 92.8553 135.745 94.217 133.739 95.5686C133.225 95.9115 132.933 96.4461 133.013 97.0714C133.094 97.6665 133.517 98.1608 134.092 98.3322C135.967 98.8668 137.842 99.4115 139.727 99.9461C140.483 100.168 141.411 99.6838 141.592 98.887C141.774 98.0902 141.35 97.2631 140.534 97.021C138.659 96.4864 136.783 95.9418 134.898 95.4072L135.261 98.1708C137.267 96.8193 139.263 95.4576 141.27 94.106C142.177 93.4908 142.308 92.0787 141.27 91.4937C139.636 90.5657 137.812 90.0614 135.937 90.0009C135.14 89.9706 134.384 90.717 134.425 91.5138C134.465 92.3611 135.09 92.9965 135.937 93.0268H135.947Z" fill="#9E93FB"/>
<path d="M209.574 110.921C212.634 107.988 216.024 105.465 219.704 103.422C221.514 102.42 223.384 101.521 225.304 100.765C225.794 100.571 226.484 100.449 226.924 100.173L227.414 100.05C227.414 99.5802 227.284 99.57 227.034 100.009C226.604 100.244 226.164 100.888 225.794 101.225C225.364 101.613 224.924 101.981 224.464 102.339C223.304 103.258 224.564 105.475 225.924 104.903C230.844 102.819 236.085 102.104 241.365 102.809L240.304 100.193C237.874 102.206 235.224 103.892 232.414 105.291C230.844 106.068 231.964 108.499 233.574 108.091C237.164 107.181 240.804 106.885 244.494 107.171L243.044 105.23C242.654 106.732 240.664 107.283 239.424 107.774C237.444 108.561 235.454 109.296 233.434 109.981C231.934 110.491 232.064 113.199 233.834 112.995C235.374 112.811 236.924 112.729 238.474 112.8C239.334 112.831 240.204 112.892 241.054 113.025C241.254 113.056 241.715 113.23 241.895 113.209L242.095 113.311C242.385 112.708 242.385 112.463 242.085 112.596C241.715 112.494 240.384 113.056 239.994 113.138C239.224 113.301 238.454 113.424 237.684 113.516C236.084 113.699 234.475 113.781 232.865 113.863C227.314 114.129 221.364 114.455 216.774 118.052C215.264 119.237 216.754 121.893 218.284 120.698C224.244 116.039 232.244 117.449 239.214 116.386C240.754 116.151 242.805 115.957 244.085 114.956C245.245 114.047 245.385 112.361 244.365 111.278C243.215 110.062 241.405 109.97 239.865 109.827C237.855 109.644 235.834 109.695 233.834 109.94L234.234 112.954C236.784 112.085 239.324 111.166 241.804 110.093C243.654 109.296 245.394 108.152 245.944 106.058C246.214 105.036 245.464 104.188 244.494 104.116C240.554 103.81 236.614 104.167 232.784 105.148L233.944 107.948C236.994 106.436 239.804 104.556 242.444 102.369C243.584 101.419 242.505 99.8969 241.385 99.7539C235.885 99.0285 230.265 99.7948 225.145 101.961L226.604 104.525C228.344 103.146 232.024 100.387 229.724 97.9149C227.724 95.7695 224.104 97.9456 222.004 98.8855C216.634 101.286 211.724 104.678 207.464 108.765C206.054 110.113 208.174 112.279 209.584 110.931L209.574 110.921Z" fill="#9E93FB"/>
<path d="M36.6168 105.104C31.0134 98.9604 23.3313 91.684 14.0827 94.7068C12.5865 95.1991 12.7371 97.0109 14.0827 97.5524C16.0308 98.3401 17.8485 99.4429 19.4552 100.782L20.5197 98.2613C17.0854 98.1333 13.6511 98.1136 10.2268 98.2515C7.6761 98.3499 4.97475 98.5862 3.12703 100.516C2.52451 101.146 2.51452 102.426 3.42834 102.84C7.0334 104.445 10.779 105.587 14.7054 106.168L15.107 103.263C12.5664 103.263 10.0358 103.283 7.51523 103.637C6.27003 103.815 5.03496 104.08 3.83997 104.494C2.89603 104.819 1.7311 105.164 1.26917 106.109C0.857453 106.965 1.09851 107.92 1.82153 108.521C2.69518 109.25 3.8903 109.24 4.96478 109.368C7.85686 109.693 10.7488 110.018 13.6409 110.343L13.2393 107.438C9.6142 108.068 6.09932 109.141 2.74531 110.609C1.41977 111.189 -0.0864994 112.095 0.00387811 113.73C0.0942556 115.364 1.51024 116.014 2.83577 116.477C9.43333 118.761 16.8843 117.018 23.3112 119.854C25.0685 120.632 26.5949 118.082 24.8275 117.304C19.5254 114.97 13.8117 115.384 8.18821 114.655C6.78234 114.478 5.38637 114.193 4.03071 113.759C3.81983 113.69 3.44823 113.474 3.2273 113.484C3.00638 113.287 2.93614 113.316 3.02651 113.562C2.99639 113.838 3.10692 113.838 3.34792 113.582C3.95044 113.425 4.54293 113.031 5.12537 112.794C7.99736 111.633 10.9897 110.815 14.0425 110.284C15.85 109.969 15.1874 107.556 13.6409 107.379C11.743 107.162 9.83509 106.956 7.93716 106.739C7.02334 106.64 6.1196 106.532 5.20578 106.434C4.9949 106.414 4.0408 106.188 3.82992 106.266C3.5387 107.349 3.66937 107.753 4.21164 107.477C4.42252 107.399 4.63328 107.32 4.84416 107.251C8.13792 106.168 11.6626 106.188 15.0969 106.197C16.7338 106.197 17.2159 103.549 15.4988 103.293C11.8535 102.751 8.29869 101.757 4.94468 100.26L5.24574 102.584C6.81229 100.959 9.59406 101.196 11.6828 101.146C14.6251 101.068 17.5674 101.097 20.5097 101.205C21.7549 101.255 22.5781 99.5118 21.574 98.6847C19.5455 96.9912 17.3363 95.6915 14.866 94.697V97.5426C22.9699 94.8939 29.6176 101.865 34.4679 107.182C35.7633 108.6 37.8923 106.503 36.5969 105.095L36.6168 105.104Z" fill="#9E93FB"/>
<path d="M124 6.37651C124.039 6.78912 124.077 7.21088 124.116 7.62349C124.116 7.81604 124.154 7.99026 124.241 8.15531C124.299 8.32952 124.396 8.47621 124.54 8.5954C124.675 8.73294 124.83 8.82463 125.003 8.87964C125.177 8.96216 125.36 9.00801 125.563 8.99884L125.949 8.95301C126.19 8.88883 126.402 8.76961 126.585 8.5954L126.807 8.32034C126.942 8.10946 127 7.87105 127 7.62349C126.961 7.21088 126.923 6.78912 126.884 6.37651C126.884 6.18396 126.846 6.00974 126.759 5.84469C126.701 5.67048 126.604 5.52379 126.46 5.4046C126.325 5.26706 126.17 5.17537 125.997 5.12036C125.823 5.03784 125.64 4.99199 125.437 5.00116L125.051 5.04699C124.81 5.11117 124.598 5.23039 124.415 5.4046L124.193 5.67966C124.058 5.89054 124 6.12895 124 6.37651Z" fill="#9E93FB"/>
<path d="M125.116 30.4154C125.077 30.802 125.039 31.198 125 31.5846C125 31.7826 125.038 31.9617 125.125 32.1314C125.183 32.3106 125.28 32.4614 125.424 32.584C125.559 32.7254 125.714 32.8197 125.887 32.8763C126.061 32.9611 126.244 33.0082 126.447 32.9988L126.833 32.9517C127.074 32.8857 127.286 32.7631 127.47 32.584L127.691 32.3011C127.827 32.0843 127.884 31.8391 127.884 31.5846C127.923 31.198 127.961 30.802 128 30.4154C128 30.2174 127.962 30.0383 127.875 29.8686C127.817 29.6895 127.72 29.5386 127.576 29.416C127.441 29.2746 127.286 29.1803 127.113 29.1238C126.939 29.0389 126.756 28.9918 126.553 29.0012L126.167 29.0483C125.926 29.1143 125.714 29.2369 125.531 29.416L125.309 29.6989C125.174 29.9157 125.116 30.1609 125.116 30.4154Z" fill="#9E93FB"/>
<path d="M139.377 19.98L140.623 20C140.816 20 140.99 19.9601 141.155 19.8704C141.33 19.8106 141.476 19.711 141.595 19.5615C141.733 19.4219 141.825 19.2624 141.88 19.083C141.962 18.9036 142.008 18.7143 141.999 18.505L141.953 18.1063C141.889 17.8572 141.77 17.6379 141.595 17.4485L141.32 17.2193C141.109 17.0797 140.871 17.0199 140.623 17.0199L139.377 17C139.184 17 139.01 17.0399 138.845 17.1296C138.67 17.1894 138.524 17.289 138.405 17.4385C138.267 17.5781 138.175 17.7376 138.12 17.917C138.038 18.0964 137.992 18.2857 138.001 18.495L138.047 18.8937C138.111 19.1428 138.23 19.3621 138.405 19.5515L138.68 19.7807C138.891 19.9203 139.129 19.98 139.377 19.98Z" fill="#9E93FB"/>
<path d="M111.415 20.8842L112.585 21C112.783 21 112.962 20.9614 113.131 20.8746C113.31 20.8167 113.461 20.7203 113.584 20.5756C113.725 20.4405 113.82 20.2862 113.876 20.1125C113.961 19.9389 114.008 19.7556 113.999 19.5531L113.952 19.1672C113.886 18.926 113.763 18.7138 113.584 18.5305L113.301 18.3087C113.084 18.1736 112.839 18.1158 112.585 18.1158L111.415 18C111.217 18 111.038 18.0386 110.869 18.1254C110.69 18.1833 110.539 18.2797 110.416 18.4244C110.275 18.5595 110.18 18.7138 110.124 18.8875C110.039 19.0611 109.992 19.2444 110.001 19.4469L110.048 19.8328C110.114 20.0739 110.237 20.2862 110.416 20.4694L110.699 20.6913C110.916 20.8264 111.161 20.8842 111.415 20.8842Z" fill="#9E93FB"/>
<path d="M124.187 20.1801C124.943 21.2122 125.69 22.254 126.445 23.2862C126.527 23.4502 126.646 23.5949 126.8 23.6913C126.928 23.8167 127.083 23.9035 127.265 23.9518C127.593 24.0482 128.03 24 128.321 23.8071C128.613 23.6142 128.868 23.3151 128.95 22.9389C129.032 22.5627 129.031 22.1286 128.813 21.8199C128.057 20.7878 127.31 19.746 126.555 18.7138C126.473 18.5498 126.354 18.4051 126.2 18.3087C126.072 18.1833 125.917 18.0965 125.735 18.0482C125.407 17.9518 124.97 18 124.679 18.1929C124.387 18.3858 124.132 18.6849 124.05 19.0611C123.968 19.4373 123.969 19.8714 124.187 20.1801Z" fill="#9E93FB"/>
<path d="M125.092 21.0229C128.502 21.7136 131.842 22.6825 135.101 23.9298C135.843 24.2081 136.786 23.6205 136.957 22.8474C137.147 21.9713 136.696 21.2497 135.903 20.9405C132.644 19.6932 129.304 18.7243 125.894 18.0336C125.122 17.879 124.23 18.2604 124.039 19.116C123.869 19.8787 124.26 20.8477 125.092 21.0229Z" fill="#9E93FB"/>
<path d="M214.269 63.3187C220.858 60.0002 226.709 55.2982 231.371 49.5636H229.254C233.128 53.0325 237.002 56.5013 240.876 59.9601C242.842 61.7246 244.809 63.4791 246.776 65.2437L249.541 67.72C249.791 67.9506 250.879 68.6323 250.929 68.9732C250.959 69.1637 250.051 69.7953 249.881 69.9457C247.984 71.7001 246.077 73.4546 244.18 75.2091C242.653 76.6227 241.085 78.307 238.999 78.8283C234.436 79.9713 230.512 75.9309 227.557 73.0736C223.274 68.9331 218.981 64.7824 214.698 60.6419C213.311 59.2984 211.184 61.4239 212.582 62.7673C216.925 66.9681 221.278 71.1688 225.62 75.3695C229.145 78.7682 233.308 82.5378 238.579 81.9363C241.135 81.6455 243.132 80.2119 244.999 78.5376C247.115 76.6227 249.192 74.6677 251.289 72.7328C252.147 71.9408 253.205 71.1788 253.734 70.106C254.304 68.933 253.904 67.75 253.046 66.8477C251.059 64.7423 248.653 62.9077 246.496 60.9727C241.455 56.4612 236.413 51.9497 231.371 47.4382C230.812 46.9369 229.794 46.7765 229.254 47.4382C224.732 52.9924 219.151 57.4938 212.762 60.7221C211.034 61.5943 212.552 64.1909 214.269 63.3187Z" fill="#9E93FB"/>
<path d="M250.128 74.2159C248.089 77.0631 245.521 79.5446 242.572 81.4526C241.063 82.4313 239.435 83.3804 237.686 83.8451C235.697 84.369 234.058 83.8747 232.379 82.7774C225.843 78.5362 219.917 73.0394 214.54 67.4537C213.211 66.0697 211.093 68.1656 212.422 69.5496C215.54 72.7923 218.828 75.8768 222.275 78.7636C223.984 80.1971 225.733 81.5713 227.512 82.9158C229.131 84.1417 230.77 85.4862 232.649 86.3067C236.626 88.0566 240.704 86.198 244.092 84.0131C247.479 81.8283 250.387 78.9909 252.726 75.7087C253.845 74.1467 251.247 72.6638 250.138 74.2159H250.128Z" fill="#9E93FB"/>
<path d="M223.287 66.7773C226.467 64.5132 229.557 62.1255 232.555 59.6144C233.173 59.0998 233.123 57.9574 232.555 57.4326C231.897 56.8254 231.066 56.8871 230.408 57.4326C227.561 59.8099 224.806 61.9403 221.757 64.1118C221.109 64.5749 220.744 65.4806 221.21 66.2216C221.625 66.8803 222.588 67.2713 223.287 66.7773Z" fill="#9E93FB"/>
<path d="M226.14 68.7766C227.524 67.8235 228.908 66.8599 230.292 65.9067C230.917 65.4716 231.23 64.5081 230.804 63.7829C230.377 63.0576 229.533 62.7572 228.86 63.2234C227.476 64.1765 226.092 65.1401 224.708 66.0933C224.083 66.5284 223.77 67.4919 224.196 68.2171C224.623 68.9424 225.467 69.2428 226.14 68.7766Z" fill="#9E93FB"/>
<path d="M229.587 71.5771C232.033 69.7038 234.367 67.6909 236.56 65.5386C237.126 64.9905 237.167 63.9742 236.56 63.4261C235.954 62.8781 235.014 62.8382 234.418 63.4261C232.225 65.5785 229.89 67.6012 227.445 69.4646C227.162 69.6838 227 70.1821 227 70.5208C227 70.8895 227.162 71.328 227.445 71.5771C228.112 72.1849 228.92 72.0952 229.587 71.5771Z" fill="#9E93FB"/>
<path d="M231.291 74.7923C232.944 73.7887 234.587 72.785 236.24 71.7814C236.92 71.374 237.244 70.43 236.788 69.7443C236.331 69.0586 235.429 68.7705 234.709 69.2077C233.056 70.2113 231.413 71.215 229.76 72.2186C229.08 72.626 228.756 73.5701 229.212 74.2557C229.669 74.9414 230.571 75.2295 231.291 74.7923Z" fill="#9E93FB"/>
<path d="M234.943 77.9206C238.657 76.6438 242.007 74.4563 244.565 71.5266C245.083 70.9327 245.204 70.0023 244.565 69.4282C243.996 68.9234 242.961 68.7947 242.413 69.4282C241.865 70.0617 241.236 70.705 240.586 71.2791C240.261 71.5662 239.926 71.8433 239.581 72.1204C239.581 72.1204 239.277 72.358 239.388 72.2689C239.5 72.1798 239.185 72.4174 239.195 72.4075C239.023 72.5362 238.84 72.6549 238.658 72.7836C237.937 73.2686 237.175 73.714 236.394 74.1099C235.998 74.3079 235.602 74.4861 235.206 74.6642C234.983 74.7632 235.399 74.585 235.166 74.684C235.054 74.7335 234.943 74.7731 234.821 74.8127C234.598 74.9018 234.364 74.9809 234.13 75.0601C233.379 75.3175 232.801 76.0895 233.065 76.8913C233.308 77.6138 234.13 78.2077 234.943 77.9305V77.9206Z" fill="#9E93FB"/>
<path d="M13.0967 45.09C11.7779 53.5807 10.3798 62.0612 9.1304 70.5619C8.91226 72.0508 8.83283 73.6906 10.0128 74.8072C11.2522 75.9843 13.4933 75.8736 15.0599 76.0547C19.3931 76.5778 23.736 77.0707 28.0691 77.5436C32.8981 78.0667 37.737 78.5395 42.5759 78.9922C44.4797 79.1733 44.4697 76.1452 42.5759 75.9742C32.7395 75.0587 22.8834 74.1433 13.0967 72.8053C12.1348 72.6745 11.8769 72.6745 11.9562 71.6383C12.0455 70.401 12.3331 69.1636 12.5215 67.9363C12.8983 65.4917 13.2849 63.0371 13.6617 60.5925C14.4252 55.6933 15.1887 50.7941 15.9523 45.8948C16.2497 43.9935 13.3842 43.1786 13.0867 45.09H13.0967Z" fill="#9E93FB"/>
<path d="M18.912 69.9695C20.0089 66.0857 21.4911 62.3747 23.3784 58.8264H20.819C22.6965 61.5207 23.9217 64.6114 24.2676 67.9259C24.4158 69.3391 26.234 70.1118 27.0344 68.6986C30.226 63.0051 30.5818 55.7763 34.7121 50.6318L32.1825 49.5541C32.9927 56.8743 33.7931 64.1946 34.6033 71.5047C34.7812 73.1517 36.9847 73.6499 37.5183 71.9114C39.0202 66.96 40.5617 62.0087 43.2296 57.5759H40.6706C41.8662 60.3311 42.6665 63.2897 43.0222 66.289C43.2494 68.2106 46.2237 68.2309 45.9865 66.289C45.5617 62.7102 44.6525 59.3348 43.2296 56.0406C42.7553 54.9426 41.2041 55.1561 40.6706 56.0406C37.8742 60.687 36.2338 65.923 34.6528 71.1082L37.5677 71.5149C36.7574 64.1946 35.9571 56.8743 35.1469 49.5642C35.0184 48.4154 33.5263 47.3478 32.6172 48.4865C28.2398 53.9361 27.8248 61.1852 24.4751 67.1735L27.2419 67.9462C26.8367 64.0929 25.5817 60.4735 23.388 57.3115C22.7754 56.427 21.402 56.2338 20.8289 57.3115C18.823 61.0835 17.2222 65.0588 16.0661 69.1866C15.5325 71.0777 18.3883 71.8809 18.9219 70L18.912 69.9695Z" fill="#9E93FB"/>
<path d="M55.4426 20.4668C55.0767 25.4103 54.7108 30.3638 54.345 35.3072L54.0781 38.9545C54.0089 39.9392 53.8409 41.0244 54.4044 41.9086C55.5117 43.6368 58.27 43.2047 59.9903 43.2751C64.9436 43.466 69.8968 43.6568 74.8501 43.8477C76.6099 43.9181 79.4078 44.5812 80.2284 42.4511C80.5744 41.5468 80.4657 40.4517 80.4954 39.5072C80.525 38.3115 80.5548 37.1058 80.5844 35.9101C80.7229 30.3135 80.8612 24.717 80.9996 19.1204C81.0194 18.2764 80.2976 17.6535 79.5166 17.6133C72.1609 17.1913 64.8053 16.9903 57.4397 17.0004C55.5316 17.0004 55.5316 20.0147 57.4397 20.0147C64.8053 20.0147 72.1609 20.2156 79.5166 20.6276L78.0336 19.1204C77.9347 23.2802 77.8261 27.4299 77.7273 31.5896C77.6778 33.6695 77.6283 35.7493 77.5689 37.8292C77.5393 38.844 77.381 39.9392 77.4898 40.944C77.4898 40.8837 77.49 41.3861 77.4702 41.3861L77.5986 41.165C77.8062 40.954 77.7668 40.8736 77.4801 40.9339C77.1143 40.743 76.2144 40.8837 75.7992 40.8736C71.6467 40.7129 67.4846 40.5521 63.3321 40.4014C62.294 40.3612 61.2558 40.321 60.2177 40.2808C59.7431 40.2607 59.2587 40.2407 58.7842 40.2306C58.3096 40.2206 57.4098 40.3411 56.9847 40.1603C56.7375 40.0497 56.9256 40.2206 56.9454 40.2607C56.8959 40.1603 56.9748 39.7885 56.9847 39.6981C57.0144 39.2158 57.054 38.7234 57.0936 38.2412L57.3407 34.835C57.6967 30.0523 58.0428 25.2696 58.3987 20.4869C58.5371 18.5477 55.5711 18.5577 55.4327 20.4869L55.4426 20.4668Z" fill="#9E93FB"/>
<path d="M65.0269 18.8986C65.5992 22.4059 65.3823 26.074 65.3823 29.6215C65.3823 33.169 65.3823 36.9074 65.3823 40.5453C65.3823 42.4849 67.9839 42.4849 67.9839 40.5453C67.9839 36.7566 67.9839 32.978 67.9839 29.1893C67.9839 25.4006 68.1313 21.7426 67.533 18.0846C67.2208 16.1852 64.7147 16.9892 65.0269 18.8885V18.8986Z" fill="#9E93FB"/>
<path d="M57.4142 30.6101C64.467 30.9578 71.5196 31.0708 78.5821 30.9578C80.4726 30.923 80.4726 28.3155 78.5821 28.3502C71.5196 28.4632 64.467 28.3502 57.4142 28.0026C55.5237 27.907 55.5335 30.5145 57.4142 30.6101Z" fill="#9E93FB"/>
<path d="M117.516 1.51201C109.373 4.15609 105.083 13.21 106.165 21.4327C107.248 29.6554 113.077 35.7348 120.475 38.0684C128.46 40.5923 138.34 37.8781 143.653 31.2579C148.698 24.9682 147.556 14.9627 143.435 8.48275C141.181 4.93728 137.894 2.17301 133.882 0.901052C128.817 -0.711435 123.395 0.16993 118.281 1.00121C116.394 1.31169 117.198 4.20617 119.075 3.89569C122.968 3.2547 127.049 2.57366 130.982 3.27474C134.259 3.85563 137.119 5.4581 139.343 7.96196C143.574 12.7293 145.371 20.6415 142.948 26.6708C141.548 30.1562 138.221 32.63 134.934 34.1724C131.647 35.7147 127.983 36.2956 124.428 35.865C117.913 35.0738 111.856 30.3665 109.8 24.0267C107.397 16.6654 110.505 6.93035 118.32 4.40646C120.138 3.81555 119.363 0.911083 117.526 1.51201H117.516Z" fill="#9E93FB"/>
<path d="M171.198 25.5422C170.9 27.9377 170.325 30.3023 169.791 32.6567C169.678 33.1605 169.575 33.6643 169.493 34.1783C169.39 34.8569 169.544 35.5046 169.462 36.1729C169.421 36.5533 169.226 36.9028 169.144 37.2729C169.041 37.7356 169 38.2599 169 38.7329C169.01 39.617 169.247 40.5218 169.925 41.1386C170.798 41.9406 172.02 42.0331 173.16 41.992C175.604 41.9097 178.059 41.9509 180.513 41.9509C182.496 41.9509 182.496 38.8665 180.513 38.8665C178.336 38.8665 176.148 38.8151 173.961 38.8665C173.468 38.8768 172.975 38.9282 172.492 38.9076C172.348 38.9076 172.194 38.8562 172.05 38.8562C172.112 38.8562 171.814 38.8562 171.999 38.8562C172.348 38.8357 171.824 39.2161 172.081 38.8871V38.9796C172.081 38.8665 172.081 38.7534 172.081 38.6403C172.081 38.3422 172.112 38.0646 172.194 37.7664C172.328 37.3141 172.471 36.9028 172.523 36.4299C172.574 35.957 172.461 35.4532 172.482 34.9597C172.523 34.0447 172.841 33.1091 173.036 32.2146C173.509 29.9939 173.992 27.7937 174.269 25.5422C174.372 24.7094 173.488 24 172.728 24C171.804 24 171.29 24.7094 171.188 25.5422H171.198Z" fill="#9E93FB"/>
<path d="M176.314 37.5336C176.314 39.1685 176.53 40.8548 176.34 42.4794C176.366 42.2532 176.297 42.6851 176.297 42.7365C176.254 42.9421 176.21 43.1478 176.167 43.3637C176.081 43.8367 176.029 44.3097 176.012 44.793C175.986 45.6772 176.012 46.5718 176.012 47.4561C176.012 48.2581 176.608 49.0396 177.308 48.9984C178.008 48.9573 178.604 48.3198 178.604 47.4561C178.604 46.5924 178.578 45.6772 178.604 44.793C178.604 44.6696 178.604 44.5462 178.621 44.4228C178.604 44.5565 178.612 44.5256 178.638 44.3405C178.673 44.1863 178.699 44.0321 178.733 43.8778C178.829 43.4151 178.898 42.9627 178.941 42.4897C179.088 40.8445 178.915 39.1891 178.915 37.5439C178.915 36.7419 178.319 35.9604 177.619 36.0016C176.919 36.0427 176.323 36.6802 176.323 37.5439L176.314 37.5336Z" fill="#9E93FB"/>
<path d="M185.885 31.6519C186.131 30.3318 186.722 28.9034 187.933 28.1743C188.927 27.5734 189.341 28.5585 189.469 29.4156C189.952 32.6371 188.504 35.7895 186.928 38.4888C186.062 39.9666 185.274 41.4837 184.614 43.06C184.161 44.1535 183.265 45.8085 183.945 47.0006C184.585 48.1236 186.023 47.9956 187.125 47.9956C188.947 47.9956 190.769 47.9956 192.6 47.9956C194.432 47.9956 194.501 45.0401 192.6 45.0401C190.7 45.0401 188.721 45.0401 186.781 45.0401C186.613 45.0401 186.022 45.0303 185.993 45.0401C186.357 45.2372 186.574 45.5721 186.653 46.045C186.623 46.2124 186.633 46.1829 186.682 45.9662C187.066 45.2076 187.253 44.3111 187.608 43.5328C188.415 41.7596 189.43 40.1242 190.404 38.4396C191.222 37.0308 191.714 35.3167 192.138 33.7503C192.906 30.9327 192.925 26.0759 189.41 25.1302C186.091 24.2436 183.541 28.0758 183.029 30.8539C182.684 32.7159 185.53 33.5139 185.875 31.6421L185.885 31.6519Z" fill="#9E93FB"/>
<path d="M170.092 53.1259C174.406 53.9141 178.73 53.6585 183.084 53.5626C185.131 53.52 187.119 54.0206 189.156 53.9993C190.045 53.9887 190.933 53.5839 191.782 53.6478C192.322 53.6904 192.701 53.8821 193.28 53.7756C193.73 53.6904 194.099 53.5093 194.558 53.5413C196.486 53.6904 196.476 50.495 194.558 50.3458C193.719 50.2819 193.04 50.6335 192.222 50.4737C191.223 50.282 190.524 50.6654 189.575 50.7719C187.598 51.0063 185.531 50.3139 183.524 50.3458C179.319 50.4204 175.055 50.7932 170.881 50.0263C168.994 49.6855 168.185 52.7637 170.082 53.1046L170.092 53.1259Z" fill="#9E93FB"/>
</g>
<defs>
<clipPath id="clip0_450_5">
<rect width="254" height="145" fill="white"/>
</clipPath>
</defs>
</svg>
