<svg width="241" height="198" viewBox="0 0 241 198" fill="none" xmlns="http://www.w3.org/2000/svg">
<g clip-path="url(#clip0_450_2)">
<path d="M29.8483 25.018C29.9182 25.058 29.998 25.058 30.0779 25.018C30.008 24.9681 29.9382 24.9081 29.8883 24.8382C29.9082 24.7783 29.7984 24.7383 29.8184 24.6984C29.998 24.2089 30.8063 24.0791 31.2355 24.0291C33.1215 23.8194 34.9577 24.8182 36.8837 24.6484L35.3868 23.1501C33.7203 38.053 31.914 53.6251 35.7161 68.3581C37.3328 74.6309 40.3764 80.2444 45.5357 84.2698C50.2958 87.9955 55.994 90.223 61.6622 92.1607C64.9054 93.2695 68.2385 93.9886 71.5616 94.7977C73.4377 95.2472 74.236 92.3605 72.3599 91.911C64.3366 89.9633 56.1536 87.8657 49.1881 83.231C43.969 79.765 40.6758 74.7907 38.9494 68.7976C36.9935 62.0154 36.4746 54.8337 36.5145 47.8118C36.5644 39.5613 37.4725 31.3407 38.3806 23.1501C38.4604 22.391 37.6222 21.5919 36.8837 21.6519C34.9078 21.8217 33.0517 20.8728 31.0758 21.0426C29.4991 21.1724 27.9323 21.8616 27.1739 23.32C25.7269 26.1067 29.7386 29.8125 31.9739 27.1356C33.2014 25.6672 31.0957 23.5397 29.8583 25.018H29.8483Z" fill="#9E93FB"/>
<path d="M38.5702 19.6042C39.0692 15.8985 39.3985 12.1828 39.6979 8.45706C39.9274 5.6403 39.8875 2.20425 36.8139 0.965678C35.6962 0.516195 34.4089 0.516195 33.371 1.17544C32.0737 2.00448 31.7544 3.65259 31.3153 5.02101C30.1577 8.5969 29.0001 12.1828 27.8425 15.7587H30.7265C30.3673 13.2715 30.008 10.7844 29.6388 8.30723C29.3294 6.17968 29.1897 3.86234 27.8625 2.0744C26.7647 0.606092 24.8787 -0.402747 23.0425 0.156609C20.7872 0.845816 21.1564 3.69254 21.0866 5.53042C20.9768 8.10746 20.867 10.6845 20.7572 13.2615C20.7073 14.5101 20.6475 15.7587 20.5976 17.0072C20.5676 17.5865 20.5577 18.1759 20.5177 18.7552C20.4778 19.4144 20.5377 19.5243 19.9489 19.7441C18.2724 20.3933 16.9252 20.8428 15.8574 22.411C14.9194 23.7894 14.5701 25.5674 14.7697 27.2055C15.3086 31.6104 19.5797 34.0176 23.6313 34.4372C25.5473 34.6369 25.5273 31.6404 23.6313 31.4406C20.3481 31.101 16.3963 28.3242 18.0529 24.5885C18.7913 22.9104 20.2583 23.0103 21.6654 22.2512C23.8109 21.0925 23.5015 18.6054 23.5913 16.4978C23.7111 13.8409 23.8209 11.1739 23.9406 8.51699C23.9905 7.34833 24.0404 6.18967 24.0903 5.02101C24.1103 4.60149 24.3697 3.3829 24.1801 3.02331C24.25 2.72365 24.1801 2.71367 23.9905 2.97337C24.1701 2.95339 24.3498 2.98336 24.5194 3.06326C26.4853 3.77245 26.4654 7.17853 26.7049 8.83662C27.0741 11.4037 27.4533 13.9707 27.8225 16.5278C28.0521 18.096 30.2974 17.7963 30.7066 16.5278C31.5348 13.9607 32.3631 11.3937 33.2014 8.82663C33.6305 7.50815 34.0596 6.17968 34.4887 4.86119C34.7481 4.06211 34.9178 3.23307 35.8858 3.8124C37.6321 4.83123 36.6642 8.81664 36.5344 10.3948C36.3049 13.2016 36.0454 15.9984 35.6762 18.7852C35.5664 19.5942 35.8658 20.3833 36.724 20.633C37.4226 20.8328 38.4604 20.3833 38.5702 19.5843V19.6042Z" fill="#9E93FB"/>
<path d="M23.3618 33.0887C18.5119 47.8617 19.5997 64.3228 26.166 78.3966C29.3793 85.2886 33.9498 92.0908 40.7656 95.8265C44.1386 97.6744 47.8509 98.7931 51.6131 99.5023C55.3752 100.211 59.0975 100.731 62.8198 100.851C66.3125 100.961 69.8352 100.771 73.3279 100.721C75.2539 100.701 75.2539 97.7044 73.3279 97.7243C70.0946 97.7643 66.8713 97.8042 63.6381 97.8442C61.1532 97.8742 58.6185 97.5046 56.1536 97.1949C52.5212 96.7355 48.8788 96.0163 45.4459 94.7078C38.3507 92.0009 33.6404 86.2076 30.1477 79.6651C26.655 73.1226 24.4595 65.871 23.6812 58.4995C22.803 50.199 23.6512 41.8087 26.2558 33.8878C26.8546 32.0499 23.9706 31.2608 23.3718 33.0887H23.3618Z" fill="#9E93FB"/>
<path d="M163.49 92.79C169.438 92.5503 175.735 93.0098 180.884 89.4938C184.676 86.9068 187.62 82.8914 188.439 78.3167C189.466 72.5933 187.49 67.0396 186.612 61.4461C186.503 60.7669 186.423 60.0777 186.363 59.3884C186.333 58.9689 186.123 57.9701 186.383 57.5705C186.642 57.171 187.53 57.0012 187.94 56.8614C188.708 56.6116 189.496 56.4119 190.285 56.262C191.612 56.0123 192.959 55.9025 194.296 55.8026C194.765 55.7726 197.3 55.3431 197.58 55.9724C197.949 56.8014 195.634 57.2209 195.244 57.3008C193.987 57.5606 192.57 57.8402 191.772 58.939C191.063 59.9079 191.203 61.0465 191.323 62.1852C191.472 63.7434 191.682 65.3016 191.901 66.8499C192.77 72.9528 194.187 79.1457 193.937 85.3486C193.728 90.7623 190.474 95.0574 185.445 97.0052C181.383 98.5733 177.162 98.4035 172.931 98.044C170.246 97.8242 167.562 97.5945 164.887 97.3747C162.971 97.2149 162.981 100.211 164.887 100.371C170.895 100.871 177.302 102.029 183.269 100.761C188.518 99.6521 193.508 96.3959 195.693 91.3517C196.891 88.5849 197.051 85.5384 196.911 82.5618C196.761 79.2456 196.302 75.9494 195.803 72.6732C195.304 69.3969 194.775 66.3305 194.426 63.1341C194.366 62.5748 194.017 61.4261 194.216 60.9067C194.376 60.4772 194.157 60.7469 194.676 60.5072C194.905 60.4073 195.214 60.3673 195.454 60.3074C196.831 59.9977 198.238 59.778 199.306 58.7692C201.162 57.0212 200.972 54.0845 198.478 53.0757C197.37 52.6262 196.152 52.6862 194.985 52.7661C193.448 52.866 191.911 52.9858 190.384 53.2255C187.979 53.5951 184.098 54.2244 183.429 57.0511C183.14 58.2797 183.399 59.7181 183.559 60.9467C183.758 62.5049 184.058 64.0331 184.377 65.5713C185.535 71.095 186.922 76.8983 183.888 82.0823C181.353 86.4074 176.743 89.2541 171.733 89.4638C168.999 89.5737 166.255 89.6836 163.52 89.8034C161.604 89.8834 161.594 92.8799 163.52 92.8L163.49 92.79Z" fill="#9E93FB"/>
<path d="M185.974 51.7073C181.184 43.6765 177.292 35.1663 174.368 26.2766L173.32 28.1244C185.165 25.8371 197.031 23.6596 208.906 21.582L207.219 20.8927C211.75 28.2842 216.281 35.6857 220.811 43.0772L221.709 40.8797C209.295 44.0261 196.891 47.1725 184.477 50.3189C183.12 50.6685 182.99 52.9459 184.477 53.2056C203.018 56.4319 222.248 54.7837 239.931 48.3112C241.229 47.8417 241.478 45.7841 239.931 45.4245C233.874 44.0061 227.807 42.5778 221.749 41.1594C219.873 40.7199 219.075 43.6066 220.951 44.0461C227.008 45.4645 233.076 46.8928 239.133 48.3112V45.4245C221.969 51.6973 203.278 53.4453 185.265 50.3189V53.2056C197.679 50.0592 210.084 46.9128 222.498 43.7664C223.426 43.5367 223.895 42.378 223.396 41.569C218.865 34.1775 214.335 26.776 209.804 19.3845C209.425 18.7752 208.786 18.5754 208.118 18.6953C196.232 20.7729 184.377 22.9604 172.532 25.2377C171.763 25.3876 171.244 26.3565 171.484 27.0856C174.478 36.2051 178.469 44.985 183.389 53.2355C184.377 54.8936 186.962 53.3854 185.974 51.7273V51.7073Z" fill="#9E93FB"/>
<path d="M203.148 58.2597C214.564 59.6481 225.851 56.6017 236.748 53.5651C238.604 53.0457 237.816 50.1591 235.95 50.6785C225.272 53.6451 214.315 56.6216 203.148 55.2632C201.242 55.0335 201.252 58.03 203.148 58.2597Z" fill="#9E93FB"/>
<path d="M90.133 131.875C87.8976 132.714 85.6623 133.553 83.4269 134.392C82.5587 134.712 81.6706 135.001 80.8223 135.371C78.8265 136.22 76.9604 138.038 75.4635 139.576C68.1686 147.058 65.3445 157.765 65.6738 167.993C65.9034 174.985 67.4402 181.867 69.416 188.56L70.863 186.662C68.1587 186.862 64.9254 187.121 62.5403 188.54C60.5645 189.708 59.2871 192.286 61.1832 194.183C63.0792 196.081 66.572 195.682 68.9171 195.672C72.1803 195.672 75.4335 195.322 78.6369 194.723C79.4951 194.563 79.7945 193.624 79.6847 192.875C78.5071 185.413 77.0502 177.872 76.7807 170.311C76.5512 163.888 77.4593 157.376 81.1616 151.972C83.4768 148.586 86.9895 145.669 91.1109 144.98L100.432 143.412C103.226 142.942 106.02 142.473 108.814 142.003C110.71 141.684 109.902 138.797 108.016 139.117C102.148 140.106 96.2902 141.094 90.4224 142.083C86.1213 142.812 82.3192 145.629 79.6548 149.005C75.4834 154.279 73.8668 160.862 73.747 167.504C73.5874 176.254 75.4335 185.074 76.7907 193.684L77.8385 191.836C73.5974 192.635 68.9969 193.055 64.6859 192.505C64.3466 192.465 63.2489 192.395 63.209 191.906C63.179 191.486 64.2967 190.967 64.5861 190.837C66.4821 190.028 68.8173 189.808 70.8431 189.659C71.7811 189.589 72.5795 188.76 72.2901 187.761C69.1666 177.163 67.011 165.666 70.1745 154.809C71.4618 150.384 73.5974 146.129 76.671 142.663C78.078 141.074 79.7945 139.346 81.6007 138.298C82.1995 137.948 83.0976 137.698 83.7961 137.439C86.1712 136.55 88.5463 135.661 90.9213 134.772C92.7076 134.102 91.9392 131.206 90.123 131.885L90.133 131.875Z" fill="#9E93FB"/>
<path d="M122.765 138.487C123.174 143.362 123.374 148.286 124.511 153.051C126.657 162.08 131.247 170.291 135.788 178.292C138.413 182.906 141.057 187.521 143.352 192.315L144.65 190.058C142.005 190.398 139.391 191.007 136.966 192.156C135.06 193.055 133.962 195.482 135.998 196.94C136.886 197.579 137.954 197.689 139.011 197.799C140.428 197.949 141.845 198.009 143.272 197.999C146.176 197.969 149.07 197.589 151.895 196.93C152.483 196.79 153.042 196.111 152.992 195.482C152.573 190.528 150.767 185.963 148.871 181.408C146.815 176.454 144.749 171.499 142.694 166.545C140.668 161.671 138.642 156.786 136.616 151.912C135.339 148.846 133.872 145.859 133.114 142.613C132.595 140.415 132.086 138.208 131.567 136.01C131.128 134.132 128.244 134.932 128.683 136.809C129.122 138.687 129.551 140.545 129.99 142.413C130.2 143.332 130.379 144.271 130.639 145.17C131.148 146.958 132.066 148.696 132.784 150.414C136.836 160.172 140.897 169.931 144.949 179.68C147.055 184.754 149.539 189.928 150.008 195.472L151.106 194.023C147.374 194.893 143.552 195.182 139.73 194.853C139.301 194.813 138.852 194.803 138.423 194.713C138.313 194.693 137.784 194.503 137.764 194.523L137.824 195.092C137.954 195.002 138.083 194.932 138.213 194.863C138.602 194.783 139.011 194.513 139.391 194.373C141.087 193.734 142.873 193.274 144.67 193.045C145.827 192.895 146.486 191.896 145.967 190.787C138.842 175.874 127.785 162.26 126.358 145.24C126.168 142.982 125.978 140.725 125.789 138.467C125.629 136.56 122.635 136.54 122.795 138.467L122.765 138.487Z" fill="#9E93FB"/>
<path d="M22.6234 48.3711C26.7348 48.441 30.8463 47.9017 34.808 46.8029C36.6642 46.2935 35.8758 43.3968 34.0097 43.9163C30.2874 44.9451 26.4754 45.4345 22.6134 45.3746C20.6874 45.3446 20.6874 48.3412 22.6134 48.3711H22.6234Z" fill="#9E93FB"/>
<path d="M37.1531 42.6777C37.243 42.6277 37.3328 42.5778 37.4326 42.5278C37.3128 42.5778 37.3328 42.5678 37.5024 42.5079C37.702 42.4479 37.8916 42.388 38.1012 42.368C37.8417 42.398 38.4105 42.368 38.4704 42.368C38.5702 42.368 38.68 42.368 38.7798 42.388C38.6401 42.368 38.66 42.368 38.8496 42.398C39.5581 42.5578 40.1569 42.7975 40.566 43.1871C41.6737 44.2559 42.1328 45.6543 42.1428 47.1625C42.1428 47.9416 42.0829 48.7307 41.7336 49.38C41.6139 49.5997 41.5839 49.6497 41.4841 49.7695C41.3644 49.9094 41.2147 50.0492 41.075 50.1691C41.2846 49.9992 40.9652 50.229 40.9153 50.2589C40.8654 50.2889 40.3764 50.5386 40.6359 50.4188C40.2766 50.5686 39.8875 50.6685 39.5082 50.7384C39.4085 50.7584 39.3087 50.7684 39.2089 50.7883C39.3586 50.7684 39.3386 50.7684 39.159 50.7883C39.0093 50.7983 38.8496 50.8083 38.6999 50.8183C37.8816 50.8583 37.0633 50.8183 36.245 50.7384C35.4267 50.6585 34.7481 51.4775 34.7481 52.2367C34.7481 53.1057 35.4367 53.665 36.245 53.735C37.7818 53.8648 39.3885 53.9147 40.8854 53.4852C42.7116 52.9658 44.0887 51.7372 44.7274 49.9393C45.9349 46.5832 44.6975 41.9585 41.4841 40.1806C39.6779 39.1817 37.4725 39.0618 35.6563 40.0707C34.9477 40.4602 34.7182 41.4291 35.1174 42.1183C35.5165 42.8075 36.4546 43.0472 37.1631 42.6577L37.1531 42.6777Z" fill="#9E93FB"/>
<path d="M33.9897 48.6708C30.5968 50.1491 26.9144 50.9881 23.2221 51.1579C22.4138 51.1979 21.7252 51.8172 21.7252 52.6562C21.7252 53.4353 22.4138 54.1944 23.2221 54.1545C27.4833 53.9547 31.5947 52.9558 35.4966 51.2578C36.2351 50.9382 36.4047 49.8494 36.0355 49.2102C35.5864 48.441 34.7282 48.3511 33.9897 48.6708Z" fill="#9E93FB"/>
<path d="M96.35 108.062C98.7151 101.5 101.609 95.1573 105.012 89.0643H102.427C106.489 97.9041 110.291 106.854 113.834 115.913C114.323 117.162 116.368 117.502 116.718 115.913C117.875 110.639 119.033 105.356 120.19 100.082L117.995 100.981C119.262 101.8 120.2 102.868 120.909 104.197C121.418 105.146 123.005 105.206 123.494 104.197C126.008 99.0128 127.964 93.5891 129.292 87.9855L127.096 88.8845C130.269 91.0021 133.443 93.1196 136.606 95.2372C137.265 95.6767 138.293 95.377 138.652 94.6978C141.905 88.6348 144.779 82.372 147.294 75.9694L144.789 76.6286C147.164 78.5764 149.549 80.5241 151.924 82.4719C153.142 83.4707 154.359 84.4796 155.587 85.4684C156.595 86.2775 157.663 87.1665 159.05 86.8269C160.207 86.5372 160.926 85.5983 161.624 84.6893C162.433 83.6305 163.161 82.5218 163.8 81.3432C165.067 79.0059 165.985 76.4987 166.524 73.8917C166.913 72.0139 164.029 71.2048 163.64 73.0927C163.211 75.1703 162.552 77.178 161.604 79.0758C161.165 79.9548 160.676 80.8038 160.137 81.6228C159.768 82.1822 158.85 83.8803 158.241 83.7704C157.872 83.7005 157.233 82.9513 156.934 82.7116L155.387 81.453C154.489 80.7139 153.591 79.9847 152.683 79.2456C150.757 77.6674 148.831 76.0892 146.895 74.511C145.977 73.7519 144.829 74.0715 144.39 75.1703C141.975 81.3332 139.181 87.3463 136.047 93.1796L138.093 92.6402C134.92 90.5226 131.746 88.4051 128.583 86.2875C127.795 85.7581 126.597 86.2875 126.388 87.1864C125.12 92.5403 123.304 97.7343 120.899 102.679H123.484C122.536 100.901 121.188 99.4823 119.502 98.3936C118.714 97.8841 117.506 98.3736 117.306 99.2925C116.149 104.566 114.991 109.85 113.834 115.124H116.718C113.075 105.825 109.173 96.6256 105.002 87.556C104.523 86.5172 102.926 86.6371 102.417 87.556C98.8947 93.8688 95.901 100.461 93.4561 107.263C92.7974 109.081 95.6914 109.86 96.3401 108.062H96.35Z" fill="#9E93FB"/>
<path d="M70.5138 146.428C68.8772 146.069 67.2406 145.749 65.594 145.459C64.2368 145.23 62.6002 144.7 61.4925 145.819C60.5046 146.818 60.6044 148.746 60.4447 150.034C60.2351 151.672 60.0356 153.31 59.826 154.948C59.4168 158.225 58.9877 161.501 58.5985 164.777C58.4389 166.156 58.9079 167.314 60.3549 167.674C61.9516 168.073 63.7478 168.083 65.3944 168.263C66.2027 168.353 66.8813 167.504 66.8913 166.765C66.8913 165.876 66.1927 165.356 65.3944 165.267C64.137 165.127 62.8796 164.977 61.6223 164.837C61.5125 164.827 61.4027 164.807 61.2929 164.797C60.9437 164.717 61.0235 164.917 61.5324 165.396C61.6023 165.327 61.5923 164.867 61.6023 164.767C61.6821 164.108 61.762 163.459 61.8518 162.799C62.1611 160.312 62.4705 157.825 62.7898 155.328C63.1092 152.831 63.2988 150.504 63.688 148.126C63.8177 147.357 63.3487 148.026 63.3586 148.106C63.3586 148.156 64.157 148.236 64.2268 148.246C64.7957 148.336 65.3645 148.436 65.9333 148.546C67.2007 148.776 68.458 149.035 69.7154 149.305C71.5915 149.714 72.3998 146.828 70.5138 146.418V146.428Z" fill="#9E93FB"/>
<path d="M69.6156 156.497C69.1965 156.557 69.7154 156.497 69.7953 156.487C69.945 156.477 70.1046 156.467 70.2643 156.467C70.5736 156.467 70.883 156.467 71.1924 156.487C71.342 156.497 71.5117 156.487 71.6514 156.527C71.4019 156.467 71.5416 156.507 71.7113 156.537C72.0206 156.587 72.32 156.656 72.6194 156.736C72.9188 156.816 73.2181 156.916 73.5075 157.026C73.5574 157.046 73.9367 157.176 73.5774 157.046C73.7171 157.096 73.8668 157.176 73.9965 157.246C74.5554 157.526 75.0743 157.855 75.5732 158.235C75.8626 158.454 76.4015 158.474 76.7308 158.385C77.0801 158.285 77.4593 158.025 77.629 157.695C78.0481 156.906 77.7587 156.157 77.0901 155.648C74.735 153.84 71.7213 153.21 68.8173 153.61C68.478 153.66 68.0888 154.02 67.9192 154.299C67.7296 154.619 67.6497 155.098 67.7695 155.458C68.0489 156.317 68.7774 156.617 69.6156 156.507V156.497Z" fill="#9E93FB"/>
<path d="M68.6975 163.139C68.7674 163.129 68.8372 163.119 68.8971 163.109C69.0668 163.089 69.0368 163.089 68.8073 163.119C68.9071 163.119 69.0169 163.099 69.1167 163.089C69.3562 163.069 69.5957 163.059 69.8352 163.049C70.0747 163.039 70.3142 163.049 70.5537 163.069C70.6535 163.069 70.7633 163.079 70.863 163.089C70.9129 163.089 71.3321 163.099 71.0726 163.109C70.9429 163.089 70.9429 163.089 71.0726 163.109C71.1425 163.119 71.2123 163.129 71.2722 163.139C71.372 163.159 71.4718 163.179 71.5716 163.199C71.8111 163.249 72.0406 163.299 72.2701 163.369C72.4996 163.439 72.7292 163.509 72.9487 163.589C73.0485 163.628 73.1383 163.658 73.2381 163.698C73.3878 163.758 73.3678 163.748 73.1682 163.668C73.2281 163.698 73.298 163.728 73.3578 163.748C73.7371 163.918 74.0963 164.018 74.5154 163.898C74.8647 163.798 75.2439 163.539 75.4136 163.209C75.7628 162.55 75.6331 161.501 74.8747 161.161C72.6593 160.152 70.3042 159.843 67.9092 160.252C67.5599 160.312 67.1907 160.652 67.0111 160.942C66.8214 161.261 66.7416 161.741 66.8614 162.1C67.1308 162.939 67.8693 163.289 68.7075 163.149L68.6975 163.139Z" fill="#9E93FB"/>
<path d="M149.41 122.276C150.168 122.875 150.917 123.495 151.625 124.154C151.964 124.464 152.304 124.793 152.623 125.113C152.803 125.293 152.972 125.482 153.152 125.652C153.461 125.952 153.172 125.792 153.202 125.562L153.401 124.803C153.222 125.193 152.853 125.502 152.563 125.822C152.194 126.232 151.825 126.631 151.455 127.041C150.747 127.82 150.038 128.599 149.33 129.378C147.883 130.966 146.436 132.564 144.989 134.152L146.805 133.923C145.368 133.144 144.041 132.215 142.823 131.126C141.396 129.837 139.271 131.955 140.708 133.243C142.145 134.532 143.642 135.611 145.298 136.51C145.857 136.819 146.655 136.769 147.114 136.28C149.579 133.573 152.044 130.856 154.499 128.149C155.078 127.51 155.906 126.831 156.146 125.972C156.395 125.053 155.966 124.284 155.357 123.635C154.18 122.376 152.882 121.227 151.525 120.169C150.887 119.669 150.028 119.549 149.41 120.169C148.891 120.688 148.771 121.787 149.41 122.286V122.276Z" fill="#9E93FB"/>
<path d="M160.267 32.1897C161.185 32.5493 162.103 32.9289 163.021 33.3085L162.662 33.1586C163.141 33.3584 163.62 33.5682 164.099 33.7779C164.478 33.9477 164.838 34.0476 165.257 33.9277C165.606 33.8279 165.985 33.5682 166.155 33.2385C166.334 32.8889 166.434 32.4694 166.305 32.0799C166.195 31.7303 165.965 31.3407 165.616 31.1809C164.109 30.5217 162.592 29.8924 161.065 29.2831C160.726 29.1532 160.217 29.2531 159.908 29.4329C159.598 29.6127 159.299 29.9723 159.219 30.3319C159.129 30.7114 159.149 31.141 159.369 31.4905C159.589 31.8401 159.878 32.0299 160.267 32.1798V32.1897Z" fill="#9E93FB"/>
<path d="M144.21 27.0756C145.468 27.3853 146.725 27.7149 147.973 28.0645C148.731 28.2743 149.639 27.8048 149.819 27.0157C149.998 26.2266 149.579 25.3976 148.771 25.1678C147.524 24.8182 146.266 24.4886 145.009 24.179C144.63 24.0791 144.201 24.129 143.851 24.3288C143.542 24.5086 143.243 24.8682 143.163 25.2278C142.983 26.0069 143.392 26.8659 144.21 27.0756Z" fill="#9E93FB"/>
<path d="M124.142 23.7495C126.887 23.9892 129.561 24.2988 132.116 24.6884C132.884 24.8082 133.762 24.4986 133.962 23.6396C134.121 22.9304 133.742 21.9216 132.914 21.7917C130 21.3522 127.076 21.0026 124.142 20.7429C123.364 20.673 122.615 21.4821 122.645 22.2412C122.685 23.1102 123.304 23.6695 124.142 23.7395V23.7495Z" fill="#9E93FB"/>
<path d="M101.16 23.6795C104.563 23.4099 107.966 23.26 111.379 23.24C112.187 23.24 112.876 22.5508 112.876 21.7418C112.876 20.9327 112.187 20.2335 111.379 20.2435C107.966 20.2635 104.563 20.4133 101.16 20.683C100.352 20.7429 99.6631 21.3223 99.6631 22.1813C99.6631 22.9404 100.352 23.7395 101.16 23.6795Z" fill="#9E93FB"/>
<path d="M82.1695 26.5362C84.5146 26.0168 86.8698 25.5674 89.2249 25.1578C90.0032 25.028 90.5022 24.0291 90.2727 23.31C90.0032 22.4709 89.2648 22.1213 88.4265 22.2612C86.0614 22.6607 83.7063 23.1202 81.3712 23.6396C80.6028 23.8094 80.0839 24.7383 80.3234 25.4875C80.5828 26.2965 81.3412 26.716 82.1695 26.5362Z" fill="#9E93FB"/>
<path d="M63.1391 32.1298C65.4742 31.2708 67.8293 30.4617 70.2044 29.7226C70.9529 29.4928 71.5017 28.6638 71.2522 27.8747C71.0027 27.0856 70.2144 26.5762 69.4061 26.8259C67.031 27.5651 64.6759 28.3741 62.3408 29.2331C61.6123 29.5028 61.0335 30.262 61.2929 31.081C61.5225 31.8002 62.3507 32.4195 63.1391 32.1298Z" fill="#9E93FB"/>
<path d="M48.0704 38.9719C49.0983 38.4226 50.1461 37.8832 51.184 37.3638C51.5033 37.204 51.7827 36.8044 51.8725 36.4648C51.9723 36.1052 51.9224 35.6258 51.7228 35.3062C51.5233 34.9865 51.2139 34.7068 50.8247 34.617C50.4156 34.5271 50.0463 34.577 49.6671 34.7668C48.6193 35.2862 47.5815 35.8256 46.5536 36.3749C46.2343 36.5447 45.9648 36.9243 45.865 37.2739C45.7652 37.6235 45.8151 38.1129 46.0147 38.4326C46.4638 39.1318 47.322 39.3615 48.0605 38.9719H48.0704Z" fill="#9E93FB"/>
<path d="M42.9211 152.481C45.3261 153.081 47.7711 153.5 50.226 153.79C51.0043 153.88 51.7528 153.041 51.7228 152.292C51.6829 151.403 51.0642 150.893 50.226 150.793C49.9366 150.763 49.6472 150.723 49.3578 150.683C49.248 150.673 49.268 150.673 49.4176 150.683C49.3278 150.673 49.238 150.663 49.1482 150.643C49.0185 150.623 48.8788 150.603 48.749 150.583C48.1902 150.504 47.6413 150.404 47.0825 150.304C45.9548 150.094 44.8272 149.854 43.7195 149.575C42.9611 149.385 42.0629 149.814 41.8733 150.623C41.6837 151.433 42.1028 152.262 42.9211 152.471V152.481Z" fill="#9E93FB"/>
<path d="M20.897 141.574C23.9207 143.951 27.124 146.049 30.5469 147.807C31.2454 148.166 32.2034 148.006 32.5926 147.267C32.9519 146.578 32.8022 145.599 32.0537 145.22C30.4271 144.381 28.8404 143.472 27.3036 142.493C25.7668 141.514 24.2699 140.445 23.0126 139.456C22.3938 138.977 21.4857 138.807 20.897 139.456C20.398 139.996 20.2383 141.054 20.897 141.574Z" fill="#9E93FB"/>
<path d="M5.65864 123.025C7.28526 126.232 9.24119 129.238 11.4466 132.075C11.9256 132.694 13.0632 132.624 13.5622 132.075C14.1709 131.416 14.0811 130.616 13.5622 129.957C13.662 130.087 13.3526 129.678 13.3127 129.628C13.183 129.458 13.0533 129.288 12.9335 129.118C12.684 128.779 12.4346 128.429 12.1851 128.079C11.6961 127.38 11.2271 126.671 10.768 125.952C9.85991 124.514 9.02165 123.035 8.24327 121.517C7.88402 120.818 6.84617 120.558 6.19752 120.978C5.47902 121.437 5.27943 122.276 5.65864 123.025Z" fill="#9E93FB"/>
<path d="M0.00041171 100.491C0.0702664 103.717 0.439499 106.944 1.09813 110.11C1.2578 110.879 2.20583 111.399 2.94429 111.159C3.75261 110.899 4.16176 110.14 3.99211 109.311C3.38338 106.364 3.06404 103.548 3.00416 100.491C2.98421 99.712 2.32558 98.9529 1.50728 98.9929C0.68898 99.0328 -0.0195468 99.6521 0.00041171 100.491Z" fill="#9E93FB"/>
<path d="M3.51311 79.2056C2.52516 81.9725 1.74678 84.8092 1.16798 87.6959C1.01829 88.465 1.38753 89.354 2.2158 89.5437C2.96425 89.7135 3.89232 89.324 4.06196 88.4949C4.64076 85.6083 5.41914 82.7715 6.40709 80.0047C6.66655 79.2656 6.10771 78.3366 5.35927 78.1568C4.52101 77.9671 3.8025 78.4165 3.51311 79.2056Z" fill="#9E93FB"/>
<path d="M13.8217 61.546C12.4146 63.1941 11.0973 64.9221 9.87986 66.72C9.44078 67.3693 9.74016 68.4081 10.4187 68.7677C11.1772 69.1672 11.9955 68.9275 12.4645 68.2283C13.1032 67.2993 13.7618 66.3804 14.4504 65.4914L14.2208 65.7911C14.7797 65.0719 15.3585 64.3527 15.9472 63.6635C16.2067 63.3539 16.3863 63.0243 16.3863 62.6047C16.3863 62.2352 16.2267 61.7957 15.9472 61.546C15.3884 61.0365 14.3705 60.9067 13.8316 61.546H13.8217Z" fill="#9E93FB"/>
<path d="M118.574 163.389C119.811 163.229 121.039 163.049 122.266 162.829C122.615 162.769 122.985 162.44 123.164 162.14C123.354 161.821 123.434 161.341 123.314 160.982C123.194 160.622 122.975 160.272 122.625 160.083C122.246 159.883 121.887 159.853 121.468 159.933C120.52 160.103 119.572 160.252 118.624 160.372L119.023 160.322C118.873 160.342 118.724 160.362 118.574 160.382C118.364 160.382 118.175 160.422 117.995 160.512C117.805 160.572 117.646 160.672 117.516 160.822C117.257 161.081 117.057 161.511 117.077 161.881C117.097 162.25 117.217 162.67 117.516 162.939C117.785 163.189 118.195 163.429 118.574 163.379V163.389Z" fill="#9E93FB"/>
<path d="M100.601 163.858C102.377 163.938 104.154 163.998 105.93 164.018C106.708 164.028 107.467 163.319 107.427 162.52C107.387 161.721 106.768 161.031 105.93 161.021C104.154 161.002 102.377 160.942 100.601 160.862C99.8228 160.822 99.0644 161.581 99.1043 162.36C99.1442 163.199 99.7629 163.818 100.601 163.858Z" fill="#9E93FB"/>
<path d="M83.9458 162.779C85.2731 162.869 86.6003 162.959 87.9375 163.059C88.3068 163.089 88.7458 162.869 88.9953 162.62C89.2448 162.37 89.4544 161.93 89.4344 161.561C89.4145 161.191 89.2947 160.772 88.9953 160.502C88.696 160.232 88.3467 160.093 87.9375 160.063C86.6103 159.973 85.2831 159.883 83.9458 159.783C83.5766 159.753 83.1375 159.973 82.888 160.222C82.6385 160.472 82.429 160.912 82.4489 161.281C82.4689 161.651 82.5887 162.07 82.888 162.34C83.1874 162.61 83.5367 162.749 83.9458 162.779Z" fill="#9E93FB"/>
<path d="M157.423 140.465C157.722 139.027 157.872 137.548 157.842 136.08C157.822 135.301 157.164 134.542 156.345 134.582C155.527 134.622 154.828 135.241 154.848 136.08C154.868 136.979 154.818 137.878 154.699 138.777L154.749 138.378C154.689 138.807 154.619 139.247 154.529 139.676C154.449 140.076 154.469 140.475 154.679 140.835C154.858 141.144 155.218 141.444 155.577 141.524C155.956 141.614 156.385 141.594 156.734 141.374C157.054 141.174 157.343 140.855 157.423 140.475V140.465Z" fill="#9E93FB"/>
<path d="M143.712 155.937C145.747 155.268 147.663 154.279 149.37 152.991C149.689 152.751 149.949 152.501 150.058 152.092C150.158 151.732 150.108 151.253 149.909 150.933C149.709 150.613 149.4 150.334 149.011 150.244C148.621 150.154 148.172 150.154 147.853 150.394C147.065 150.993 146.236 151.522 145.358 151.992C145.139 152.112 144.919 152.222 144.699 152.322C144.48 152.421 144.22 152.501 144.021 152.631C144.24 152.541 144.27 152.521 144.121 152.591C144.061 152.611 144.011 152.641 143.951 152.661C143.841 152.711 143.722 152.751 143.602 152.791C143.372 152.881 143.133 152.961 142.903 153.041C142.165 153.28 141.596 154.089 141.855 154.889C142.095 155.628 142.903 156.197 143.702 155.937H143.712Z" fill="#9E93FB"/>
<path d="M210.433 68.8675C209.784 67.0596 209.006 65.2917 208.048 63.6236C207.659 62.9444 206.671 62.6547 206.002 63.0842C205.333 63.5137 205.044 64.4027 205.463 65.1318C206.052 66.1607 206.581 67.2194 207.04 68.3182L206.89 67.9586C207.13 68.5179 207.349 69.0873 207.549 69.6566C207.678 70.0262 207.888 70.3458 208.237 70.5556C208.557 70.7454 209.036 70.8253 209.395 70.7054C210.123 70.4657 210.722 69.6566 210.443 68.8576L210.433 68.8675Z" fill="#9E93FB"/>
<path d="M212.578 85.7681C212.628 84.5795 212.648 83.3908 212.638 82.1922C212.638 81.8026 212.479 81.4131 212.199 81.1334C211.94 80.8737 211.511 80.6739 211.141 80.6939C210.343 80.7339 209.634 81.3532 209.644 82.1922C209.664 83.3808 209.644 84.5795 209.585 85.7681C209.545 86.5472 210.303 87.3063 211.081 87.2664C211.92 87.2264 212.538 86.6071 212.578 85.7681Z" fill="#9E93FB"/>
<path d="M208.676 105.226C209.425 103.168 210.064 101.07 210.602 98.9429C210.792 98.1838 210.353 97.2848 209.555 97.0951C208.756 96.9053 207.918 97.3248 207.708 98.1438C207.17 100.271 206.531 102.369 205.782 104.427C205.513 105.166 206.082 106.105 206.83 106.274C207.678 106.464 208.387 106.015 208.676 105.226Z" fill="#9E93FB"/>
<path d="M196.172 123.934C198.528 121.907 200.603 119.599 202.449 117.092C202.918 116.463 202.579 115.394 201.911 115.044C201.132 114.635 200.364 114.905 199.865 115.584C199.745 115.744 199.635 115.893 199.515 116.053C199.466 116.113 199.426 116.183 199.376 116.243C199.505 116.093 199.456 116.143 199.356 116.263C199.136 116.543 198.917 116.812 198.697 117.082C198.228 117.651 197.739 118.211 197.23 118.76C196.232 119.839 195.175 120.858 194.067 121.817C193.468 122.326 193.498 123.415 194.067 123.934C194.705 124.513 195.544 124.484 196.182 123.934H196.172Z" fill="#9E93FB"/>
<path d="M177.511 132.504C179.777 132.135 182.002 131.585 184.167 130.836C184.906 130.577 185.475 129.797 185.215 128.988C184.976 128.259 184.167 127.67 183.369 127.94C181.204 128.689 178.978 129.248 176.713 129.608C175.935 129.737 175.436 130.736 175.665 131.456C175.935 132.295 176.673 132.634 177.511 132.504Z" fill="#9E93FB"/>
<path d="M158.7 133.373C160.756 133.403 162.802 133.433 164.858 133.413C165.636 133.413 166.394 132.724 166.354 131.915C166.315 131.106 165.696 130.417 164.858 130.417C162.802 130.427 160.756 130.407 158.7 130.377C157.922 130.367 157.164 131.076 157.203 131.875C157.243 132.674 157.862 133.363 158.7 133.373Z" fill="#9E93FB"/>
<path d="M181.802 33.3784C183.559 37.5336 185.315 41.6788 187.081 45.834C187.401 46.5832 188.498 46.743 189.127 46.3734C189.895 45.9239 189.985 45.0749 189.666 44.3258C187.91 40.1706 186.153 36.0253 184.387 31.8701C184.068 31.121 182.97 30.9612 182.341 31.3307C181.573 31.7802 181.483 32.6292 181.802 33.3784Z" fill="#9E93FB"/>
<path d="M189.486 33.7579C191.612 36.3949 193.548 39.751 194.765 42.9074C195.055 43.6665 195.773 44.1859 196.612 43.9562C197.33 43.7564 197.949 42.8675 197.659 42.1083C196.192 38.3027 194.167 34.8067 191.612 31.6404C191.103 31.0111 190.025 31.111 189.496 31.6404C188.878 32.2597 188.987 33.1287 189.496 33.7579H189.486Z" fill="#9E93FB"/>
<path d="M197.819 33.6281C199.336 36.0753 200.853 38.5225 202.37 40.9696C202.779 41.6389 203.727 41.9485 204.415 41.509C205.104 41.0695 205.393 40.1706 204.954 39.4614C203.437 37.0142 201.92 34.567 200.404 32.1198C199.994 31.4506 199.046 31.141 198.358 31.5804C197.669 32.0199 197.38 32.9189 197.819 33.6281Z" fill="#9E93FB"/>
<path d="M202.579 26.6561L208.706 37.9231C209.096 38.6323 210.074 38.8621 210.752 38.4625C211.471 38.043 211.68 37.1241 211.291 36.4149C209.245 32.6592 207.209 28.9035 205.164 25.1478C204.775 24.4387 203.797 24.2089 203.118 24.6085C202.399 25.028 202.19 25.9469 202.579 26.6561Z" fill="#9E93FB"/>
<path d="M112.876 143.641C106.679 143.641 100.112 142.293 93.9051 139.636C80.8024 134.252 71.4518 122.366 69.456 108.592C67.2206 94.4581 71.6215 79.5053 80.9521 69.5667C98.3958 51.2478 127.904 53.9147 147.973 64.113L138.931 81.9225C125.16 74.9106 105.242 73.0128 95.4519 83.2909C90.4523 88.6248 87.9076 97.5745 89.1849 105.515L89.2149 105.685C90.1729 112.427 95.0128 118.51 101.549 121.177L101.719 121.247C107.706 123.824 114.602 124.394 118.893 122.656C123.354 120.898 126.687 116.443 130.559 111.279C133.493 107.363 136.516 103.318 140.498 99.782C148.332 92.4204 157.712 89.5837 166.684 87.626L170.935 107.143C163.77 108.712 158.161 110.54 154.09 114.405L153.821 114.655C151.316 116.862 148.991 119.969 146.526 123.265C141.556 129.897 135.938 137.409 126.288 141.214C122.266 142.842 117.686 143.641 112.896 143.641H112.876Z" fill="#2F2E45"/>
</g>
<defs>
<clipPath id="clip0_450_2">
<rect width="241" height="198" fill="white"/>
</clipPath>
</defs>
</svg>
