<svg width="149" height="96" viewBox="0 0 149 96" fill="none" xmlns="http://www.w3.org/2000/svg">
<g clip-path="url(#clip0_450_96)">
<path d="M114.971 96C107.586 96 99.9513 93.6528 93.6721 89.0788C84.0739 82.0875 81.8811 72.6586 80.1269 65.0855C78.5821 58.4351 77.3662 53.179 71.9541 48.1938C70.2797 46.6491 65.1966 41.9647 58.6483 41.9647C58.5885 41.9647 58.5287 41.9647 58.4788 41.9647C50.7843 42.065 45.1829 48.4044 43.648 50.3404L28 37.9625C30.9103 34.2712 41.7045 22.2143 58.2197 22.0037C67.8976 21.8632 77.0473 25.7451 85.4594 33.4988C95.3864 42.6468 97.7884 52.9985 99.5426 60.5516C101.068 67.1417 101.965 70.4218 105.393 72.9294C109.838 76.1693 116.536 77.0019 120.324 74.7851C125.088 71.9866 127.998 62.9489 124.639 52.6574L143.596 46.4585C149.596 64.8447 144.055 83.9933 130.41 91.9978C125.845 94.676 120.473 95.99 114.961 95.99L114.971 96Z" fill="#2F2E45"/>
<path d="M25.4165 40.4514C22.0867 43.7254 18.7569 46.9995 15.4271 50.2637C13.8372 51.8269 12.2272 53.3706 10.6573 54.9437C9.39739 56.212 8.17757 57.6573 8.01758 59.486C7.88759 60.9706 8.47748 62.6224 9.8174 63.4483C11.4073 64.4216 13.2773 63.9891 14.7772 63.0649C16.5671 61.9538 18.1269 60.3906 19.7269 59.0436C21.6067 57.4607 23.4866 55.8679 25.3665 54.2849L22.8066 53.2427C22.9066 57.087 27.3964 59.5942 30.8462 57.7753L28.6464 56.9002C29.0863 58.9748 31.3062 60.0858 33.346 59.8695C35.8059 59.6138 37.3958 57.5983 38.7257 55.7695C39.8457 54.2259 37.2459 52.761 36.1359 54.2849C35.456 55.219 34.666 56.3988 33.5261 56.8412C32.7761 57.1362 31.7161 56.969 31.5361 56.1137C31.3261 55.1501 30.1362 54.8158 29.3363 55.2386C27.9064 55.9957 25.8565 54.8257 25.8165 53.2329C25.7865 51.9056 24.2266 51.3747 23.2567 52.1907C20.4368 54.5701 17.6169 56.9494 14.7971 59.3287C14.1371 59.8891 12.1773 61.826 11.2574 60.7937C10.3874 59.8203 11.5773 58.2964 12.2173 57.5885C14.5371 55.042 17.157 52.7118 19.6169 50.2932C22.2567 47.6975 24.8965 45.1019 27.5463 42.5063C28.9063 41.1691 26.7864 39.0946 25.4265 40.4317L25.4165 40.4514Z" fill="#9E93FB"/>
<path d="M144.5 44.136C145.766 42.1852 147.243 40.2548 148.32 38.1923C149.167 36.5768 149.487 34.3212 147.691 33.2138C146.086 32.2282 143.682 32.7362 142.036 33.3662C140.122 34.0977 138.426 35.2864 137.139 36.9121L139.643 38.3853C140.042 36.6174 139.982 34.8496 139.374 33.1426C139.074 32.3095 138.017 31.6186 137.179 32.2384C134.068 34.5244 131.475 37.349 129.51 40.7018L132.093 42.2361C133.15 40.2446 132.871 38.1008 131.505 36.3635C131.126 35.8758 130.188 35.7843 129.689 36.1298C124.982 39.381 122.07 44.7456 122 50.5369C121.98 52.4877 124.972 52.4877 124.992 50.5369C125.052 45.8632 127.376 41.3826 131.205 38.7511L129.39 38.5174C129.889 39.1473 129.879 40.0313 129.51 40.7222C128.602 42.4392 131.106 43.943 132.093 42.2564C133.779 39.3709 136.003 36.8511 138.685 34.88L136.491 33.9758C136.92 35.1747 137.05 36.3533 136.761 37.603C136.461 38.9441 138.257 40.3462 139.264 39.0762C140.112 37.9992 141.119 37.1254 142.356 36.526C142.904 36.2618 143.483 36.0688 144.071 35.9367C144.52 35.8351 145.547 35.5405 145.966 35.7741C146.145 35.8757 145.976 36.1806 145.816 36.5463C145.517 37.2067 145.058 37.796 144.669 38.4056C143.752 39.8179 142.834 41.2302 141.927 42.6425C140.87 44.2782 143.453 45.8023 144.51 44.1766L144.5 44.136Z" fill="#9E93FB"/>
<path d="M119.707 18.2002C117.758 19.2871 115.81 20.3642 113.861 21.4512L110.826 23.1355C109.933 23.6251 108.98 24.0853 108.221 24.761C106.682 26.1319 106.662 28.3841 107.8 29.99C109.01 31.6841 111.01 32.3695 112.989 32.9277C114.969 33.4859 115.707 30.6461 113.81 30.1075C112.559 29.755 110.979 29.3633 110.313 28.296C110.077 27.9141 109.954 27.5028 110.128 27.1307C110.262 26.8271 110.969 26.4452 111.4 26.2102C114.682 24.3791 117.973 22.5577 121.255 20.7364C122.968 19.7865 121.419 17.2601 119.707 18.21V18.2002Z" fill="#9E93FB"/>
<path d="M106.813 15.2405C106.875 15.1348 106.946 15.0292 107.018 14.9331L106.782 15.2213C106.885 15.106 106.987 15.0003 107.11 14.9139L106.803 15.1348C106.957 15.0291 107.11 14.9427 107.285 14.8658L106.916 15.01C107.141 14.9235 107.367 14.8658 107.602 14.837L107.192 14.8851C107.469 14.8562 107.746 14.8562 108.023 14.8851L107.613 14.837C107.91 14.8754 108.197 14.9427 108.474 15.0484L108.105 14.9043C108.34 15.0003 108.566 15.1156 108.781 15.2597L108.474 15.0388C108.648 15.1637 108.802 15.3077 108.945 15.4711L108.709 15.1829C108.812 15.3078 108.894 15.4519 108.966 15.596L108.812 15.2501C108.884 15.4038 108.925 15.5575 108.955 15.7208L108.904 15.3366C108.904 15.4134 108.925 15.4903 108.925 15.5671C108.945 16.3165 109.622 17.037 110.462 16.9985C111.303 16.9601 112.02 16.3645 112 15.5671C111.928 12.81 108.474 11.3114 105.942 12.3105C105.204 12.5987 104.558 13.1078 104.189 13.7803C103.82 14.4528 103.984 15.3654 104.743 15.74C105.45 16.0859 106.454 15.9322 106.844 15.2213L106.813 15.2405Z" fill="#9E93FB"/>
<path d="M128.851 25.4459C128.912 25.3151 128.983 25.1944 129.064 25.0838L128.83 25.3856C128.942 25.2447 129.064 25.1341 129.196 25.0234L128.891 25.2548C129.044 25.1441 129.206 25.0435 129.378 24.9731L129.013 25.124C129.206 25.0435 129.409 24.9932 129.612 24.963L129.206 25.0134C129.399 24.9932 129.581 24.9932 129.774 25.0134L129.368 24.963C129.541 24.9832 129.713 25.0335 129.866 25.1039L129.5 24.953C129.642 25.0134 129.785 25.0938 129.906 25.1944L129.602 24.963C129.724 25.0636 129.835 25.1743 129.937 25.295L129.703 24.9932C129.815 25.1441 129.916 25.3051 129.987 25.4761L129.835 25.114C129.916 25.3051 129.967 25.4962 129.998 25.6974L129.947 25.295C129.967 25.4862 129.967 25.6672 129.947 25.8584L129.998 25.456C129.977 25.627 129.927 25.7879 129.866 25.9489L130.018 25.5868C129.988 25.6471 129.967 25.6974 129.937 25.7578C129.744 26.1098 129.673 26.5223 129.784 26.9146C129.886 27.2667 130.15 27.6389 130.485 27.8099C131.195 28.1821 132.16 28.0111 132.566 27.2667C132.941 26.5927 133.073 25.8483 132.962 25.0838C132.85 24.3193 132.535 23.6654 132.028 23.0819C131.581 22.5689 130.891 22.1766 130.221 22.0659C129.784 21.9955 129.429 21.9754 128.993 22.0357C128.556 22.0961 128.211 22.2067 127.805 22.3878C127.135 22.6896 126.516 23.263 126.201 23.9269C126.029 24.2991 125.937 24.6713 126.049 25.0838C126.15 25.4359 126.414 25.8081 126.749 25.9791C127.105 26.1601 127.531 26.2507 127.927 26.13C128.282 26.0193 128.678 25.7879 128.84 25.4359L128.851 25.4459Z" fill="#9E93FB"/>
<path d="M117.27 40.0812C117.358 39.9677 117.251 40.1001 117.212 40.1379C117.144 40.2041 117.076 40.2798 116.998 40.346C116.998 40.346 116.716 40.5729 116.804 40.5162C116.891 40.4594 116.668 40.6013 116.648 40.6107C116.24 40.8566 116.182 40.885 115.686 41.0174C115.19 41.1498 115.132 41.1592 114.627 41.1687C114.422 41.1687 114.209 41.1687 114.004 41.1592C113.975 41.1592 113.703 41.1309 113.81 41.1498C113.927 41.1592 113.538 41.1025 113.548 41.1025C111.516 40.7053 109.805 39.4003 108.192 38.2088C107.56 37.7454 106.559 38.1142 106.199 38.7194C105.762 39.4476 106.092 40.1852 106.724 40.6486C108.795 42.1711 110.972 43.6463 113.625 43.9489C115.997 44.2231 118.349 43.3909 119.788 41.528C120.254 40.9133 119.895 39.9488 119.263 39.5989C118.524 39.1828 117.737 39.4949 117.27 40.1095V40.0812Z" fill="#9E93FB"/>
<path d="M97.9187 26.6923C94.5443 32.2511 95.7314 40.4627 100.611 44.5735C101.209 45.0798 102.013 45.2013 102.592 44.5735C103.078 44.047 103.191 42.9433 102.592 42.4371C98.6477 39.116 97.5821 32.7573 100.33 28.2212C101.321 26.5911 98.8908 25.0723 97.9093 26.6923H97.9187Z" fill="#9E93FB"/>
<path d="M143.269 23.2711C141.944 22.5542 141.316 21.7392 141.286 20.2466C141.256 18.9013 141.436 17.5757 141.227 16.2402C141.027 14.9931 140.499 13.6477 139.543 12.7738C138.586 11.8998 137.45 11.7329 136.244 11.5856C133.355 11.2517 130.455 10.6135 128.233 8.6397C126.011 6.66593 124.975 3.9164 124.397 1.08832C124.268 0.440222 123.58 0.0376068 122.952 0.00814758C116.914 -0.247165 111.892 5.59558 105.844 3.81821C104.001 3.27812 103.203 6.10621 105.047 6.64629C108.285 7.5988 111.384 6.86234 114.393 5.58577C117.143 4.42705 119.863 2.80679 122.952 2.94427L121.507 1.86409C122.125 4.92784 123.331 7.92285 125.583 10.201C127.835 12.4792 131.003 13.8147 134.192 14.2762C135.108 14.4039 136.603 14.2762 137.4 14.8359C138.307 15.4742 138.357 17.0552 138.347 18.0273C138.327 19.4218 138.148 20.8554 138.556 22.2204C139.054 23.8505 140.26 24.9994 141.755 25.8046C143.438 26.7178 144.953 24.1843 143.259 23.2711H143.269Z" fill="#9E93FB"/>
<path d="M7.54758 69.2877C3.60902 70.0565 0.571565 73.3091 0.0653244 77.1433C-0.471291 81.2139 2.36368 84.8115 6.16048 86.2703C9.95729 87.729 14.7565 87.0095 17.561 84.0329C20.3656 81.0562 20.7807 77.025 18.6545 73.6639C17.5205 71.8602 15.8094 70.4803 13.7945 69.6721C11.7797 68.8639 9.65353 68.8441 7.53744 69.2975C6.73758 69.4651 6.27179 70.3719 6.47429 71.1111C6.69703 71.9095 7.53737 72.3136 8.34735 72.1362C9.71421 71.8405 10.8988 71.8208 12.2859 72.2545C12.458 72.3037 12.62 72.3629 12.782 72.4319C12.944 72.5009 12.7923 72.4319 12.7619 72.4319C12.853 72.4713 12.944 72.5107 13.0352 72.56C13.3895 72.7276 13.7338 72.9247 14.0679 73.1416C14.1287 73.181 14.1895 73.2204 14.2502 73.2697C14.4527 73.4077 14.0983 73.1514 14.3008 73.2992C14.4324 73.3978 14.564 73.5062 14.6956 73.6245C14.9893 73.8808 15.2627 74.1469 15.5158 74.4426C15.5664 74.4919 15.6069 74.551 15.6576 74.6102C15.8094 74.7974 15.5461 74.4525 15.6878 74.6496C15.7891 74.7876 15.8802 74.9157 15.9714 75.0537C16.1637 75.3494 16.3359 75.6549 16.4877 75.9703C16.589 76.1872 16.4169 75.7831 16.508 75.9999C16.5384 76.0689 16.5586 76.128 16.589 76.197C16.6598 76.3744 16.7105 76.542 16.7713 76.7194C16.8219 76.8771 16.8523 77.0348 16.8928 77.1925C16.9029 77.2615 16.9232 77.3305 16.9333 77.3995C17.0346 77.8135 16.9332 77.2418 16.9535 77.4882C16.9939 77.8332 17.0041 78.1782 16.994 78.533C16.994 78.6119 16.9535 79.0061 16.9737 78.8977C16.9737 78.8188 16.913 79.2427 16.8928 79.3314C16.7004 80.1495 16.5485 80.4846 16.0929 81.1745C15.7284 81.7166 15.1615 82.3376 14.6451 82.7318C14.4932 82.8501 14.0577 83.1162 13.7844 83.2641C13.6224 83.3528 13.4503 83.4316 13.2781 83.5105C13.2579 83.5105 13.0149 83.6189 13.187 83.5499C13.0858 83.5893 12.9846 83.6287 12.8834 83.6583C11.4052 84.1511 9.85603 84.2201 8.42843 83.9047C6.83884 83.5598 5.64403 82.8994 4.55055 81.7462C4.26705 81.4505 4.13548 81.2928 3.96335 81.0464C3.86211 80.8985 3.76083 80.7408 3.67983 80.5831C3.62921 80.4944 3.57857 80.4057 3.53807 80.317C3.51782 80.2776 3.38626 79.9917 3.47738 80.1889C3.34576 79.8735 3.24446 79.5383 3.17359 79.2131C3.15334 79.1145 3.09264 78.7498 3.10277 78.8386C3.12302 79.0061 3.10276 78.7104 3.09263 78.6808C3.09263 78.5823 3.08249 78.4936 3.07237 78.395C3.07237 78.1782 3.07237 77.9613 3.07237 77.7543C3.07237 77.6755 3.15339 77.1728 3.10277 77.4389C3.17364 77.0348 3.27482 76.6406 3.40644 76.2562C3.42669 76.1872 3.45713 76.1182 3.47738 76.0492C3.63938 75.6254 3.41667 76.1675 3.51792 75.9309C3.60905 75.7338 3.71022 75.5367 3.82159 75.3494C3.92284 75.1818 4.02415 75.0143 4.13552 74.8467C4.18614 74.7678 4.45947 74.4032 4.33797 74.551C4.60121 74.2258 4.90495 73.9202 5.21882 73.6344C5.32007 73.5457 5.60356 73.319 5.59343 73.319C5.62381 73.2993 5.93766 73.0923 6.07941 73.0036C6.87927 72.5206 7.40578 72.3333 8.37776 72.1461C9.17762 71.9884 9.64341 71.0619 9.44091 70.3325C9.20804 69.5243 8.37783 69.1497 7.56785 69.3074L7.54758 69.2877Z" fill="#9E93FB"/>
<path d="M33.5476 72.2877C29.609 73.0565 26.5716 76.3091 26.0653 80.1432C25.5287 84.2139 28.3636 87.8115 32.1604 89.2703C35.9572 90.729 40.7564 90.0095 43.561 87.0329C46.3655 84.0562 46.7807 80.0249 44.6545 76.6639C43.5205 74.8602 41.8094 73.4803 39.7945 72.6721C37.7797 71.8639 35.6536 71.8441 33.5375 72.2975C32.7376 72.4651 32.2718 73.3719 32.4743 74.1111C32.6971 74.9095 33.5374 75.3136 34.3474 75.1362C35.7142 74.8405 36.8989 74.8208 38.286 75.2545C38.4581 75.3037 38.6201 75.3629 38.7821 75.4319C38.9441 75.5009 38.7922 75.4319 38.7618 75.4319C38.8529 75.4713 38.9441 75.5107 39.0352 75.56C39.3896 75.7276 39.7338 75.9247 40.0679 76.1415C40.1287 76.181 40.1895 76.2204 40.2502 76.2697C40.4527 76.4077 40.0983 76.1514 40.3008 76.2992C40.4324 76.3978 40.564 76.5062 40.6957 76.6245C40.9893 76.8807 41.2627 77.1469 41.5158 77.4426C41.5665 77.4919 41.6069 77.551 41.6575 77.6101C41.8094 77.7974 41.5461 77.4524 41.6879 77.6496C41.7891 77.7875 41.8803 77.9157 41.9714 78.0537C42.1638 78.3494 42.3359 78.6549 42.4878 78.9703C42.589 79.1872 42.4169 78.783 42.5081 78.9999C42.5384 79.0689 42.5586 79.128 42.589 79.197C42.6599 79.3744 42.7106 79.542 42.7713 79.7194C42.8219 79.8771 42.8523 80.0348 42.8928 80.1925C42.9029 80.2615 42.9231 80.3305 42.9332 80.3995C43.0345 80.8135 42.9332 80.2418 42.9535 80.4882C42.994 80.8332 43.0042 81.1781 42.994 81.533C42.994 81.6118 42.9535 82.0061 42.9738 81.8977C42.9738 81.8188 42.9131 82.2426 42.8928 82.3313C42.7004 83.1494 42.5485 83.4845 42.0929 84.1745C41.7284 84.7166 41.1614 85.3376 40.645 85.7318C40.4931 85.8501 40.0578 86.1162 39.7844 86.2641C39.6224 86.3528 39.4503 86.4316 39.2782 86.5105C39.2579 86.5105 39.015 86.6189 39.1871 86.5499C39.0858 86.5893 38.9845 86.6287 38.8833 86.6583C37.4051 87.1511 35.8561 87.2201 34.4285 86.9047C32.8389 86.5598 31.644 85.8994 30.5506 84.7462C30.2671 84.4505 30.1355 84.2928 29.9634 84.0464C29.8621 83.8985 29.7608 83.7408 29.6798 83.5831C29.6292 83.4944 29.5786 83.4057 29.5381 83.317C29.5178 83.2776 29.3863 82.9917 29.4774 83.1888C29.3458 82.8734 29.2445 82.5383 29.1736 82.2131C29.1533 82.1145 29.0927 81.7498 29.1028 81.8385C29.123 82.0061 29.1028 81.7104 29.0926 81.6808C29.0926 81.5823 29.0825 81.4936 29.0724 81.395C29.0724 81.1782 29.0724 80.9613 29.0724 80.7543C29.0724 80.6755 29.1534 80.1728 29.1028 80.4389C29.1737 80.0348 29.2748 79.6406 29.4065 79.2562C29.4267 79.1872 29.4571 79.1182 29.4774 79.0492C29.6394 78.6254 29.4166 79.1675 29.5178 78.9309C29.6089 78.7338 29.7102 78.5366 29.8216 78.3494C29.9229 78.1818 30.024 78.0143 30.1354 77.8467C30.186 77.7678 30.4595 77.4031 30.338 77.551C30.6012 77.2257 30.905 76.9202 31.2188 76.6343C31.3201 76.5456 31.6036 76.3189 31.5935 76.3189C31.6238 76.2992 31.9377 76.0923 32.0794 76.0036C32.8793 75.5206 33.4058 75.3333 34.3778 75.146C35.1776 74.9883 35.6434 74.0618 35.4409 73.3324C35.2081 72.5242 34.3777 72.1497 33.5677 72.3074L33.5476 72.2877Z" fill="#9E93FB"/>
<path d="M58.5476 74.2877C54.609 75.0565 51.5716 78.3091 51.0653 82.1432C50.5287 86.2139 53.3637 89.8115 57.1605 91.2703C60.9573 92.729 65.7564 92.0095 68.561 89.0328C71.3655 86.0562 71.7807 82.025 69.6545 78.6639C68.5206 76.8602 66.8094 75.4803 64.7946 74.6721C62.7798 73.8638 60.6535 73.8442 58.5374 74.2976C57.7376 74.4651 57.2719 75.3719 57.4744 76.1111C57.6971 76.9095 58.5375 77.3136 59.3474 77.1362C60.7143 76.8405 61.8989 76.8208 63.286 77.2545C63.4581 77.3038 63.6201 77.3629 63.7821 77.4319C63.9441 77.5009 63.7922 77.4319 63.7618 77.4319C63.853 77.4713 63.9441 77.5107 64.0352 77.56C64.3896 77.7276 64.7339 77.9247 65.068 78.1415C65.1287 78.181 65.1894 78.2204 65.2501 78.2697C65.4526 78.4077 65.0983 78.1514 65.3008 78.2992C65.4324 78.3978 65.5641 78.5062 65.6957 78.6245C65.9893 78.8808 66.2626 79.1469 66.5157 79.4426C66.5664 79.4919 66.6069 79.551 66.6575 79.6101C66.8094 79.7974 66.5462 79.4524 66.6879 79.6496C66.7892 79.7876 66.8803 79.9157 66.9714 80.0537C67.1638 80.3494 67.3359 80.6549 67.4878 80.9703C67.5891 81.1872 67.417 80.783 67.5081 80.9999C67.5385 81.0689 67.5587 81.128 67.589 81.197C67.6599 81.3744 67.7105 81.542 67.7712 81.7194C67.8218 81.8771 67.8523 82.0348 67.8928 82.1925C67.903 82.2615 67.9231 82.3305 67.9332 82.3995C68.0345 82.8135 67.9333 82.2418 67.9535 82.4882C67.994 82.8332 68.0042 83.1782 67.994 83.533C67.994 83.6118 67.9535 84.0061 67.9738 83.8977C67.9738 83.8188 67.9131 84.2426 67.8928 84.3314C67.7005 85.1494 67.5485 85.4845 67.0929 86.1745C66.7284 86.7166 66.1614 87.3375 65.645 87.7318C65.4932 87.8501 65.0578 88.1162 64.7844 88.264C64.6225 88.3528 64.4503 88.4316 64.2782 88.5105C64.258 88.5105 64.015 88.6189 64.1871 88.5499C64.0859 88.5893 63.9846 88.6287 63.8833 88.6583C62.4051 89.1511 60.856 89.2201 59.4284 88.9047C57.8388 88.5597 56.6441 87.8994 55.5507 86.7462C55.2672 86.4505 55.1356 86.2928 54.9635 86.0464C54.8622 85.8985 54.7609 85.7408 54.6799 85.5831C54.6293 85.4944 54.5787 85.4057 54.5382 85.317C54.5179 85.2776 54.3864 84.9917 54.4775 85.1889C54.3459 84.8735 54.2446 84.5383 54.1737 84.2131C54.1535 84.1145 54.0926 83.7498 54.1028 83.8385C54.123 84.0061 54.1029 83.7104 54.0927 83.6808C54.0927 83.5823 54.0826 83.4935 54.0725 83.395C54.0725 83.1781 54.0725 82.9613 54.0725 82.7543C54.0725 82.6755 54.1534 82.1728 54.1028 82.4389C54.1736 82.0348 54.2749 81.6406 54.4066 81.2562C54.4268 81.1872 54.4572 81.1182 54.4775 81.0492C54.6395 80.6253 54.4167 81.1674 54.5179 80.9309C54.609 80.7338 54.7103 80.5366 54.8217 80.3494C54.9229 80.1818 55.0241 80.0142 55.1355 79.8467C55.1861 79.7678 55.4596 79.4031 55.3381 79.551C55.6013 79.2257 55.9051 78.9202 56.2189 78.6344C56.3202 78.5457 56.6037 78.3189 56.5935 78.3189C56.6239 78.2992 56.9378 78.0922 57.0795 78.0035C57.8794 77.5206 58.4059 77.3333 59.3779 77.146C60.1777 76.9883 60.6434 76.0618 60.4409 75.3325C60.208 74.5242 59.3778 74.1497 58.5678 74.3074L58.5476 74.2877Z" fill="#9E93FB"/>
<path d="M7.74999 77.9249C7.52442 77.7616 7.96575 78.1597 8.00498 78.2107C8.13247 78.3536 8.25014 78.4965 8.35802 78.6496C8.64243 79.017 8.91703 79.3946 9.22106 79.7416C9.8291 80.4357 10.6039 81.0481 11.5453 80.997C13.1733 80.9154 14.4777 79.1089 15.4682 77.9556C16.9687 76.2205 18.4594 74.4854 19.9305 72.73C20.7347 71.7706 21.5584 70.8418 22.441 69.9641C23.3237 69.0864 24.1084 68.2596 24.7556 67.239C25.7952 65.5958 23.2452 64.0649 22.2155 65.6979C21.6957 66.5348 20.9602 67.2084 20.2737 67.8922C19.5186 68.6475 18.8223 69.4334 18.126 70.2396C16.6549 71.9645 15.2329 73.7098 13.7226 75.3938C13.399 75.7612 11.2904 78.2413 11.1139 78.027C11.0747 77.9862 11.565 77.976 11.6239 77.976C11.8592 77.976 11.6042 77.8943 11.663 77.976C11.4375 77.68 11.1432 77.4146 10.9177 77.1186C10.3881 76.445 9.90754 75.7816 9.21124 75.2815C8.56397 74.812 7.57352 75.1591 7.20085 75.8327C6.76934 76.5879 7.07328 77.4452 7.73035 77.9147L7.74999 77.9249Z" fill="#9E93FB"/>
</g>
<defs>
<clipPath id="clip0_450_96">
<rect width="149" height="96" fill="white"/>
</clipPath>
</defs>
</svg>
