<svg width="303" height="149" viewBox="0 0 303 149" fill="none" xmlns="http://www.w3.org/2000/svg">
<g clip-path="url(#clip0_777_4920)">
<path d="M38.0867 144C26.1838 144 15.957 139.802 9.01196 131.805C-0.763256 120.557 -2.80061 104.213 3.95373 91.1403C12.0128 75.5447 28.4821 72.1942 33.3396 71.5461C43.6969 70.16 53.1911 73.1315 69.6203 82.9137C70.2225 83.2727 70.8146 83.6317 71.3967 83.9807C70.9451 80.4607 69.8913 76.6914 67.854 72.9521C58.5705 55.8607 36.7519 54.9433 36.5311 54.9333L37.0429 35C38.4079 35.0299 70.6541 36.1168 85.5176 63.479C92.4626 76.2627 92.3823 88.9565 90.9471 97.7017C92.8942 99.2872 94.6405 100.773 96.2663 102.159C102.067 107.095 106.252 110.665 114.622 114.753C125.351 119.998 136.441 125.423 143.968 121.664C152.118 117.595 154.707 103.715 154.938 96.9438L175 97.6219C174.819 102.867 172.923 129.521 152.991 139.483C136.541 147.709 119.47 139.363 105.761 132.652C95.3028 127.537 89.5321 122.691 83.5204 117.585C78.0708 126.699 68.0446 138.476 51.3445 142.395C46.7579 143.472 42.3119 144 38.0767 144H38.0867ZM37.9763 91.1802C37.2637 91.1802 36.6315 91.2401 36.0293 91.3198C34.3031 91.5492 25.5214 93.0748 21.8081 100.254C18.8474 105.988 19.851 113.776 24.1967 118.772C30.389 125.901 42.0209 124.087 46.7278 122.98C57.9483 120.347 64.4216 111.143 67.5228 105.21C65.104 103.585 62.3842 101.86 59.3031 100.025C46.8583 92.6161 41.489 91.1702 37.9763 91.1702V91.1802Z" fill="#2F2E45"/>
<path d="M138.085 56.9901L118 56.6716C118.121 49.0688 120.139 29.8131 136.147 15.1947C147.395 4.91508 159.597 0.188234 172.432 1.1137C196.976 2.89498 209.138 24.7679 210.443 27.2557C214.26 34.53 216.178 42.8692 215.987 51.3576L195.912 50.9098C196.032 45.7551 194.897 40.7496 192.628 36.4307C192.316 35.8436 184.885 21.9715 170.975 20.9665C161.415 20.2699 154.305 25.6933 149.775 29.8331C139.19 39.4957 138.156 53.0693 138.096 57L138.085 56.9901Z" fill="#2F2E45"/>
<path d="M35.415 35.2818C34.6244 35.1631 34.0872 34.6586 33.4487 34.2234C33.0635 33.9663 32.577 33.7783 32.2628 33.442C31.6546 32.7793 31.3303 31.7309 30.7728 30.999C29.445 29.2582 27.3874 26.9041 24.9143 27.003C22.4411 27.1019 21.8938 29.4461 22.654 31.355C23.3331 33.0563 24.5392 34.4114 25.4008 36.0038L26.313 33.8278C26.0394 33.897 25.9785 33.8871 26.1407 33.8673C25.867 33.9069 25.5832 33.9267 25.3096 33.9564C24.4886 34.0355 23.6574 34.0948 22.8364 34.174C20.7788 34.3619 18.7111 34.5795 16.6738 34.9455C14.1297 35.4004 8.33202 36.8643 10.4605 40.5932C11.312 42.0867 12.954 42.2846 14.525 42.0472C16.5826 41.7406 18.63 41.5328 20.7079 41.3647C22.6438 41.2163 22.6844 38.4666 20.7079 38.3974C18.7314 38.3282 16.8765 39.3074 15.123 40.0492C13.3695 40.791 11.0586 41.6219 10.9977 43.7979C10.9369 45.9739 13.3594 46.6168 15.1433 46.4981C17.5455 46.33 19.6436 44.9848 22.0053 44.7474L21.5998 41.8296C19.9274 42.4527 18.2347 42.9868 16.6333 43.7781C15.0318 44.5694 12.8526 45.9046 12.9337 47.9719C13.0249 50.4644 15.792 51.2754 17.8901 50.86C19.0659 50.6226 20.1707 50.1281 21.2654 49.6632C22.0357 49.3368 23.0898 48.7829 23.8095 48.7631L23.0391 45.9937C21.316 46.7553 19.4815 47.8136 18.2044 49.1983C16.6941 50.8303 16.3191 53.4416 18.6604 54.5988C20.8599 55.6967 23.4344 54.2922 25.4008 53.3624C26.9921 52.6107 28.6037 51.8689 30.2964 51.3348C31.9891 50.8007 33.7325 51.1073 35.5366 51.226C37.4929 51.3546 37.4827 48.3873 35.5366 48.2587C34.2494 48.1697 32.952 47.9422 31.6648 48.0411C30.3775 48.14 29.0294 48.595 27.7827 49.0895C25.6339 49.9303 23.5764 51.2557 21.3363 51.859C21.0018 51.948 20.0592 52.1261 19.9578 51.9085C19.9984 51.9975 20.0491 51.7106 20.1403 51.5623C20.3126 51.2853 20.5964 51.0479 20.8397 50.8303C21.9039 49.8709 23.2621 49.139 24.5798 48.5554C25.9785 47.9323 25.2488 45.7464 23.8095 45.786C22.1168 45.8354 20.5761 46.7751 19.0456 47.3784C18.3462 47.6553 17.5354 48.0015 16.765 48.0312C16.5218 48.0312 16.3596 47.9719 16.1467 47.9521C16.1062 47.9521 15.8325 47.5861 15.9643 47.9323C15.9339 47.8433 16.3394 47.4377 16.684 47.1806C17.3428 46.6959 18.1232 46.3399 18.8733 46.0036C20.0288 45.4892 21.235 45.1233 22.4107 44.6881C23.8703 44.1441 23.85 41.5922 22.0053 41.7702C20.4646 41.9285 19.076 42.3934 17.6165 42.878C16.9272 43.1055 16.2279 43.3528 15.5082 43.4616C15.1433 43.5209 14.7277 43.5704 14.3527 43.5308C14.2007 43.5308 14.0588 43.511 13.927 43.4616C13.6736 43.3429 13.704 43.511 14.0182 43.9561C13.9372 43.9265 15.2649 43.1747 15.3663 43.1352C15.9238 42.8879 16.4914 42.6703 17.0489 42.423C18.1739 41.9285 19.4409 41.3053 20.6978 41.3449V38.3776C18.6706 38.5359 16.5927 38.6348 14.596 39.0106C14.2311 39.0799 13.8763 39.1392 13.5115 39.1689C13.5621 39.1689 12.9236 39.0898 13.1465 39.1986C12.954 39.1096 13.1972 38.9018 13.0655 39.2282C13.106 39.1096 13.0655 39.2579 12.9945 39.3173C13.0857 39.2381 13.1567 39.1293 13.2682 39.0601C13.1263 39.1491 13.7953 38.7733 13.9878 38.6842C14.6365 38.3974 15.7413 38.1303 16.5826 37.9523C18.6402 37.5171 20.7383 37.2995 22.8263 37.1116C24.225 36.983 25.7555 37.0028 27.1137 36.6566C28.0969 36.3994 28.4719 35.3114 28.026 34.4806C27.3671 33.2541 26.4448 32.176 25.7961 30.9297C25.6441 30.633 25.5021 30.3462 25.4008 30.0297C25.3805 29.9604 25.269 29.7329 25.3096 29.7626C24.7724 29.367 25.5427 29.7923 25.2488 29.7131C25.269 29.7131 24.9346 30.0099 24.9143 29.9604C24.8636 29.8121 25.1271 29.9209 25.1575 29.9406C25.4515 30.1483 25.8671 30.2473 26.1813 30.4747C27.6104 31.5232 28.5733 32.987 29.4045 34.4905C29.8808 35.351 30.4789 35.8752 31.3303 36.3797C32.3945 37.0226 33.327 37.9029 34.6042 38.0908C36.5198 38.3776 37.3408 35.5191 35.415 35.2323V35.2818Z" fill="#9E93FB"/>
<path d="M159.715 95.4238C159.467 92.3934 158.444 89.4749 158.186 86.4546C158.155 86.1394 158.155 85.8343 158.134 85.5191C158.134 85.4276 158.196 85.1327 158.134 85.4479C158.145 85.3767 158.196 85.2649 158.196 85.2038C158.196 85.0208 158.227 85.1022 158.165 85.2344C158.207 85.1428 158.258 85.0615 158.31 84.9801C158.052 85.1937 158.403 84.8073 158.31 84.9801C158.393 84.9089 158.475 84.8174 158.558 84.7462C158.289 84.9903 158.682 84.6852 158.785 84.6242C158.878 84.5734 158.971 84.5327 159.064 84.492C158.992 84.5225 158.785 84.5734 159.054 84.5123C159.498 84.4107 159.921 84.2785 160.365 84.2073C160.427 84.1971 160.665 84.1768 160.365 84.2073C160.458 84.1971 160.551 84.1869 160.644 84.1768C160.882 84.1564 161.109 84.1361 161.347 84.1259C161.781 84.0954 162.204 84.0852 162.638 84.0751C163.289 84.0547 163.95 84.0141 164.6 84.0344C164.766 84.0344 164.931 84.0446 165.096 84.0649C165.179 84.0649 165.685 84.1259 165.478 84.0954C165.272 84.0649 165.788 84.1463 165.871 84.1666C166.067 84.2073 166.263 84.2479 166.449 84.309C166.542 84.3395 166.635 84.37 166.728 84.4005C166.945 84.4717 166.418 84.2174 166.718 84.4005C166.79 84.4412 167.193 84.6954 166.997 84.5428C166.79 84.3903 167.028 84.5734 167.048 84.614C167.028 84.5937 166.852 84.309 166.966 84.5123C167.079 84.7157 166.924 84.4107 166.924 84.3903C166.986 84.6954 166.914 84.0446 166.924 84.3496C166.935 84.6751 166.986 84.0954 166.924 84.2988C166.832 84.614 166.966 84.2785 166.894 84.4005C166.832 84.5123 166.77 84.614 166.697 84.7157C166.842 84.5124 166.594 84.8072 166.553 84.8479C166.594 84.8072 166.78 84.7056 166.511 84.8784C166.387 84.9598 166.243 85.0411 166.108 85.1022C166.305 85.0106 166.067 85.1225 166.036 85.1327C165.881 85.1937 165.726 85.2343 165.561 85.275C164.569 85.5394 163.485 85.5496 162.297 85.5496C160.303 85.5496 160.303 88.6003 162.297 88.6003C164.828 88.6003 168.154 88.4885 169.538 86.0072C170.168 84.8683 170.22 83.4954 169.28 82.4989C168.588 81.7667 167.555 81.4108 166.584 81.2277C164.776 80.9023 162.886 80.9837 161.068 81.1159C158.795 81.2786 156.151 81.848 155.273 84.2073C154.674 85.8242 155.201 87.8783 155.521 89.5054C155.903 91.4884 156.44 93.451 156.606 95.4746C156.678 96.2983 157.267 97 158.155 97C158.94 97 159.777 96.2983 159.704 95.4746L159.715 95.4238Z" fill="#9E93FB"/>
<path d="M159.214 82.4464C159.342 79.459 157.974 76.7682 157.541 73.8728C157.315 72.3689 157.118 70.8343 156.99 69.3201C156.951 68.7881 156.734 67.2227 157.275 66.8237C158.368 66.0155 158.949 69.2996 159.018 69.8214C159.165 70.9263 159.205 72.0415 159.382 73.1465C159.638 74.6709 160.12 76.1339 160.494 77.6276C160.809 78.8656 162.59 79.1725 163.191 77.9959C164.598 75.2233 165.1 72.0108 165.661 68.962C165.77 68.3584 165.858 67.7138 166.154 67.1818C166.429 66.6805 166.842 66.527 167.207 66.1587C167.394 65.9745 167.463 66.2405 167.256 66.0769C167.049 65.9132 167.167 66.0973 167.157 66.1485C167.148 66.4042 167.295 66.7828 167.315 67.059C167.344 67.4478 167.344 67.8468 167.335 68.2356C167.246 71.3765 166.213 74.4253 166.587 77.5867C166.833 79.6636 167.758 83.3979 170.11 83.9401C171.488 84.2573 172.689 83.2751 173.024 81.9246C173.27 80.9425 172.984 79.684 173.299 78.8758L171.478 79.9501C171.803 80.0933 172.098 81.2392 172.246 81.5665C172.581 82.2929 173.063 82.9682 173.752 83.3774C175.612 84.4824 177.709 83.2751 177.965 81.1368C178.221 78.9986 177.059 77.1672 175.366 76.1953C173.565 75.162 171.439 75.2745 169.451 75.2847C167.463 75.295 167.551 78.3643 169.451 78.354C170.74 78.354 172.148 78.2006 173.388 78.6303C173.88 78.8042 174.343 79.0804 174.667 79.5101C174.992 79.9398 174.913 80.2672 175.051 80.7174C175.061 80.7583 174.874 81.2187 175.15 80.7685C175.504 80.1956 175.228 80.9118 175.228 80.7174C175.228 80.5025 174.726 79.8273 174.628 79.592C174.106 78.3745 173.486 77.4946 172.266 76.9626C171.469 76.625 170.711 77.3411 170.445 78.0369C170.1 78.9372 170.307 79.9296 170.199 80.8708C170.199 80.8913 170.12 81.2801 170.12 81.2698C169.943 81.1675 170.917 80.7481 170.878 80.9731C170.898 80.8708 170.287 80.0114 170.219 79.8375C168.988 77.0547 169.589 74.1798 169.992 71.2844C170.307 69.0029 171.045 64.8696 168.703 63.427C166.36 61.9845 163.929 64.491 163.191 66.5679C162.659 68.0719 162.482 69.7805 162.167 71.3458C161.813 73.0851 161.449 74.8448 160.642 76.4306L163.338 76.7989C162.886 74.9983 162.275 73.2181 162.108 71.356C162.01 70.1999 161.921 69.0438 161.655 67.9082C161.075 65.4221 158.89 62.6392 156.124 63.959C153.358 65.2788 153.968 69.2075 154.293 71.7039C154.529 73.5352 154.736 75.3359 155.228 77.1161C155.72 78.8963 156.311 80.5946 156.232 82.4362C156.153 84.4108 159.106 84.4108 159.185 82.4362L159.214 82.4464Z" fill="#9E93FB"/>
<path d="M172.582 82.4784C172.593 83.561 172.745 84.6539 172.723 85.7365C172.701 86.8192 172.408 87.8405 172.115 88.8721C171.821 89.9037 171.517 90.9863 171.083 92.0179C170.648 93.0495 170.214 93.9993 170.029 95.0615C169.888 95.8786 170.257 96.7059 171.17 96.951C171.952 97.1553 173.027 96.7059 173.179 95.8786C173.375 94.7347 173.885 93.6827 174.331 92.6103C174.776 91.5378 175.037 90.5165 175.341 89.4543C175.656 88.3104 175.949 87.1562 175.993 85.9714C176.036 84.7867 175.873 83.6428 175.862 82.4784C175.841 80.5072 172.582 80.5072 172.604 82.4784H172.582Z" fill="#9E93FB"/>
<path d="M212.337 56.4073C213.667 59.958 215.4 63.4986 215.884 67.2886C215.975 68.0067 216.025 68.8445 215.864 69.3931C215.773 69.7222 215.763 69.5427 215.723 69.7122C215.773 69.5227 215.622 69.7821 215.803 69.6624C215.753 69.7023 215.592 69.8319 215.259 69.7222C214.433 69.4529 213.929 68.0766 213.627 67.3784C213.184 66.3511 212.891 65.264 212.478 64.2167C212.105 63.2792 210.755 62.601 209.949 63.5585C208.962 64.7354 208.67 66.401 208.327 67.8472C207.833 69.8918 207.39 71.9563 206.664 73.9411C206.372 74.749 206.01 75.6067 205.486 76.2949C205.355 76.4644 205.052 76.7636 204.992 76.8135C204.921 76.8634 204.639 77.013 204.69 76.993C204.77 76.9631 204.277 77.0429 204.508 77.0329C204.287 77.0329 204.226 77.0329 204.166 77.003C204.015 76.9631 204.276 77.1327 204.196 77.003C204.145 76.9332 204.004 76.624 203.934 76.255C203.742 75.2975 203.843 74.2503 203.934 73.2828C204.156 71.1285 204.669 68.9742 205.284 66.8997C205.758 65.2939 203.339 64.2367 202.523 65.7427C201.657 67.3485 200.992 69.054 200.095 70.6398C199.41 71.8466 198.271 74.0807 196.629 74.0707C196.851 74.0707 196.73 74.0907 196.74 74.1106C196.669 73.9511 196.619 73.6319 196.599 73.3826C196.538 72.5348 196.699 71.6671 196.881 70.8393C197.223 69.2036 197.798 67.6277 198.15 65.9921C198.563 64.107 195.853 63.369 195.238 65.1942C194.805 66.4907 193.596 68.3758 192.548 69.6624C191.964 70.3805 191.329 71.0487 190.503 71.4876C190.301 71.5973 190.291 71.4975 190.281 71.5873C190.281 71.5275 190.553 71.9663 190.553 71.9663C190.483 71.9264 190.503 71.9663 190.533 71.7369C190.876 68.306 193.667 65.244 194.442 61.8131C194.644 60.9354 194.009 59.8483 192.981 59.9181C192.498 59.958 192.044 60.0378 191.591 60.1874C191.168 60.317 190.603 60.6861 190.17 60.6661C189.848 60.6561 189.979 60.7459 190.09 60.3968C190.231 59.9779 190.493 59.569 190.745 59.2099C192.065 57.3748 194.17 56.1879 195.732 54.5722C197.072 53.1759 194.936 51.0614 193.596 52.4578C191.389 54.7517 188.034 56.4772 187.127 59.7485C186.724 61.2147 187.289 62.6808 188.669 63.3789C190.281 64.1968 191.44 63.0199 192.981 62.9102L191.52 61.0152C191.057 63.0598 189.656 65.1642 188.81 67.169C188.064 68.9243 186.674 71.8067 188.064 73.5721C189.868 75.856 192.931 73.7416 194.332 72.1757C195.903 70.4204 197.395 68.2262 198.15 65.9821L195.238 65.1842C194.614 68.0466 191.269 75.6665 195.873 76.9332C198.463 77.6413 200.589 75.3873 201.878 73.4823C203.168 71.5773 204.014 69.3033 205.143 67.2288L202.382 66.0718C201.727 68.286 201.244 70.56 200.972 72.844C200.72 74.9285 200.478 78.14 202.543 79.4665C204.498 80.7332 206.785 79.5563 208.005 77.9006C209.385 76.0156 210.02 73.602 210.594 71.3778C210.917 70.1112 211.199 68.8246 211.521 67.5579C211.642 67.0892 211.773 66.6204 211.924 66.1616C211.985 65.9621 212.095 65.6729 212.055 65.8026C212.105 65.6629 212.408 65.2839 212.116 65.633L209.586 64.9747C210.413 67.0792 210.927 69.3831 212.428 71.1584C213.778 72.7442 216.297 73.3925 217.909 71.7668C219.209 70.4503 219.088 68.3658 218.846 66.6902C218.544 64.5858 217.909 62.5412 217.194 60.5464C216.599 58.8708 215.884 57.2451 215.259 55.5795C214.584 53.7942 211.662 54.5622 212.347 56.3774L212.337 56.4073Z" fill="#9E93FB"/>
<path d="M135.231 62.1594C136.472 65.6007 138.62 69.7666 138.019 73.5501C137.94 74.0532 137.684 75.0192 137.142 75.2104C136.6 75.4016 136.177 74.7777 135.911 74.3551C135.024 72.9464 134.876 71.0345 134.581 69.4245C134.285 67.8145 131.635 68.1466 131.675 69.827C131.714 71.5074 131.34 73.3086 131.054 74.9891C130.591 77.6456 130.059 80.4027 129.025 82.8982C128.67 83.7535 128.246 84.4981 127.744 85.0314C127.764 85.0113 127.685 84.9509 127.586 85.122C127.626 85.0616 127.862 85.0515 127.685 85.0717C128.118 85.0113 127.399 85.0415 127.774 85.0918C127.892 85.1119 127.892 85.3031 127.734 84.9711C127.448 84.3774 127.389 83.0692 127.389 82.1737C127.389 80.7146 127.527 79.2656 127.695 77.8166C128 75.2004 128.66 72.5741 128.798 69.9377C128.887 68.2271 126.306 67.9051 125.892 69.5352C125.202 72.2722 124.71 75.0595 123.961 77.7764C123.597 79.0845 123.193 80.3926 122.611 81.6202C122.336 82.2139 122.03 82.8076 121.666 83.351C121.577 83.4818 120.947 84.1258 120.947 84.1661C120.937 84.0956 121.518 84.3774 121.567 84.1761C121.597 84.0453 121.331 83.4717 121.311 83.3309C121.222 82.7774 121.291 82.1737 121.39 81.6303C121.616 80.3624 122.079 79.1348 122.483 77.9072C123.39 75.1802 124.069 72.1112 123.932 69.2233C123.863 67.8447 121.843 67.0095 121.173 68.4585C120.336 70.2697 119.764 72.1716 119.095 74.0432C118.76 74.979 118.385 75.9148 117.903 76.7902C117.676 77.2028 117.439 77.6053 117.154 77.9776C117.016 78.1587 116.454 78.5612 116.395 78.7524C116.346 78.7826 116.287 78.8229 116.228 78.8531C116.1 78.9134 116.198 78.9738 116.533 79.0141C116.504 78.7222 116.366 78.4103 116.346 78.0883C116.287 77.0317 116.573 75.9852 116.858 74.979C117.449 72.8961 118.218 70.9137 118.375 68.7302C118.484 67.1202 116.376 66.8384 115.617 67.9654C115.312 68.4283 114.947 68.8912 114.494 69.2132C114.267 69.3742 113.804 69.4346 113.666 69.5453C113.775 69.4547 113.992 69.7666 114.001 69.7566C113.942 69.827 113.923 69.6358 113.952 69.5654C114.189 68.9616 114.189 68.2673 114.494 67.6334C115.784 64.9769 118.632 63.4977 120.365 61.1632C121.518 59.6136 118.947 58.1042 117.814 59.6438C116.543 61.3544 114.661 62.4713 113.292 64.0914C111.923 65.7114 110.78 67.8648 111.036 69.988C111.223 71.5276 112.396 72.6244 113.932 72.5539C115.775 72.4634 117.203 70.9339 118.168 69.4849L115.41 68.7201C115.213 71.5477 113.735 74.1036 113.44 76.9211C113.223 78.9436 113.745 81.9322 116.307 81.8617C118.582 81.8014 120.099 79.1449 120.947 77.3135C122.04 74.9387 122.631 72.3527 123.725 69.9779L120.966 69.2132C121.144 72.8961 119.745 76.2267 118.799 79.6882C118.218 81.8215 117.745 87.1345 121.153 87.1345C123.902 87.1345 125.399 82.8277 126.138 80.7347C127.33 77.3638 127.862 73.7916 128.739 70.3301L125.833 69.9276C125.784 70.7729 125.606 71.6684 125.429 72.7753C125.173 74.4457 124.917 76.1261 124.729 77.8066C124.424 80.453 123.803 84.1761 125.242 86.6012C126.68 89.0262 129.498 87.9596 130.778 85.9672C132.335 83.5321 132.985 80.4027 133.556 77.5952C134.059 75.1098 134.699 72.3627 134.62 69.8069L131.714 70.2094C132.138 72.5237 132.463 75.0897 134.108 76.8909C135.753 78.6921 138.186 78.7122 139.704 76.8305C141.299 74.8582 141.132 72.0911 140.718 69.7163C140.216 66.8183 139.053 64.0914 138.058 61.3443C137.408 59.5331 134.551 60.3179 135.211 62.1493L135.231 62.1594Z" fill="#9E93FB"/>
<path d="M194.549 142L186 123.924C193.297 120.487 198.993 116.03 202.937 110.684C204.549 108.496 205.459 106.758 206.5 104.739C208.272 101.332 210.284 97.4648 215.119 92.4887C218.543 88.9715 225.66 81.6372 237.481 78.9693C243.538 77.6104 249.764 77.6803 256 79.1792L251.305 98.604C248.082 97.8246 244.919 97.7746 241.896 98.4641C235.89 99.813 232.046 103.78 229.504 106.398C226.711 109.266 225.75 111.124 224.288 113.942C223.097 116.24 221.616 119.088 219.063 122.545C213.127 130.589 204.879 137.134 194.549 142Z" fill="#2F2E45"/>
<path d="M258.42 83.2255C259.327 83.365 260.244 83.1289 261.152 83.2577L260.774 83.204C261.029 83.247 261.285 83.3221 261.521 83.4293L261.181 83.2684C261.37 83.365 261.549 83.483 261.719 83.6332L261.436 83.3864C261.493 83.4293 261.54 83.483 261.587 83.5366C262.136 84.1052 263.062 84.2018 263.592 83.5366C264.093 82.9251 264.178 81.863 263.592 81.2622C262.76 80.4039 261.757 80.0391 260.642 80.0069C259.904 79.9855 259.157 80.1249 258.42 80.0069C258.089 79.9533 257.644 80.2215 257.417 80.479C257.172 80.7579 256.982 81.2192 257.001 81.6162C257.02 82.0132 257.134 82.4638 257.417 82.7534L257.701 83.0002C257.918 83.1504 258.164 83.2148 258.42 83.2148V83.2255Z" fill="#9E93FB"/>
<path d="M265.697 88.1496C267.133 88.0096 268.89 87.8096 270.245 88.4297C270.446 88.5197 270.637 88.6397 270.797 88.7797C270.797 88.7797 271.179 89.1998 271.109 89.2098C271.008 89.2298 271.109 88.7797 271.109 88.7597C271.109 88.5797 271.229 88.7597 271.119 88.6697C271.119 88.6697 270.968 88.7297 270.898 88.7497C270.566 88.8498 270.356 88.8597 269.984 88.8597C268.639 88.8597 268.046 90.49 268.92 91.4202C269.261 91.7903 269.703 92.0703 270.125 92.3403C270.335 92.4704 270.556 92.5904 270.747 92.7504C270.667 92.6904 270.878 92.8604 270.858 92.8504C271.068 92.9304 270.858 93.0004 270.918 92.8804C270.888 92.9404 270.968 92.3503 270.998 92.4004C270.948 92.3203 271.279 92.4604 270.988 92.4004C270.908 92.3803 270.717 92.4804 270.637 92.4904C270.366 92.5404 269.823 92.5404 269.432 92.5204C267.816 92.4604 267.555 94.5107 268.669 95.3208C268.85 95.4509 268.97 95.6109 269.071 95.7909C269.101 95.8409 269.06 95.961 269.101 95.8909C269.181 95.7509 269 95.9209 269.081 95.8909C269.181 95.8609 269 95.9509 268.93 95.9709C268.689 96.061 268.448 96.071 268.197 96.091C267.474 96.171 266.942 96.331 266.48 96.9311C266.099 97.4212 265.838 98.4314 265.547 98.7014C265.235 98.9815 264.242 99.0615 263.719 98.9815C262.806 98.8614 261.942 98.4214 261.139 98.0013C259.553 97.1612 257.716 96.361 256.521 94.9908C255.246 93.5305 253.118 95.6609 254.393 97.1111C255.246 98.0813 256.36 98.7814 257.475 99.4115C258.519 100.002 259.573 100.612 260.667 101.112C262.886 102.112 266.43 102.732 268.057 100.352C268.277 100.022 268.438 99.5615 268.569 99.2715C268.639 99.1215 268.87 98.8814 268.88 98.7314C268.86 99.0315 267.655 99.0315 268.137 99.1015C269.141 99.2515 270.506 98.7114 271.209 98.0113C272.946 96.301 271.861 93.9406 270.175 92.7204L269.412 95.5209C271.159 95.5809 273.357 95.2308 273.799 93.2205C274.02 92.2203 273.578 91.2602 272.835 90.6C272.273 90.11 271.41 89.6899 271.018 89.2798L269.954 91.8403C271.129 91.8403 272.514 91.5702 273.347 90.6701C274.442 89.4799 274.04 87.8696 273.026 86.7694C271.239 84.8191 268.087 84.8791 265.657 85.1191C264.844 85.1991 264.151 85.7492 264.151 86.6194C264.151 87.3695 264.844 88.1996 265.657 88.1196L265.697 88.1496Z" fill="#9E93FB"/>
<path d="M270.911 86.5372C271.531 76.466 273.062 66.496 273.992 56.4552C274.167 54.5099 271.26 54.52 271.085 56.4552C270.164 66.496 268.624 76.466 268.003 86.5372C267.887 88.4927 270.794 88.4825 270.911 86.5372Z" fill="#9E93FB"/>
<path d="M265.816 55.493C264.494 64.8488 262.864 74.1649 262.007 83.5705C261.828 85.4815 265.001 85.4715 265.181 83.5705C266.049 74.1649 267.678 64.8389 268.99 55.493C269.106 54.6868 268.175 54.01 267.403 54C266.451 54 265.933 54.6967 265.816 55.493Z" fill="#9E93FB"/>
<path d="M262.216 85.4743C262.887 86.6266 263.94 87.4935 265.179 87.8447C266.749 88.2727 268.463 87.8118 269.558 86.5169C270.095 85.8804 270.198 84.8159 269.558 84.1904C268.969 83.6088 267.947 83.51 267.369 84.1904C267.245 84.3331 267.121 84.4538 266.986 84.5745L267.296 84.3221C267.1 84.4867 266.883 84.6184 266.656 84.7281L267.028 84.5635C266.811 84.6623 266.584 84.7281 266.346 84.761L266.759 84.7062C266.491 84.7391 266.233 84.7391 265.975 84.7062L266.388 84.761C266.098 84.7172 265.82 84.6294 265.541 84.5196L265.913 84.6842C265.644 84.5635 265.396 84.4099 265.169 84.2233L265.479 84.4757C265.262 84.2892 265.066 84.0807 264.89 83.8502L265.128 84.1794C265.045 84.0587 264.963 83.938 264.89 83.8173C264.467 83.0821 263.486 82.7419 262.773 83.2247C262.061 83.7076 261.761 84.6952 262.216 85.4743Z" fill="#9E93FB"/>
<path d="M184.87 126.021C183.086 125.84 181.283 126.875 179.899 127.891C178.235 129.107 176.751 130.545 175.526 132.204C174.519 133.562 173.234 135.914 174.579 137.453C175.286 138.267 176.542 138.549 177.568 138.267C178.454 138.026 179.042 137.091 179.919 136.95L178.464 134.426C176.88 135.784 174.539 138.8 175.844 140.972C176.631 142.269 178.155 142.299 179.361 141.625C180.297 141.092 181.074 140.097 181.891 139.665L179.699 137.965C179.899 137.463 179.59 138.146 179.53 138.257C179.381 138.539 179.231 138.82 179.082 139.102C178.703 139.826 178.345 140.559 178.036 141.324C177.508 142.621 177.09 144.34 178.205 145.456C179.51 146.763 181.214 145.828 182.309 144.782C182.897 144.219 183.405 143.586 183.903 142.942C184.142 142.631 184.381 142.319 184.621 141.997C184.71 141.877 184.85 141.736 184.919 141.595C184.81 141.776 184.919 141.595 184.979 141.515L182.479 140.047C182.15 141.173 181.293 142.711 180.855 144.179C180.357 145.828 180.227 148.11 182.2 148.804C184.342 149.568 186.623 147.95 188.047 146.482C189.741 144.732 190.946 142.59 192.59 140.801C193.895 139.373 191.783 137.242 190.478 138.669C189.173 140.097 188.107 141.816 186.842 143.335C186.234 144.058 185.587 144.802 184.81 145.345C184.511 145.557 184.202 145.738 183.853 145.848C183.764 145.878 183.505 145.939 183.445 145.949C183.365 145.949 183.276 145.959 183.196 145.949C183.076 145.949 183.086 145.949 183.236 145.959L183.116 145.929C183.226 145.949 183.316 145.999 183.395 146.079C183.435 146.12 183.664 146.431 183.535 146.321C183.375 146.18 183.515 146.23 183.515 146.22C183.505 146.099 183.515 145.979 183.525 145.868C183.505 146.14 183.555 145.697 183.575 145.647C183.614 145.476 183.654 145.315 183.704 145.144C183.804 144.792 183.923 144.441 184.053 144.099C184.441 143.043 185.049 141.977 185.378 140.841C185.776 139.474 183.843 138.177 182.877 139.373C182.25 140.157 181.672 140.982 181.024 141.746C180.686 142.138 180.297 142.601 179.909 142.902C179.829 142.962 179.69 143.013 179.63 143.083C179.47 143.264 179.54 143.043 179.59 143.103C179.62 143.143 180.078 143.133 180.168 143.184C180.257 143.234 180.556 143.656 180.476 143.556C180.486 143.566 180.467 143.556 180.486 143.475C180.556 143.244 180.596 143.003 180.676 142.771C180.845 142.269 181.064 141.796 181.303 141.324C181.732 140.469 182.24 139.645 182.588 138.75C183.106 137.433 181.443 136.497 180.397 137.05C179.779 137.372 179.261 137.915 178.733 138.368C178.464 138.589 178.106 138.77 177.867 139.011C177.707 139.162 177.717 139.011 177.787 139.071C177.926 139.071 178.056 139.102 178.185 139.182C178.335 139.252 178.424 139.373 178.424 139.534C178.614 139.725 178.434 139.624 178.464 139.584C178.524 139.484 178.544 139.293 178.594 139.172C178.753 138.78 179.002 138.418 179.241 138.076C179.63 137.523 180.078 136.99 180.586 136.558C181.094 136.125 181.134 135.271 180.815 134.728C180.457 134.105 179.789 133.934 179.132 134.034C178.355 134.155 177.827 134.597 177.229 135.05C177.129 135.13 177.03 135.2 176.92 135.281C176.751 135.391 176.781 135.462 176.86 135.351C176.86 135.351 176.671 135.351 176.671 135.331C177.109 135.643 177.229 135.824 177.01 135.884C176.97 135.894 176.98 135.864 177.03 135.774C177.169 135.623 177.229 135.18 177.329 134.969C177.428 134.758 177.548 134.567 177.667 134.376C177.986 133.873 178.355 133.421 178.753 132.978C180.168 131.38 182.698 128.806 184.889 129.037C185.696 129.118 186.384 128.283 186.384 127.529C186.384 126.644 185.696 126.101 184.889 126.021H184.87Z" fill="#9E93FB"/>
<path d="M300.826 37.2909C303.027 31.1295 303.844 24.3222 301.916 17.9819C300.312 12.7248 296.931 8.22303 292.399 5.04296C283.084 -1.50601 270.085 -1.52589 260.336 4.10881C254.745 7.33857 249.669 12.5459 247.317 18.5384C244.966 24.5309 244.229 30.8115 245.925 36.8636C248.882 47.3777 258.782 54.4037 269.5 55.7652C281.399 57.2658 292.763 51.472 298.798 41.3356C299.575 40.0337 300.251 38.6921 300.816 37.2909C301.543 35.5121 298.616 34.7369 297.9 36.4959C293.923 46.2945 284.053 53.0422 273.275 53.0223C263.697 53.0124 254.109 47.9442 249.992 39.2288C247.751 34.4885 247.549 29.0326 248.75 23.9942C249.497 20.834 250.648 17.9322 252.525 15.2689C254.271 12.8043 256.39 10.5584 258.802 8.70998C266.906 2.4989 278.432 1.05793 287.656 5.69885C292.006 7.88515 295.578 11.3037 297.748 15.6266C300.211 20.5657 300.463 26.3097 299.313 31.6264C298.959 33.2761 298.475 34.8959 297.9 36.486C297.254 38.2946 300.181 39.0797 300.816 37.281L300.826 37.2909Z" fill="#9E93FB"/>
<path d="M296.25 34.6045C298.015 29.5831 298.673 24.0347 297.148 18.8641C295.862 14.5287 293.12 10.8199 289.451 8.18484C281.954 2.7955 271.456 2.73584 263.551 7.28993C258.935 9.95477 254.758 14.2901 252.834 19.2917C251.009 24.0247 250.371 29.3047 251.727 34.2466C254.12 42.9172 262.165 48.6944 270.878 49.808C280.539 51.041 289.75 46.2483 294.635 37.9058C295.253 36.8518 295.792 35.758 296.25 34.6145C296.968 32.8346 294.077 32.059 293.369 33.819C290.209 41.7041 282.363 47.0637 273.849 47.0239C266.302 46.994 258.775 42.9371 255.525 35.9867C253.751 32.1883 253.611 27.8132 254.558 23.7861C255.157 21.2505 256.064 18.9337 257.559 16.7959C258.925 14.8469 260.58 13.0671 262.464 11.6054C268.874 6.59389 278.046 5.43051 285.344 9.17919C288.753 10.9292 291.545 13.6239 293.25 17.0544C295.204 20.992 295.413 25.5958 294.506 29.8416C294.217 31.1939 293.828 32.5164 293.369 33.819C292.731 35.6387 295.622 36.4142 296.25 34.6145V34.6045Z" fill="#9E93FB"/>
<path d="M278.715 12.0022C276.853 12.0224 275.001 11.9016 273.168 12.3042C272.518 12.4551 272.114 13.1194 272.084 13.7635C271.799 19.6915 272.331 25.6095 272.331 31.5374C272.331 33.2786 274.715 33.5302 275.237 31.94C275.671 30.5914 276.685 29.4742 277.188 28.1356C277.739 26.6662 278.104 25.1364 278.636 23.6569C279.749 20.5671 280.183 17.3767 280.951 14.1963C281.404 12.3142 278.557 11.5091 278.104 13.3911C277.336 16.5715 276.902 19.762 275.789 22.8518C275.257 24.3212 274.941 25.8812 274.34 27.3305C273.789 28.659 272.843 29.7359 272.39 31.1349L275.296 31.5374C275.296 25.6095 274.764 19.6915 275.05 13.7635L273.966 15.2229C275.523 14.8706 277.148 15.0417 278.725 15.0216C280.626 15.0015 280.626 11.9821 278.725 12.0022H278.715Z" fill="#9E93FB"/>
<path d="M269.677 36.4038C269.005 37.3949 268.824 38.6945 269.176 39.7978C269.346 40.3495 269.687 40.9291 270.188 41.3031C270.562 41.5743 270.913 41.7706 271.393 41.8922C271.745 41.9857 272.129 42.0231 272.491 41.9857C272.928 41.9483 273.333 41.8828 273.749 41.7426C274.229 41.5649 274.687 41.3779 275.124 41.1161C275.924 40.6299 276.585 40.0129 276.872 39.1807C276.979 38.8722 277.022 38.5262 276.99 38.2083C276.936 37.7315 276.819 37.3856 276.595 36.9555C276.286 36.3758 275.71 35.8989 275.113 35.553C273.568 34.6554 271.361 34.8518 270.156 36.1327C269.879 36.4319 269.687 36.7311 269.687 37.1238C269.687 37.4697 269.858 37.8811 270.156 38.1148C270.455 38.3486 270.86 38.5449 271.286 38.5262C271.681 38.5075 272.15 38.3953 272.416 38.1148C272.544 37.9839 272.672 37.8624 272.832 37.7596L272.512 37.9746C272.651 37.8811 272.8 37.8063 272.96 37.7409L272.576 37.8811C272.747 37.8157 272.928 37.7783 273.109 37.7502L272.683 37.797C272.875 37.7783 273.056 37.7783 273.248 37.797L272.821 37.7502C273.035 37.7783 273.227 37.825 273.429 37.8998L273.045 37.7596C273.269 37.8437 273.472 37.9466 273.664 38.0775L273.344 37.8624C273.514 37.984 273.674 38.1148 273.802 38.2644L273.557 37.9839C273.685 38.1242 273.792 38.2738 273.866 38.4421L273.706 38.1055C273.781 38.2551 273.824 38.4047 273.845 38.5636L273.792 38.1896C273.813 38.3205 273.813 38.4514 273.792 38.5917L273.845 38.2177C273.824 38.3579 273.781 38.4888 273.717 38.6197L273.877 38.2831C273.802 38.4234 273.717 38.5543 273.61 38.6758L273.856 38.3953C273.717 38.5543 273.546 38.6852 273.365 38.8161L273.685 38.601C273.322 38.8441 272.928 39.0498 272.512 39.1994L272.896 39.0592C272.651 39.1527 272.395 39.2181 272.129 39.2462L272.555 39.1994C272.384 39.2181 272.225 39.2181 272.054 39.1994L272.48 39.2462C272.352 39.2275 272.224 39.1994 272.107 39.162L272.491 39.3023C272.374 39.2555 272.267 39.2088 272.171 39.1433L272.491 39.3584C272.384 39.2836 272.299 39.2088 272.214 39.1153L272.459 39.3958C272.352 39.2742 272.267 39.134 272.193 38.9937L272.352 39.3303C272.256 39.134 272.203 38.9283 272.171 38.7132L272.224 39.0872C272.182 38.8067 272.182 38.5169 272.224 38.2364L272.171 38.6104C272.214 38.3392 272.288 38.0681 272.416 37.8157L272.256 38.1522C272.31 38.04 272.374 37.9372 272.438 37.8344C272.651 37.5258 272.704 37.1051 272.598 36.7498C272.491 36.4225 272.214 36.0672 271.862 35.9083C271.489 35.74 271.041 35.6465 270.625 35.7681C270.21 35.8896 269.89 36.0953 269.666 36.4132L269.677 36.4038Z" fill="#9E93FB"/>
</g>
<defs>
<clipPath id="clip0_777_4920">
<rect width="303" height="149" fill="white"/>
</clipPath>
</defs>
</svg>
