<svg width="123" height="138" viewBox="0 0 123 138" fill="none" xmlns="http://www.w3.org/2000/svg">
<g clip-path="url(#clip0_450_95)">
<path d="M91.141 102.99C86.8073 102.99 82.4139 102.225 78.2595 100.655C67.1514 96.4328 62.5587 87.9183 58.8627 81.0828C55.605 75.0621 53.0346 70.3031 46.4893 66.9052C42.9327 65.0672 37.553 62.8019 31.8246 64.4413C30.2007 64.9082 21.9817 67.6007 20.2383 74.8733C18.5546 81.8677 24.0141 87.9183 24.0738 87.9878L9.41908 101.45C3.54124 95.0915 -2.22701 83.0997 0.861344 70.2435C5.07546 52.6978 21.4139 46.7466 26.3253 45.3358C35.6303 42.6731 45.503 43.9945 55.6747 49.2701C67.6695 55.4896 72.7204 64.8287 76.4065 71.6543C79.6344 77.6254 81.3678 80.5662 85.3628 82.0863C90.5133 84.0435 97.1981 83.0897 100.257 79.9502C104.122 75.986 104.55 66.4581 98.563 57.3773L115.21 46.4684C125.85 62.6032 125.561 82.5234 114.523 93.8198C108.705 99.771 100.047 103 91.141 103V102.99Z" fill="#2F2E45"/>
<path d="M68.4487 12.4319C67.0833 14.1449 65.7178 15.8579 64.3524 17.5709L62.3947 20.0364C61.7521 20.8484 60.969 21.6504 60.4871 22.5614C59.5233 24.3635 60.0353 26.4231 61.6216 27.7103C63.3284 29.0966 65.5271 29.0966 67.6254 28.9183C68.4386 28.849 69.1314 28.2846 69.1314 27.4331C69.1314 26.6805 68.4386 25.8785 67.6254 25.9478C66.3704 26.0567 64.6536 26.334 63.5894 25.4824C63.2882 25.2349 62.9468 24.819 62.9569 24.4625C62.977 23.8585 63.6597 23.2248 64.0111 22.7792C66.1998 20.0265 68.3884 17.2837 70.5771 14.5311C71.0791 13.8973 71.1996 13.0458 70.5771 12.4319C70.0551 11.917 68.9507 11.7982 68.4487 12.4319Z" fill="#9E93FB"/>
<path d="M56.0293 13.5196C56.0293 13.5196 56.0293 13.4501 56.0394 13.4204L55.989 13.8174C56.0192 13.6487 56.0596 13.4799 56.1301 13.3211L55.9789 13.6784C56.0394 13.5494 56.11 13.4402 56.1806 13.3211C56.2915 13.1524 55.9487 13.5891 56.0394 13.4998C56.0696 13.47 56.0898 13.4402 56.1201 13.4104C56.1705 13.3608 56.2209 13.3112 56.2713 13.2715C56.2915 13.2516 56.3217 13.2318 56.3419 13.2119C56.4326 13.1226 55.989 13.4601 56.1604 13.341C56.2209 13.3013 56.2713 13.2615 56.3318 13.2218C56.4629 13.1424 56.5939 13.073 56.7351 13.0233L56.3721 13.1722C56.6443 13.063 56.9267 12.9935 57.219 12.9538L56.8157 13.0035C57.088 12.9737 57.3602 12.9737 57.6425 13.0035L57.2392 12.9538C57.4913 12.9836 57.7332 13.0531 57.9651 13.1424L57.6022 12.9935C57.7131 13.0432 57.824 13.1027 57.9248 13.1623C58.0559 13.2516 58.1466 13.4005 57.8038 13.063C57.8442 13.1027 57.8845 13.1325 57.9248 13.1722C57.9651 13.2119 57.9954 13.2516 58.0357 13.2814C58.2475 13.4998 57.8341 12.9737 57.945 13.1623C58.0156 13.2715 58.0761 13.3807 58.1365 13.4899L57.9853 13.1325L58.0055 13.1821C58.1668 13.5593 58.3281 13.8571 58.7012 14.0755C59.0238 14.2641 59.5078 14.3435 59.8707 14.2244C60.2337 14.1053 60.5866 13.8869 60.7781 13.5395C60.9697 13.1921 61.0806 12.7553 60.9294 12.388C60.7277 11.9314 60.5664 11.6138 60.2337 11.2267C60.0119 10.9785 59.7397 10.7701 59.4573 10.5914C58.8726 10.2241 58.197 10.0752 57.5215 10.0157C56.2814 9.9065 54.9203 10.373 54.0431 11.2366C53.4079 11.862 53.0953 12.6461 53.0046 13.5097C52.9643 13.867 53.1962 14.3237 53.4482 14.5619C53.7104 14.82 54.1439 15.0185 54.517 14.9986C54.89 14.9788 55.3135 14.8597 55.5857 14.5619C55.868 14.2542 55.989 13.9266 56.0293 13.5097V13.5196Z" fill="#9E93FB"/>
<path d="M78.9362 15.2535C78.9362 15.1972 78.9362 15.1503 78.9559 15.094L78.9067 15.4693C78.9362 15.3098 78.9756 15.1597 79.0445 15.0096L78.8969 15.3474C78.9658 15.1972 79.0544 15.0659 79.1528 14.9345L78.9264 15.216C79.0445 15.0753 79.1725 14.9439 79.3202 14.8313L79.0248 15.0471C79.1922 14.9251 79.3596 14.8313 79.5565 14.7469L79.2021 14.8876C79.3596 14.8313 79.5171 14.7844 79.6845 14.7656L79.2907 14.8125C79.4383 14.7938 79.586 14.7938 79.7337 14.8125L79.3399 14.7656C79.5073 14.7844 79.6648 14.8313 79.8223 14.8876L79.4679 14.7469C79.6353 14.8219 79.7928 14.9064 79.9503 15.019L79.6549 14.8032C79.8026 14.9158 79.9306 15.0471 80.0488 15.1879L79.8223 14.9064C79.9306 15.0471 80.0291 15.2066 80.098 15.3661L79.9503 15.0284C80.0094 15.1785 80.0586 15.3286 80.0882 15.4881L80.0389 15.1128C80.0586 15.2723 80.0586 15.4318 80.0389 15.5913C79.9995 15.9291 80.2358 16.3607 80.4721 16.5859C80.7281 16.8298 81.1515 17.0175 81.5157 16.9987C81.88 16.9799 82.2935 16.8673 82.5594 16.5859L82.7858 16.3044C82.9237 16.0886 82.9827 15.8446 82.9827 15.5913C83.091 14.7 82.6775 13.8274 82.0966 13.1518C81.5158 12.4763 80.6001 12.0728 79.6746 12.0071C78.7492 11.9415 77.8335 12.3355 77.1443 12.9173C76.4552 13.499 76.0613 14.3716 76.0023 15.2535C75.953 15.9854 76.7111 16.6891 77.4791 16.6609C78.316 16.6234 78.9067 16.0417 78.9559 15.2535H78.9362Z" fill="#9E93FB"/>
<path d="M74.0896 33.1394C74.0698 33.2323 73.9115 33.6866 73.9808 33.5214C73.8917 33.7176 73.7927 33.8931 73.6838 34.0686C73.6541 34.1203 73.5452 34.2648 73.6442 34.1409C73.5848 34.2235 73.5155 34.3061 73.4462 34.3784C73.3076 34.5333 73.1591 34.6778 73.0008 34.8224C73.1195 34.7191 72.9711 34.843 72.9315 34.874C72.8424 34.9359 72.7632 34.9979 72.6741 35.0598C72.4959 35.1734 72.3078 35.2767 72.1296 35.3799C72.0901 35.4006 71.9119 35.4935 72.0505 35.4315C71.9515 35.4728 71.8525 35.5141 71.7535 35.5451C71.5258 35.6277 71.2981 35.7 71.0705 35.7516C69.1105 36.2369 66.8535 35.5245 64.8836 34.9359C64.1115 34.7088 63.2701 35.2147 63.0523 36.0201C62.8345 36.8254 63.3195 37.6928 64.0917 37.9302C66.6852 38.6943 69.4866 39.4584 72.1593 38.6633C74.3668 38.0025 76.3367 36.3402 76.9505 33.9654C77.1583 33.16 76.6931 32.2824 75.9111 32.0552C75.129 31.8281 74.2975 32.3237 74.0798 33.1394H74.0896Z" fill="#9E93FB"/>
<path d="M47.255 27.1014C45.9238 33.8165 49.9363 40.9732 56.2279 42.9305C57.9995 43.4826 58.7656 40.5817 56.994 40.0297C52.225 38.5441 49.0361 32.9131 50.0225 27.9044C50.1757 27.1115 49.8022 26.2783 49.017 26.0475C48.3083 25.8467 47.4082 26.2984 47.2454 27.1014H47.255Z" fill="#9E93FB"/>
<path d="M114.194 24.0926C114.748 25.2407 115.573 26.2407 116.281 27.3148C116.485 27.6204 116.786 27.8611 117.155 27.9537C117.524 28.0463 117.971 28 118.281 27.8148C118.592 27.6296 118.864 27.3426 118.951 26.9815C119.039 26.6204 119.019 26.2315 118.806 25.9074C118.097 24.8426 117.272 23.8426 116.718 22.6852C116.573 22.3889 116.165 22.1296 115.845 22.0463C115.495 21.9537 115.029 22 114.718 22.1852C114.408 22.3704 114.136 22.6574 114.049 23.0185L114 23.3889C114 23.6389 114.068 23.8704 114.194 24.0926Z" fill="#9E93FB"/>
<path d="M93.4996 44.405C90.8127 46.4549 88.116 48.5048 85.4291 50.5547C84.8233 51.0167 84.8917 52.1138 85.4291 52.595C86.0739 53.1821 86.8556 53.0858 87.5004 52.595C90.1873 50.5451 92.884 48.4952 95.5709 46.4453C96.1767 45.9833 96.1083 44.8862 95.5709 44.405C94.9261 43.8179 94.1444 43.9142 93.4996 44.405Z" fill="#9E93FB"/>
<path d="M117.452 26.4144C112.11 30.4494 106.777 34.4844 101.435 38.5194C100.797 39.0067 100.916 40.0788 101.435 40.5856C102.063 41.1997 102.91 41.073 103.548 40.5856C108.89 36.5506 114.223 32.5156 119.565 28.4806C120.203 27.9933 120.084 26.9212 119.565 26.4144C118.937 25.8003 118.09 25.927 117.452 26.4144Z" fill="#9E93FB"/>
<path d="M87.5567 41.4428C85.5143 43.1085 83.4624 44.7642 81.4199 46.4299C81.1527 46.6506 81 47.1524 81 47.4935C81 47.8648 81.1527 48.3063 81.4199 48.5572C81.6872 48.808 82.0498 49.0187 82.4316 48.9987C82.842 48.9786 83.1283 48.8181 83.4433 48.5572C85.4857 46.8915 87.5376 45.2358 89.5801 43.5701C89.8473 43.3494 90 42.8476 90 42.5065C90 42.1352 89.8473 41.6937 89.5801 41.4428C89.3128 41.192 88.9502 40.9813 88.5684 41.0013C88.158 41.0214 87.8717 41.1819 87.5567 41.4428Z" fill="#9E93FB"/>
<path d="M113.472 21.4287C107.123 26.4345 100.774 31.4403 94.4346 36.4361C93.7927 36.9397 93.9211 38.0375 94.4346 38.5713C95.0566 39.2159 95.8959 39.0649 96.5279 38.5713C102.877 33.5655 109.226 28.5597 115.565 23.5639C116.207 23.0603 116.079 21.9625 115.565 21.4287C114.943 20.7841 114.104 20.9351 113.472 21.4287Z" fill="#9E93FB"/>
<path d="M81.4016 46.4112C80.5523 47.2733 80.0083 48.4062 79.4166 49.4589C79.1208 49.9802 78.8058 50.4915 78.4623 50.9827C78.4336 51.0328 78.1187 51.4639 78.3096 51.2033C78.2332 51.3035 78.1569 51.4038 78.071 51.514C77.8515 51.7847 77.632 52.0554 77.403 52.306C76.6681 53.1181 76.9735 54.5116 78.0328 54.8224C79.4643 55.2434 80.9054 54.8525 82.251 54.3111C83.4535 53.8299 84.675 53.5191 85.9443 53.2885C86.6887 53.1582 87.1658 52.1557 86.9463 51.4338C86.6886 50.6017 85.9824 50.2408 85.1808 50.3812C83.9974 50.5917 82.8331 50.8624 81.707 51.3135C81.1726 51.5341 80.6382 51.7446 80.0847 51.885C79.9224 51.9251 79.7602 51.9652 79.5979 51.9852C79.932 51.9251 79.5693 51.9852 79.493 51.9852C79.3307 51.9852 79.1685 51.9852 79.0062 51.9852C79.3594 52.0053 78.8726 51.9451 78.7868 51.915L79.4166 54.4314C80.3041 53.4389 81.0962 52.3361 81.7738 51.1732C82.0506 50.6819 82.3083 50.1807 82.5946 49.6995C82.7282 49.4589 82.8809 49.2283 83.0335 48.9977C83.129 48.8674 83.1194 48.8674 83.0049 49.0278C83.0526 48.9676 83.0908 48.9075 83.1385 48.8573C83.2244 48.7471 83.3198 48.6468 83.4248 48.5466C83.9688 48.0052 83.9879 46.9626 83.4248 46.4212C82.8618 45.8798 81.9742 45.8397 81.4016 46.4212V46.4112Z" fill="#9E93FB"/>
<path d="M84.0458 49.1717C84.2472 49.2255 84.4487 49.2901 84.6309 49.3762L84.2856 49.2147C84.4678 49.3009 84.6309 49.4085 84.7844 49.5378L84.4966 49.2901C84.6309 49.4085 84.746 49.5378 84.8515 49.6885L84.6309 49.3655C84.7748 49.5808 84.8899 49.8285 84.9858 50.0761L84.8419 49.6885C84.9762 50.0546 85.0722 50.4315 85.1681 50.8083C85.264 51.1852 85.5134 51.5728 85.83 51.7774C86.1465 51.982 86.5973 52.0681 86.9427 51.9389C87.288 51.8097 87.6237 51.5728 87.806 51.196C87.9882 50.8191 88.0554 50.3776 87.9499 49.9469C87.8635 49.6024 87.7772 49.247 87.6525 48.9132C87.5086 48.5148 87.3647 48.0949 87.1345 47.7503C86.8276 47.2873 86.511 46.9105 86.0698 46.5982C85.6957 46.3398 85.2544 46.1567 84.8228 46.0491C84.4487 45.9521 84.0554 45.9952 83.7101 46.2106C83.4127 46.4044 83.1249 46.792 83.0482 47.1797C82.9619 47.5888 82.981 48.0518 83.1921 48.4287C83.3935 48.7733 83.6813 49.0747 84.0554 49.1717H84.0458Z" fill="#9E93FB"/>
<path d="M81.5 54C83.5 54 83.5 51 81.5 51C79.5 51 79.5 54 81.5 54Z" fill="#9E93FB"/>
<path d="M81.5 53C83.5 53 83.5 50 81.5 50C79.5 50 79.5 53 81.5 53Z" fill="#9E93FB"/>
<path d="M104.544 30.094C103.033 28.5684 100.863 27.9233 98.8216 27.5547C96.7808 27.1861 94.6799 27.0325 92.609 27.0018C90.7082 26.9711 88.7273 27.3192 87.3867 28.8346C85.636 30.821 85.3259 33.5343 85.1058 36.0839C84.9857 37.5276 84.7356 38.8791 84.3954 40.2921C84.0353 41.8177 83.7752 43.4253 84.2854 44.9406C84.9057 46.8041 87.8069 46.0055 87.1766 44.1215C86.7265 42.7904 87.2267 41.4082 87.5368 40.0976C87.8669 38.7255 87.997 37.333 88.117 35.9303C88.2871 33.9746 88.5572 30.8927 90.6481 30.2578C91.5085 29.9916 92.4589 30.0633 93.3793 30.1043C94.4298 30.1452 95.4802 30.1964 96.5206 30.309C98.4315 30.5138 100.983 30.821 102.423 32.2749C103.864 33.7289 105.925 31.4968 104.544 30.1043V30.094Z" fill="#9E93FB"/>
<path d="M107.212 37.3568C108.612 39.6017 110.093 41.8153 111.224 44.2273C111.574 44.9687 112.635 45.2193 113.275 44.7912C113.996 44.3004 114.186 43.4338 113.815 42.6506C112.685 40.2387 111.204 38.0251 109.803 35.7801C109.373 35.091 108.452 34.7464 107.752 35.2163C107.092 35.6548 106.751 36.6259 107.212 37.3568Z" fill="#9E93FB"/>
<path d="M90.43 51.5986C90.7233 51.5986 91.0166 51.5552 91.3098 51.5117C91.7167 51.4465 92.1518 51.414 92.5492 51.3053C92.4735 51.327 92.2748 51.3488 92.464 51.3162C92.5397 51.3162 92.6249 51.2945 92.7006 51.2836C92.8519 51.2619 93.0128 51.251 93.1641 51.251C93.3061 51.251 93.448 51.251 93.5993 51.2619C93.7602 51.2619 93.2493 51.1641 93.4953 51.251C93.552 51.2727 93.6183 51.3053 93.6845 51.3162C93.8169 51.3379 93.3817 51.1315 93.5899 51.2727C93.6372 51.3053 93.675 51.327 93.7223 51.3596C93.7791 51.3922 93.8264 51.4357 93.8832 51.4791C94.0724 51.6204 93.8832 51.49 93.8169 51.414C93.9872 51.6204 94.2237 51.805 94.413 51.9788C95.0563 52.5655 95.7375 52.9891 96.5795 53C97.3174 53 98.0364 52.2396 97.9986 51.3705C97.9607 50.5014 97.3742 49.7519 96.5795 49.741C96.5322 49.741 96.2673 49.7193 96.5322 49.741C96.7876 49.7736 96.5605 49.7301 96.5038 49.7084C96.2767 49.6541 96.7308 49.8605 96.5984 49.7627C96.5511 49.7193 96.4849 49.6975 96.4376 49.665C96.3808 49.6324 96.3335 49.5889 96.2767 49.5455C96.1821 49.4694 96.1064 49.3282 96.3524 49.6106C96.2673 49.502 96.1537 49.4151 96.0497 49.3282C95.5199 48.8176 94.9711 48.307 94.2805 48.1224C93.5899 47.9377 92.9371 47.992 92.2654 48.0898C91.8491 48.155 91.4328 48.1984 91.0166 48.2962C91.0828 48.2853 91.3098 48.2527 91.1112 48.2853C91.0355 48.2853 90.9598 48.307 90.8841 48.3179C90.7327 48.3396 90.5719 48.3396 90.4205 48.3505C89.6826 48.3505 88.9636 49.0892 89.0014 49.98C89.0393 50.8708 89.6258 51.6204 90.4205 51.6095L90.43 51.5986Z" fill="#9E93FB"/>
<path d="M107.747 44.2164C104.826 45.6836 101.313 44.8897 98.3623 43.9451C97.1189 43.5432 95.9051 43.0407 94.6616 42.6287C93.6156 42.277 92.5004 41.9655 91.5629 41.3525C91.2669 41.1515 91.0103 40.9506 90.9511 40.7395C91.0202 41.0008 90.9708 40.6089 90.9511 40.7295C90.9906 40.4079 91.03 40.3979 91.1781 40.1366C91.4642 39.604 91.9182 39.3729 92.6485 39.192C94.4643 38.7398 96.813 39.2824 98.7176 39.7648C100.839 40.3074 102.902 41.1013 105.033 41.5736C106.889 41.9856 107.688 39.0815 105.823 38.6695C103.553 38.157 101.362 37.3028 99.0926 36.7501C96.6649 36.1572 93.8327 35.5844 91.3952 36.4185C88.9577 37.2526 86.9149 40.217 88.6419 42.6488C89.5004 43.8547 90.9116 44.4677 92.234 44.9701C93.5564 45.4726 94.8689 45.8946 96.1814 46.3669C100.346 47.8843 105.093 48.9093 109.247 46.8191C110.954 45.9549 109.454 43.3522 107.757 44.2164H107.747Z" fill="#9E93FB"/>
<path d="M87.1209 17.6926C87.4211 17.4788 87.7308 17.2956 88.0593 17.1429L87.7214 17.2956C88.0217 17.1632 88.3314 17.0614 88.6505 17.0105L88.2751 17.0614C88.491 17.0309 88.7068 17.0309 88.9226 17.0614L88.5473 17.0105C88.7162 17.041 88.8851 17.0818 89.0446 17.153L88.7068 17.0003C88.8569 17.0716 88.9977 17.153 89.1197 17.265L88.8382 17.0309C88.9602 17.1327 89.0728 17.2548 89.1666 17.3872L88.9508 17.0818C89.054 17.2345 89.1385 17.3872 89.2136 17.5603L89.0728 17.1938C89.1479 17.3974 89.2042 17.601 89.2323 17.8148L89.1854 17.4076C89.2135 17.6417 89.2135 17.8657 89.1854 18.0999L89.2323 17.6926C89.2042 17.9268 89.1479 18.1609 89.0634 18.3747L89.2042 18.0082C89.1291 18.2118 89.0259 18.3951 88.9039 18.5682L89.1197 18.2627C88.9883 18.446 88.8382 18.5987 88.6786 18.7412L88.9602 18.5071C88.7819 18.6598 88.5754 18.782 88.369 18.8736L88.7068 18.7209C88.444 18.8431 88.1719 18.9143 87.881 18.955L88.2564 18.9041C88.1062 18.9245 87.9654 18.9347 87.8153 18.9449C87.4493 18.955 87.0833 19.1078 86.8206 19.3928C86.5766 19.6575 86.3889 20.0953 86.4076 20.472C86.4452 21.2763 87.027 22.0296 87.8153 21.9991C88.9226 21.9584 89.9643 21.5919 90.7995 20.7876C91.4564 20.1564 91.8505 19.2503 91.9632 18.3137C92.0758 17.377 91.935 16.4607 91.4752 15.687C90.9872 14.8725 90.2177 14.2311 89.3168 14.0683C88.6786 13.9563 88.0687 13.9766 87.4493 14.1701C86.8299 14.3635 86.2293 14.6791 85.6944 15.0558C85.3848 15.2696 85.1501 15.5852 85.0469 15.9721C84.9531 16.3386 85 16.8273 85.1877 17.153C85.5818 17.825 86.4546 18.1711 87.1115 17.7028L87.1209 17.6926Z" fill="#9E93FB"/>
<path d="M88.9221 17.0175C89.6287 15.2366 89.9174 13.228 89.987 11.3284C90.0567 9.42868 89.8775 7.23217 88.6634 5.66889C87.2203 3.81867 84.9213 3.99677 82.8612 4.56074C81.7267 4.86746 80.5822 5.34238 79.4078 5.471C78.333 5.57984 77.9349 5.34238 77.5169 4.38264C76.7705 2.69073 76.2132 0.177608 73.9242 0.00940683C71.9636 -0.129112 69.9632 1.29565 68.2514 2.07729C66.0022 3.10629 63.5938 5.16428 61.0162 4.12539C58.6475 3.17555 56.8661 1.19671 54.2387 0.820731C51.88 0.474434 49.9493 1.59248 48.2873 3.15576C46.894 4.46179 45.5305 6.39116 43.4406 6.42084C41.5198 6.45053 41.5198 9.41878 43.4406 9.3891C45.3614 9.35942 47.0731 8.41947 48.5162 7.09365C49.6906 6.01518 50.7654 4.50137 52.298 3.88793C54.2586 3.11618 56.2292 4.77841 57.7917 5.73814C59.9314 7.06397 62.2602 7.89508 64.7582 7.03428C66.9477 6.28233 69.0177 4.97629 71.1077 3.96708C71.8143 3.62079 72.7996 3.00735 73.6057 2.95788C73.9839 2.92819 73.6356 2.97766 73.546 2.90841C73.6156 2.96777 73.7251 3.03703 73.755 3.13597C73.8744 3.55153 74.1829 3.98687 74.3422 4.40243C75.0687 6.30211 75.8648 8.0237 78.1041 8.36011C80.5125 8.7163 82.5826 7.39047 84.8915 7.11344C88.5141 6.67809 86.7625 14.3857 86.0459 16.2062C85.3294 18.0267 88.2255 18.749 88.9221 16.9977V17.0175Z" fill="#9E93FB"/>
<path d="M12.4233 103.569C13.2472 104.532 14.3726 105.204 15.1663 106.207L14.9352 105.906C15.0257 106.017 15.106 106.137 15.1864 106.258C15.3974 106.589 15.7089 106.839 16.0907 106.95C16.4524 107.05 16.9347 107 17.2562 106.799C17.5778 106.599 17.8591 106.288 17.9495 105.896C18.04 105.505 18.0199 105.074 17.7988 104.732C17.3467 104.03 16.774 103.448 16.151 102.916C15.6084 102.445 15.0458 101.993 14.5735 101.441C14.3324 101.161 13.8601 101 13.5085 101C13.1568 101 12.6946 101.161 12.4434 101.441C12.1922 101.722 11.9812 102.104 12.0013 102.505L12.0516 102.906C12.1219 103.157 12.2525 103.378 12.4434 103.569H12.4233Z" fill="#9E93FB"/>
<path d="M24.8806 92.9568C25.8043 93.2348 27.1997 94.0883 28.261 94.7534C29.902 95.7757 31.5136 96.8873 33.0072 98.128C34.1569 99.0809 35.2575 100.083 36.0338 101.374C36.0338 101.384 36.0534 101.523 36.0534 101.503C36.0338 101.791 35.9846 101.81 35.9257 101.969C35.9453 101.92 36.0534 101.939 35.9159 101.939C35.8667 101.939 35.513 101.979 35.3852 101.969C32.339 101.671 29.8922 99.2198 26.9639 98.525C24.8806 98.0288 23.1708 99.6764 21.8344 101.056C19.9379 103.011 17.6778 104.5 15.6633 106.307C13.02 108.679 11.0449 111.666 8.7258 114.336C6.78014 116.589 4.25472 118.366 3.11484 121.215C2.3975 122.991 5.2472 123.765 5.95471 122.009C6.44604 120.778 7.51713 119.805 8.44083 118.892C9.57088 117.77 10.6518 116.649 11.6738 115.408C13.7275 112.907 15.6142 110.257 18.061 108.123C19.2206 107.111 20.4489 106.197 21.6477 105.235C22.6893 104.401 23.5737 103.448 24.5367 102.515C24.9887 102.078 25.4506 101.781 25.9714 101.423C26.1679 101.294 26.109 101.384 26.2367 101.374C26.1974 101.374 25.883 101.324 26.1777 101.374C26.8165 101.493 27.3569 101.81 27.9367 102.088C29.5384 102.862 31.1107 103.696 32.7812 104.312C34.206 104.838 36.0239 105.314 37.439 104.48C38.7459 103.716 39.2962 101.91 38.8442 100.48C38.3627 98.9618 37.0459 97.7211 35.8962 96.6888C34.1667 95.1404 32.2604 93.7608 30.3049 92.5102C28.8702 91.5871 27.3078 90.5549 25.6668 90.0685C23.839 89.5226 23.0627 92.401 24.8806 92.937V92.9568Z" fill="#9E93FB"/>
<path d="M32.6019 94.2538C34.3348 92.8503 35.3981 90.3634 37.3475 89.2798C38.9326 88.4027 41.4728 90.4769 42.7527 91.3127C47.8626 94.6253 53.5237 96.7717 58.7813 99.7953C60.4452 100.755 61.9417 98.0822 60.2679 97.1225C57.0091 95.2444 53.5828 93.7172 50.2255 92.0454C47.646 90.7658 45.3027 89.2179 42.8315 87.7526C40.8328 86.5658 38.3616 85.2862 36.107 86.473C33.8523 87.6597 32.5429 90.415 30.5147 92.0661C29.0182 93.2837 31.1153 95.4611 32.6019 94.2538Z" fill="#9E93FB"/>
<path d="M59.7326 97.2125C57.0274 99.2897 55.2004 102.103 53.5146 105.027C51.6472 108.264 49.6385 111.41 47.8014 114.677C43.794 121.816 38.5854 128.219 35.1534 135.691C34.3459 137.445 36.9502 138.988 37.7678 137.213C41.0787 130.014 46.0954 123.893 49.9615 117.026C51.7583 113.82 53.7468 110.744 55.5638 107.548C57.1182 104.815 58.7131 101.78 61.2569 99.8342C61.913 99.3301 62.236 98.5335 61.8019 97.7671C61.4385 97.1218 60.3787 96.7285 59.7326 97.2226V97.2125Z" fill="#9E93FB"/>
<path d="M38.2192 135.193C32.7691 132.562 26.7338 131.603 21.2131 129.156C15.6925 126.708 10.1012 123.985 5.17597 120.293C3.61162 119.12 2.09773 121.772 3.65199 122.934C8.58727 126.626 14.0978 129.309 19.6891 131.797C25.2804 134.286 31.2553 135.214 36.6952 137.835C38.4412 138.681 39.9854 136.04 38.2192 135.193Z" fill="#9E93FB"/>
<path d="M14.0538 119.888C17.7004 120.683 21.3469 121.715 24.6674 123.444C27.9878 125.172 30.6758 127.559 34.1148 128.925C34.8659 129.219 35.7355 128.601 35.943 127.893C36.1802 127.058 35.6466 126.371 34.9054 126.076C31.5256 124.74 28.7981 122.176 25.5469 120.575C22.2956 118.974 18.5305 117.835 14.8543 117.039C12.9964 116.636 12.1959 119.475 14.0637 119.878L14.0538 119.888Z" fill="#9E93FB"/>
<path d="M19.1018 113.817C22.7132 114.494 26.1323 115.906 29.4604 117.357C32.5457 118.701 36.0154 119.813 38.7164 121.786C39.3739 122.26 40.4057 121.883 40.7901 121.264C41.2554 120.519 40.8913 119.755 40.2438 119.282C38.8175 118.247 37.1788 117.521 35.5501 116.835C33.9215 116.148 32.3029 115.423 30.6844 114.726C27.2147 113.227 23.6539 111.738 19.901 111.032C17.9891 110.674 17.1798 113.469 19.0917 113.827L19.1018 113.817Z" fill="#9E93FB"/>
<path d="M25.476 107.509C27.8464 109.638 30.8871 110.534 33.7627 111.708C35.1421 112.265 36.3759 113.011 37.6194 113.847C39.0183 114.782 40.4755 115.707 42.1562 115.976C42.9334 116.095 43.7203 115.777 43.9534 114.931C44.1477 114.225 43.7203 113.22 42.9334 113.091C41.4373 112.852 40.223 112.026 38.9795 111.19C37.736 110.355 36.4051 109.609 34.9867 109.012C32.49 107.957 29.6145 107.261 27.5355 105.39C26.1269 104.127 24.0576 106.226 25.476 107.499V107.509Z" fill="#9E93FB"/>
<path d="M40.7464 107.561C41.854 108.196 43.0857 108.665 44.1311 109.393L43.8206 109.181C44.0069 109.31 44.1829 109.448 44.3588 109.595C44.6487 109.844 45.0523 110 45.456 110C45.839 110 46.2944 109.853 46.5532 109.595C47.1122 109.052 47.1846 108.178 46.5532 107.644C45.3111 106.585 43.7481 105.996 42.3197 105.186C41.6366 104.8 40.5808 105.039 40.1978 105.683C39.7942 106.364 40.0219 107.156 40.7568 107.57L40.7464 107.561Z" fill="#9E93FB"/>
</g>
<defs>
<clipPath id="clip0_450_95">
<rect width="123" height="138" fill="white"/>
</clipPath>
</defs>
</svg>
